<svg xmlns="http://www.w3.org/2000/svg" width="30" height="30" viewBox="0 0 30 30">
    <g fill="none" fill-rule="evenodd" transform="translate(1 1)">
        <circle cx="14" cy="14" r="14" fill="#4A4A4A" stroke="#4A4A4A"/>
        <path fill="#FFF" d="M13.457 8.828c1.543-1.542 4.114-1.542 5.657 0 1.542 1.543 1.542 4.115 0 5.657l-5.4 5.4a2.918 2.918 0 0 1-4.114 0 2.918 2.918 0 0 1 0-4.114L13.97 11.4a1.8 1.8 0 0 1 2.571 0 1.8 1.8 0 0 1 0 2.571l-3.857 3.857-.771-.771 3.857-3.857c.308-.309.308-.72 0-1.029-.309-.308-.72-.308-1.029 0l-4.37 4.371a1.8 1.8 0 0 0 0 2.572 1.8 1.8 0 0 0 2.57 0l5.4-5.4a2.918 2.918 0 0 0 0-4.114 2.918 2.918 0 0 0-4.114 0l-4.885 4.885-.772-.771 4.886-4.886z"/>
    </g>
</svg>
