<svg xmlns="http://www.w3.org/2000/svg" width="23" height="23" viewBox="0 0 23 23">
    <g fill="none" fill-rule="evenodd">
        <rect width="23" height="23" fill="#389E48" rx="11.5"/>
        <path fill="#FFF" fill-rule="nonzero" d="M11.5 4C7.414 4 4 7.402 4 11.5c0 4.086 3.402 7.5 7.5 7.5 4.087 0 7.5-3.403 7.5-7.5C19 7.413 15.597 4 11.5 4zm0 14.121c-1.677 0-3.354-.653-4.661-1.96-2.51-2.509-2.61-6.383-.3-9.001l1.186 1.186c-.116.297-.18.62-.18.957v4.394a2.64 2.64 0 0 0 4.396 1.965 2.626 2.626 0 0 0 3.283.184l.616.616a6.544 6.544 0 0 1-4.34 1.66zm3.09-2.91a1.76 1.76 0 0 1-2.406-2.406l2.405 2.406zm-1.785-3.027c.262-.155.567-.245.892-.245a1.76 1.76 0 0 1 1.514 2.65l-2.406-2.405zm-.866-.866L8.817 8.196a1.755 1.755 0 0 1 1.365-.651c.969 0 1.757.788 1.757 1.758v2.015zm-1.5-.257H8.424V9.303c0-.082.006-.162.017-.24l1.998 1.998zm.879.878l.23.231a2.622 2.622 0 0 0-.487 1.527c0 .463.12.898.33 1.277a1.76 1.76 0 0 1-2.967-1.276v-1.759h2.894zm5.144 3.901l-.616-.616c.307-.43.488-.958.488-1.527a2.64 2.64 0 0 0-3.516-2.486V9.303a2.64 2.64 0 0 0-2.636-2.637c-.793 0-1.504.351-1.988.906L7.16 6.538a6.546 6.546 0 0 1 4.34-1.66c1.677 0 3.354.654 4.661 1.96 2.51 2.51 2.61 6.384.3 9.002z"/>
    </g>
</svg>
