<svg xmlns="http://www.w3.org/2000/svg" width="28" height="28" viewBox="0 0 28 28">
    <path fill="#4A4A4A" fill-rule="nonzero" d="M14 0c7.733 0 14 6.26 14 13.983C28 21.707 21.733 28 14 28S0 21.74 0 14.017C0 6.293 6.267 0 14 0zm0 26.644c6.963 0 12.643-5.673 12.643-12.627 0-6.954-5.68-12.665-12.643-12.665-6.963 0-12.643 5.673-12.643 12.628 0 6.954 5.68 12.664 12.643 12.664zM7.478 14.308s0 .038.038.038c.037.037.037.074.074.108l5.056 5.05a.606.606 0 0 0 .475.183c.183 0 .33-.075.475-.183a.683.683 0 0 0 0-.953l-3.885-3.88h10.74a.654.654 0 0 0 .658-.657.654.654 0 0 0-.659-.658H9.715l3.844-3.84a.683.683 0 0 0 0-.952.685.685 0 0 0-.954 0l-4.98 4.978c-.038.038-.075.075-.075.109l-.038.037c0 .037-.037.037-.037.075 0 .037 0 .037-.037.074V14.244c.003.03.003.03.04.064 0-.033 0 0 0 0z" opacity=".342"/>
</svg>
