<svg xmlns="http://www.w3.org/2000/svg" width="14" height="14" viewBox="0 0 14 14">
    <g fill="#9B9B9B" fill-rule="nonzero">
        <path d="M12.77 0H1.23C.552 0 0 .552 0 1.23v11.54C0 13.448.552 14 1.23 14h11.54c.678 0 1.23-.552 1.23-1.23V1.23C14 .552 13.448 0 12.77 0zm.41 12.77a.41.41 0 0 1-.41.41H1.23a.41.41 0 0 1-.41-.41V4.102h12.36v8.668zm0-9.489H.82v-2.05a.41.41 0 0 1 .41-.41h11.54a.41.41 0 0 1 .41.41v2.05z"/>
        <circle cx="2.051" cy="2.051" r="1"/>
        <circle cx="4.691" cy="2.051" r="1"/>
        <circle cx="7.332" cy="2.051" r="1"/>
        <path d="M5.996 6H2.363c-.2 0-.363.136-.363.304v2.47c0 .168.163.304.363.304h3.633c.2 0 .363-.136.363-.304v-2.47c0-.168-.162-.304-.363-.304zm-.363 2.47H2.727V6.609h2.906V8.47zM11.95 7.59H7.792a.41.41 0 0 0 0 .82h4.156a.41.41 0 0 0 0-.82zM11.95 10.898h-9.9a.41.41 0 0 0 0 .82h9.9a.41.41 0 0 0 0-.82z"/>
    </g>
</svg>
