<svg xmlns="http://www.w3.org/2000/svg" width="24" height="24" viewBox="0 0 24 24">
    <path fill="none" fill-rule="evenodd" stroke="#78B437" stroke-linecap="round" stroke-linejoin="round" d="M18.073 22c-.834 0-1.839-.21-2.943-.627-2.424-.913-5.057-2.72-7.421-5.082-2.365-2.365-4.169-5.002-5.085-7.427-.831-2.201-.831-4.01-.006-4.838.122-.118.243-.247.367-.378.755-.795 1.629-1.696 2.74-1.646.781.03 1.537.515 2.311 1.479 2.284 2.84 1.256 3.853.063 5.029l-.214.21c-.193.193-.562 1.096 2.868 4.527 1.12 1.119 2.073 1.938 2.838 2.433.479.312 1.336.785 1.687.43l.214-.213c1.172-1.19 2.187-2.217 5.027.069.964.772 1.446 1.528 1.48 2.31.045 1.129-.858 1.987-1.653 2.742-.127.126-.256.243-.375.362-.413.413-1.07.62-1.898.62z"/>
</svg>
