<svg xmlns="http://www.w3.org/2000/svg" width="283" height="176" viewBox="0 0 283 176">
    <defs>
        <path id="a" d="M0 0h283v176H0z"/>
        <path id="b" d="M.081.436h165.837v172.868H.081z"/>
        <path id="c" d="M.151.115H10.82v15.423H.15z"/>
        <path id="d" d="M.31.115h10.668v15.423H.31z"/>
    </defs>
    <g fill="none" fill-rule="evenodd">
        <path fill="#000" d="M221.688 112.31h9.624V34.69h-9.624v77.62zm10.468 1.69h-11.312a.844.844 0 0 1-.844-.845v-79.31c0-.467.378-.845.844-.845h11.312c.466 0 .844.378.844.845v79.31a.844.844 0 0 1-.844.845z"/>
        <path fill="#000" d="M222.887 66.386h7.226L226.5 62.94l-3.613 3.447zM232.154 68h-11.308a.846.846 0 0 1-.781-.498.78.78 0 0 1 .183-.88l5.654-5.395c.317-.303.879-.303 1.196 0l5.654 5.396a.78.78 0 0 1 .184.879.847.847 0 0 1-.782.498z"/>
        <path fill="#000" d="M222.887 57.612l3.613 3.442 3.613-3.442h-7.226zM226.5 63a.865.865 0 0 1-.598-.236l-5.654-5.388a.778.778 0 0 1-.183-.878.847.847 0 0 1 .78-.498h11.31c.341 0 .65.196.78.498a.778.778 0 0 1-.183.878l-5.654 5.388a.864.864 0 0 1-.598.236zM222.887 77.388h7.226l-3.613-3.442-3.613 3.442zM232.154 79h-11.308a.847.847 0 0 1-.781-.498.778.778 0 0 1 .183-.878l5.654-5.388a.875.875 0 0 1 1.196 0l5.654 5.388c.242.23.314.577.184.878a.847.847 0 0 1-.782.498z"/>
        <path fill="#000" d="M222.887 68.612l3.613 3.442 3.613-3.442h-7.226zM226.5 74a.869.869 0 0 1-.598-.236l-5.654-5.388a.778.778 0 0 1-.183-.878.847.847 0 0 1 .78-.498h11.31c.341 0 .65.196.78.497a.778.778 0 0 1-.183.879l-5.654 5.388a.868.868 0 0 1-.598.236zM222.887 89.388h7.226l-3.613-3.442-3.613 3.442zM232.154 91h-11.308a.847.847 0 0 1-.781-.498.778.778 0 0 1 .183-.878l5.654-5.388a.875.875 0 0 1 1.196 0l5.654 5.388c.242.231.314.577.184.878a.847.847 0 0 1-.782.498z"/>
        <path fill="#000" d="M222.887 79.612l3.613 3.442 3.613-3.442h-7.226zM226.5 85a.869.869 0 0 1-.598-.236l-5.654-5.388a.778.778 0 0 1-.183-.878.847.847 0 0 1 .78-.498h11.31c.341 0 .65.196.78.498a.778.778 0 0 1-.183.878l-5.654 5.388a.868.868 0 0 1-.598.236zM222.887 100.388h7.226l-3.613-3.443-3.613 3.443zm9.267 1.612h-11.308a.847.847 0 0 1-.781-.498.778.778 0 0 1 .183-.878l5.654-5.388a.876.876 0 0 1 1.196 0l5.654 5.388c.242.23.314.577.184.878a.847.847 0 0 1-.782.498z"/>
        <path fill="#000" d="M222.887 90.612l3.613 3.442 3.613-3.442h-7.226zM226.5 96a.869.869 0 0 1-.598-.236l-5.654-5.388a.778.778 0 0 1-.183-.878.847.847 0 0 1 .78-.498h11.31c.341 0 .65.196.78.497a.778.778 0 0 1-.183.879l-5.654 5.388a.868.868 0 0 1-.598.236zM222.887 111.388h7.226l-3.613-3.443-3.613 3.443zm9.267 1.612h-11.308a.847.847 0 0 1-.781-.498.778.778 0 0 1 .183-.878l5.654-5.388a.876.876 0 0 1 1.196 0l5.654 5.388c.242.23.314.577.184.878a.847.847 0 0 1-.782.498z"/>
        <path fill="#000" d="M222.887 102.612l3.613 3.443 3.613-3.443h-7.226zM226.5 108a.869.869 0 0 1-.598-.236l-5.654-5.388a.777.777 0 0 1-.183-.878.847.847 0 0 1 .78-.498h11.31c.341 0 .65.196.78.498a.777.777 0 0 1-.183.878l-5.654 5.388a.868.868 0 0 1-.598.236zM222.887 55.386h7.226L226.5 51.94l-3.613 3.447zM232.154 57h-11.308a.846.846 0 0 1-.781-.498.78.78 0 0 1 .183-.88l5.654-5.395c.317-.303.879-.303 1.196 0l5.654 5.396a.78.78 0 0 1 .184.879.846.846 0 0 1-.782.498z"/>
        <path fill="#000" d="M222.887 45.612l3.613 3.442 3.613-3.442h-7.226zM226.5 51a.865.865 0 0 1-.598-.236l-5.654-5.388a.778.778 0 0 1-.183-.878.847.847 0 0 1 .78-.498h11.31c.341 0 .65.196.78.498a.778.778 0 0 1-.183.878l-5.654 5.388a.864.864 0 0 1-.598.236z"/>
        <path fill="#000" d="M222.887 44.388h7.226l-3.613-3.442-3.613 3.442zM232.154 46h-11.308a.847.847 0 0 1-.781-.498.778.778 0 0 1 .183-.878l5.654-5.388a.875.875 0 0 1 1.196 0l5.654 5.388c.242.23.314.577.184.878a.847.847 0 0 1-.782.498z"/>
        <path fill="#000" d="M222.887 34.612l3.613 3.442 3.613-3.442h-7.226zM226.5 40a.869.869 0 0 1-.598-.236l-5.654-5.388a.778.778 0 0 1-.183-.878.847.847 0 0 1 .78-.498h11.31c.341 0 .65.196.78.497a.778.778 0 0 1-.183.879l-5.654 5.388a.868.868 0 0 1-.598.236zM222.887 21.386h7.226L226.5 17.94l-3.613 3.447zM232.154 23h-11.308a.846.846 0 0 1-.781-.498.78.78 0 0 1 .183-.88l5.654-5.395c.317-.303.879-.303 1.196 0l5.654 5.396a.78.78 0 0 1 .184.879.847.847 0 0 1-.782.498z"/>
        <path fill="#000" d="M222.887 11.612l3.613 3.442 3.613-3.442h-7.226zM226.5 17a.865.865 0 0 1-.598-.236l-5.654-5.388a.778.778 0 0 1-.183-.878.847.847 0 0 1 .78-.498h11.31c.341 0 .65.196.78.498a.778.778 0 0 1-.183.878l-5.654 5.388a.864.864 0 0 1-.598.236zM222.887 32.386h7.226L226.5 28.94l-3.613 3.447zM232.154 34h-11.308a.846.846 0 0 1-.781-.498.78.78 0 0 1 .183-.88l5.654-5.395c.317-.303.879-.303 1.196 0l5.654 5.396a.78.78 0 0 1 .184.879.846.846 0 0 1-.782.498z"/>
        <path fill="#000" d="M222.887 23.612l3.613 3.442 3.613-3.442h-7.226zM226.5 29a.865.865 0 0 1-.598-.236l-5.654-5.388a.778.778 0 0 1-.183-.878.847.847 0 0 1 .78-.498h11.31c.341 0 .65.196.78.498a.778.778 0 0 1-.183.878l-5.654 5.388a.864.864 0 0 1-.598.236zM232 170c-.552 0-1-.376-1-.84v-56.32c0-.464.448-.84 1-.84s1 .376 1 .84v56.32c0 .464-.448.84-1 .84M221 170c-.552 0-1-.376-1-.84v-56.32c0-.464.448-.84 1-.84s1 .376 1 .84v56.32c0 .464-.448.84-1 .84"/>
        <path fill="#BBB" d="M282.158 176H.842c-.465 0-.842-.448-.842-1s.377-1 .842-1h281.316c.465 0 .842.448.842 1s-.377 1-.842 1"/>
        <path fill="#000" d="M142.68 33.309h113.64v-4.131l-24.729-5.487H142.68v9.618zM257.16 35H141.84a.843.843 0 0 1-.84-.845v-11.31c0-.466.376-.845.84-.845h89.843c.06 0 .121.007.18.02l25.478 5.652c.385.085.659.429.659.826v5.657a.843.843 0 0 1-.84.845z"/>
        <path fill="#000" d="M232.154 35a.848.848 0 0 1-.846-.85V11.649l-4.797-9.002-4.82 9.003v11.144c0 .469-.378.85-.845.85a.848.848 0 0 1-.846-.85V11.435c0-.14.035-.278.1-.402L225.769.447a.845.845 0 0 1 .744-.447h.001c.312 0 .598.173.745.449l5.642 10.585c.066.123.1.261.1.401v22.716c0 .469-.379.849-.846.849"/>
        <path fill="#000" d="M221 35c-.552 0-1-.379-1-.846V22.845c0-.466.448-.845 1-.845s1 .379 1 .845v11.31c0 .466-.448.845-1 .845"/>
        <path fill="#000" d="M210.887 32.386h7.226L214.5 28.94l-3.613 3.447zM220.154 34h-11.308a.847.847 0 0 1-.782-.498.78.78 0 0 1 .184-.88l5.654-5.395c.317-.303.879-.303 1.196 0l5.654 5.396a.78.78 0 0 1 .184.879.846.846 0 0 1-.782.498z"/>
        <path fill="#000" d="M210.887 23.612l3.613 3.442 3.613-3.442h-7.226zM214.5 29a.865.865 0 0 1-.598-.236l-5.654-5.388a.778.778 0 0 1-.184-.878.847.847 0 0 1 .782-.498h11.308c.343 0 .65.196.782.498a.778.778 0 0 1-.184.878l-5.654 5.388a.864.864 0 0 1-.598.236z"/>
        <path fill="#000" d="M209 35c-.552 0-1-.379-1-.846V22.845c0-.466.448-.845 1-.845s1 .379 1 .845v11.31c0 .466-.448.845-1 .845"/>
        <path fill="#000" d="M199.887 32.386h7.226L203.5 28.94l-3.613 3.447zM209.154 34h-11.308a.847.847 0 0 1-.782-.498.78.78 0 0 1 .184-.88l5.654-5.395c.317-.303.879-.303 1.196 0l5.654 5.396a.78.78 0 0 1 .184.879.846.846 0 0 1-.782.498z"/>
        <path fill="#000" d="M199.887 23.612l3.613 3.442 3.613-3.442h-7.226zM203.5 29a.865.865 0 0 1-.598-.236l-5.654-5.388a.778.778 0 0 1-.184-.878.847.847 0 0 1 .782-.498h11.308c.343 0 .65.196.782.498a.778.778 0 0 1-.184.878l-5.654 5.388a.864.864 0 0 1-.598.236z"/>
        <path fill="#000" d="M198 35c-.552 0-1-.379-1-.846V22.845c0-.466.448-.845 1-.845s1 .379 1 .845v11.31c0 .466-.448.845-1 .845"/>
        <path fill="#000" d="M188.887 32.386h7.226L192.5 28.94l-3.613 3.447zM198.154 34h-11.308a.847.847 0 0 1-.782-.498.78.78 0 0 1 .184-.88l5.654-5.395c.317-.303.879-.303 1.196 0l5.654 5.396a.78.78 0 0 1 .184.879.846.846 0 0 1-.782.498z"/>
        <path fill="#000" d="M188.887 23.612l3.613 3.442 3.613-3.442h-7.226zM192.5 29a.865.865 0 0 1-.598-.236l-5.654-5.388a.778.778 0 0 1-.184-.878.847.847 0 0 1 .782-.498h11.308c.343 0 .65.196.782.498a.778.778 0 0 1-.184.878l-5.654 5.388a.864.864 0 0 1-.598.236z"/>
        <path fill="#000" d="M187 35c-.552 0-1-.379-1-.846V22.845c0-.466.448-.845 1-.845s1 .379 1 .845v11.31c0 .466-.448.845-1 .845"/>
        <path fill="#000" d="M177.887 32.386h7.226L181.5 28.94l-3.613 3.447zM187.154 34h-11.308a.847.847 0 0 1-.782-.498.78.78 0 0 1 .184-.88l5.654-5.395c.317-.303.879-.303 1.196 0l5.654 5.396a.78.78 0 0 1 .184.879.847.847 0 0 1-.782.498z"/>
        <path fill="#000" d="M177.887 23.612l3.613 3.442 3.613-3.442h-7.226zM181.5 29a.865.865 0 0 1-.598-.236l-5.654-5.388a.778.778 0 0 1-.184-.878.847.847 0 0 1 .782-.498h11.308c.343 0 .65.196.782.498a.778.778 0 0 1-.184.878l-5.654 5.388a.864.864 0 0 1-.598.236z"/>
        <path fill="#000" d="M176 35c-.552 0-1-.379-1-.846V22.845c0-.466.448-.845 1-.845s1 .379 1 .845v11.31c0 .466-.448.845-1 .845"/>
        <path fill="#000" d="M165.887 32.386h7.226L169.5 28.94l-3.613 3.447zM175.154 34h-11.308a.847.847 0 0 1-.782-.498.78.78 0 0 1 .184-.88l5.654-5.395c.317-.303.879-.303 1.196 0l5.654 5.396a.78.78 0 0 1 .184.879.847.847 0 0 1-.782.498z"/>
        <path fill="#000" d="M165.887 23.612l3.613 3.442 3.613-3.442h-7.226zM169.5 29a.865.865 0 0 1-.598-.236l-5.654-5.388a.778.778 0 0 1-.184-.878.847.847 0 0 1 .782-.498h11.308c.343 0 .65.196.782.498a.778.778 0 0 1-.184.878l-5.654 5.388a.864.864 0 0 1-.598.236z"/>
        <path fill="#000" d="M164 35c-.552 0-1-.379-1-.846V22.845c0-.466.448-.845 1-.845s1 .379 1 .845v11.31c0 .466-.448.845-1 .845"/>
        <path fill="#000" d="M154.887 32.386h7.226L158.5 28.94l-3.613 3.447zM164.154 34h-11.308a.847.847 0 0 1-.782-.498.78.78 0 0 1 .184-.88l5.654-5.395c.317-.303.879-.303 1.196 0l5.654 5.396a.78.78 0 0 1 .183.879.846.846 0 0 1-.78.498z"/>
        <path fill="#000" d="M154.887 23.612l3.613 3.442 3.613-3.442h-7.226zM158.5 29a.865.865 0 0 1-.598-.236l-5.654-5.388a.778.778 0 0 1-.184-.878.847.847 0 0 1 .782-.498h11.308c.343 0 .65.196.782.498a.778.778 0 0 1-.184.878l-5.654 5.388a.864.864 0 0 1-.598.236z"/>
        <path fill="#000" d="M153 35c-.552 0-1-.379-1-.846V22.845c0-.466.448-.845 1-.845s1 .379 1 .845v11.31c0 .466-.448.845-1 .845"/>
        <path fill="#000" d="M143.887 32.386h7.226L147.5 28.94l-3.613 3.447zM153.154 34h-11.308a.846.846 0 0 1-.782-.498.78.78 0 0 1 .184-.88l5.654-5.395c.317-.303.879-.303 1.196 0l5.654 5.396a.78.78 0 0 1 .183.879.846.846 0 0 1-.78.498z"/>
        <path fill="#000" d="M143.887 23.612l3.613 3.442 3.613-3.442h-7.226zM147.5 29a.864.864 0 0 1-.598-.236l-5.654-5.388a.777.777 0 0 1-.183-.878.847.847 0 0 1 .78-.498h11.31c.342 0 .65.196.78.498a.778.778 0 0 1-.183.878l-5.654 5.388a.864.864 0 0 1-.598.236z"/>
        <path fill="#43484E" d="M142 35c-.552 0-1-.379-1-.846V22.845c0-.466.448-.845 1-.845s1 .379 1 .845v11.31c0 .466-.448.845-1 .845"/>
        <path fill="#000" d="M117.691 27.1v6.21h23.616l.002-9.493M142.153 35h-25.307a.846.846 0 0 1-.846-.845v-7.79c0-.422.311-.78.73-.838l25.308-3.519a.847.847 0 0 1 .962.838l-.001 11.309a.846.846 0 0 1-.846.845M243.64 37.325h12.719v-2.65H243.64v2.65zM257.18 33a.83.83 0 0 1 .82.837v4.326a.83.83 0 0 1-.82.837h-14.36a.83.83 0 0 1-.82-.837v-4.326L257.18 33z"/>
        <path fill="#9B9B9B" d="M208 175h36v-6h-36z"/>
        <path fill="#000" d="M208.69 174.24h34.621v-4.479H208.69v4.478zm35.466 1.76h-36.312c-.466 0-.844-.394-.844-.88v-6.24c0-.486.378-.88.844-.88h36.312c.466 0 .844.394.844.88v6.24c0 .486-.378.88-.844.88z"/>
        <path fill="#43484E" d="M196 119a.69.69 0 0 1 .218.5.69.69 0 0 1-.218.5"/>
        <path fill="#000" d="M124 49c-.552 0-1-.367-1-.819V33.819c0-.452.448-.819 1-.819s1 .367 1 .819v14.362c0 .452-.448.819-1 .819"/>
        <path fill="#9B9B9B" d="M122 58h4v-9h-4z"/>
        <path fill="#000" d="M122.823 57.243h2.354v-7.486h-2.354v7.486zM126.089 59h-4.178c-.503 0-.911-.394-.911-.879V48.88c0-.485.408-.879.911-.879h4.178c.503 0 .911.394.911.879v9.242c0 .485-.408.879-.911.879z"/>
        <path fill="#000" d="M123.5 69c-2.481 0-4.5-2.101-4.5-4.684 0-2.296 1.595-4.21 3.691-4.608v-1.866c0-.465.362-.842.81-.842.446 0 .808.377.808.842v2.632c0 .465-.362.842-.809.842-1.59 0-2.882 1.346-2.882 3s1.293 3 2.882 3c1.59 0 2.882-1.346 2.882-3 0-.465.362-.842.809-.842.447 0 .809.377.809.842 0 2.583-2.019 4.684-4.5 4.684M257.16 29a.836.836 0 0 1-.554-.21L225.859 1.766l-83.81 21.59a.84.84 0 1 1-.418-1.628L225.87.027a.841.841 0 0 1 .764.182l31.08 27.32A.84.84 0 0 1 257.16 29"/>
        <g>
            <path fill="#FFF" d="M66.69 146.973V66.177h116.487v82.31z"/>
            <path stroke="#000" stroke-linecap="round" stroke-linejoin="round" stroke-width="3" d="M66.69 148.012V66.177h116.487v81.835z"/>
            <path fill="#BBB" d="M154.031 82.94h19.93l.186 1.156-20.116.155zM154.031 86.601h19.93l.186 1.156-20.116.154zM154.031 90.262h19.93l.186 1.155-20.116.154zM154.031 93.922h14.949l.14 1.156-15.089.154z"/>
            <path fill="#78B437" d="M66.69 66.177v10.12h116.487v-10.12z"/>
            <path stroke="#000" stroke-linecap="round" stroke-linejoin="round" stroke-width="3" d="M66.69 66.177v10.12h116.487v-10.12z"/>
            <path fill="#FFF" d="M163.022 71.185c0 1.216-.989 2.202-2.21 2.202-1.22 0-2.21-.986-2.21-2.202s.99-2.201 2.21-2.201c1.221 0 2.21.985 2.21 2.201M170.205 71.185c0 1.216-.99 2.202-2.21 2.202s-2.21-.986-2.21-2.202.99-2.201 2.21-2.201 2.21.985 2.21 2.201M177.388 71.185c0 1.216-.99 2.202-2.21 2.202s-2.21-.986-2.21-2.202.99-2.201 2.21-2.201 2.21.985 2.21 2.201"/>
            <g fill="#DADADA">
                <path d="M148 140.987V117h24.366v23.987zM80.665 107.987V88H140v19.987zM80.665 124.145h7.685v-6.027h-7.685zM90.67 124.145h7.685v-6.027h-7.684zM80.665 132.049h7.685v-6.027h-7.685zM90.67 132.049h7.685v-6.027h-7.684z"/>
            </g>
        </g>
    </g>
</svg>
