<?xml version="1.0" encoding="UTF-8"?>
<svg width="30px" height="30px" viewBox="0 0 30 30" version="1.1" xmlns="http://www.w3.org/2000/svg" xmlns:xlink="http://www.w3.org/1999/xlink">
    <!-- Generator: sketchtool 51 (57462) - http://www.bohemiancoding.com/sketch -->
    <title>3BF76DBE-B78A-4DE1-A7C0-1EC4B455E347</title>
    <desc>Created with sketchtool.</desc>
    <defs></defs>
    <g id="Page-1" stroke="none" stroke-width="1" fill="none" fill-rule="evenodd">
        <g id="My-Cart_Add-adress" transform="translate(-61.000000, -719.000000)">
            <rect fill="#FFFFFF" x="0" y="0" width="1024" height="1885"></rect>
            <g id="Group-4" transform="translate(62.000000, 720.000000)">
                <circle id="Oval-3" stroke="#4A4A4A" fill="#4A4A4A" cx="14" cy="14" r="14"></circle>
                <path d="M13.8889286,7 C11.2578878,7 9.11713265,9.1407551 9.11713265,11.7720612 C9.11713265,12.4584082 9.25761224,13.1137143 9.53445918,13.7199388 C10.7275408,16.3306837 13.0150102,19.0870816 13.6878265,19.869602 C13.7382347,19.928102 13.8117245,19.9617959 13.8890612,19.9617959 C13.966398,19.9617959 14.0398878,19.928102 14.0902959,19.869602 C14.7628469,19.0872143 17.0503163,16.330949 18.2437959,13.7199388 C18.5207755,13.1137143 18.6611224,12.4584082 18.6611224,11.7720612 C18.6608571,9.1407551 16.520102,7 13.8889286,7 Z M13.8889286,14.2506837 C12.5222041,14.2506837 11.4101735,13.1386531 11.4101735,11.7719286 C11.4101735,10.4050714 12.5222041,9.29304082 13.8889286,9.29304082 C15.2556531,9.29304082 16.3676837,10.4050714 16.3676837,11.7719286 C16.3678163,13.1386531 15.2557857,14.2506837 13.8889286,14.2506837 Z" id="Shape" fill="#FFFFFF" fill-rule="nonzero"></path>
            </g>
        </g>
    </g>
</svg>