<svg xmlns="http://www.w3.org/2000/svg" xmlns:xlink="http://www.w3.org/1999/xlink" width="32" height="28" viewBox="0 0 32 28">
    <defs>
        <path id="a" d="M.088.397v27.12h31.403V.397H15.79z"/>
    </defs>
    <g fill="none" fill-rule="evenodd">
        <path fill="#80C241" d="M29.073 12.283c.12.339.35.967.293 1.125-.115.152-.822.283-1.202.356-.63.12-1.23.232-1.613.55-.385.316-.603.881-.834 1.477-.137.356-.39 1.012-.557 1.096h-.016c-.242 0-.76-.283-1.133-.487-.563-.31-1.097-.605-1.597-.605s-1.034.295-1.597.605c-.373.204-.89.487-1.142.493-.172-.09-.425-.746-.564-1.102-.229-.596-.448-1.16-.832-1.478-.385-.317-.982-.43-1.615-.549-.38-.073-1.085-.204-1.2-.344-.057-.17.172-.798.293-1.137.235-.646.459-1.251.31-1.777-.12-.425-.472-.849-.833-1.307-.264-.317-.742-.905-.724-1.109.057-.175.672-.543 1-.736.557-.327 1.08-.633 1.332-1.063.253-.424.265-1.03.27-1.664.007-.378.017-1.086.138-1.22 0 0 .069-.041.294-.041.269 0 .62.056.959.114.373.057.758.119 1.097.119.24 0 .442-.029.614-.091.47-.17.868-.623 1.293-1.104.253-.288.718-.82.901-.849.196.03.662.56.914.85.42.48.822.933 1.292 1.103.42.147 1.081.074 1.712-.028.34-.052.69-.108.96-.108.212 0 .281.034.281.034.132.14.144.843.15 1.221.01.64.016 1.24.27 1.67.252.424.776.736 1.327 1.063.332.193.947.555 1.004.73.018.204-.464.798-.723 1.115-.368.452-.712.882-.832 1.3-.144.52.073 1.132.31 1.778z"/>
        <mask id="b" fill="#fff">
            <use xlink:href="#a"/>
        </mask>
        <path fill="#80C241" d="M29.893 10.817c.058-.198.368-.582.621-.893.534-.656 1.085-1.336.959-2.038-.12-.684-.85-1.114-1.556-1.527-.346-.204-.816-.48-.913-.65-.099-.165-.105-.702-.115-1.098-.012-.81-.023-1.646-.563-2.094-.455-.372-1.322-.321-2.19-.185-.51.084-1.073.101-1.119.084-.184-.068-.545-.475-.804-.775-.54-.611-1.097-1.244-1.799-1.244-.706 0-1.257.633-1.797 1.244-.264.3-.62.707-.804.775-.047.017-.615 0-1.12-.084-.868-.136-1.742-.187-2.195.185-.385.317-.494.843-.535 1.403l-1.854-.202a3.17 3.17 0 0 0-2.845 1.205 3.118 3.118 0 0 0-2.17-.233L2.32 6.49C.654 6.93-.34 8.633.109 10.28l4.095 14.952a3.126 3.126 0 0 0 3.022 2.285c.277 0 .558-.033.822-.107l6.772-1.799c.103-.029.196-.074.293-.113.006.006.012.006.018.01l3.48.516c.121.012.242.017.356.017.708 0 1.391-.233 1.955-.673a3.038 3.038 0 0 0 1.154-2.065l.712-6.223c.213.097.448.225.65.334.567.31 1.154.633 1.706.633.142 0 .286-.023.413-.068.66-.238.964-1.024 1.257-1.776.144-.368.34-.877.488-.996.15-.125.69-.226 1.081-.306.81-.152 1.643-.311 1.999-.905.345-.594.063-1.363-.206-2.104-.12-.34-.328-.905-.283-1.075zm-15.917-5.95l1.947.22c-.012.264-.034.52-.097.626-.098.166-.569.442-.913.646-.707.413-1.437.843-1.563 1.527-.12.702.43 1.382.964 2.038.247.311.564.695.615.893.053.17-.154.736-.28 1.075-.064.175-.133.356-.185.537l-1.522-5.561c-.132-.481-.397-.9-.723-1.25a1.969 1.969 0 0 1 1.757-.752zM7.744 26.29c-1.035.265-2.132-.358-2.401-1.365L1.247 9.974c-.282-1.03.338-2.092 1.384-2.37l6.773-1.8c.166-.038.338-.062.51-.062.403 0 .777.13 1.092.345.053.057.11.097.178.13.288.25.517.567.62.95L15.9 22.122a1.93 1.93 0 0 1-1.384 2.37l-6.772 1.8zm13.166-3.124c-.058.51-.316.973-.724 1.29-.408.327-.919.463-1.419.413l-2.304-.34c.587-.74.84-1.731.569-2.709l-2.004-7.338c.401.21.907.323 1.413.413.39.073.93.175 1.08.305.15.119.343.629.487.997.156.395.317.792.524 1.119-.575.306-.903.94-.725 1.584a1.436 1.436 0 0 0 1.753.995 1.41 1.41 0 0 0 1.004-1.73c-.028-.113-.097-.203-.154-.3.328-.119.66-.282.976-.458.058-.029.127-.068.196-.103l-.672 5.862zm8.163-10.884c.12.339.35.967.293 1.125-.115.152-.822.283-1.202.356-.63.12-1.23.232-1.613.55-.385.316-.603.881-.834 1.477-.137.356-.39 1.012-.557 1.096h-.016c-.242 0-.76-.283-1.133-.487-.563-.31-1.097-.605-1.597-.605s-1.034.295-1.597.605c-.373.204-.89.487-1.142.493-.172-.09-.425-.746-.564-1.102-.229-.596-.448-1.16-.832-1.478-.385-.317-.982-.43-1.615-.549-.38-.073-1.085-.204-1.2-.344-.057-.17.172-.798.293-1.137.235-.646.459-1.251.31-1.777-.12-.425-.472-.849-.833-1.307-.264-.317-.742-.905-.724-1.109.057-.175.672-.543 1-.736.557-.327 1.08-.633 1.332-1.063.253-.424.265-1.03.27-1.664.007-.378.017-1.086.138-1.22 0 0 .069-.041.294-.041.269 0 .62.056.959.114.373.057.758.119 1.097.119.24 0 .442-.029.614-.091.47-.17.868-.623 1.293-1.104.253-.288.718-.82.901-.849.196.03.662.56.914.85.42.48.822.933 1.292 1.103.42.147 1.081.074 1.712-.028.34-.052.69-.108.96-.108.212 0 .281.034.281.034.132.14.144.843.15 1.221.01.64.016 1.24.27 1.67.252.424.776.736 1.327 1.063.332.193.947.555 1.004.73.018.204-.464.798-.723 1.115-.368.452-.712.882-.832 1.3-.144.52.073 1.132.31 1.778zM21.6 7.835c0-1.22-.708-2.126-1.96-2.126-1.24 0-2.033.972-2.033 2.25 0 1.348.872 2.157 1.975 2.157 1.051.005 2.018-.782 2.018-2.28zm-1.983 1.37c-.494 0-.753-.543-.753-1.29 0-.719.236-1.29.741-1.29.524 0 .724.566.724 1.29 0 .804-.23 1.29-.712 1.29zm5.256-.515c-1.241 0-2.034.967-2.034 2.246.012 1.347.885 2.155 1.983 2.155 1.057 0 2.016-.78 2.016-2.28-.006-1.222-.706-2.121-1.965-2.121zm-.018 3.49c-.494 0-.751-.543-.74-1.289 0-.718.224-1.29.74-1.29.524 0 .714.566.714 1.29 0 .802-.236 1.289-.714 1.289zm-.09-6.47l-4.189 7.41h-.907l4.176-7.41h.92zM3.158 11.19a1.41 1.41 0 0 1 1.006-1.726 1.435 1.435 0 0 1 1.751.997 1.399 1.399 0 0 1-1.004 1.719 1.428 1.428 0 0 1-1.753-.99zM8.013 9.9A1.407 1.407 0 0 1 9.02 8.176a1.434 1.434 0 0 1 1.751.994 1.396 1.396 0 0 1-1.004 1.721 1.424 1.424 0 0 1-1.753-.99zm-3.78 5.206a1.402 1.402 0 0 1 1.005-1.727c.759-.203 1.546.24 1.747.99a1.402 1.402 0 0 1-1.006 1.726 1.425 1.425 0 0 1-1.745-.99zm4.85-1.29a1.408 1.408 0 0 1 1.01-1.726 1.426 1.426 0 0 1 1.746.99 1.405 1.405 0 0 1-1.005 1.726 1.435 1.435 0 0 1-1.752-.99zM5.3 19.013a1.406 1.406 0 0 1 1.006-1.724 1.43 1.43 0 0 1 1.752.989 1.406 1.406 0 0 1-1.005 1.726 1.429 1.429 0 0 1-1.753-.99zm4.855-1.29a1.4 1.4 0 0 1 1.006-1.72 1.426 1.426 0 0 1 1.751.992c.207.745-.247 1.52-1.004 1.724a1.436 1.436 0 0 1-1.753-.996zm-1.028 4.47a1.404 1.404 0 0 1-1.006 1.726c-.757.198-1.544-.244-1.746-.997a1.397 1.397 0 0 1 1.006-1.719 1.42 1.42 0 0 1 1.746.99zm4.86-1.29c.2.746-.247 1.523-1.012 1.725a1.434 1.434 0 0 1-1.751-.989 1.412 1.412 0 0 1 1.01-1.726 1.436 1.436 0 0 1 1.753.99zm6.192.746c.2.748-.247 1.522-1.011 1.727a1.438 1.438 0 0 1-1.752-.997 1.411 1.411 0 0 1 1.01-1.725 1.434 1.434 0 0 1 1.753.995z" mask="url(#b)"/>
        <path fill="#FFF" d="M21.6 7.835c0-1.22-.708-2.126-1.96-2.126-1.24 0-2.033.972-2.033 2.25 0 1.348.872 2.157 1.975 2.157 1.051.005 2.018-.782 2.018-2.28z" mask="url(#b)"/>
        <path fill="#80C241" d="M19.617 9.205c-.494 0-.753-.543-.753-1.29 0-.719.236-1.29.741-1.29.524 0 .724.566.724 1.29 0 .804-.23 1.29-.712 1.29z" mask="url(#b)"/>
        <path fill="#FFF" d="M24.873 8.69c-1.241 0-2.034.967-2.034 2.246.012 1.347.885 2.155 1.983 2.155 1.057 0 2.016-.78 2.016-2.28-.006-1.222-.706-2.121-1.965-2.121z" mask="url(#b)"/>
        <path fill="#80C241" d="M24.855 12.18c-.494 0-.751-.543-.74-1.289 0-.718.224-1.29.74-1.29.524 0 .714.566.714 1.29 0 .802-.236 1.289-.714 1.289z" mask="url(#b)"/>
        <path fill="#FFF" d="M24.764 5.71l-4.188 7.41h-.907l4.176-7.41z" mask="url(#b)"/>
        <path fill="#80C241" d="M3.159 11.19a1.41 1.41 0 0 1 1.006-1.726 1.435 1.435 0 0 1 1.751.997 1.399 1.399 0 0 1-1.004 1.719 1.428 1.428 0 0 1-1.753-.99zM8.013 9.9A1.407 1.407 0 0 1 9.02 8.176a1.434 1.434 0 0 1 1.751.994 1.396 1.396 0 0 1-1.004 1.721 1.424 1.424 0 0 1-1.753-.99zM4.234 15.106a1.402 1.402 0 0 1 1.004-1.727c.759-.203 1.546.24 1.747.99a1.402 1.402 0 0 1-1.006 1.726 1.425 1.425 0 0 1-1.745-.99zM9.082 13.815a1.408 1.408 0 0 1 1.01-1.725 1.426 1.426 0 0 1 1.747.99 1.405 1.405 0 0 1-1.005 1.726 1.435 1.435 0 0 1-1.752-.99zM5.301 19.014a1.406 1.406 0 0 1 1.006-1.724 1.43 1.43 0 0 1 1.752.989 1.406 1.406 0 0 1-1.005 1.726 1.429 1.429 0 0 1-1.753-.99zM10.156 17.724a1.4 1.4 0 0 1 1.006-1.72 1.426 1.426 0 0 1 1.751.992c.207.745-.247 1.52-1.004 1.724a1.436 1.436 0 0 1-1.753-.996zM9.128 22.193a1.404 1.404 0 0 1-1.006 1.727c-.757.198-1.544-.244-1.746-.997a1.397 1.397 0 0 1 1.006-1.719 1.42 1.42 0 0 1 1.746.99zM13.988 20.904c.2.746-.247 1.523-1.012 1.725a1.434 1.434 0 0 1-1.751-.989 1.412 1.412 0 0 1 1.01-1.726 1.436 1.436 0 0 1 1.753.99z" mask="url(#b)"/>
    </g>
</svg>
