<svg xmlns="http://www.w3.org/2000/svg" width="168" height="119" viewBox="0 0 168 119">
    <g fill="none" fill-rule="evenodd">
        <path fill="#FFF" d="M1.979 116.118V1.252h165.016V118.27z"/>
        <path stroke="#000" stroke-linecap="round" stroke-linejoin="round" stroke-width="2" d="M1.979 117.595V1.252h165.016v116.343z"/>
        <path fill="#BBB" d="M125.707 25.085h28.232l.264 1.642-28.496.22zM125.707 30.288h28.232l.264 1.643-28.496.22zM125.707 35.492h28.232l.264 1.643-28.496.22zM125.707 40.697h21.176l.198 1.642-21.374.22z"/>
        <path fill="#78B437" d="M1.979 1.252v14.386h165.016V1.252z"/>
        <path stroke="#000" stroke-linecap="round" stroke-linejoin="round" stroke-width="2" d="M1.979 1.252v14.386h165.016V1.252z"/>
        <path fill="#FFF" d="M138.443 8.372a3.13 3.13 0 1 1-6.263 0 3.13 3.13 0 0 1 6.263 0M148.619 8.372a3.13 3.13 0 1 1-6.26 0 3.13 3.13 0 0 1 6.26 0M158.794 8.372a3.13 3.13 0 1 1-6.26-.001 3.13 3.13 0 0 1 6.26 0"/>
        <g fill="#DADADA">
            <path d="M117.163 107.608V73.506h34.517v34.102zM21.775 60.693V32.277h84.055v28.416zM21.775 83.664h10.887v-8.568H21.775zM35.949 83.664h10.886v-8.568H35.95zM21.775 94.9h10.887v-8.568H21.775zM35.949 94.9h10.886v-8.568H35.95z"/>
        </g>
        <g stroke="#000" stroke-linecap="round" stroke-linejoin="round" stroke-width="4">
            <path d="M49.708 45.692L69.54 61.077M69.54 45.692L49.707 61.077M99.744 45.692l19.83 15.385M119.575 45.692L99.744 61.077M67.162 85.177c10.796-10.756 28.3-10.756 39.097 0"/>
        </g>
    </g>
</svg>
