<svg xmlns="http://www.w3.org/2000/svg" width="45" height="46" viewBox="0 0 45 46">
    <g fill="#4A4A4A" fill-rule="nonzero" stroke="#4A4A4A" stroke-width=".6">
        <path d="M21.476 10c2.259 0 4.095-2.018 4.095-4.5S23.735 1 21.476 1c-2.258 0-4.095 2.018-4.095 4.5s1.837 4.5 4.095 4.5zm0-7.5c1.506 0 2.73 1.345 2.73 3 0 1.654-1.224 3-2.73 3-1.505 0-2.73-1.346-2.73-3 0-1.655 1.225-3 2.73-3z"/>
        <path d="M36.371 11.4c-1.912 0-3.468 1.57-3.468 3.5v6.3h5.549v4.2H32.21c-2.677 0-4.855 2.199-4.855 4.9v6.107c0-.44-.103-.88-.29-1.255l-4.521-9.81 1.146-4.05.604.608h4.101c1.339 0 2.428-1.099 2.428-2.45 0-1.351-1.09-2.45-2.428-2.45H26.34l-1.084-1.64c.006-.094.02-.186.02-.28v-.67c0-2.432-1.96-4.41-4.37-4.41-.916 0-1.795.284-2.541.822l-2.446 1.764a4.212 4.212 0 0 0-1.74 3.412c0 .787.218 1.556.631 2.223l1.43 2.308-.706 3.562.013.03-.645 5.858-4.802 4.846a2.677 2.677 0 0 0-.776 1.895c0 .466.129.898.337 1.28H4.468C2.556 38 1 39.57 1 41.5S2.556 45 4.468 45h30.516c1.912 0 3.468-1.57 3.468-3.5S36.896 38 34.984 38h-6.242v-7.7c0-1.93 1.556-3.5 3.468-3.5h6.242V45H44V11.4h-7.629zm-11.536 5.847l.762 1.153h2.798c.574 0 1.04.471 1.04 1.05 0 .579-.466 1.05-1.04 1.05h-3.527l-.742-.748.71-2.505zm2.52 19.308V38h-.404a2.83 2.83 0 0 0 .404-1.445zm-4.334-6.86l2.795 6.064c.1.2.152.424.152.648v.148A1.44 1.44 0 0 1 24.536 38c-.55 0-1.057-.323-1.293-.824l-3.077-6.52 2.855-.96zm-.588-1.277l-2.867.965-2.582-5.474.328-1.656a2.449 2.449 0 0 0 3.694.376l.755.381-.692 2.449 1.364 2.96zm-3.564 2.745l-.122.248-2.445-1.48.376-3.411 2.191 4.643zm.733 1.652l.024-.047 2.364 5.01c.036.078.081.15.124.222h-7.65l5.138-5.185zm-.432-20.854a2.953 2.953 0 0 1 1.734-.561c1.645 0 2.983 1.351 2.983 3.01v.67c0 .28-.039.56-.115.828l-1.622 5.733-.43-.217c.05-.202.086-.409.086-.625v-.5c0-.453-.122-.898-.353-1.287l-1.486-2.5 1.53-1.03-.768-1.164-1.608 1.081-1.967-1.985 2.016-1.453zm-3.185 5.518a2.817 2.817 0 0 1-.42-1.481c0-.604.198-1.183.545-1.658l2.372 2.393 1.782 2.998c.101.173.155.369.155.568v.5c0 .607-.49 1.101-1.09 1.101-.38 0-.725-.193-.926-.518l-2.418-3.903zM11.08 35.815l4.591-4.634 2.242 1.358-5.04 5.087a1.27 1.27 0 0 1-.897.374c-.699 0-1.267-.574-1.267-1.28 0-.337.135-.667.37-.905zM4.468 43.6a2.093 2.093 0 0 1-2.08-2.1c0-1.158.933-2.1 2.08-2.1s2.08.942 2.08 2.1c0 1.158-.933 2.1-2.08 2.1zm30.516-4.2c1.147 0 2.08.942 2.08 2.1 0 1.158-.933 2.1-2.08 2.1a2.093 2.093 0 0 1-2.08-2.1c0-1.158.933-2.1 2.08-2.1zm7.629 4.2h-2.774V21.2h2.774v22.4zm0-23.8H34.29V17h8.323v2.8zm0-4.2H34.29v-.7c0-1.158.934-2.1 2.081-2.1h6.242v2.8z"/>
    </g>
</svg>
