<svg xmlns="http://www.w3.org/2000/svg" width="19" height="14" viewBox="0 0 19 14">
    <g fill="none" fill-rule="evenodd">
        <g fill="#78B437">
            <path d="M5.609 5.903H.256c-.14 0-.256-.156-.256-.346 0-.19.115-.345.256-.345H5.61c.14 0 .256.155.256.345 0 .19-.115.346-.256.346M6.677 7.38h-5.38c-.14 0-.257-.163-.257-.362 0-.199.116-.361.258-.361h5.38c.141 0 .257.162.257.361 0 .199-.116.361-.258.361M3.574 8.824h-1.6c-.132 0-.24-.162-.24-.361 0-.199.108-.361.24-.361h1.6c.132 0 .24.162.24.36 0 .2-.108.362-.24.362"/>
        </g>
        <path fill="#78B437" d="M4.874 6.242H3.33c-.384-.001-.46-.178-.327-.637a8.86 8.86 0 0 0 .3-1.614c.071-.735.157-.84.859-.786.705.053 1.414.047 2.12-.004.478-.034.622.05.623.449v2.133c0 .305-.148.457-.448.458-.527.002-1.055 0-1.582 0M11.118.5c.394.048.684.246.895.565.032.048.069.099.04.156-.031.065-.101.041-.154.038-.094-.005-.186-.026-.28-.035-.116-.01-.242-.023-.33.064-.177.175-.098.396-.087.602.008.148.098.245.247.285.125.034.251.064.376.099.104.03.208.065.287.141.124.119.074.25.007.368-.076.135-.181.042-.273.008a.292.292 0 0 1-.079-.043c-.58-.46-1.254-.593-1.98-.518-.131.013-.23-.077-.218-.204.007-.076-.014-.153-.02-.23-.045-.673.326-1.1.989-1.284.19-.053.53-.019.58-.013"/>
        <path fill="#78B437" d="M9.491 11.66c-.236 0-.615-.006-.994.002-.121.003-.155-.032-.155-.158.001-.49.026-.98-.076-1.466-.232-1.101-1.272-2.113-2.346-2.26-.44-.059-.883-.09-1.324-.135-.109-.01-.214-.039-.276-.145-.125-.213-.044-.41.202-.474.287-.073.583-.07.876-.078a28.02 28.02 0 0 1 1.331-.007c.159.004.244-.053.32-.19.16-.282.332-.555.521-.816.092-.127.168-.143.3-.052.422.294.823.617 1.229.933.101.08.2.118.33.123.737.027 1.475.018 2.21.076.202.016.373.072.496.258.117.178.292.233.492.168.512-.166.866-.532 1.148-.986.096-.155-.008-.247-.106-.338a18.947 18.947 0 0 0-1.59-1.305 15.7 15.7 0 0 0-.623-.443c-.277-.187-.292-.184-.525.065-.254.273-.462.586-.685.886-.214.288-.432.572-.642.863-.089.123-.173.149-.305.063a6.44 6.44 0 0 1-1.062-.864c-.098-.098-.115-.18-.031-.303.394-.584.791-1.165 1.24-1.706.089-.106.19-.202.293-.294.277-.247.59-.28.922-.14.388.162.726.413 1.061.665.69.517 1.38 1.036 2.065 1.56.151.115.258.138.34-.074.048-.13.163-.142.271-.105.614.208 1.212.459 1.703.907.405.37.495 1.076.228 1.561a.463.463 0 0 1-.355.233c-1.42.162-2.387.915-2.826 2.349-.015.049-.033.098-.044.148-.196.856-.76 1.243-1.562 1.344-.634.079-1.271.09-2.05.134"/>
        <path fill="#01374A" d="M5.594 9.16c-1.033-.113-1.9.776-1.79 1.836.08.773.684 1.394 1.438 1.476 1.033.112 1.9-.777 1.79-1.837-.08-.773-.685-1.394-1.438-1.476m-.014 4.192c-1.493.098-2.73-1.17-2.634-2.702.08-1.266 1.076-2.288 2.31-2.369 1.493-.098 2.729 1.17 2.634 2.702-.08 1.265-1.076 2.288-2.31 2.369M16.162 9.16c-1.034-.113-1.9.776-1.791 1.836.08.773.685 1.394 1.438 1.476 1.034.112 1.9-.777 1.791-1.837-.08-.773-.685-1.394-1.438-1.476m-.015 4.192c-1.493.098-2.729-1.17-2.633-2.702.079-1.266 1.076-2.288 2.31-2.369 1.493-.098 2.729 1.17 2.633 2.702-.079 1.265-1.075 2.288-2.31 2.369"/>
    </g>
</svg>
