<svg xmlns="http://www.w3.org/2000/svg" width="23" height="23" viewBox="0 0 23 23">
    <g fill="none" fill-rule="evenodd">
        <rect width="23" height="23" fill="#389E48" rx="11.5"/>
        <path fill="#FFF" fill-rule="nonzero" d="M15.842 4a3.15 3.15 0 0 0-3.076 2.488H5.014v.83l5.359 6.29v3.298H8.186V18h5.468v-1.094h-2.187v-3.298l5.36-6.29v-.83h-2.928a2.054 2.054 0 0 1 1.943-1.394 2.05 2.05 0 1 1 1.091 3.786l-1.2 1.407.109.002a3.148 3.148 0 0 0 3.144-3.144A3.148 3.148 0 0 0 15.842 4zm-4.922 8.563L8.586 9.824h4.668l-2.334 2.74zm4.245-4.981l-.979 1.148H7.693v.047L6.675 7.582h8.49z"/>
    </g>
</svg>
