<svg xmlns="http://www.w3.org/2000/svg" width="46" height="43" viewBox="0 0 46 43">
    <g fill="#4A4A4A" fill-rule="nonzero">
        <path d="M20.642 36.128c.46.359.935.73 1.438 1.134L23 38l.92-.738c3.255-2.612 6.08-4.317 6.08-7.15C30 27.806 28.154 26 25.797 26a4.118 4.118 0 0 0-2.807 1.088A4.038 4.038 0 0 0 20.203 26C17.846 26 16 27.806 16 30.112c0 2.389 1.947 3.91 4.642 6.016zm-.44-7.526c.696 0 1.127.624 1.365 1.147l.364.793 2.13-.001.357-.807c.187-.423.614-1.132 1.38-1.132.913 0 1.391.76 1.391 1.51 0 1.397-2.153 2.856-4.189 4.454-2.572-2.019-4.19-3.196-4.19-4.454 0-.75.479-1.51 1.393-1.51z"/>
        <path d="M43.215 20.156c0-4.665-3.424-8.547-7.897-9.28a4.048 4.048 0 0 1 3.854-2.813V5.374a6.743 6.743 0 0 0-6.617 5.456 9.418 9.418 0 0 0-3.442 1.153 6.785 6.785 0 0 0-2.07-2.55V2.688h2.695V0H16.262v2.688h2.695v6.746a6.767 6.767 0 0 0-2.461 3.612c-1.097-2.214-2.307-4.176-3.55-5.74C9.88 3.457 7.6 3.243 6.225 3.742c-1.373.498-2.982 2.124-2.847 7.037.085 3.095.852 6.87 2.172 10.722H0v2.688h2.964L5.66 43h34.682l2.695-18.813H46V21.5h-2.883a9.46 9.46 0 0 0 .098-1.344zm-9.434-6.718c3.716 0 6.739 3.013 6.739 6.718 0 .455-.047.904-.136 1.344H29.738v-6.719a6.737 6.737 0 0 1 4.043-1.344zm-12.129-2.513V2.687h2.696v8.238c.19.171 2.695 1.093 2.695 3.856V21.5h-8.086v-6.719c0-2.778 2.497-3.678 2.695-3.856zm-13.675 9.34l5.047-1.831-.922-2.525-4.9 1.778a38.65 38.65 0 0 1-.614-2.637l4.593-1.667-.922-2.525-4.077 1.48a22.525 22.525 0 0 1-.11-1.633c-.086-3.17.667-4.29 1.077-4.438.41-.149 1.707.226 3.685 2.71 2.322 2.918 4.199 6.952 5.428 10.486V21.5H8.407c-.15-.413-.293-.824-.43-1.235zm30.026 20.047H7.997l-2.31-16.124h34.626l-2.31 16.125z"/>
    </g>
</svg>
