<svg xmlns="http://www.w3.org/2000/svg" width="37" height="37" viewBox="0 0 37 37">
    <g fill="none" fill-rule="evenodd" transform="translate(1 1)">
        <circle cx="21.667" cy="21" r="1" fill="#3A3A3A" fill-rule="nonzero"/>
        <circle cx="22.333" cy="26.667" r="1" fill="#3A3A3A" fill-rule="nonzero"/>
        <circle cx="14" cy="24" r="1" fill="#3A3A3A" fill-rule="nonzero"/>
        <circle cx="19.333" cy="22" r="1" fill="#3A3A3A" fill-rule="nonzero"/>
        <circle cx="24.333" cy="23.667" r="1" fill="#3A3A3A" fill-rule="nonzero"/>
        <circle cx="12" cy="26.667" r="1" fill="#3A3A3A" fill-rule="nonzero"/>
        <circle cx="17.5" cy="17.5" r="17.5" stroke="#3A3A3A"/>
        <path fill="#3A3A3A" fill-rule="nonzero" stroke="#3A3A3A" stroke-width=".3" d="M11.69 11.966a3.337 3.337 0 0 0-4.714 0A3.311 3.311 0 0 0 6 14.323c0 .89.347 1.728.976 2.357l5.186 5.186 4.714-4.714-5.186-5.186zM7.448 16.21a2.65 2.65 0 0 1-.781-1.886c0-.712.277-1.382.78-1.885.52-.52 1.203-.78 1.886-.78.683 0 1.366.26 1.886.78l4.714 4.714-3.771 3.771-4.714-4.714zM27.024 8.976A3.311 3.311 0 0 0 24.667 8c-.89 0-1.728.347-2.357.976l-5.186 5.186 4.714 4.714 5.186-5.186A3.31 3.31 0 0 0 28 11.333c0-.89-.347-1.727-.976-2.357zm-.472 4.243l-4.714 4.714-3.771-3.771 4.714-4.714a2.65 2.65 0 0 1 1.886-.781 2.65 2.65 0 0 1 1.885.78 2.65 2.65 0 0 1 .781 1.886 2.65 2.65 0 0 1-.78 1.886z"/>
        <path fill="#3A3A3A" fill-rule="nonzero" d="M20.333 19.667c0-.736-.598-1.334-1.333-1.334s-1.333.598-1.333 1.334c0 .735.598 1.333 1.333 1.333s1.333-.598 1.333-1.333zm-2 0a.667.667 0 1 1 1.335.001.667.667 0 0 1-1.335-.001zM16.667 21c-.736 0-1.334.598-1.334 1.333a1.335 1.335 0 0 0 2.667 0c0-.735-.598-1.333-1.333-1.333zm0 2a.667.667 0 1 1 .001-1.335.667.667 0 0 1-.001 1.335zM20 23c-.735 0-1.333.598-1.333 1.333 0 .736.598 1.334 1.333 1.334s1.333-.598 1.333-1.334c0-.735-.598-1.333-1.333-1.333zm0 2a.667.667 0 1 1 .001-1.335A.667.667 0 0 1 20 25zM16.667 24.667c-.736 0-1.334.598-1.334 1.333s.598 1.333 1.334 1.333c.735 0 1.333-.598 1.333-1.333s-.598-1.333-1.333-1.333zm0 2a.667.667 0 1 1 .001-1.335.667.667 0 0 1-.001 1.335z"/>
    </g>
</svg>
