<svg xmlns="http://www.w3.org/2000/svg" width="31" height="27" viewBox="0 0 31 27">
    <g fill="none" fill-rule="nonzero" opacity=".3" transform="translate(1 1)">
        <ellipse cx="20.652" cy="16.9" fill="#80c241" rx="1" ry="1"/>
        <ellipse cx="21.53" cy="24.267" fill="#80c241" rx="1" ry="1"/>
        <ellipse cx="10.545" cy="20.8" fill="#80c241" rx="1" ry="1"/>
        <ellipse cx="17.576" cy="18.2" fill="#80c241" rx="1" ry="1"/>
        <ellipse cx="24.167" cy="20.367" fill="#80c241" rx="1" ry="1"/>
        <ellipse cx="7.909" cy="24.267" fill="#80c241" rx="1" ry="1"/>
        <path fill="#80c241" stroke="#80c241" stroke-width=".3" d="M7.5 5.156a4.443 4.443 0 0 0-6.213 0A4.275 4.275 0 0 0 0 8.22c0 1.158.457 2.246 1.287 3.064l6.835 6.741 6.214-6.128-6.835-6.74zm-5.592 5.516A3.42 3.42 0 0 1 .878 8.22a3.42 3.42 0 0 1 1.03-2.451 3.529 3.529 0 0 1 2.486-1.014c.9 0 1.8.338 2.486 1.014l6.214 6.129L8.122 16.8l-6.214-6.128zM27.713 1.27A4.396 4.396 0 0 0 24.606 0C23.432 0 22.33.45 21.5 1.27l-6.835 6.74 6.214 6.128 6.835-6.741A4.273 4.273 0 0 0 29 4.333a4.275 4.275 0 0 0-1.287-3.064zm-.621 5.515l-6.214 6.128-4.972-4.903 6.214-6.128A3.517 3.517 0 0 1 24.606.867c.939 0 1.822.36 2.486 1.015a3.42 3.42 0 0 1 1.03 2.451 3.42 3.42 0 0 1-1.03 2.452z"/>
        <path fill="#9B9B9B" d="M18.894 15.167c0-.956-.788-1.734-1.758-1.734-.969 0-1.757.778-1.757 1.734s.788 1.733 1.757 1.733c.97 0 1.758-.777 1.758-1.733zm-2.636 0c0-.478.394-.867.878-.867.485 0 .88.389.88.867a.874.874 0 0 1-.88.866.874.874 0 0 1-.878-.866zM14.06 16.9c-.969 0-1.757.777-1.757 1.733 0 .956.788 1.734 1.758 1.734.969 0 1.757-.778 1.757-1.734S15.03 16.9 14.061 16.9zm0 2.6a.874.874 0 0 1-.878-.867c0-.478.394-.866.879-.866.484 0 .878.388.878.866a.874.874 0 0 1-.878.867zM18.455 19.5c-.97 0-1.758.777-1.758 1.733 0 .956.788 1.734 1.758 1.734.969 0 1.757-.778 1.757-1.734s-.788-1.733-1.757-1.733zm0 2.6a.874.874 0 0 1-.88-.867c0-.478.395-.866.88-.866.484 0 .878.388.878.866a.874.874 0 0 1-.878.867zM14.06 21.667c-.969 0-1.757.777-1.757 1.733 0 .956.788 1.733 1.758 1.733.969 0 1.757-.777 1.757-1.733 0-.956-.788-1.733-1.757-1.733zm0 2.6a.874.874 0 0 1-.878-.867c0-.478.394-.867.879-.867.484 0 .878.389.878.867a.874.874 0 0 1-.878.867z"/>
    </g>
</svg>
