<?xml version="1.0" encoding="UTF-8"?>
<svg width="19px" height="19px" viewBox="0 0 19 19" version="1.1" xmlns="http://www.w3.org/2000/svg" xmlns:xlink="http://www.w3.org/1999/xlink">
    <!-- Generator: sketchtool 50.2 (55047) - http://www.bohemiancoding.com/sketch -->
    <title>ABC6CAB3-7297-44F2-B44F-C41705747A99</title>
    <desc>Created with sketchtool.</desc>
    <defs></defs>
    <g id="Page-1" stroke="none" stroke-width="1" fill="none" fill-rule="evenodd">
        <g id="My-Cart_1-Thankyou" transform="translate(-82.000000, -1312.000000)" fill="#9B9B9B">
            <g id="bottom" transform="translate(-45.000000, 1273.000000)">
                <g id="info-outline" transform="translate(127.000000, 39.000000)">
                    <path d="M9,13 L10,13 L10,8 L9,8 L9,13 L9,13 Z M9.5,0 C4.275,0 0,4.275 0,9.5 C0,14.725 4.275,19 9.5,19 C14.725,19 19,14.725 19,9.5 C19,4.275 14.725,0 9.5,0 L9.5,0 Z M9.5,18 C4.825,18 1,14.175 1,9.5 C1,4.825 4.825,1 9.5,1 C14.175,1 18,4.825 18,9.5 C18,14.175 14.175,18 9.5,18 L9.5,18 Z M9,6 L10,6 L10,5 L9,5 L9,6 L9,6 Z" id="Shape"></path>
                </g>
            </g>
        </g>
    </g>
</svg>