<svg xmlns="http://www.w3.org/2000/svg" xmlns:xlink="http://www.w3.org/1999/xlink" width="28" height="29" viewBox="0 0 28 29">
    <defs>
        <path id="a" d="M27.932.068H0v27.843h27.932V.068z"/>
    </defs>
    <g fill="none" fill-rule="evenodd">
        <g transform="translate(0 .141)">
            <mask id="b" fill="#fff">
                <use xlink:href="#a"/>
            </mask>
            <path fill="#FFF" d="M25.251 18.308c0 3.83-3.114 6.932-6.953 6.932H9.635c-3.841 0-6.955-3.103-6.955-6.932V9.672c0-3.827 3.114-6.932 6.955-6.932h8.663c3.839 0 6.953 3.105 6.953 6.932v8.636zM19.326.068H8.606C3.853.068 0 3.91 0 8.648v10.686c0 4.737 3.853 8.577 8.606 8.577h10.72c4.754 0 8.606-3.84 8.606-8.577V8.648c0-4.739-3.852-8.58-8.606-8.58z" mask="url(#b)"/>
        </g>
        <path fill="#FFF" d="M14.34 18.592a4.42 4.42 0 0 1-4.427-4.412 4.418 4.418 0 0 1 4.428-4.412 4.419 4.419 0 0 1 4.426 4.412 4.42 4.42 0 0 1-4.426 4.412m0-11.746c-4.065 0-7.358 3.283-7.358 7.334 0 4.05 3.293 7.334 7.358 7.334 4.063 0 7.356-3.285 7.356-7.334 0-4.051-3.293-7.334-7.356-7.334M23.06 6.732c0 1.03-.84 1.865-1.872 1.865a1.867 1.867 0 0 1-1.87-1.865 1.87 1.87 0 1 1 3.741 0"/>
    </g>
</svg>
