<svg xmlns="http://www.w3.org/2000/svg" width="25" height="20" viewBox="0 0 25 20">
    <path fill="#BBB" fill-rule="evenodd" d="M0 12.771c0 4.358 2.727 6.837 5.833 6.837 2.88 0 5.152-2.33 5.152-5.109 0-2.78-1.97-4.733-4.47-4.733-.53 0-1.136.075-1.288.15.455-2.554 3.03-5.634 5.455-7.061L7.045 0C2.88 2.93 0 7.588 0 12.771zm14.015 0c0 4.358 2.727 6.837 5.833 6.837 2.88 0 5.152-2.33 5.152-5.109 0-2.78-1.97-4.733-4.47-4.733-.53 0-1.136.075-1.288.15.455-2.554 3.03-5.634 5.455-7.061L21.061 0c-4.167 2.93-7.046 7.588-7.046 12.771z"/>
</svg>
