<svg xmlns="http://www.w3.org/2000/svg" xmlns:xlink="http://www.w3.org/1999/xlink" width="103" height="42" viewBox="0 0 103 42">
    <defs>
        <path id="a" d="M74.517 15.794V.01H.087v15.784h74.43z"/>
        <path id="c" d="M.122 10.453h54.412V.176H.122z"/>
    </defs>
    <g fill="none" fill-rule="evenodd">
        <g transform="translate(27.943 9.947)">
            <mask id="b" fill="#80c241">
                <use xlink:href="#a"/>
            </mask>
            <path fill="#80c241" d="M9.996 15.524v-2.828H3.422V.438H.086v15.086h9.91zm3.638-12.1c.979 0 1.773-.77 1.773-1.72S14.613.01 13.634.01c-.958 0-1.747.745-1.747 1.694 0 .95.79 1.72 1.747 1.72zm-1.469 12.1h2.961V4.6h-2.96v10.924zm9.536 0V7.111h2.286V4.6h-2.286v-.452c0-1.063.559-1.585 1.401-1.585.393 0 .72.07.955.228l.607-2.127C24.127.392 23.38.213 22.516.213c-2.166 0-3.776 1.38-3.776 3.935V4.6h-1.865v2.51h1.865v8.414h2.96zm11.613.27c3.405 0 5.387-1.832 6.481-3.707l-2.843-1.334c-.656 1.22-2.052 2.192-3.638 2.192-2.843 0-4.897-2.104-4.897-4.952 0-2.851 2.054-4.953 4.897-4.953 1.586 0 2.982.973 3.638 2.193l2.843-1.357c-1.094-1.9-3.076-3.687-6.48-3.687-4.69 0-8.3 3.145-8.3 7.804 0 4.636 3.61 7.8 8.3 7.8zm19.122-.27V4.6h-2.988v1.403c-.907-1.131-2.142-1.673-3.472-1.673-2.87 0-4.99 2.169-4.99 5.72 0 3.666 2.168 5.744 4.99 5.744 1.375 0 2.587-.586 3.472-1.673v1.403h2.988zm-5.529-2.286c-1.698 0-2.867-1.289-2.867-3.188 0-1.876 1.169-3.165 2.867-3.165.982 0 2.054.542 2.54 1.266v3.845c-.486.724-1.558 1.242-2.54 1.242zm11.429 2.286V8.309c.487-.7 1.795-1.245 2.774-1.245.35 0 .604.023.818.07V4.33c-1.401 0-2.779.791-3.592 1.738V4.6h-2.964v10.924h2.964zm10.726.27c1.749 0 3.52-.519 4.64-1.513l-1.33-1.901c-.724.68-2.027 1.063-2.982 1.063-1.915 0-3.033-1.107-3.241-2.443h8.369v-.677c0-3.552-2.263-5.993-5.644-5.993-3.402 0-5.83 2.555-5.83 5.72 0 3.505 2.589 5.744 6.018 5.744zm2.61-6.784h-5.547c.115-1.085.91-2.33 2.75-2.33 1.96 0 2.706 1.29 2.797 2.33z" mask="url(#b)"/>
        </g>
        <g transform="translate(27.943 31.025)">
            <mask id="d" fill="#80c241">
                <use xlink:href="#c"/>
            </mask>
            <path fill="#80c241" d="M1.168 8.12V4.963h2.328c1.676 0 2.633-1.096 2.633-2.396 0-1.294-.944-2.392-2.633-2.392H.122v7.943h1.046zM3.373 4.08H1.168V1.058h2.205c.992 0 1.672.618 1.672 1.51 0 .895-.68 1.513-1.672 1.513zM12.54 8.12V4.06c0-1.252-.667-1.834-1.94-1.834-.919 0-1.75.488-2.164.974V.176H7.49v7.943h.946V3.916c.35-.465 1.057-.895 1.788-.895.829 0 1.369.287 1.369 1.312V8.12h.947zm7.238 0V2.368h-.943v.87a2.588 2.588 0 0 0-2.052-1.013c-1.587 0-2.708 1.18-2.708 3.023 0 1.87 1.121 3.014 2.708 3.014a2.6 2.6 0 0 0 2.052-1v.857h.943zm-2.756-.656c-1.234 0-1.963-.94-1.963-2.215 0-1.273.729-2.227 1.963-2.227.742 0 1.487.43 1.813.93v2.597c-.326.498-1.07.915-1.813.915zm5.59.656V4.046c.28-.463 1.074-.916 1.662-.916.14 0 .253.01.366.023v-.915c-.83 0-1.535.45-2.027 1.047v-.917h-.944v5.751h.944zm11.496 0V3.962c0-1.155-.589-1.737-1.697-1.737-.882 0-1.7.547-2.04 1.073-.178-.597-.705-1.073-1.627-1.073-.907 0-1.71.608-1.974.974v-.831h-.947v5.751h.947V3.916c.325-.465.981-.895 1.6-.895.806 0 1.121.465 1.121 1.193v3.905h.941V3.903c.315-.465.984-.882 1.614-.882.793 0 1.121.465 1.121 1.193v3.905h.941zm7.244 0V2.368h-.946v.87a2.588 2.588 0 0 0-2.052-1.013c-1.586 0-2.708 1.18-2.708 3.023 0 1.87 1.122 3.014 2.708 3.014.858 0 1.6-.415 2.052-1v.857h.946zm-2.761-.656c-1.232 0-1.963-.94-1.963-2.215 0-1.273.731-2.227 1.963-2.227.747 0 1.49.43 1.815.93v2.597c-.326.498-1.068.915-1.815.915zm7.33.799c1.108 0 1.764-.427 2.23-1l-.63-.549a1.87 1.87 0 0 1-1.546.75c-1.288 0-2.106-.95-2.106-2.227 0-1.274.818-2.215 2.106-2.215.626 0 1.143.216 1.546.74l.63-.537c-.466-.57-1.122-.999-2.23-.999-1.812 0-3.033 1.31-3.033 3.01 0 1.704 1.22 3.027 3.033 3.027zm5.832 2.192c1.498 0 2.78-.776 2.78-2.406v-5.68h-.94v4.119c-.355.452-1.06.87-1.789.87-.833 0-1.374-.31-1.374-1.32v-3.67h-.946V6.31c0 1.25.67 1.836 1.941 1.836.907 0 1.7-.455 2.168-.954v.857c0 1.048-.694 1.668-1.84 1.668-.728 0-1.398-.241-1.85-.775l-.481.643c.616.585 1.323.87 2.331.87z" mask="url(#d)"/>
        </g>
        <g fill="#80c241">
            <path d="M11.955 40.598a.442.442 0 0 1-.446-.44c.016-.237.175-.422.44-.424a.42.42 0 0 1 .443.438.43.43 0 0 1-.437.426M11.948 41.725a.431.431 0 0 1-.434-.427c-.004-.237.215-.44.453-.433.233.008.43.213.424.442a.438.438 0 0 1-.443.418M11.235 14.088a.413.413 0 0 1-.41.428.42.42 0 0 1-.443-.415.437.437 0 0 1 .431-.435.432.432 0 0 1 .422.422M11.234 22.036a.409.409 0 0 1-.422.414.42.42 0 0 1-.431-.428c.006-.227.2-.419.426-.421a.43.43 0 0 1 .427.435M7.384 22.45a.41.41 0 0 1-.427-.408.43.43 0 0 1 .42-.441c.234-.002.434.2.432.434a.42.42 0 0 1-.425.415M14.66 33.37c-.001.246-.186.42-.438.414a.422.422 0 0 1-.413-.426.443.443 0 0 1 .426-.421.425.425 0 0 1 .426.433M8.527 25.85a.414.414 0 0 1-.429-.428.43.43 0 0 1 .423-.42c.24.001.433.197.43.435a.42.42 0 0 1-.424.413M11.947 25.85a.412.412 0 0 1-.418-.437.427.427 0 0 1 .43-.41c.233.006.42.195.422.423a.421.421 0 0 1-.434.424M11.955 17.917a.416.416 0 0 1-.428-.41.43.43 0 0 1 .424-.439c.237 0 .434.2.43.435a.42.42 0 0 1-.426.414M9.662 17.917a.42.42 0 0 1-.423-.417.433.433 0 0 1 .433-.432.43.43 0 0 1 .42.442.416.416 0 0 1-.43.407M5.094 13.384a.42.42 0 0 1-.426-.413.429.429 0 0 1 .427-.436c.238 0 .433.2.427.436a.42.42 0 0 1-.428.413M5.092 29.253a.42.42 0 0 1-.425-.416.43.43 0 0 1 .43-.433.43.43 0 0 1 .425.438.42.42 0 0 1-.43.41M15.388 30.383c-.246.003-.422-.163-.429-.404a.43.43 0 0 1 .417-.445c.23-.003.436.201.435.433a.42.42 0 0 1-.423.416M9.666 29.253a.42.42 0 0 1-.427-.433.427.427 0 1 1 .853.02.418.418 0 0 1-.426.413M10.807 30.384a.42.42 0 0 1-.426-.413.438.438 0 0 1 .43-.436.43.43 0 0 1 .422.44.409.409 0 0 1-.426.409M2.81 30.383a.422.422 0 0 1-.431-.408.443.443 0 0 1 .427-.44c.24.002.427.194.424.436-.003.244-.172.41-.42.412M17.671 33.785a.42.42 0 0 1-.43-.427.432.432 0 0 1 .423-.421.429.429 0 0 1 .43.432.417.417 0 0 1-.423.416M11.23 37.89a.399.399 0 0 1-.404.427.42.42 0 0 1-.444-.412c0-.236.199-.438.43-.436.228 0 .415.19.419.421M9.674 21.319a.42.42 0 0 1-.435-.426.428.428 0 0 1 .854.005.418.418 0 0 1-.42.42M8.526 21.318a.416.416 0 0 1-.427-.41.425.425 0 0 1 .422-.438.43.43 0 0 1 .43.414.422.422 0 0 1-.425.434M2.806 22.45a.419.419 0 0 1-.426-.414.437.437 0 0 1 .431-.435.432.432 0 0 1 .423.44.412.412 0 0 1-.428.41M.529 21.318a.418.418 0 0 1-.433-.407.427.427 0 1 1 .854-.011.42.42 0 0 1-.421.418M13.102 37.186a.42.42 0 0 1-.434-.424.433.433 0 0 1 .42-.424.43.43 0 0 1 .434.43.417.417 0 0 1-.42.418M2.09 20.903a.415.415 0 0 1-.422.415.422.422 0 0 1-.43-.43.43.43 0 0 1 .425-.418c.24 0 .432.194.428.433M5.104 21.318a.42.42 0 0 1-.437-.423.43.43 0 0 1 .419-.426.43.43 0 0 1 .436.427.42.42 0 0 1-.418.422M13.097 21.318a.42.42 0 0 1-.428-.431.43.43 0 0 1 .426-.417c.237 0 .432.198.427.434a.42.42 0 0 1-.425.414M22.662 28.828a.413.413 0 0 1-.41.424.427.427 0 0 1-.442-.42.433.433 0 0 1 .436-.427c.23.003.414.19.416.423M15.387 29.253a.416.416 0 0 1-.43-.409.426.426 0 0 1 .42-.44.432.432 0 0 1 .433.431.422.422 0 0 1-.423.418M15.372 21.319a.416.416 0 0 1-.415-.424.427.427 0 0 1 .435-.426c.23.007.418.198.418.427 0 .24-.194.427-.438.423M13.09 29.253a.42.42 0 0 1-.422-.419.43.43 0 0 1 .433-.43.43.43 0 0 1 .422.441.42.42 0 0 1-.433.408M8.514 29.252a.42.42 0 0 1-.416-.442.427.427 0 0 1 .853.02c0 .24-.193.427-.437.422M14.232 26.98a.417.417 0 0 1-.423-.415c0-.23.213-.441.437-.432a.43.43 0 0 1 .416.446c-.008.24-.183.405-.43.402M8.528 17.916a.416.416 0 0 1-.43-.426.43.43 0 0 1 .422-.422.431.431 0 0 1 .431.433.42.42 0 0 1-.423.415M14.664 17.489a.415.415 0 0 1-.41.428.42.42 0 0 1-.443-.415.435.435 0 0 1 .431-.434.43.43 0 0 1 .422.42M14.663 25.423a.412.412 0 0 1-.408.428.422.422 0 0 1-.445-.414.437.437 0 0 1 .432-.435c.23.002.417.19.42.42M9.661 25.85a.418.418 0 0 1-.422-.416.432.432 0 0 1 .433-.432.43.43 0 0 1 .42.442.416.416 0 0 1-.43.407M15.372 22.45a.413.413 0 0 1-.416-.421.43.43 0 0 1 .436-.428c.227.007.417.2.419.428a.42.42 0 0 1-.439.421M5.1 19.048a.414.414 0 0 1-.432-.404.436.436 0 0 1 .42-.444.436.436 0 0 1 .434.432.414.414 0 0 1-.421.416M6.66 18.63c0 .251-.179.421-.435.416a.417.417 0 0 1-.416-.421.446.446 0 0 1 .422-.426.43.43 0 0 1 .43.432M7.382 25.85a.404.404 0 0 1-.423-.41.425.425 0 0 1 .421-.438c.231 0 .434.206.43.437a.42.42 0 0 1-.428.41M6.66 25.433a.41.41 0 0 1-.436.417.422.422 0 0 1-.416-.424c0-.228.213-.431.443-.424.23.008.411.199.41.43M1.67 25.851a.419.419 0 0 1-.432-.408.431.431 0 0 1 .423-.44.43.43 0 0 1 .431.432.417.417 0 0 1-.422.416M11.953 19.05a.412.412 0 0 1-.426-.412.43.43 0 0 1 .426-.437c.233-.001.433.204.428.437a.418.418 0 0 1-.428.411M14.661 18.624a.398.398 0 0 1-.408.422.42.42 0 0 1-.443-.414.447.447 0 0 1 .415-.433.43.43 0 0 1 .436.425M10.093 24.289a.42.42 0 0 1-.429.43.423.423 0 0 1-.425-.415.43.43 0 0 1 .43-.433c.233.002.42.187.424.418M6.249 2.048a.423.423 0 0 1-.44-.42.426.426 0 1 1 .853-.003.413.413 0 0 1-.413.423M10.091 5.026a.416.416 0 0 1-.432.423.422.422 0 0 1-.42-.42.43.43 0 0 1 .416-.427.424.424 0 0 1 .436.424M9.667 37.187a.42.42 0 0 1-.428-.413.427.427 0 1 1 .854 0 .418.418 0 0 1-.426.413M14.236 34.915a.417.417 0 0 1-.426-.411.445.445 0 0 1 .431-.437c.24.006.425.201.42.442-.004.241-.177.407-.425.406M6.66 34.498c0 .251-.176.42-.433.416a.416.416 0 0 1-.418-.42.447.447 0 0 1 .421-.427.43.43 0 0 1 .43.43M19.962 33.785a.416.416 0 0 1-.434-.404.431.431 0 0 1 .419-.445.433.433 0 0 1 .435.43.419.419 0 0 1-.42.419M6.66 33.357a.408.408 0 0 1-.426.427.423.423 0 0 1-.426-.413.443.443 0 0 1 .432-.435c.23.001.417.19.42.42M21.084 32.654a.422.422 0 0 1-.415-.426.43.43 0 0 1 .44-.423c.24.008.427.21.414.448a.42.42 0 0 1-.439.4M10.092 32.235a.419.419 0 0 1-.42.419.423.423 0 1 1-.011-.848c.24-.004.432.189.43.429M9.661 30.673a.422.422 0 0 1 .431.429.419.419 0 0 1-.42.418.424.424 0 0 1-.434-.427.429.429 0 0 1 .423-.42M22.665 29.955a.413.413 0 0 1-.408.43.42.42 0 0 1-.445-.414.437.437 0 0 1 .43-.436c.228.002.419.191.423.42M15.385 14.516a.41.41 0 0 1-.427-.409.43.43 0 0 1 .422-.44c.23-.004.433.2.43.435a.42.42 0 0 1-.425.414M7.38 30.384a.41.41 0 0 1-.424-.411.43.43 0 0 1 .425-.438c.233 0 .433.204.428.438a.419.419 0 0 1-.428.41M14.66 12.96a.413.413 0 0 1-.409.424.426.426 0 0 1-.442-.42.432.432 0 0 1 .435-.428c.232.003.415.19.417.423M9.66 13.384a.42.42 0 0 1-.42-.42.426.426 0 1 1 .853.013.419.419 0 0 1-.433.407M9.666 33.785a.418.418 0 0 1-.427-.413.432.432 0 0 1 .429-.435c.237 0 .43.199.425.437a.417.417 0 0 1-.427.411M14.662 24.298c0 .234-.18.417-.415.422a.426.426 0 0 1-.437-.424c0-.229.19-.42.42-.425a.423.423 0 0 1 .432.427M13.073 24.719a.424.424 0 0 1-.405-.435.426.426 0 1 1 .852.045.424.424 0 0 1-.447.39M11.964 23.872a.432.432 0 0 1 .417.426c0 .237-.199.428-.439.422a.418.418 0 0 1-.412-.443c.009-.23.202-.41.434-.405M15.38 33.784a.41.41 0 0 1-.421-.412.426.426 0 0 1 .425-.435.44.44 0 0 1 .427.438.421.421 0 0 1-.43.41M8.098 24.292c0-.23.188-.416.42-.42a.428.428 0 0 1 .433.43.424.424 0 0 1-.422.418.42.42 0 0 1-.43-.428M6.663 24.288a.42.42 0 0 1-.426.432.424.424 0 1 1 .001-.85c.232.002.42.186.425.418M3.526 24.295a.426.426 0 0 1 .854.002.423.423 0 0 1-.439.423.42.42 0 0 1-.415-.425M1.658 23.872a.425.425 0 1 1 .015.848.423.423 0 1 1-.015-.848M10.091 23.164a.427.427 0 0 1-.853-.002c0-.235.201-.428.44-.421.236.007.415.19.413.423M17.66 29.252a.421.421 0 0 1-.42-.42.426.426 0 1 1 .853.014.417.417 0 0 1-.432.406M14.664 22.024a.414.414 0 0 1-.411.426.42.42 0 0 1-.443-.417.438.438 0 0 1 .434-.433.432.432 0 0 1 .42.424M19.955 29.252a.425.425 0 0 1-.002-.848.43.43 0 0 1 .429.416.422.422 0 0 1-.427.432M9.673 34.917a.418.418 0 0 1-.435-.423.44.44 0 0 1 .422-.425.431.431 0 0 1 .432.43.412.412 0 0 1-.419.418M21.1 29.253a.42.42 0 0 1-.43-.429.43.43 0 0 1 .423-.42.428.428 0 0 1 .43.432.42.42 0 0 1-.422.417M14.663 35.638a.42.42 0 0 1-.422.417.426.426 0 0 1-.43-.43.43.43 0 0 1 .425-.418.42.42 0 0 1 .427.431M6.663 22.038a.414.414 0 0 1-.425.412.418.418 0 0 1-.428-.43.436.436 0 0 1 .427-.42c.237.001.43.2.426.438M3.947 30.384a.412.412 0 0 1-.42-.416.43.43 0 0 1 .43-.432.437.437 0 0 1 .422.441.418.418 0 0 1-.432.407M14.66 36.77a.413.413 0 0 1-.418.416.424.424 0 0 1-.433-.427.433.433 0 0 1 .444-.42c.23.008.41.198.408.43M16.523 21.318a.417.417 0 0 1-.424-.414.429.429 0 0 1 .428-.434c.234 0 .43.202.425.438a.422.422 0 0 1-.429.41M15.375 37.187a.416.416 0 0 1-.418-.42c0-.24.195-.434.432-.43.23.005.42.196.422.425a.422.422 0 0 1-.436.425M16.526 37.187a.418.418 0 0 1-.427-.412.428.428 0 0 1 .425-.437.43.43 0 0 1 .428.435.42.42 0 0 1-.426.414M23.373 29.252a.416.416 0 0 1-.414-.423c0-.24.198-.432.435-.425a.43.43 0 0 1 .417.427c0 .24-.193.426-.438.421M14.663 20.892a.415.415 0 0 1-.41.426.423.423 0 1 1-.01-.848c.232.003.418.19.42.422M3.956 29.252a.414.414 0 0 1-.427-.408.424.424 0 0 1 .42-.44.432.432 0 0 1 .432.412.424.424 0 0 1-.425.436M22.96 27.687a.42.42 0 0 1 .424-.414c.238 0 .432.196.427.434a.428.428 0 0 1-.428.414.42.42 0 0 1-.424-.434M11.235 27.695a.42.42 0 0 1-.433.425.424.424 0 1 1 .015-.848.423.423 0 0 1 .418.423M3.952 27.272a.43.43 0 0 1 .428.415.424.424 0 0 1-.428.433.419.419 0 0 1-.426-.413.424.424 0 0 1 .426-.435M3.23 27.695c0 .236-.177.42-.41.426a.43.43 0 0 1-.44-.422.429.429 0 0 1 .436-.425.414.414 0 0 1 .415.421M22.662 26.566c-.002.251-.178.42-.436.414a.42.42 0 0 1-.416-.422.448.448 0 0 1 .424-.425.43.43 0 0 1 .428.433M19.948 26.984a.413.413 0 0 1-.42-.418.432.432 0 0 1 .433-.432.439.439 0 0 1 .421.425.42.42 0 0 1-.434.425M19.233 29.973a.402.402 0 0 1-.423.41.404.404 0 0 1-.42-.43.428.428 0 0 1 .421-.418c.235 0 .426.199.422.438M11.955 29.252a.416.416 0 0 1-.427-.41.425.425 0 0 1 .423-.438.43.43 0 0 1 .43.415.422.422 0 0 1-.426.433M3.527 32.224a.423.423 0 0 1 .423-.418.423.423 0 1 1 .005.848.418.418 0 0 1-.428-.43M6.66 32.221a.417.417 0 0 1-.423.433.427.427 0 0 1-.429-.413.43.43 0 0 1 .428-.435c.233.001.42.184.425.415M9.666 26.982a.418.418 0 0 1-.428-.411.44.44 0 0 1 .43-.437c.236.002.429.201.424.44a.412.412 0 0 1-.426.408M8.099 32.224a.423.423 0 0 1 .422-.417.424.424 0 0 1 .006.847.418.418 0 0 1-.428-.43M11.943 30.384a.413.413 0 0 1-.416-.42c.001-.238.2-.434.436-.428.227.006.418.2.418.427a.42.42 0 0 1-.438.421M13.097 31.805c.238 0 .432.2.426.437a.422.422 0 0 1-.428.412.422.422 0 0 1-.427-.415.43.43 0 0 1 .429-.434M16.952 32.224a.423.423 0 0 1-.43.43.42.42 0 0 1-.423-.417.426.426 0 0 1 .853-.013M18.093 32.237a.419.419 0 0 1-.422.417.424.424 0 1 1-.007-.848c.24-.002.431.19.429.43M6.66 28.836a.413.413 0 0 1-.42.416.424.424 0 0 1-.432-.428.432.432 0 0 1 .426-.42.423.423 0 0 1 .427.432M22.664 32.239a.417.417 0 0 1-.442.415.425.425 0 0 1-.41-.431.43.43 0 0 1 .426-.418c.24 0 .43.194.426.434M5.1 33.785a.417.417 0 0 1-.432-.425.431.431 0 0 1 .42-.423.432.432 0 0 1 .434.43.418.418 0 0 1-.421.418M16.522 29.252a.418.418 0 0 1-.423-.415.43.43 0 0 1 .429-.433c.237.002.43.202.424.439a.423.423 0 0 1-.43.41M5.1 25.85a.418.418 0 0 1-.432-.424c0-.227.19-.419.42-.423a.43.43 0 0 1 .433.43.416.416 0 0 1-.42.417M7.376 33.785a.412.412 0 0 1-.42-.417.429.429 0 0 1 .43-.431c.236.004.43.207.423.442a.42.42 0 0 1-.433.406M8.516 33.785a.415.415 0 0 1-.418-.42.43.43 0 0 1 .434-.428c.23.005.417.195.42.425a.42.42 0 0 1-.436.423M22.662 24.302a.416.416 0 0 1-.439.417.428.428 0 0 1-.413-.428.432.432 0 0 1 .425-.42c.24 0 .43.191.427.431M11.231 19.762c0 .236-.177.419-.412.424a.43.43 0 0 1-.44-.423.43.43 0 0 1 .439-.423.413.413 0 0 1 .413.422M6.66 19.766a.42.42 0 0 1-.437.42.426.426 0 0 1-.415-.427.429.429 0 0 1 .423-.42.416.416 0 0 1 .43.427M3.943 19.34a.428.428 0 0 1 .438.424.428.428 0 0 1-.42.422.42.42 0 0 1-.432-.405.415.415 0 0 1 .414-.44M3.951 19.05a.413.413 0 0 1-.425-.412.43.43 0 0 1 .426-.437c.234 0 .434.205.428.438a.418.418 0 0 1-.429.41M7.375 17.917a.412.412 0 0 1-.418-.418.427.427 0 0 1 .43-.43c.235.004.43.208.422.442a.42.42 0 0 1-.434.406M5.085 17.917a.418.418 0 0 1-.418-.422c0-.236.203-.434.437-.427.23.006.418.199.418.427a.42.42 0 0 1-.437.422M3.234 17.49a.414.414 0 0 1-.41.427.42.42 0 0 1-.444-.417.436.436 0 0 1 .433-.433.431.431 0 0 1 .42.423M16.53 16.786a.424.424 0 1 1-.01-.849.424.424 0 1 1 .01.849M11.235 16.358a.42.42 0 0 1-.432.428.424.424 0 1 1 .013-.85.426.426 0 0 1 .419.422M11.942 13.384a.417.417 0 0 1-.414-.424.427.427 0 0 1 .853.003c0 .239-.195.426-.439.421M2.819 13.384a.427.427 0 0 1-.44-.42.43.43 0 0 1 .416-.427.421.421 0 0 1 .434.423.412.412 0 0 1-.41.424M11.235 11.83a.42.42 0 0 1-.418.422.426.426 0 0 1-.436-.425.43.43 0 0 1 .44-.423.423.423 0 0 1 .414.426M11.958 11.114a.413.413 0 0 1-.43-.425.432.432 0 0 1 .42-.424c.23-.004.435.201.433.434a.417.417 0 0 1-.423.415M7.37 11.112a.398.398 0 0 1-.411-.419c0-.239.196-.432.432-.428a.447.447 0 0 1 .42.43.42.42 0 0 1-.44.417M5.09 11.115a.416.416 0 0 1-.423-.417.435.435 0 0 1 .433-.431c.236.004.43.208.422.442a.417.417 0 0 1-.433.406M14.664 9.555a.414.414 0 0 1-.41.427.42.42 0 0 1-.443-.415.434.434 0 0 1 .431-.433.43.43 0 0 1 .422.42M8.53 9.982a.417.417 0 0 1-.432-.425.43.43 0 0 1 .42-.423.43.43 0 0 1 .433.431.42.42 0 0 1-.422.417M5.104 9.983a.418.418 0 0 1-.436-.423c0-.229.187-.42.417-.426a.432.432 0 0 1 .437.427.419.419 0 0 1-.418.422M8.518 6.581a.416.416 0 0 1-.42-.418.431.431 0 0 1 .433-.43c.236.004.43.208.42.443a.419.419 0 0 1-.433.405M5.521.486a.427.427 0 0 1-.853.016.427.427 0 0 1 .853-.016M11.956 21.318a.417.417 0 0 1-.428-.41.427.427 0 0 1 .422-.439.432.432 0 0 1 .43.433.422.422 0 0 1-.424.416M14.66 19.767a.42.42 0 0 1-.416.42.435.435 0 0 1-.435-.428.43.43 0 0 1 .443-.42.415.415 0 0 1 .409.428M3.95 21.318a.413.413 0 0 1-.421-.415.424.424 0 0 1 .425-.433c.232.003.422.19.427.418a.423.423 0 0 1-.43.43M6.663 20.896c0 .235-.18.419-.416.422a.422.422 0 0 1-.438-.423.433.433 0 0 1 .44-.426.427.427 0 0 1 .414.427M6.662 14.087a.412.412 0 0 1-.407.428.42.42 0 0 1-.446-.413.439.439 0 0 1 .411-.435.43.43 0 0 1 .442.42M3.527 14.069a.431.431 0 0 1 .44-.402c.235.01.426.22.412.453a.421.421 0 0 1-.463.395.414.414 0 0 1-.389-.446M9.67 22.45a.419.419 0 0 1-.432-.409.438.438 0 0 1 .425-.44.431.431 0 0 1 .43.435.413.413 0 0 1-.424.413M16.516 30.383a.415.415 0 0 1-.418-.42c.001-.236.202-.434.436-.428a.436.436 0 0 1 .418.446.418.418 0 0 1-.436.402M7.374 13.384a.417.417 0 0 1-.419-.42c0-.239.197-.434.433-.429a.432.432 0 0 1 .42.443.422.422 0 0 1-.434.406M19.947 30.384a.415.415 0 0 1-.42-.419c0-.236.2-.435.435-.43.226.005.419.2.42.426a.42.42 0 0 1-.435.423M8.516 22.45a.414.414 0 0 1-.419-.42c0-.237.2-.433.435-.428a.436.436 0 0 1 .42.425.418.418 0 0 1-.436.422M3.962 30.675a.428.428 0 0 1 .418.442.429.429 0 0 1-.438.404.418.418 0 0 1-.414-.443.418.418 0 0 1 .434-.403M5.085 31.52a.42.42 0 0 1-.417-.422.428.428 0 0 1 .854-.001.42.42 0 0 1-.437.423M6.662 31.093a.418.418 0 0 1-.43.427.425.425 0 0 1-.423-.419.429.429 0 0 1 .434-.427.42.42 0 0 1 .42.42M8.515 30.672a.43.43 0 0 1 .436.407.422.422 0 0 1-.418.44.419.419 0 0 1-.435-.403.426.426 0 0 1 .417-.444M14.96 11.834a.413.413 0 0 1 .407-.428.427.427 0 0 1 .444.417.432.432 0 0 1-.433.43.42.42 0 0 1-.418-.42M16.952 31.112a.423.423 0 0 1-.45.407.42.42 0 0 1-.403-.436.428.428 0 0 1 .853.029M9.676 30.384a.42.42 0 0 1-.438-.421c.001-.226.194-.422.42-.427a.43.43 0 0 1 .434.428.413.413 0 0 1-.416.42M8.528 30.384a.414.414 0 0 1-.43-.407.431.431 0 0 1 .422-.441c.232-.004.435.2.432.433a.42.42 0 0 1-.424.415M8.53 14.514a.414.414 0 0 1-.432-.404.43.43 0 0 1 .42-.443.436.436 0 0 1 .434.43.418.418 0 0 1-.422.417M6.236 30.384a.42.42 0 0 1-.427-.413.438.438 0 0 1 .43-.436.43.43 0 0 1 .423.44.412.412 0 0 1-.426.41M13.09 14.515a.418.418 0 0 1-.422-.416.433.433 0 0 1 .433-.432.43.43 0 0 1 .421.423.417.417 0 0 1-.431.425M3.232 15.23c0 .235-.18.417-.415.421a.425.425 0 0 1-.437-.424.43.43 0 0 1 .42-.423.422.422 0 0 1 .432.426M3.95 14.805c.239-.001.434.196.43.432a.424.424 0 0 1-.427.414.418.418 0 0 1-.426-.412.42.42 0 0 1 .424-.434M6.958 15.232a.414.414 0 0 1 .43-.425c.232.003.42.19.422.418a.43.43 0 0 1-.436.427.417.417 0 0 1-.416-.42M8.496 15.647a.412.412 0 0 1-.397-.437.417.417 0 0 1 .433-.403.427.427 0 0 1 .42.44c-.013.243-.202.409-.456.4M11.233 28.837a.413.413 0 0 1-.42.415.42.42 0 0 1-.43-.429.433.433 0 0 1 .424-.42.425.425 0 0 1 .426.434M2.092 16.367a.421.421 0 0 1-.442.418.422.422 0 0 1-.412-.428.426.426 0 1 1 .853.01M3.528 16.362c0-.24.196-.43.435-.424a.43.43 0 0 1 .417.425.428.428 0 0 1-.419.423.418.418 0 0 1-.433-.424M6.66 16.36a.417.417 0 0 1-.43.426.43.43 0 0 1-.422-.42.431.431 0 0 1 .415-.427.422.422 0 0 1 .437.42M8.098 16.352a.424.424 0 0 1 .427-.414c.237 0 .432.2.426.435a.425.425 0 0 1-.428.413.424.424 0 0 1-.425-.434M13.087 15.937a.427.427 0 0 1 .435.425.423.423 0 0 1-.417.424.423.423 0 0 1-.436-.405.429.429 0 0 1 .418-.444M7.383 2.049a.413.413 0 0 1-.427-.41.428.428 0 0 1 .423-.44c.234-.001.433.2.43.435a.421.421 0 0 1-.426.415M8.53 3.18a.415.415 0 0 1-.433-.405.434.434 0 0 1 .422-.444.44.44 0 0 1 .433.433.417.417 0 0 1-.423.416M9.668 38.318a.42.42 0 0 1-.43-.41.439.439 0 0 1 .427-.438c.236 0 .431.198.427.435a.413.413 0 0 1-.424.413M6.66 6.167a.41.41 0 0 1-.44.413.42.42 0 0 1-.412-.427.441.441 0 0 1 .426-.42c.239 0 .43.195.427.434M11.955 6.581a.415.415 0 0 1-.428-.409.432.432 0 0 1 .423-.44.438.438 0 0 1 .431.436.42.42 0 0 1-.426.413M18.093 35.626a.42.42 0 0 1-.41.429.426.426 0 0 1-.443-.418.427.427 0 0 1 .853-.011M14.958 35.621a.42.42 0 0 1 .424-.414c.238 0 .433.198.428.434a.425.425 0 0 1-.428.414.42.42 0 0 1-.424-.434M6.956 35.625a.424.424 0 0 1 .422-.42.43.43 0 0 1 .43.432.426.426 0 0 1-.443.418.42.42 0 0 1-.41-.43M21.095 34.918a.418.418 0 0 1-.426-.413.436.436 0 0 1 .43-.436.433.433 0 0 1 .425.44.415.415 0 0 1-.429.409M19.959 34.916a.412.412 0 0 1-.43-.424.432.432 0 0 1 .42-.424.44.44 0 0 1 .433.433.418.418 0 0 1-.423.415M17.67 34.917a.418.418 0 0 1-.43-.408.44.44 0 0 1 .425-.44.43.43 0 0 1 .428.435.412.412 0 0 1-.423.413M16.525 34.914a.41.41 0 0 1-.426-.407.435.435 0 0 1 .425-.44.442.442 0 0 1 .428.438.415.415 0 0 1-.427.41M15.387 34.917a.409.409 0 0 1-.43-.425.43.43 0 0 1 .42-.423c.232-.003.435.2.433.433a.418.418 0 0 1-.423.415M8.53 34.918a.415.415 0 0 1-.433-.424c.003-.23.19-.42.42-.425a.438.438 0 0 1 .435.432.418.418 0 0 1-.422.417M7.377 34.917a.407.407 0 0 1-.42-.414.429.429 0 0 1 .427-.434.437.437 0 0 1 .425.441.418.418 0 0 1-.432.407M8.951 8.43a.422.422 0 0 1-.419.421.422.422 0 0 1-.434-.425.426.426 0 0 1 .853.003M21.101 33.784a.419.419 0 0 1-.432-.406.432.432 0 0 1 .423-.44.43.43 0 0 1 .43.412.415.415 0 0 1-.42.434M16.526 33.784a.416.416 0 0 1-.427-.429.43.43 0 0 1 .425-.418c.236-.001.432.2.428.436a.417.417 0 0 1-.426.41M13.095 33.784a.42.42 0 0 1-.427-.41.432.432 0 0 1 .428-.437c.229 0 .422.19.426.418a.416.416 0 0 1-.427.429M.516 22.45a.414.414 0 0 1-.42-.418.432.432 0 0 1 .433-.43.437.437 0 0 1 .421.423.419.419 0 0 1-.434.424M13.092 9.983a.419.419 0 0 1-.424-.416.431.431 0 0 1 .431-.433.43.43 0 0 1 .424.44.418.418 0 0 1-.43.409M1.67 22.45a.42.42 0 0 1-.432-.426.436.436 0 0 1 .423-.423.43.43 0 0 1 .43.433.415.415 0 0 1-.421.415M10.091 10.691a.408.408 0 0 1-.412.421.42.42 0 0 1-.441-.416c0-.221.196-.424.416-.431a.435.435 0 0 1 .437.426M14.664 10.701a.413.413 0 0 1-.423.415.419.419 0 0 1-.43-.429.436.436 0 0 1 .425-.42.43.43 0 0 1 .428.434M14.664 32.24a.419.419 0 0 1-.424.414.424.424 0 1 1-.002-.849c.24 0 .43.194.426.434M3.528 11.826c0-.234.182-.417.416-.42a.428.428 0 0 1 .436.425.43.43 0 0 1-.42.42.42.42 0 0 1-.432-.425M6.662 11.822a.42.42 0 0 1-.428.43.426.426 0 0 1-.425-.417.43.43 0 0 1 .431-.431.422.422 0 0 1 .422.418M6.957 32.223a.424.424 0 0 1 .422-.418.425.425 0 0 1 .003.849.418.418 0 0 1-.425-.431M21.523 31.096a.42.42 0 0 1-.434.424.422.422 0 0 1-.42-.42.43.43 0 0 1 .436-.427.425.425 0 0 1 .418.423M16.529 19.05a.414.414 0 0 1-.43-.408.432.432 0 0 1 .422-.441c.232-.003.435.2.432.433a.418.418 0 0 1-.424.415M.098 23.16c0-.233.18-.414.418-.419a.43.43 0 0 1 .435.426.425.425 0 0 1-.42.419.42.42 0 0 1-.433-.425M13.1 26.98a.417.417 0 0 1-.43-.405.444.444 0 0 1 .423-.442c.233-.002.432.2.429.436a.409.409 0 0 1-.422.412M10.814 26.983a.417.417 0 0 1-.432-.425.436.436 0 0 1 .423-.423.432.432 0 0 1 .43.432.412.412 0 0 1-.42.416M13.097 17.917a.418.418 0 0 1-.428-.411.431.431 0 0 1 .426-.438c.236 0 .433.2.428.436a.418.418 0 0 1-.426.413M8.531 26.982a.414.414 0 0 1-.433-.422.433.433 0 0 1 .418-.426.438.438 0 0 1 .435.43.418.418 0 0 1-.42.418M7.386 26.982a.408.408 0 0 1-.429-.404.43.43 0 0 1 .418-.444c.232-.003.436.2.434.433a.418.418 0 0 1-.423.415M15.385 19.05a.411.411 0 0 1-.428-.409.43.43 0 0 1 .422-.44.437.437 0 0 1 .431.434.419.419 0 0 1-.425.414M3.957 26.983a.413.413 0 0 1-.43-.405.432.432 0 0 1 .42-.443.437.437 0 0 1 .433.432.417.417 0 0 1-.423.416M3.232 26.574a.407.407 0 0 1-.425.409.42.42 0 0 1-.427-.431.44.44 0 0 1 .43-.418c.235 0 .426.2.422.44M14.96 24.302a.423.423 0 0 1 .427-.43c.23.002.42.19.424.419a.428.428 0 0 1-.432.428.415.415 0 0 1-.42-.417M1.663 26.983a.417.417 0 0 1-.426-.413.437.437 0 0 1 .431-.435c.237.003.43.204.424.44a.415.415 0 0 1-.43.408M21.093 25.851a.418.418 0 0 1-.424-.415.432.432 0 0 1 .431-.434.43.43 0 0 1 .423.44.417.417 0 0 1-.43.409M13.089 19.048a.416.416 0 0 1-.42-.417.439.439 0 0 1 .434-.43.433.433 0 0 1 .42.444.413.413 0 0 1-.434.403M11.231 18.65c-.008.238-.187.402-.433.397a.418.418 0 0 1-.418-.44.444.444 0 0 1 .44-.407c.237.008.42.208.411.45M3.96 25.85a.414.414 0 0 1-.433-.423.428.428 0 0 1 .417-.425.436.436 0 0 1 .436.43.42.42 0 0 1-.42.419M16.519 17.915a.416.416 0 0 1-.42-.436.43.43 0 0 1 .433-.41.432.432 0 0 1 .42.443.417.417 0 0 1-.433.403M9.672 19.048a.42.42 0 0 1-.434-.424.44.44 0 0 1 .423-.424.43.43 0 0 1 .431.433.412.412 0 0 1-.42.415M8.522 19.046a.41.41 0 0 1-.424-.41.434.434 0 0 1 .428-.437c.229 0 .431.21.426.44a.416.416 0 0 1-.43.407M7.371 19.049a.409.409 0 0 1-.414-.42.43.43 0 0 1 .433-.428c.229.007.418.2.42.427a.419.419 0 0 1-.439.42M13.095 25.85a.418.418 0 0 1-.427-.412.432.432 0 0 1 .429-.436c.236.001.432.203.426.438a.418.418 0 0 1-.428.41M3.23 18.636c-.003.25-.184.418-.44.41a.418.418 0 0 1-.41-.426.443.443 0 0 1 .427-.42.428.428 0 0 1 .424.436M1.666 19.05a.417.417 0 0 1-.428-.41.436.436 0 0 1 .427-.44c.236.001.432.2.427.437a.416.416 0 0 1-.426.412M3.952 17.916a.414.414 0 0 1-.425-.43.427.427 0 0 1 .425-.418c.235 0 .434.204.428.437a.42.42 0 0 1-.428.411M8.952 23.16a.423.423 0 0 1-.415.426.421.421 0 0 1-.44-.42.426.426 0 0 1 .434-.427.43.43 0 0 1 .42.422M3.23 23.17a.416.416 0 0 1-.42.417.433.433 0 0 1-.431-.432.426.426 0 0 1 .427-.414.412.412 0 0 1 .424.43M13.523 23.155a.42.42 0 0 1-.41.43.42.42 0 0 1-.445-.414.429.429 0 0 1 .43-.433.43.43 0 0 1 .425.417M5.522 24.29a.422.422 0 0 1-.412.43.423.423 0 0 1-.443-.418.428.428 0 0 1 .855-.011M6.955 19.754a.424.424 0 0 1 .425-.416c.239-.001.435.198.429.433a.426.426 0 0 1-.427.415.421.421 0 0 1-.427-.432M14.96 16.356a.422.422 0 0 1 .42-.418.43.43 0 0 1 .431.43.428.428 0 0 1-.445.417.416.416 0 0 1-.407-.429M6.661 23.159a.414.414 0 0 1-.41.425.426.426 0 0 1-.443-.416.43.43 0 0 1 .415-.427.418.418 0 0 1 .438.418M11.23 25.422a.405.405 0 0 1-.422.428.4.4 0 0 1-.419-.412.426.426 0 0 1 .422-.436.425.425 0 0 1 .42.42M1.645 23.584a.418.418 0 0 1-.407-.431.427.427 0 1 1 .854.02.42.42 0 0 1-.447.411M11.957 38.606c.229.002.42.19.424.42a.423.423 0 0 1-.432.428.425.425 0 0 1 .007-.848M6.66 3.894c.001.241-.189.427-.432.423a.43.43 0 0 1-.42-.422.43.43 0 0 1 .42-.424.416.416 0 0 1 .433.423M11.528 23.168a.422.422 0 0 1 .43-.43.43.43 0 0 1 .423.42.424.424 0 0 1-.432.427.417.417 0 0 1-.421-.417M10.803 21.318a.42.42 0 0 1-.421-.419.432.432 0 0 1 .434-.43.428.428 0 0 1 .419.443.416.416 0 0 1-.432.406M5.079 22.45a.416.416 0 0 1-.411-.427.433.433 0 0 1 .443-.422c.23.011.414.206.411.434a.419.419 0 0 1-.443.415M6.957 7.285a.421.421 0 0 1 .424-.415c.238 0 .434.198.428.434a.426.426 0 0 1-.428.413.418.418 0 0 1-.424-.432M19.234 35.636a.419.419 0 0 1-.418.419.42.42 0 0 1-.428-.429.419.419 0 0 1 .418-.419c.24-.003.43.187.428.43M15.387 22.74c.23.002.421.19.424.418a.43.43 0 0 1-.434.429.419.419 0 0 1-.418-.438.417.417 0 0 1 .428-.409M22.665 23.164a.418.418 0 0 1-.436.421.422.422 0 0 1-.418-.423c0-.235.204-.432.44-.425a.426.426 0 0 1 .414.427M10.093 35.623a.42.42 0 0 1-.428.43.42.42 0 0 1-.425-.414.427.427 0 0 1 .853-.016M3.526 23.158a.425.425 0 0 1 .421-.42.43.43 0 0 1 .433.43.422.422 0 0 1-.443.417.417.417 0 0 1-.41-.427M6.663 9.57a.416.416 0 0 1-.424.413.42.42 0 0 1-.429-.43.434.434 0 0 1 .426-.419.427.427 0 0 1 .427.435M6.956 24.303a.424.424 0 0 1 .429-.432.43.43 0 0 1 .424.419.425.425 0 0 1-.432.43.418.418 0 0 1-.42-.417M13.1 34.914c-.252.001-.436-.18-.431-.423a.446.446 0 0 1 .423-.425.443.443 0 0 1 .43.417.408.408 0 0 1-.422.43M11.957 34.917a.41.41 0 0 1-.43-.406.432.432 0 0 1 .422-.442.438.438 0 0 1 .432.434.416.416 0 0 1-.424.414M6.66 8.43a.417.417 0 0 1-.414.421.43.43 0 0 1-.438-.424.43.43 0 0 1 .42-.422.421.421 0 0 1 .432.425M3.234 19.77a.42.42 0 0 1-.423.416.425.425 0 0 1-.431-.43.43.43 0 0 1 .426-.418.423.423 0 0 1 .428.432M11.231 8.428a.414.414 0 0 1-.412.423.423.423 0 0 1-.435-.424c0-.23.185-.42.416-.423.244-.004.43.18.431.424M13.522 8.425c.002.23-.18.42-.413.426a.424.424 0 1 1-.026-.848.426.426 0 0 1 .439.422M8.527 28.12a.424.424 0 0 1-.005-.847.428.428 0 0 1 .43.431.422.422 0 0 1-.425.416M6.662 27.708a.42.42 0 0 1-.426.412.426.426 0 0 1-.427-.434.43.43 0 0 1 .43-.414c.24.001.428.196.423.436M4.667 27.689a.428.428 0 0 1 .854.017.422.422 0 0 1-.445.414.422.422 0 0 1-.409-.431M13.1 22.448a.417.417 0 0 1-.431-.406.435.435 0 0 1 .423-.44.43.43 0 0 1 .43.432.415.415 0 0 1-.423.414M5.094 30.383a.417.417 0 0 1-.427-.411.435.435 0 0 1 .429-.437c.227.001.42.192.426.42a.417.417 0 0 1-.428.428M1.664 28.12a.422.422 0 0 1-.426-.415.428.428 0 0 1 .854-.017.422.422 0 0 1-.428.432M14.663 15.219a.417.417 0 0 1-.424.432.425.425 0 0 1-.428-.413.43.43 0 0 1 .428-.434c.232 0 .42.183.424.415M15.39 14.805a.427.427 0 0 1 .42.422.426.426 0 0 1-.436.425.417.417 0 0 1-.416-.441.42.42 0 0 1 .432-.406M11.527 27.698c0-.239.196-.431.434-.426a.43.43 0 0 1 .42.423.423.423 0 0 1-.416.425.42.42 0 0 1-.438-.422M6.662 26.568a.411.411 0 0 1-.44.415.418.418 0 0 1-.413-.426.437.437 0 0 1 .425-.422.43.43 0 0 1 .428.433M13.092 28.12a.42.42 0 0 1-.424-.417.428.428 0 1 1 .855.007.421.421 0 0 1-.43.41M6.956 31.105a.424.424 0 0 1 .427-.433.43.43 0 0 1 .426.417.422.422 0 0 1-.43.43.417.417 0 0 1-.423-.414M3.23 20.888a.412.412 0 0 1-.404.43.425.425 0 0 1-.448-.413.44.44 0 0 1 .43-.435c.232 0 .418.185.422.418M5.102 31.806a.43.43 0 0 1 .42.442.425.425 0 0 1-.434.406.425.425 0 0 1-.42-.42.428.428 0 0 1 .434-.428M3.23 28.841a.412.412 0 0 1-.423.411.426.426 0 0 1-.43-.432.444.444 0 0 1 .431-.416c.236 0 .426.196.422.437M13.096 12.251a.423.423 0 0 1-.428-.432.427.427 0 0 1 .854.019.421.421 0 0 1-.426.413M22.662 31.111a.416.416 0 0 1-.427.41.428.428 0 0 1-.424-.438.428.428 0 0 1 .433-.408.415.415 0 0 1 .418.436M19.96 30.674c.238.002.43.202.422.439a.426.426 0 0 1-.434.407.419.419 0 0 1-.42-.419.42.42 0 0 1 .432-.427M16.523 19.34c.24 0 .435.197.43.431a.424.424 0 0 1-.426.415.424.424 0 1 1-.004-.847M18.092 31.1a.421.421 0 0 1-.438.421.431.431 0 0 1-.415-.427.43.43 0 0 1 .422-.419.418.418 0 0 1 .431.426M19.234 27.707a.418.418 0 0 1-.423.414.42.42 0 0 1-.423-.434.419.419 0 0 1 .423-.414.42.42 0 0 1 .423.434M13.095 31.52a.422.422 0 1 1 .002-.846c.239 0 .43.196.425.434a.421.421 0 0 1-.427.412M11.233 39.03a.417.417 0 0 1-.412.424.428.428 0 0 1-.44-.42.428.428 0 0 1 .436-.426.419.419 0 0 1 .416.421M16.952 35.622a.422.422 0 0 1-.408.432.422.422 0 0 1-.446-.414.426.426 0 0 1 .854-.018M13.098 38.317a.417.417 0 0 1-.43-.408.436.436 0 0 1 .425-.44c.227 0 .423.19.429.416a.415.415 0 0 1-.424.432M13.523 35.64a.423.423 0 0 1-.446.414.421.421 0 0 1-.408-.432.427.427 0 0 1 .854.018M8.534 36.054a.425.425 0 0 1-.02-.847.429.429 0 0 1 .437.424.422.422 0 0 1-.417.423M7.382 29.253a.415.415 0 0 1-.426-.412.428.428 0 0 1 .424-.438c.235 0 .432.2.429.436a.42.42 0 0 1-.427.414M16.952 27.69a.424.424 0 0 1-.43.43.423.423 0 1 1 .005-.846c.23 0 .422.188.425.416M21.092 28.12a.423.423 0 0 1-.423-.418.429.429 0 0 1 .433-.43c.232.004.419.19.421.42.002.24-.19.43-.431.428M10.092 19.76a.42.42 0 0 1-.432.425.423.423 0 1 1 .013-.846c.233.003.418.189.42.42M3.233 24.292a.419.419 0 0 1-.43.428.422.422 0 0 1-.421-.42.428.428 0 0 1 .432-.429c.233.004.417.19.42.421M8.513 11.405a.429.429 0 0 1 .438.423c0 .23-.185.418-.416.423a.422.422 0 1 1-.022-.846M15.378 30.672a.431.431 0 0 1 .432.41.422.422 0 0 1-.423.437.416.416 0 0 1-.43-.408.425.425 0 0 1 .42-.44M14.664 31.098c0 .235-.18.417-.416.422a.423.423 0 0 1-.437-.424.43.43 0 0 1 .419-.424.426.426 0 0 1 .434.426M11.235 31.09a.417.417 0 0 1-.427.43.422.422 0 0 1-.426-.415.426.426 0 1 1 .853-.016M7.384 21.318a.412.412 0 0 1-.425-.41.424.424 0 0 1 .42-.438.44.44 0 0 1 .43.434.422.422 0 0 1-.425.414M13.09 19.338a.427.427 0 0 1 .433.429.42.42 0 0 1-.422.418.421.421 0 0 1-.432-.407.428.428 0 0 1 .421-.44M.95 19.765c0 .23-.185.416-.42.42a.42.42 0 0 1-.433-.424c0-.23.186-.418.418-.423a.428.428 0 0 1 .435.427M10.093 27.686a.42.42 0 0 1-.426.434.423.423 0 0 1-.428-.413.427.427 0 1 1 .854-.02M5.086 15.65a.419.419 0 0 1-.419-.42c0-.238.2-.432.436-.427a.43.43 0 0 1 .419.444.42.42 0 0 1-.436.403M11.954 7.715a.414.414 0 0 1-.427-.43.424.424 0 0 1 .425-.416.431.431 0 0 1 .43.434.42.42 0 0 1-.428.412M11.235 32.235a.42.42 0 0 1-.44.419.417.417 0 0 1-.41-.428.425.425 0 0 1 .85.01M5.084 23.582c-.251-.01-.428-.197-.416-.44a.427.427 0 0 1 .853.042.416.416 0 0 1-.437.398M19.233 32.23c.001.235-.179.42-.413.424a.417.417 0 0 1-.432-.424.42.42 0 0 1 .414-.424.42.42 0 0 1 .431.425M19.236 28.832c0 .235-.18.417-.417.42a.416.416 0 0 1-.433-.424.428.428 0 0 1 .417-.424.43.43 0 0 1 .433.428M18.806 34.914a.398.398 0 0 1-.416-.412.428.428 0 0 1 .426-.434.429.429 0 0 1 .415.443c-.006.242-.177.405-.425.403M11.23 23.161a.422.422 0 0 1-.844.003.414.414 0 0 1 .431-.423.411.411 0 0 1 .414.42M10.091 15.225a.41.41 0 0 1-.41.422c-.248.002-.44-.177-.443-.414a.426.426 0 0 1 .434-.425.416.416 0 0 1 .42.417M10.801 9.983a.413.413 0 0 1-.416-.421.43.43 0 0 1 .433-.428.43.43 0 0 1 .417.445.415.415 0 0 1-.434.404M5.098 26.98a.41.41 0 0 1-.43-.405.444.444 0 0 1 .423-.442.444.444 0 0 1 .43.436.41.41 0 0 1-.423.411M19.234 26.559a.407.407 0 0 1-.41.423.41.41 0 0 1-.437-.416.43.43 0 0 1 .43-.432.429.429 0 0 1 .417.425M18.816 33.785a.415.415 0 0 1-.43-.407.432.432 0 0 1 .42-.442.432.432 0 0 1 .43.433.414.414 0 0 1-.42.416M13.094 15.649a.416.416 0 0 1-.426-.432.43.43 0 0 1 .43-.414.43.43 0 0 1 .425.437.415.415 0 0 1-.429.409M9.664 7.714a.416.416 0 0 1-.425-.412.427.427 0 1 1 .854-.015.415.415 0 0 1-.429.427M10.386 24.298a.42.42 0 0 1 .412-.426.423.423 0 0 1 .435.422.417.417 0 0 1-.431.425.416.416 0 0 1-.416-.42M11.232 40.17a.417.417 0 0 1-.437.418.417.417 0 0 1-.408-.428.42.42 0 0 1 .417-.42c.24-.002.43.188.428.43M11.233 5.028a.414.414 0 0 1-.414.422.415.415 0 0 1-.433-.423c0-.232.183-.42.414-.426a.426.426 0 0 1 .433.427M19.234 31.106a.417.417 0 0 1-.422.414.42.42 0 0 1-.425-.431.422.422 0 0 1 .423-.416.42.42 0 0 1 .424.433M11.958 15.643c-.247.003-.423-.162-.429-.4a.415.415 0 0 1 .42-.435.428.428 0 0 1 .433.425.415.415 0 0 1-.424.41"/>
        </g>
    </g>
</svg>
