<svg xmlns="http://www.w3.org/2000/svg" width="80" height="33" viewBox="0 0 80 33">
    <g fill="none" fill-rule="evenodd">
        <path fill="#7FC241" d="M31.269 21.773v-2.364h-4.966V9.16h-2.52v12.614h7.486zm2.747-10.117c.74 0 1.34-.644 1.34-1.438 0-.794-.6-1.418-1.34-1.418-.722 0-1.32.624-1.32 1.418 0 .794.598 1.438 1.32 1.438zm-1.109 10.117h2.236v-9.134h-2.236v9.134zm7.202 0v-7.035h1.727v-2.1h-1.727v-.378c0-.888.424-1.324 1.058-1.324.299 0 .545.058.722.19l.457-1.778c-.405-.227-.968-.378-1.62-.378-1.637 0-2.853 1.154-2.853 3.29v.379h-1.409v2.099h1.409v7.035h2.236zm8.772.227c2.57 0 4.068-1.532 4.895-3.102l-2.149-1.115c-.493 1.02-1.55 1.834-2.746 1.834-2.15 0-3.7-1.758-3.7-4.141 0-2.384 1.55-4.142 3.7-4.142 1.197 0 2.253.813 2.746 1.834l2.149-1.135c-.827-1.588-2.324-3.082-4.895-3.082-3.54 0-6.27 2.629-6.27 6.525 0 3.876 2.73 6.524 6.27 6.524zm14.44-.227v-9.134h-2.254v1.172c-.687-.946-1.62-1.4-2.624-1.4-2.166 0-3.769 1.817-3.769 4.785 0 3.065 1.638 4.804 3.77 4.804 1.038 0 1.954-.492 2.623-1.4v1.173h2.255zm-4.173-1.91c-1.286 0-2.166-1.078-2.166-2.667 0-1.569.88-2.647 2.166-2.647.74 0 1.55.454 1.919 1.06v3.214c-.37.605-1.18 1.04-1.92 1.04zm8.63 1.91V15.74c.37-.586 1.356-1.04 2.095-1.04.264 0 .458.019.616.057v-2.345c-1.056 0-2.095.662-2.712 1.456v-1.23h-2.236v9.135h2.236zm8.1.227c1.322 0 2.66-.435 3.505-1.267l-1.004-1.589c-.545.568-1.531.89-2.254.89-1.444 0-2.29-.927-2.448-2.043H80v-.568c0-2.969-1.709-5.011-4.262-5.011-2.572 0-4.403 2.137-4.403 4.784 0 2.932 1.955 4.804 4.544 4.804zm1.974-5.674H73.66c.088-.907.686-1.947 2.078-1.947 1.48 0 2.043 1.078 2.114 1.947zM24.573 31.001V28.3h1.758c1.265 0 1.988-.938 1.988-2.05 0-1.11-.714-2.049-1.988-2.049h-2.547v6.801h.789zm1.663-3.456h-1.663v-2.59h1.663c.752 0 1.265.53 1.265 1.294 0 .765-.513 1.296-1.265 1.296zM33.158 31v-3.477c0-1.07-.504-1.57-1.464-1.57-.694 0-1.322.418-1.635.836V24.2h-.713v6.801h.713v-3.6c.266-.397.798-.764 1.35-.764.627 0 1.036.245 1.036 1.121v3.243h.713zm5.466 0v-4.924h-.713v.744c-.37-.54-.931-.867-1.55-.867-1.197 0-2.044 1.01-2.044 2.59 0 1.6.847 2.58 2.044 2.58.647 0 1.209-.357 1.55-.856V31h.713zm-2.082-.56c-.931 0-1.483-.806-1.483-1.896 0-1.092.552-1.908 1.483-1.908.561 0 1.122.367 1.37.796v2.222a1.67 1.67 0 0 1-1.37.786zm4.222.56v-3.487c.209-.397.807-.785 1.254-.785.105 0 .19.01.276.02v-.785c-.627 0-1.16.388-1.53.897v-.784h-.714V31h.714zm8.68 0v-3.559c0-.988-.447-1.488-1.284-1.488-.665 0-1.283.469-1.54.918-.133-.51-.532-.918-1.226-.918-.685 0-1.293.52-1.493.836v-.713h-.713V31h.713v-3.6c.247-.397.742-.764 1.207-.764.61 0 .847.398.847 1.02V31h.713v-3.61c.237-.397.74-.754 1.216-.754.6 0 .847.398.847 1.02V31h.713zm5.466 0v-4.924h-.713v.744c-.37-.54-.931-.867-1.549-.867-1.198 0-2.044 1.01-2.044 2.59 0 1.6.846 2.58 2.044 2.58.647 0 1.208-.357 1.55-.856V31h.712zm-2.082-.56c-.931 0-1.483-.806-1.483-1.896 0-1.092.552-1.908 1.483-1.908.561 0 1.123.367 1.37.796v2.222c-.247.429-.809.786-1.37.786zm5.534.683c.837 0 1.33-.367 1.683-.856l-.476-.47c-.304.438-.694.643-1.17.643-.97 0-1.587-.816-1.587-1.908 0-1.09.618-1.896 1.588-1.896.475 0 .865.184 1.17.632l.475-.459c-.352-.49-.846-.856-1.683-.856-1.37 0-2.292 1.122-2.292 2.58 0 1.457.923 2.59 2.292 2.59zM62.764 33c1.13 0 2.1-.663 2.1-2.06v-4.863h-.712v3.528c-.267.386-.799.744-1.35.744-.628 0-1.037-.265-1.037-1.132v-3.14h-.713v3.375c0 1.07.504 1.57 1.464 1.57.685 0 1.283-.388 1.636-.816v.734c0 .898-.523 1.428-1.388 1.428-.552 0-1.056-.204-1.398-.663l-.362.55c.466.5.999.745 1.76.745z"/>
        <path fill="#5BA143" d="M15.135 19.8c.116.055.186.074.24.119.443.374.772.754.841.968-.034.004-.078.022-.093.008a70.205 70.205 0 0 1-.934-.912c-.027-.024-.025-.077-.054-.183M18.378 20.9c-.298-.124-.982-.821-1.08-1.1.064.015.122.011.158.04.36.284.838.83.922 1.06"/>
        <path fill="#5BA143" d="M18.2 20.269c.012.27-.195.517-.445.528-.228.01-.428-.188-.455-.44-.026-.288.153-.537.406-.555.252-.027.48.194.493.467"/>
        <path fill="#5BA143" d="M17.716 19.8c.244-.017.483.24.483.507-.006.26-.19.476-.43.493-.242.012-.443-.169-.469-.435-.029-.281.166-.547.416-.564"/>
        <path fill="#5BA143" d="M18.19 20.312c-.006.266-.183.478-.42.489-.253.014-.476-.223-.473-.5.009-.271.247-.52.486-.5.224.02.406.252.406.51"/>
        <path fill="#5BA143" d="M18.19 20.305c-.01.285-.234.507-.484.477-.225-.023-.413-.258-.409-.507.008-.275.243-.5.489-.473.239.023.414.244.404.503"/>
        <path fill="#7FC241" d="M9.886 30.233c.048.043.094.087.162.147.045-.083.075-.145.111-.2.077-.116.149-.237.236-.34.08-.093.154-.075.227.025.097.133.096.22-.016.312-.557.45-.85 1.074-1.02 1.783-.037.162-.058.329-.093.492-.028.136-.016.256.074.362.023.028.031.066.06.132-.246-.01-.474-.078-.693.054a58.821 58.821 0 0 1-1.556-2.703c.04-.062.074-.12.11-.18.077-.132.074-.225-.004-.318-.06-.07-.193-.115-.296-.027-.013.013-.03.018-.062.034-.07-.126-.148-.248-.21-.378-.261-.547-.517-1.097-.775-1.644a1.52 1.52 0 0 1-.038-.09.4.4 0 0 1 .009-.392.662.662 0 0 0-.342-.92c-.197-.079-.285-.213-.34-.407-.085-.315-.125-.228.102-.484.402-.454.81-.903 1.21-1.362.287-.333.189-.837-.19-1.021-.229-.112-.479-.054-.674.162-.267.29-.53.583-.793.878-.04.046-.067.106-.124.148a4.829 4.829 0 0 1-.267-.974c.058-.03.108-.065.163-.08a6.073 6.073 0 0 0 1.826-.904c.753-.541 1.398-1.203 1.83-2.076.122-.244.216-.506.313-.763.023-.059.017-.13.024-.196a.784.784 0 0 1-.044-.022c-.039.043-.083.08-.113.127-.252.409-.558.76-.903 1.078a6.967 6.967 0 0 1-1.11.826 6.394 6.394 0 0 1-1.397.662 3.466 3.466 0 0 1-.825.146c-.026-.102-.054-.193-.07-.286-.126-.793-.228-1.588-.246-2.394a1.861 1.861 0 0 1-.001-.116c.001-.187.001-.186.177-.221a4.741 4.741 0 0 0 1.042-.3c.117-.05.214-.056.302.064.044.059.11.101.168.144.14.106.293.141.463.101.163-.036.275-.132.3-.315.012-.091.058-.133.125-.17.057-.031.123-.065.16-.118.039-.052.07-.133.06-.193-.04-.231.065-.394.213-.522.163-.141.348-.253.519-.382.095-.07.19-.142.271-.226a.69.69 0 0 0-.106-1.063 1.184 1.184 0 0 0-.528-.177c-.084-.011-.16-.018-.238-.073-.097-.071-.176-.035-.275.094.055.111.156.133.245.093.302-.137.56-.011.81.147a.53.53 0 0 1 .225.36c.037.18.01.347-.098.495-.16.218-.38.341-.62.479.196-.272.375-.52.553-.77.048-.066.096-.135.059-.23-.066-.05-.11 0-.158.039-.247.194-.48.413-.743.577-.31.194-.646.342-.97.507-.081.04-.156.031-.235-.03-.2-.154-.416-.285-.614-.445-.193-.158-.26-.38-.205-.64a.577.577 0 0 1 .203-.334c.196-.16.426-.203.662-.217.043-.004.088.032.129.052.112.048.189.024.278-.086-.085-.12-.174-.16-.269-.092-.081.058-.167.061-.254.075-.21.033-.414.082-.584.231-.298.256-.324.733-.04 1.003.156.15.341.263.512.393.059.043.115.088.178.135-.271.2-1.139.395-1.663.376-.003-.041-.013-.084-.009-.126.031-.31.058-.62.102-.926a.55.55 0 0 1 .121-.25c.098-.123.216-.225.317-.345.312-.37.35-.78.121-1.213l-.04-.09c.06-.022.112-.046.169-.058.116-.026.237-.04.353-.073.19-.057.374-.12.578-.125a.554.554 0 0 0 .309-.14c.257-.212.501-.44.75-.665.063-.057.126-.118.185-.183.05-.055.085-.119 0-.185l.542-.612a.645.645 0 0 0 .156-.607c-.11-.465-.627-.638-.959-.321-.112.106-.214.228-.318.344-.351.39-.702.783-1.053 1.175-.223.247-.246.294-.29.652l-.37.022c.047-.176.08-.32.121-.46.234-.795.47-1.59.707-2.386.012-.043.04-.082.044-.126.036-.378.26-.624.499-.867a.99.99 0 0 0 .285-.73.766.766 0 0 0-.156-.487c-.08-.1-.122-.197-.075-.333.028-.08.025-.175.038-.28l.184.042c.276.05.455-.066.527-.355a.187.187 0 0 1 .097-.125c.064-.038.135-.07.18-.127.04-.049.074-.132.064-.19-.045-.232.06-.396.205-.524.168-.146.357-.261.535-.394.098-.073.195-.152.283-.24.248-.237.243-.756-.06-.993a1.148 1.148 0 0 0-.585-.224c-.09-.012-.174-.021-.255-.078-.096-.068-.182-.026-.263.1.1.11.173.14.277.072.076-.05.147-.047.224-.036.167.023.332.055.48.15a.631.631 0 0 1 .079 1.036c-.132.119-.288.21-.431.315-.108.08-.218.161-.32.25-.128.11-.183.225-.262.486h-.582a1.002 1.002 0 0 0-.221-.465.242.242 0 0 1-.04-.144c.015-.526-.04-1.049-.1-1.568-.003-.017.007-.036.016-.074.04.018.076.03.11.048.08.05.161.043.24-.003.067-.04.07-.11.002-.15-.082-.049-.165-.061-.255 0-.11.074-.135.055-.158-.084-.024-.153-.048-.306-.078-.459-.012-.057-.01-.136-.112-.146-.006.048-.017.096-.016.142.001.17.006.337.013.506.003.084-.028.123-.103.155-.122.049-.25.101-.352.185a.682.682 0 0 0-.045.99c.09.093.195.17.3.245.079.056.116.116.096.225-.052.265-.091.533-.14.834-.061-.044-.106-.069-.146-.1-.299-.24-.63-.333-1-.279-.372.055-.63.264-.788.629-.044.104-.102.2-.17.325-.039-.082-.059-.133-.087-.18-.087-.152-.232-.218-.386-.178a.367.367 0 0 0-.267.327.393.393 0 0 0 .23.4c.132.058.285.017.387-.118.152-.205.325-.39.425-.638.112-.275.336-.41.604-.469.422-.093.78.043 1.1.336.057.05.067.1.05.17-.05.214-.094.429-.145.642a.207.207 0 0 1-.07.105c-.084.061-.173.114-.267.175a.692.692 0 0 0-.558-.209c-.32.02-.538.237-.579.58-.037.336.06.629.252.886.106.14.212.281.378.345l-.003-.004c.02.03.036.075.063.09.167.088.131.213.072.355-.047.112-.077.23-.12.365-.308-.156-.605-.178-.879.063a.81.81 0 0 0-.28.608c.296.029.586-.007.88.02-.012.103-.07.099-.122.099l-.54.001h-.194c-.033.33.124.558.554.81l-.13.408c-.116.353-.235.707-.349 1.06a.426.426 0 0 1-.164.244c-.085.06-.155.14-.24.222-.04-.038-.08-.075-.116-.113-.353-.361-.874-.372-1.223-.022a.988.988 0 0 0-.066 1.329c.297.354.615.69.937 1.023.128.132.17.258.135.443-.05.267-.074.539-.11.819-.179.063-.346.148-.35.397-.004.178.06.264.314.422 0 .135.008.277-.002.419a.592.592 0 0 1-.065.197c-.143.306-.113.354.048.535.026.028.035.073.067.142a.416.416 0 0 1-.315-.341c-.035-.147-.032-.306-.046-.473h-.227c0 .109.006.21 0 .313-.017.292-.205.518-.465.563-.053.008-.11.025-.144-.062.026-.018.051-.04.082-.051.05-.018.106-.024.156-.045.204-.094.267-.27.18-.487-.134-.329-.373-.485-.645-.097-.264.375-.438.786-.469 1.26a1.17 1.17 0 0 0 .074.533c.083.191.226.266.413.222.339-.08.773-.582.708-1.074-.105.065-.203.125-.304.189-.013-.18.241-.353.516-.36a.627.627 0 0 1 .456.153c.028.025.032.08.062.161l-.269-.148a.532.532 0 0 0 .023.338c.043.12.101.234.164.345.045.082.132.146.155.232.041.16.05.329.081.545-.173-.194-.362-.166-.544-.167h-.494v1.25h.364v-.478c.136.03.226.15.43.551l-.283.477c.124.001.233.033.314-.007.084-.038.139-.146.215-.236.029.044.059.08.079.126.036.081.085.136.177.127.089-.01.107.064.127.134.124.432.247.865.374 1.297.048.166.107.329.159.495.044.138.022.172-.105.193-.119.016-.24.032-.353.066-.09.028-.15.005-.203-.071-.057-.083-.121-.16-.198-.257.226-.178.407-.387.416-.723-.053-.007-.097-.02-.142-.02-.23 0-.458.002-.686-.002-.06 0-.134.022-.179-.088.17-.041.336-.015.498-.02.16-.005.323 0 .48 0a.712.712 0 0 0-.351-.694c-.358-.204-.672-.105-.954.205-.03-.037-.063-.066-.083-.101a18.57 18.57 0 0 1-1.077-2.131c-.324-.766-.626-1.543-.815-2.362-.054-.231-.082-.47-.13-.705-.147-.695-.172-1.4-.152-2.106.022-.803.116-1.598.294-2.382.179-.795.409-1.57.682-2.331.145-.405.304-.802.464-1.2a.84.84 0 0 1 .136-.226c.161-.194.263-.417.28-.678.003-.051.003-.11.026-.152.024-.045.068-.095.113-.108.157-.046.548.063.629.28-.067.091-.109.001-.158-.029l-.172-.099c-.004.072-.015.114-.01.155.054.403.252.697.587.878.29.157.52.031.596-.315a1.668 1.668 0 0 0-.009-.675 2.418 2.418 0 0 0-.458-1.002.736.736 0 0 0-.13-.134.244.244 0 0 0-.344.02.738.738 0 0 0-.19.39.244.244 0 0 0 .028.147c.059.12.157.191.28.223.05.011.1.027.182.05-.052.044-.077.082-.102.082-.357 0-.636-.42-.474-.737.19-.375.347-.768.505-1.16.222-.544.44-1.09.642-1.647.152-.42.273-.854.41-1.283a.212.212 0 0 1 .044-.084c.059.312.14.617.053.936-.015.05.003.11.007.164.017.174.056.349.024.526l-.056-.21c-.013.082-.023.165.06.207.014.086.074.106.162.12.027-.05.055-.105.087-.156.07-.112.137-.23.22-.33.104-.126.202-.114.266.039.06.14.088.295.127.443.01.042.009.088.011.13.148.059.203.047.288-.062a.839.839 0 0 0 .17-.463c.007-.083.01-.17.002-.251a.427.427 0 0 1 .098-.322c.143-.181.234-.39.243-.633.017-.384-.21-.57-.545-.439-.25.096-.353.071-.525-.132-.104-.124-.266-.139-.426-.037-.06.04-.114.092-.19.154.005-.06.002-.103.011-.141a9.16 9.16 0 0 0 .216-1.516 6.846 6.846 0 0 0-.119-1.737A6.858 6.858 0 0 0 3.626.153C3.61.114 3.603.07 3.584 0c.072.01.124.01.173.025.45.14.883.33 1.3.56.548.3 1.062.654 1.559 1.042.024.018.043.042.077.076-.055.025-.095.042-.143.065.004.21.091.378.225.512.16.156.334.296.504.439.094.08.192.15.322.253-.15.034-.26.012-.372.021-.018-.135-.113-.185-.219-.246-.172.14-.327.298-.414.521a.705.705 0 0 0 .073.683c.109.152.242.287.38.41.156.14.329.258.493.387.054.041.1.089.145.153-.21.032-.412.026-.615.024a1.064 1.064 0 0 1-.02-.05c.055-.038.11-.078.186-.134-.093-.073-.156-.125-.23-.184-.235.195-.431.401-.464.764l.236.013.081-.186h1.032l.077.172h.23a.535.535 0 0 0-.141-.435 5.57 5.57 0 0 0-.47-.452c-.133-.114-.278-.216-.43-.334.038-.02.054-.036.068-.036.108-.003.216-.001.328-.001-.027.163.097.185.189.265.184-.153.349-.319.431-.556a.744.744 0 0 0-.058-.618 1.538 1.538 0 0 0-.425-.468c-.145-.116-.296-.223-.44-.339-.08-.063-.155-.138-.244-.217.122-.053.195-.003.262.063.328.32.664.635.982.97.27.284.52.59.776.888.04.048.071.101.116.165l-.13.075a.988.988 0 0 0-.291 1.529c.29.344.606.665.911.997l.41.435c.017.018.038.028.067.05l.645-.678c.077.08.033.128-.008.174a190.875 190.875 0 0 1-1.166 1.3.666.666 0 0 0-.18.546c.034.252.161.433.384.52.236.093.453.04.631-.152.239-.257.468-.52.702-.782.099-.111.196-.226.31-.36.063.12.114.206.155.296.446.986.815 2.005 1.062 3.07.19.812.297 1.638.326 2.476.007.188-.015.237-.207.25a1 1 0 0 0-.619.236c-.29.254-.317.721-.038.99.15.146.326.263.497.382.321.224.282.169.23.535-.031.218-.074.435-.113.65-.003.018-.015.033-.034.074-.059-.054-.11-.104-.164-.149-.171-.142-.327-.314-.516-.42-.436-.245-.877-.231-1.295.076-.147.11-.223.281-.303.45-.042.09-.094.173-.147.271-.057-.096-.091-.17-.14-.232a.323.323 0 0 0-.498-.022.405.405 0 0 0-.024.527c.146.167.358.193.493.026.147-.182.317-.342.417-.574a.979.979 0 0 1 1.328-.517c.315.141.545.396.784.64.029.03.038.098.03.14-.024.126-.064.247-.1.382-.258-.002-.515-.01-.706.223a.741.741 0 0 0-.539-.223c-.35.006-.59.242-.62.618-.026.329.077.613.267.863.088.111.168.24.308.289l.094.09c.064.056.129.112.194.164.06.044.12.082.203.138-.072.148-.138.288-.213.445l-.339-.25c.064-.174-.041-.238-.175-.297a.664.664 0 0 0-.106.515c.04.228.104.451.163.675.04.149.045.148-.072.297l-.106-.061c.076-.128.001-.22-.033-.329-.042 0-.07-.002-.1 0-.671.052-.954.474-.787 1.175.036.157.077.316.138.462.064.158.034.272-.095.386-.093-.07-.183-.14-.304-.229.097-.028.162-.045.245-.066l-.08-.258c-.296.012-.57.056-.788.337.07.055.13.106.193.157l.161-.112c.15.113.303.233.47.36l-.15.256c-.3.506-.61 1.008-.9 1.521-.166.292-.302.605-.443.912a.542.542 0 0 1-.184.228c-.101.07-.189.16-.292.251a4.807 4.807 0 0 1-.11-.11c-.347-.36-.875-.37-1.222-.025a.994.994 0 0 0-.084 1.314c.162.208.35.391.528.584.208.225.415.452.625.673.092.096.14.198.147.338.013.212.052.42.056.647-.058-.078-.113-.16-.174-.232a.413.413 0 0 0-.137-.12c-.086-.035-.168.002-.227.076-.062.075-.077.17-.026.252.113.177.232.349.355.514.02.029.09.035.125.02.068-.027.128-.079.207-.13-.009.167-.162.153-.23.262.17.192.253.47.499.607.05.027.079.106.112.167.216.41.43.822.649 1.232.034.065.083.122.12.176.093-.024.075-.094.086-.146.137-.644.273-1.288.414-1.93.033-.15.087-.294.127-.437l.081.036c.018.135.038.276.05.415.002.03-.03.062-.045.09l-.03-.178c-.014.003-.03.009-.041.012l.074.163zm.543-16.361l-.004-.006c.004.205.066.41.003.615a.527.527 0 0 0-.003.283c.032.143.032.295.047.48-.04-.082-.065-.129-.103-.203.037.232.074.278.246.318.03-.052.056-.11.09-.162.076-.116.147-.237.235-.34.08-.093.16-.084.223.022.05.086.086.185.111.284.028.11.038.227.056.338.158.042.206.031.29-.082a.744.744 0 0 0 .158-.485.988.988 0 0 1 .21-.711c.121-.159.151-.366.135-.572-.024-.275-.2-.414-.452-.358-.022.005-.048.006-.069.018-.228.131-.41.072-.568-.142a.25.25 0 0 0-.155-.081c-.2-.027-.44.152-.468.365-.018.137.01.279.018.419zm-2.072 4.882c-.142-.023-.192.164-.33.14 0-.028-.006-.052 0-.064.203-.338.863-.364 1.089-.042.015.02.002.062.002.116l-.309-.186c-.009.057-.017.088-.014.116.014.206.078.392.19.558.12.175.273.311.462.389.227.092.412.008.493-.236.037-.107.057-.226.061-.341.017-.543-.175-1.009-.476-1.43-.261-.367-.49-.227-.626.086a.074.074 0 0 1-.006.017c-.126.261.024.407.173.491.052.03.117.03.172.051.028.01.053.04.117.089-.089.013-.131.03-.174.025-.263-.032-.464-.274-.477-.569l-.01-.334-.238.015c0 .132.005.242-.001.352-.02.287-.248.527-.507.533-.033 0-.067-.027-.1-.041l.001-.047c.047-.013.094-.03.143-.04a.404.404 0 0 0 .284-.217.272.272 0 0 0 .033-.162.688.688 0 0 0-.193-.386c-.106-.106-.227-.11-.345-.014a.675.675 0 0 0-.102.108 2.393 2.393 0 0 0-.474 1.013c-.055.267-.072.538.022.803.082.223.237.309.444.251.388-.102.719-.597.696-1.044zm1.066-3.513c.1-.112.207-.208.292-.323.234-.318.234-.663-.01-.975a2.777 2.777 0 0 0-.386-.379c-.144-.125-.303-.233-.452-.353-.06-.047-.114-.103-.172-.156l.016-.032h.724l-.223.23.202.156c.317-.223.478-.501.441-.756h-.217c-.024.126-.103.148-.212.145a11.67 11.67 0 0 0-.756 0c-.109.003-.19-.016-.211-.138h-.25c.018.087.019.165.049.223.065.121.132.25.225.345.158.159.337.29.51.432.077.065.159.128.24.19l-.014.033h-.33c-.039-.12-.039-.12-.208-.224-.036.028-.076.055-.11.09a1.914 1.914 0 0 0-.175.194c-.246.325-.25.694.003 1.01.11.135.242.252.374.364.165.14.34.264.51.4.028.023.05.06.096.117-.236-.007-.44.008-.64-.011l-.015-.045.168-.142-.222-.17c-.231.204-.434.407-.457.76h.24l.087-.177c.28 0 .556.003.833-.003.13-.003.242.005.255.196l.255-.016c-.005-.05-.005-.077-.01-.101-.043-.245-.185-.42-.355-.567-.188-.163-.387-.308-.58-.464-.034-.027-.063-.063-.112-.116h.41l-.019.109.206.154zm-8.158 1.76c-.137.014-.249 0-.341.04a.762.762 0 0 0-.478.652c-.05.451.107.81.444 1.08.099.079.21.122.335.119.108 0 .218 0 .325.005a.532.532 0 0 0 .478-.22c.21-.29.333-.614.304-.99a.754.754 0 0 0-.381-.62.69.69 0 0 0-.574-.065c.005-.096.012-.171.012-.246 0-.07 0-.144-.016-.212-.015-.06-.053-.106-.118-.047l.034.274c-.19-.19-.373-.324-.634-.187.332.356.332.356.615.335l-.005.083zm8.159-6.695c-.266-.06-.428-.006-.606.191a.823.823 0 0 0-.216.5c-.03.454.138.81.481 1.064.084.06.2.08.304.096.106.018.215.007.324.009.16.003.318-.028.428-.162.246-.303.395-.653.354-1.066-.044-.447-.438-.76-.851-.688-.032.005-.064.008-.11.012.005-.095.015-.17.014-.248a.983.983 0 0 0-.018-.212c-.012-.055-.05-.09-.11-.036l.04.309c-.35-.31-.416-.33-.623-.22.078.092.154.194.24.28.103.104.236.051.365.05-.008.047-.01.077-.016.12zm-7.052 1.733a2.366 2.366 0 0 1-.421.927c-.045.06-.091.122-.13.186a.768.768 0 0 0 .048.837c.173.232.479.321.75.217.264-.101.433-.363.435-.67a.791.791 0 0 0-.166-.481c-.206-.29-.388-.595-.47-.954-.004-.016-.02-.028-.046-.062zm5.777 9.954l-.038.005c-.037.11-.068.219-.107.327-.095.256-.25.471-.402.688a.76.76 0 0 0 .066.97.625.625 0 0 0 .886.027.743.743 0 0 0 .112-.963c-.218-.326-.437-.649-.517-1.054zm.281-14.56c-.022.068-.04.115-.053.165-.065.23-.164.445-.297.639-.064.092-.132.184-.194.28a.76.76 0 0 0 .089.938.627.627 0 0 0 .872.039.746.746 0 0 0 .155-.927c-.04-.072-.089-.138-.134-.206a2.546 2.546 0 0 1-.397-.822c-.007-.029-.02-.056-.04-.106zm2.321 1.924c-.04.236-.032 1.12.007 1.251h.358v-.494c.134.066.288.289.414.577l-.285.471c.128 0 .236.03.312-.009.089-.044.15-.152.227-.242.05.087.097.166.144.244h.37c-.101-.17-.193-.32-.286-.475l.265-.44h-.35l-.16.232a55.57 55.57 0 0 1-.233-.388c.055-.043.104-.073.143-.11.105-.101.124-.232.094-.374-.027-.122-.1-.212-.22-.227-.267-.036-.536-.015-.8-.016zM5.504 2.279l.254-.42c-.23-.08-.392-.02-.494.223l-.238-.397c.057-.043.105-.072.143-.11.104-.1.13-.23.096-.373-.031-.128-.108-.225-.236-.23C4.766.962 4.504.97 4.245.97c-.034.244-.027 1.106.008 1.237h.344c0-.092-.002-.17.001-.247.005-.08-.022-.165.027-.24.116.063.268.282.397.57-.087.144-.178.294-.274.448.246.087.411.015.507-.26.053.088.08.153.123.204.026.036.07.074.108.08.092.01.185.002.312.002-.109-.18-.198-.329-.294-.485zm.235 1.48c-.008-.468-.385-.834-.788-.791-.39.04-.716.43-.657.791h1.445zm5.045 8.397h1.447a.754.754 0 0 0-.69-.79c-.404-.019-.765.353-.757.79zM4.278 3.891c.003.467.368.814.8.778.37-.03.691-.415.648-.778H4.278zm6.495 8.398c.051.51.394.825.82.782.364-.038.667-.404.638-.782h-1.458zM7.878 9.954c-.131-.185-.256-.375-.394-.552-.073-.095-.187-.096-.277-.03-.088.067-.127.192-.066.293.122.196.259.384.384.567.17-.036.263-.14.353-.278zm-.96.981c.025-.024.05-.044.067-.069.107-.154.22-.305.322-.466.076-.121.05-.248-.048-.324-.095-.075-.217-.058-.302.054-.084.11-.16.226-.24.34-.15.214-.138.274.084.41.035.023.074.036.116.055zm-.522 9.149c-.139-.194-.271-.383-.41-.569-.052-.074-.132-.08-.213-.05-.136.052-.19.21-.107.349.077.13.17.25.257.375.14.2.189.202.362.022.033-.036.064-.073.11-.127zm-.946.972c.126-.184.26-.366.38-.558.068-.106.029-.236-.067-.304-.092-.067-.203-.06-.276.036-.136.178-.261.367-.388.547.086.153.191.24.351.28zm2.146-10.728l.144.208c.07.099.133.2.208.291.093.118.199.13.301.048.101-.083.119-.198.042-.324-.05-.086-.112-.166-.17-.249l-.183-.255-.342.281zm-1.489 10.12l.306.443a.558.558 0 0 0 .07.088c.088.087.189.092.277.018.096-.08.122-.193.052-.307-.085-.14-.182-.27-.276-.405-.03-.044-.067-.083-.091-.11l-.338.274zm-1.078.424c-.122.181-.245.355-.356.537-.063.103-.032.211.057.289.087.076.196.08.272-.016.135-.17.255-.353.38-.529-.12-.096-.224-.18-.353-.281zm1.49-10.124c-.12.178-.247.353-.36.54-.061.102-.025.22.062.292.087.07.186.076.26-.012.144-.168.268-.353.385-.541l-.346-.279z"/>
        <path fill="#7FC241" d="M15.164 23.785c.054.064.101.137.162.187.157.13.326.24.48.374.17.147.292.33.263.607a.26.26 0 0 0 .106.237c.061.046.126.087.188.13.016.189-.038.3-.18.35-.11.04-.225.044-.324-.037-.123-.104-.239-.22-.36-.331-.16-.146-.305-.324-.482-.431-.41-.252-.825-.239-1.213.082-.134.111-.204.283-.275.449-.04.095-.088.183-.147.304-.077-.192-.149-.35-.321-.375-.178-.026-.285.09-.375.262a1.21 1.21 0 0 1-.549-.206c.275-.442.437-.903.236-1.47.064.02.103.023.133.045.215.164.452.266.693.36.082.031.154.103.226.156l.267-.146c-.03-.114.048-.187.118-.269.274-.316.545-.638.821-.952.233-.266.367-.573.316-.965a.197.197 0 0 1 .064-.175c.06-.058.124-.117.177-.184a.33.33 0 0 0 .072-.15c.005-.044-.019-.112-.048-.136-.027-.02-.083-.012-.12.005-.045.024-.082.069-.124.102l-.15.12c-.187-.253-.408-.418-.69-.417-.281.002-.508.15-.687.416-.057-.064-.1-.114-.146-.162a.733.733 0 0 0-1.084-.024 1.11 1.11 0 0 0-.172 1.284c.062.11.144.204.219.305.035.05.073.095.121.156-.137.091-.25.2-.382.249-.13.047-.275.03-.433.045.004-.093.014-.182.01-.27a1.15 1.15 0 0 0-.034-.233c-.004-.016-.046-.027-.07-.024-.008 0-.023.043-.02.064.01.077.023.152.044.266-.114-.1-.191-.19-.286-.248-.097-.06-.207-.045-.31.014.21.34.273.381.566.355.006.062.012.142-.062.112-.175-.069-.309.015-.438.13a.828.828 0 0 0-.266.516 1.525 1.525 0 0 0-.008.28.29.29 0 0 1-.07.215c-.84.993-1.407 2.188-1.817 3.497-.033.104-.074.206-.125.346-.015-.085-.03-.128-.03-.173.003-.446.005-.893.012-1.34a.759.759 0 0 1 .132-.423c.165-.246.196-.535.138-.834a.68.68 0 0 1 .014-.313c.165-.633.363-1.247.676-1.804.29-.517.647-.958 1.059-1.335.562-.513 1.183-.903 1.832-1.232.59-.297 1.187-.576 1.77-.892.626-.34 1.227-.731 1.7-1.352a3.46 3.46 0 0 0 .562-1.104l.067-.198c.173.269.26.543.343.802-.485.47-.876 1.032-1.31 1.54a8.538 8.538 0 0 0-.27.331c-.231.296-.234.691-.007.951.227.264.565.256.801-.028.313-.374.618-.76.927-1.14.038-.046.08-.09.122-.136.13.201.092 2.124-.027 2.568a.318.318 0 0 1-.281-.055c-.103-.079-.186-.04-.262.1.064.112.162.134.25.074.096-.066.179-.06.292-.013a9.879 9.879 0 0 1-.55 2.274h-.494c-.055-.37-.282-.579-.542-.758-.15-.102-.295-.213-.441-.32-.009-.023-.013-.053-.026-.07a.677.677 0 0 1-.143-.355c-.029-.32.084-.555.362-.69.195-.093.394-.188.614-.056.078.048.178.023.232-.092-.08-.127-.167-.172-.254-.103-.076.06-.155.063-.237.081a1.957 1.957 0 0 0-.406.132c-.213.102-.336.302-.368.577-.025.226.075.475.23.571"/>
        <path fill="#7FC241" d="M17.297 24.875c-.09.091-.177.183-.266.274-.208-.091-.3-.097-.394-.03-.095.064-.083.124.06.305-.037.03-.08.066-.126.1a6.704 6.704 0 0 1-.28.184c-.171.105-.333.221-.52.311-.252.122-.525.224-.789.334-.047.019-.099.028-.163.047-.01-.034-.022-.057-.025-.082-.042-.32-.227-.596-.51-.841a.634.634 0 0 0-.117-.083.328.328 0 0 0-.336.004.457.457 0 0 0-.214.284c-.022.083.122.195.28.231.064.015.126.025.193.038-.011.067-.068.064-.123.06-.26-.016-.476-.18-.493-.382-.007-.068 0-.137 0-.219l-.24-.007c-.003.065-.003.124-.009.184-.004.057.014.124-.11.151-.017-.032-.028-.06-.045-.084-.048-.071-.085-.148-.15-.209-.123-.12-.29-.129-.44-.024-.082.058-.15.127-.22.192-.037.034-.07.07-.1.102-.491-.026-1.13-.208-1.35-.386.208-.278.483-.526.78-.775.048.02.086.04.13.054.081.029.162.06.249.08.145.033.295.054.438.09.293.072.59.122.9.117.093 0 .155.019.22.07.19.156.435.139.6-.032.028-.027.06-.053.09-.08.061-.053.124-.105.181-.16.026-.024.038-.053.059-.081.262-.365.843-.508 1.38-.346.278.085.486.232.707.37.078.05.158.097.24.142.147.079.316.086.493.069l.02.028M15.107 27.2l-.373-.18c-.017.314.118.544.315.779-.16.042-.302.084-.444.117-.58.128-1.16.248-1.736.385-.285.067-.56.16-.841.242-.06.017-.12.035-.189.057-.07-.116-.044-.212.033-.305.059-.073.122-.142.178-.216a.818.818 0 0 0 .167-.523c-.008-.313-.258-.47-.599-.387-.466.111-.504.101-.807-.246.1-.164.203-.336.318-.523a4.794 4.794 0 0 0 1.733.42c-.035.181-.083.336-.09.492-.007.156.004.32.05.468.09.293.343.392.652.264.38-.155.634-.413.725-.78.016-.065.015-.135.021-.2-.18-.047-.241.173-.415.123.123-.261.6-.395.98-.267.127.044.235.135.349.208.006.003-.015.04-.027.073M11.786 15.4c-.28-.243-.573-.414-.798-.716-.269-.364-.225-.923.087-1.215.2-.189.434-.235.669-.268.087-.01.132.047.144.154.003.034.005.068.003.102-.024.589-.047 1.181-.073 1.77-.002.046-.017.095-.032.173M5.396 6.6c.024.764.007 1.484-.127 2.2-.677-.12-1.127-.887-.873-1.504.172-.417.537-.59 1-.696M11.35 19.78v-.835c-.188-.014-.357-.025-.54-.04v-.42l.53-.038V17.6h.276v.827c.111.028.195.047.276.071-.042.37-.042.37-.269.475 0 .159.004.33 0 .502-.01.317-.045.358-.273.306M5.393 28.6c-.17-.157-.92-1.575-1.069-2.037.207-.09.4-.302.604-.026.045.06.087.153.11.25.125.58.246 1.164.367 1.746.003.017-.007.046-.012.067M6.655 6.6c.253.208.346.46.317.728-.036.341.112.517.347.667.115.074.273.103.245.326-.026.203-.118.344-.284.403a1.138 1.138 0 0 1-.446.075c-.293-.021-.37-.138-.342-.47.048-.556.106-1.111.163-1.729M2.747 15.679c.035.45.06.848.092 1.293.218-.277.156-.614.353-.916.094.253.17.465.249.675l.059.008c.05-.185.098-.373.147-.559.028.002.058.002.086.002.04.25.077.5.116.75l.045-.003c.075-.51.147-1.019.218-1.528l.1-.001c.039.218.074.438.112.672-.15.012-.203.078-.215.204-.037.32-.084.64-.132.958-.02.122-.055.244-.085.366l-.078-.004-.12-.795c-.072.156-.115.248-.192.42l-.319-.794c-.121.428-.219.782-.317 1.136-.032 0-.059-.004-.087-.006-.094-.468-.076-.95-.116-1.48-.263.277-.288.63-.5.916-.002-.298.346-1.095.584-1.314M7.56 27.124c.08.205.158.413.238.62a.24.24 0 0 1 .05.005c.046-.182.094-.361.158-.611.172.263.116.505.211.72.156-.45.133-.935.27-1.458.14.163.136.298.147.427.009.114.063.236-.115.312-.057.023-.06.175-.072.269-.056.348-.102.695-.154 1.043-.008.049-.029.094-.115.149-.04-.24-.083-.476-.127-.714-.017-.002-.03-.005-.048-.006l-.114.247c-.043-.021-.084-.03-.091-.05-.081-.185-.154-.37-.296-.552-.094.33-.185.657-.298 1.052-.178-.276-.116-.512-.142-.732-.03-.23-.038-.462-.06-.75-.245.276-.28.606-.516.91.042-.333.361-1.032.58-1.293.118.417.027.825.185 1.212l.237-.8h.071M5.405 18.059c-.003.375-.066.521-.265.604-.146.064-.29.052-.419-.092-.124-.139-.24-.288-.397-.478.252-.187.46-.343.658-.493.146.16.28.304.423.459M4.324 9.845v-.329c.23-.012.456-.02.717-.032V8.8h.36c.04.409-.184.752-.265 1.1l-.812-.055"/>
        <path fill="#7FC241" d="M5.12 27.5a7.494 7.494 0 0 1-.796-1.1c.493.073.842.205 1 .456.13.214.134.436-.204.644M13.36 22.272c-.143.266-.255.48-.384.721-.033-.184.241-.754.464-.993.096.326.069.64.161.952l.216-.631c.152.145.227.325.237.585-.079-.123-.13-.206-.185-.293-.171.146-.036.436-.376.487-.127-.243-.025-.517-.132-.828M2.993 22c.083.215.19.423.246.633.039.181-.188.303-.403.467-.248-.214-.47-.407-.674-.589l.83-.511M11.771 19.8l-.152-.16c-.178-.244-.367-.477-.525-.737-.235-.384-.348-.814-.244-1.303.052.263.074.54.161.785.09.248.23.476.373.693.148.224.325.424.508.659-.048.024-.084.045-.12.063M5.272 10.933l.006.007c-.321-.356-.656-.701-.835-1.184-.136-.366-.157-.612-.054-.956.063.45.09.872.333 1.207.232.32.472.632.683.993-.045-.024-.088-.044-.133-.067M9.73 18.156c.004.321-.195.535-.513.544-.33.01-.561-.206-.568-.533-.005-.28.245-.551.52-.567.298-.013.554.242.56.556m-.53.432a.41.41 0 0 0 .415-.426.432.432 0 0 0-.42-.429c-.217 0-.431.22-.425.434.004.235.196.421.43.421M11.892 22.777c-.087.111-.163.206-.257.323-.242-.192-.467-.366-.689-.541-.2-.157-.132-.357-.085-.559.265.07.667.37 1.03.777M2.712 8.8c.303.004.537.259.531.58-.008.328-.21.52-.542.52-.326-.003-.549-.235-.539-.565a.575.575 0 0 1 .55-.535m-.02.984a.424.424 0 0 0 .446-.404c.014-.218-.185-.433-.408-.447a.446.446 0 0 0-.447.41.423.423 0 0 0 .408.441M11.695 20.9c-.25-.232-.456-.413-.655-.604-.079-.073-.153-.16-.23-.243.285-.313.31-.321.552-.105.175.156.34.325.53.51l-.197.442M12.973 27.154c.407.259.658.277.836.096a.419.419 0 0 0 .012-.573c-.197-.206-.438-.181-.818.088.033-.223.209-.36.46-.365.281-.003.542.197.582.454.049.294-.096.535-.367.615-.301.085-.524 0-.705-.315M7.568 25.3c-.346-.17-1.012-.854-1.082-1.1.212-.009.284.184.407.283.135.11.258.236.375.368.104.123.293.194.3.449"/>
        <path fill="#7FC241" d="M13.306 22c.103.343.185.635.275.925-.04.009-.076.018-.117.024a9.765 9.765 0 0 0-.238-.282c-.071.167-.122.286-.191.433-.15-.23-.015-.834.271-1.1M8.649 8.819c.047-.008.093-.028.107-.015.302.3.605.602.9.907.033.033.038.098.074.189-.23-.02-.31-.194-.426-.3a3.48 3.48 0 0 1-.364-.372c-.102-.122-.277-.195-.291-.41M4.779 25.199c-.264 0-.464-.228-.454-.512.01-.27.238-.503.482-.486.231.012.413.23.418.486.012.296-.18.512-.446.512M7.568 14.3c-.38-.2-1.032-.875-1.082-1.1.262.068 1.017.813 1.082 1.1"/>
        <path fill="#7FC241" d="M4.755 24.2c.245-.007.443.177.463.442.03.286-.157.534-.418.547-.249.018-.476-.225-.476-.503.002-.255.197-.471.43-.486M11.708 9.285c.006.254-.171.481-.408.508-.262.025-.481-.19-.489-.48-.01-.254.175-.49.401-.51.25-.031.482.203.496.482"/>
        <path fill="#7FC241" d="M4.783 25.186c-.232.014-.434-.18-.457-.443-.02-.279.178-.533.43-.543.226-.004.449.21.47.448.023.271-.184.528-.443.538M11.232 7.595c-.236-.019-.421-.236-.421-.494.003-.276.234-.523.477-.5.23.018.422.247.422.5.002.29-.216.51-.478.494M7.374 13.676c.012.283-.203.523-.452.51-.232-.006-.426-.218-.435-.471-.014-.275.207-.52.455-.515.233.01.428.222.432.476"/>
        <path fill="#7FC241" d="M11.271 7.584c-.238.003-.438-.195-.458-.454-.024-.282.18-.525.436-.53.243-.007.437.185.455.449.019.292-.173.525-.433.535M6.928 14.187c-.243.014-.43-.177-.441-.452-.012-.282.202-.535.444-.535.22.004.437.226.454.468a.486.486 0 0 1-.457.519"/>
        <path fill="#7FC241" d="M7.385 13.694c0 .28-.224.517-.478.502-.232-.015-.416-.233-.42-.502 0-.264.182-.476.417-.492.26-.023.48.206.48.492M11.242 6.6c.232-.004.442.202.456.449.018.264-.197.523-.441.528-.25.005-.456-.236-.446-.523.006-.252.2-.454.431-.454"/>
        <path fill="#7FC241" d="M7.38 13.676c.012.271-.157.492-.39.517-.255.024-.492-.198-.503-.471-.009-.264.22-.528.46-.522.232.002.424.217.434.476"/>
        <path fill="#7FC241" d="M6.486 13.2c.224.016.79.583 1.082 1.1-.092-.016-.17.002-.224-.038-.239-.168-.782-.853-.858-1.062M7.37 24.68c.007.29-.208.526-.455.518-.234-.01-.42-.221-.428-.482-.005-.288.204-.524.454-.516.228.006.426.228.429.48M11.892 7.7c-.427-.27-.948-.8-1.081-1.1.327.01.948.645 1.08 1.1M7.568 17.6c-.134.44-.225.734-.342 1.1l-.704-.082-.036-.122c.325-.27.653-.543 1.082-.896M2.162 22.755v-.74c.21 0 .416-.04.603.01.12.03.284.184.291.294.013.109-.12.302-.231.349-.185.071-.395.056-.663.087M15.28 22.291c.078.094.164.19.3.343l.263-.634c.04.006.08.012.12.025-.031.364-.154.716-.284 1.067-.042.002-.08.004-.12.008a36.679 36.679 0 0 0-.424-.766l.145-.043"/>
        <path fill="#7FC241" d="M15.232 22c.046.17.087.342.143.557.234-.334.527-.313.841-.184-.18.043-.397.04-.537.148-.144.117-.217.346-.354.579-.162-.389-.154-.735-.19-1.078.033-.005.066-.016.097-.022M11.053 7.7c-.071-.34-.15-.684-.242-1.1.5.372.708.7.374 1.097l-.132.003M5.405 25.3c-.269-.027-.55-.252-.925-.708a.776.776 0 0 1-.156-.392c.416.322.797.66 1.081 1.1M2.944 17.6c-.773.508-.785.676-.087 1.1-.457-.015-.698-.202-.695-.545.005-.336.281-.535.782-.555M11.566 20.229c-.147.224-.255.393-.44.671-.13-.425-.219-.728-.315-1.032.034-.02.067-.047.1-.068.197.13.4.26.655.429M14.054 26.4c-.373.615-.658.752-1.081.482.386-.17.704-.315 1.081-.482M13.156 25.3l-.183-.86c.158-.075.281-.137.497-.24-.053.41-.095.744-.14 1.081-.06.006-.115.014-.174.019M13.332 22.012c.026.27.055.542.087.843-.122.069-.23.127-.446.245.063-.429.112-.765.164-1.1.067.002.13.006.195.012M11.481 22.456a31.55 31.55 0 0 1-.378.595c-.115-.394-.206-.69-.292-.978.032-.02.061-.047.094-.073.17.142.341.278.576.456M2.577 19.8a252 252 0 0 0-.073.95c-.469-.34-.466-.608.073-.95"/>
        <path fill="#7FC241" d="M13.67 26.696c-.202-.014-.402-.023-.697-.04.31-.34.508-.296.703-.13-.005.059-.006.112-.006.17M5.307 15.495l-.983.265c.084-.398.172-.432.983-.265"/>
        <path fill="#7FC241" d="M12.973 26.687c.264-.11.431-.174.7-.287-.172.417-.344.457-.7.287M15.135 22.668c.087-.294.132-.458.191-.668.218.395.218.395-.19.668M4.54 7.266c-.26-.135-.23-.402-.188-.666.057.223.119.452.177.675l.012-.01zM8.881 29.166l-.232-.529c.037-.008.085-.028.13-.037.029.19.062.384.095.575-.005 0 .007-.009.007-.009M9.197 18.7a.55.55 0 0 1-.548-.542c-.008-.274.266-.556.542-.558.287 0 .539.252.539.551a.526.526 0 0 1-.533.549m0-.176c.193-.004.36-.186.354-.39a.36.36 0 0 0-.342-.346.353.353 0 0 0-.375.358.373.373 0 0 0 .363.378M2.678 9.9a.541.541 0 0 1-.515-.57c.008-.287.285-.545.564-.53.283.02.533.296.515.578a.542.542 0 0 1-.564.522m.016-.914c-.212.003-.356.167-.346.387.01.197.154.346.341.348.193.009.37-.167.375-.368a.364.364 0 0 0-.37-.367M9.73 15.4c-.037.59-.049.642-.191.649a6.431 6.431 0 0 1-.699.001c-.145-.008-.154-.046-.191-.65h1.08M9.73 13.84H8.649c.022-.509.043-.624.151-.63.253-.017.508-.007.762-.007.12.003.154.258.168.637M10.825 14.112c.031-.183.045-.369.107-.549.052-.157.224-.288.616-.363-.15.207-.325.379-.39.56-.062.171-.016.357-.12.54-.076-.064-.147-.132-.227-.196l.014.008zM10.81 9.552v-.736c.226 0 .429-.042.612.009.114.033.252.185.282.314.052.21-.095.343-.282.371-.18.03-.366.03-.611.042"/>
        <path fill="#7FC241" d="M9.11 18.615c-.254 0-.463-.238-.461-.522.002-.288.212-.507.476-.492.24.013.422.217.434.476.008.282-.204.532-.449.538M2.602 8.8c.26-.005.477.226.471.505-.005.276-.231.517-.477.505-.237-.003-.42-.208-.433-.478-.014-.302.17-.528.439-.532"/>
    </g>
</svg>
