<svg xmlns="http://www.w3.org/2000/svg" width="23" height="23" viewBox="0 0 23 23">
    <g fill="none" fill-rule="evenodd">
        <rect width="23" height="23" fill="#389E48" rx="11.5"/>
        <path fill="#FFF" fill-rule="nonzero" d="M16.258 11.616l.737-.737a3.425 3.425 0 0 0 0-4.847 3.425 3.425 0 0 0-4.847 0l-6.143 6.144a3.425 3.425 0 0 0 0 4.847 3.425 3.425 0 0 0 4.847 0l.737-.738a3.43 3.43 0 0 0 2.983 1.742 3.431 3.431 0 0 0 3.427-3.428 3.43 3.43 0 0 0-1.741-2.983zM11.145 14.6c0 .321.044.632.127.926l-.959.96a2.664 2.664 0 0 1-3.77 0 2.664 2.664 0 0 1 0-3.77l2.78-2.78 2.552 2.552a3.41 3.41 0 0 0-.73 2.112zm3.046 2.639a2.67 2.67 0 0 1-2.285-2.639 2.67 2.67 0 0 1 2.285-2.638v5.277zm-1.783-5.295L9.861 9.396l2.826-2.826a2.664 2.664 0 0 1 3.77 0 2.664 2.664 0 0 1 0 3.77l-.959.96a3.419 3.419 0 0 0-3.09.643zm2.545 5.295V11.96a2.67 2.67 0 0 1 2.285 2.638 2.67 2.67 0 0 1-2.285 2.639z"/>
    </g>
</svg>
