<svg xmlns="http://www.w3.org/2000/svg" xmlns:xlink="http://www.w3.org/1999/xlink" width="90" height="36" viewBox="0 0 90 36">
    <defs>
        <path id="a" d="M.153.192h64.086v14.014H.153z"/>
        <path id="c" d="M0 .105h13.933v35.81H0z"/>
    </defs>
    <g fill="none" fill-rule="evenodd">
        <g transform="translate(25.563 12.783)">
            <mask id="b" fill="#fff">
                <use xlink:href="#a"/>
            </mask>
            <path fill="#93CD0E" d="M61.79 8.183H57.01c.1-.964.783-2.068 2.37-2.068 1.686 0 2.328 1.144 2.408 2.068zm-2.25 6.023c1.507 0 3.032-.462 3.996-1.345l-1.144-1.687c-.623.602-1.747.944-2.57.944-1.646 0-2.61-.984-2.79-2.169h7.207v-.602c0-3.152-1.948-5.32-4.859-5.32-2.93 0-5.019 2.268-5.019 5.08 0 3.111 2.229 5.099 5.18 5.099zm-9.234-.241V7.56c.421-.622 1.545-1.104 2.389-1.104.3 0 .522.02.702.06v-2.49c-1.204 0-2.389.703-3.091 1.547V4.268h-2.55v9.697h2.55zm-9.838-2.028c-1.466 0-2.47-1.144-2.47-2.83 0-1.667 1.004-2.812 2.47-2.812.843 0 1.766.482 2.188 1.125v3.413c-.422.642-1.345 1.104-2.188 1.104zm4.758 2.028V4.268h-2.57v1.244c-.783-1.003-1.847-1.485-2.992-1.485-2.469 0-4.296 1.927-4.296 5.08 0 3.252 1.867 5.099 4.296 5.099 1.185 0 2.23-.522 2.992-1.486v1.245h2.57zm-16.463.24c2.931 0 4.638-1.626 5.581-3.292l-2.45-1.184c-.561 1.084-1.766 1.947-3.131 1.947-2.45 0-4.216-1.867-4.216-4.397 0-2.53 1.766-4.397 4.216-4.397 1.365 0 2.57.864 3.132 1.948l2.45-1.205C33.4 1.94 31.693.353 28.762.353c-4.036 0-7.148 2.79-7.148 6.926 0 4.116 3.112 6.927 7.148 6.927zm-9.999-.24V6.496h1.968V4.268h-1.968v-.402c0-.944.482-1.405 1.205-1.405.341 0 .622.06.823.2l.522-1.887c-.462-.24-1.104-.401-1.847-.401-1.867 0-3.252 1.224-3.252 3.493v.402h-1.607v2.228h1.607v7.469h2.55zm-8.211 0h2.55V4.268h-2.55v9.697zm1.265-10.742c.843 0 1.526-.682 1.526-1.525 0-.844-.683-1.506-1.526-1.506-.824 0-1.506.662-1.506 1.506 0 .843.682 1.526 1.506 1.526zM8.685 13.966v-2.51H3.024V.573H.153v13.392h8.532z" mask="url(#b)"/>
        </g>
        <path fill="#93CD0E" d="M18.133 22.643c.066.032.106.044.136.07.252.225.438.451.478.58-.02.002-.045.012-.053.004-.178-.18-.356-.361-.53-.544-.016-.015-.014-.048-.031-.11M19.565 22.392c-.169-.073-.555-.481-.61-.645.036.01.069.007.09.024.202.166.472.487.52.621M18.828 22.6a.26.26 0 0 1-.247.265.249.249 0 0 1-.251-.222.244.244 0 0 1 .224-.277.254.254 0 0 1 .274.234M18.942 22.762c.135-.01.267.119.267.253a.251.251 0 0 1-.238.246.242.242 0 0 1-.26-.217.257.257 0 0 1 .23-.282M19.574 22.6a.245.245 0 0 1-.234.246.255.255 0 0 1-.266-.25c.005-.135.138-.26.272-.25.126.01.228.126.228.255"/>
        <path fill="#93CD0E" d="M19.193 22.207a.25.25 0 0 1-.27.243.261.261 0 0 1-.23-.257.255.255 0 0 1 .274-.24.245.245 0 0 1 .226.254"/>
        <g transform="translate(0 .107)">
            <mask id="d" fill="#fff">
                <use xlink:href="#c"/>
            </mask>
            <path fill="#93CD0E" d="M7.002 11.768c-.13.193-.267.383-.386.586-.067.11-.028.238.065.317.094.076.2.083.28-.013a4.77 4.77 0 0 0 .413-.587l-.372-.303zm-1.6 10.986c-.132.197-.264.385-.384.582-.067.112-.033.23.062.314.093.083.21.088.292-.017.145-.185.274-.383.41-.574-.131-.103-.243-.194-.38-.305zm1.158-.46c.108.16.218.32.328.48.023.036.047.07.074.097.094.093.203.1.298.019.103-.086.13-.21.056-.333-.092-.152-.196-.294-.296-.44-.033-.048-.073-.09-.099-.12l-.361.298zm1.598-10.982l.154.226c.075.107.143.216.224.315.1.128.213.142.323.053.109-.09.128-.215.045-.352-.054-.094-.12-.18-.183-.27a40.752 40.752 0 0 1-.196-.277l-.367.305zM5.853 22.954c.136-.2.28-.397.408-.606.073-.115.031-.255-.072-.33-.098-.072-.218-.065-.296.04-.146.193-.28.397-.416.593.092.166.205.26.376.303zM6.87 21.9c-.15-.21-.291-.416-.44-.617-.056-.08-.142-.087-.228-.054-.147.056-.204.227-.115.378.082.141.183.272.276.407.149.217.202.22.388.024.036-.039.068-.08.119-.138zm.56-9.928c.027-.027.054-.048.072-.074.116-.168.236-.333.346-.508.081-.131.054-.267-.051-.35-.102-.082-.233-.064-.324.058-.091.119-.173.245-.258.368-.16.233-.148.298.09.447.038.024.08.038.125.059zm1.032-1.065c-.142-.2-.276-.406-.424-.599-.078-.103-.2-.104-.297-.032-.094.072-.136.207-.07.317.13.213.277.417.412.615.183-.039.282-.15.379-.301zm3.109 2.535c.054.552.423.895.881.848.39-.042.715-.44.685-.848H11.57zM4.594 4.327c.004.507.396.883.86.845.396-.033.742-.452.695-.845H4.594zm6.987 8.969h1.555c.035-.43-.322-.836-.742-.857-.433-.02-.82.382-.813.857zM6.163 4.184c-.008-.508-.413-.906-.846-.86-.418.045-.77.468-.706.86h1.552zm-.252-1.607l.273-.455c-.247-.087-.42-.023-.53.241-.099-.163-.176-.296-.256-.43.06-.047.112-.078.154-.119.111-.11.138-.251.103-.405-.034-.14-.117-.245-.255-.25-.281-.01-.562-.002-.84-.002-.038.265-.03 1.2.008 1.343h.369c0-.101-.003-.186.001-.269.006-.086-.023-.18.03-.26.124.067.287.306.426.617l-.294.488c.263.095.44.015.544-.283.056.096.087.166.132.222.028.039.074.08.116.086.098.012.199.003.335.003l-.316-.527zm5.636 7.68c-.042.257-.036 1.216.007 1.359h.384v-.536c.144.071.31.314.445.625l-.306.513c.137 0 .253.032.335-.01.095-.049.16-.166.243-.263.054.094.105.18.155.264h.398l-.307-.515c.092-.156.18-.305.284-.478h-.375l-.172.252c-.09-.151-.169-.282-.25-.421.059-.046.11-.08.153-.12.113-.11.133-.251.1-.405-.028-.133-.106-.23-.236-.247-.287-.038-.576-.015-.858-.017zM9.054 8.172c-.024.073-.044.124-.058.179a2.35 2.35 0 0 1-.318.693c-.07.1-.142.2-.21.304a.83.83 0 0 0 .096 1.017c.26.269.662.287.937.043A.815.815 0 0 0 9.668 9.4c-.042-.079-.095-.15-.144-.223a2.769 2.769 0 0 1-.426-.893c-.008-.03-.023-.061-.044-.114zm-.302 15.8c-.014.001-.028.004-.041.006-.04.118-.073.237-.115.353-.101.279-.268.512-.432.748a.833.833 0 0 0 .07 1.053.667.667 0 0 0 .953.029.813.813 0 0 0 .12-1.045c-.234-.354-.47-.704-.555-1.145zM2.548 13.17c-.08.386-.24.71-.453 1.005a2.687 2.687 0 0 0-.14.201.841.841 0 0 0 .052.909.69.69 0 0 0 .806.235c.283-.11.465-.394.467-.727a.862.862 0 0 0-.178-.522c-.221-.314-.416-.645-.505-1.034-.004-.018-.022-.032-.05-.067zm7.572-1.882c-.285-.065-.459-.006-.65.207a.896.896 0 0 0-.232.544c-.032.492.148.879.517 1.153.09.067.215.088.326.105.114.02.232.008.348.01.173.003.342-.03.46-.176.264-.33.424-.708.38-1.157-.047-.485-.47-.825-.914-.747-.034.007-.07.009-.117.013.005-.102.015-.185.013-.269 0-.076-.002-.156-.018-.23-.013-.06-.055-.097-.12-.039l.046.335c-.378-.336-.449-.358-.67-.237.084.1.164.209.258.304.11.112.252.055.391.053-.008.05-.011.083-.018.13zM1.36 18.554c-.147.015-.267 0-.367.042a.827.827 0 0 0-.513.708c-.054.49.116.879.477 1.172a.544.544 0 0 0 .36.13c.116-.001.233 0 .349.005a.57.57 0 0 0 .514-.239c.225-.314.357-.665.326-1.074a.82.82 0 0 0-.41-.673.733.733 0 0 0-.615-.07c.005-.104.011-.187.011-.267 0-.077 0-.157-.017-.23-.015-.066-.057-.116-.126-.051l.037.297c-.205-.206-.401-.352-.682-.203.356.387.356.387.661.364l-.005.09zm8.76-1.91c.109-.121.223-.227.314-.35.252-.346.252-.72-.011-1.059a3.007 3.007 0 0 0-.414-.411c-.154-.135-.325-.254-.485-.383-.064-.051-.124-.112-.185-.17l.017-.034h.778c-.094.097-.162.167-.24.25l.217.169c.341-.243.514-.545.474-.82h-.233c-.026.136-.11.16-.228.156-.27-.009-.541-.009-.812 0-.116.003-.203-.017-.227-.15h-.268c.02.095.02.18.053.242.07.132.141.273.241.375.17.172.363.316.548.47.083.07.17.138.257.206l-.014.035h-.354c-.042-.13-.042-.13-.224-.242-.038.03-.082.06-.118.097a2.021 2.021 0 0 0-.188.21c-.264.352-.268.753.003 1.096.118.147.26.273.402.394.177.153.365.288.548.436.03.024.054.064.103.126-.254-.008-.472.009-.689-.012-.004-.017-.01-.032-.015-.049l.18-.154-.238-.185c-.248.222-.466.442-.49.826h.257l.094-.194c.3 0 .597.006.894-.002.14-.004.26.005.274.213l.274-.017c-.005-.056-.005-.084-.01-.11-.046-.266-.2-.456-.382-.616-.202-.176-.416-.334-.623-.503-.036-.03-.067-.068-.12-.125h.44l-.02.117c.067.05.133.1.22.168zm-1.144 3.811c-.152-.025-.206.18-.354.153 0-.03-.007-.056 0-.07.218-.367.926-.395 1.17-.046.015.023.001.068.001.126l-.33-.201c-.01.062-.02.095-.017.126.015.223.084.425.204.605.13.19.293.338.497.422.244.1.442.009.53-.256.039-.116.06-.245.065-.37.018-.59-.188-1.095-.512-1.553-.28-.397-.525-.244-.671.094a.065.065 0 0 1-.007.02c-.136.283.026.44.186.532.055.032.125.033.184.055.031.012.057.043.126.097-.095.015-.141.032-.187.027-.282-.035-.498-.297-.512-.617-.005-.116-.007-.231-.012-.363-.096.005-.169.012-.255.016 0 .144.006.263-.001.382-.021.312-.266.572-.544.578-.036 0-.072-.03-.108-.044 0-.017 0-.033.002-.051.05-.014.1-.032.153-.044a.436.436 0 0 0 .306-.234.295.295 0 0 0 .034-.177.754.754 0 0 0-.207-.419c-.114-.114-.244-.12-.37-.015a.695.695 0 0 0-.11.118c-.25.32-.425.687-.508 1.099-.06.29-.078.584.023.87.089.243.254.336.477.275.416-.112.772-.648.747-1.135zm2.225-5.297l-.004-.006c.004.223.07.445.003.668a.574.574 0 0 0-.003.306c.034.154.034.32.05.52-.043-.089-.07-.139-.11-.22.04.252.08.302.264.345.031-.056.06-.118.096-.175.082-.126.159-.257.254-.369.085-.101.172-.092.239.024.054.093.092.201.12.308.03.12.04.246.06.367.169.045.22.034.309-.09a.81.81 0 0 0 .171-.526 1.08 1.08 0 0 1 .226-.772c.13-.171.162-.397.144-.62-.024-.299-.215-.448-.484-.388-.025.004-.052.006-.075.02-.245.142-.44.078-.61-.155a.263.263 0 0 0-.166-.088c-.215-.029-.473.165-.503.396-.02.149.011.303.02.455zm-.583 17.755l.174.159c.049-.09.08-.157.12-.216.082-.126.158-.258.254-.37.085-.1.165-.081.243.027.103.145.103.239-.018.339-.598.49-.912 1.166-1.094 1.934-.04.176-.063.358-.1.535-.031.147-.018.277.078.393.025.03.034.071.064.142-.264-.01-.508-.084-.743.06a64.462 64.462 0 0 1-1.671-2.934c.042-.068.08-.13.117-.195.083-.144.08-.245-.004-.345-.064-.076-.207-.125-.317-.03-.014.013-.033.02-.067.037-.074-.136-.159-.269-.226-.41-.28-.593-.555-1.19-.832-1.785-.014-.03-.027-.064-.04-.096a.438.438 0 0 1 .01-.426.722.722 0 0 0-.368-.998c-.212-.086-.306-.231-.364-.442-.093-.342-.135-.247.108-.526.432-.492.87-.98 1.299-1.478.309-.361.204-.908-.204-1.108-.245-.12-.513-.058-.724.177-.286.314-.569.632-.85.952-.044.05-.073.116-.133.16a5.29 5.29 0 0 1-.287-1.057c.061-.03.115-.07.173-.087a6.503 6.503 0 0 0 1.961-.98c.81-.588 1.502-1.305 1.967-2.252.13-.265.231-.55.336-.828.024-.065.018-.141.026-.213l-.048-.025c-.04.047-.09.087-.12.138-.271.444-.6.826-.97 1.171a7.558 7.558 0 0 1-1.192.895c-.478.296-.973.55-1.501.719a3.658 3.658 0 0 1-.887.159c-.027-.112-.057-.21-.074-.31-.136-.862-.245-1.724-.264-2.6a1.912 1.912 0 0 1-.002-.125c.002-.202.002-.201.19-.24.383-.073.76-.163 1.12-.324.126-.055.23-.061.323.069.048.063.119.11.181.157a.57.57 0 0 0 .498.109c.175-.04.295-.145.32-.342.014-.1.064-.144.136-.184.062-.035.132-.072.173-.129.04-.057.073-.145.063-.21-.043-.25.07-.427.23-.567.174-.152.372-.274.557-.414.101-.076.204-.153.29-.245a.754.754 0 0 0-.114-1.153 1.265 1.265 0 0 0-.567-.192c-.09-.013-.172-.02-.255-.08-.104-.077-.189-.037-.295.102.06.121.167.145.262.102.325-.149.601-.014.87.158a.576.576 0 0 1 .242.392.65.65 0 0 1-.106.536c-.172.237-.407.371-.666.52.211-.295.404-.564.596-.835.05-.072.102-.146.062-.25-.07-.054-.118 0-.17.042-.265.211-.515.449-.798.627-.332.21-.693.371-1.041.55-.087.044-.167.034-.252-.033-.216-.167-.448-.31-.659-.483-.208-.17-.28-.411-.22-.693a.628.628 0 0 1 .217-.363c.21-.173.458-.22.711-.236.046-.004.094.035.139.056.12.053.202.027.298-.093-.091-.13-.187-.174-.288-.1-.088.064-.18.067-.273.082-.225.035-.445.089-.628.25-.32.279-.348.795-.042 1.09.166.161.365.285.55.426.062.046.122.094.19.146-.29.216-1.223.428-1.785.408-.004-.045-.015-.091-.01-.137.033-.335.062-.672.11-1.005a.604.604 0 0 1 .13-.272c.104-.133.232-.244.34-.374.334-.4.375-.845.13-1.316l-.043-.098c.065-.023.12-.049.18-.062.126-.029.256-.044.38-.08.204-.061.402-.13.62-.136.114-.002.24-.073.333-.151.276-.23.538-.478.805-.721a3 3 0 0 0 .2-.2c.052-.06.09-.128 0-.2.2-.227.39-.447.581-.664a.705.705 0 0 0 .168-.66c-.118-.503-.674-.692-1.03-.348-.12.116-.23.247-.342.374-.377.423-.753.85-1.13 1.274-.24.27-.265.32-.312.709l-.398.022c.05-.19.086-.345.13-.498.252-.863.505-1.725.76-2.588.012-.048.042-.09.047-.138.039-.41.279-.677.536-.941.203-.21.311-.48.305-.793-.003-.195-.046-.38-.167-.527-.085-.108-.13-.214-.08-.36.03-.09.027-.191.04-.305.078.017.138.033.198.045.297.054.49-.072.566-.384a.201.201 0 0 1 .105-.136c.069-.041.145-.078.192-.138.042-.054.08-.144.069-.207-.048-.252.065-.43.22-.569.18-.158.384-.282.575-.427.106-.08.209-.166.305-.26.265-.258.26-.82-.065-1.077-.189-.152-.403-.214-.63-.244-.096-.014-.185-.023-.272-.085-.104-.074-.196-.028-.283.108.107.121.187.153.298.079.082-.055.157-.051.24-.04.18.026.356.06.516.163.41.264.455.795.085 1.125-.143.129-.31.227-.464.342-.116.087-.233.175-.344.271-.136.12-.195.245-.28.528h-.626a1.104 1.104 0 0 0-.237-.505.26.26 0 0 1-.042-.156c.015-.572-.043-1.139-.109-1.702-.002-.019.009-.04.019-.08.042.019.08.032.117.052.087.054.174.046.257-.003.073-.044.075-.12.003-.164-.089-.052-.177-.066-.274 0-.117.081-.145.06-.17-.09-.026-.166-.051-.333-.084-.499-.012-.06-.01-.147-.12-.158-.006.052-.018.104-.017.154.001.184.007.366.014.55.004.091-.03.133-.11.168-.132.053-.27.109-.378.2-.32.265-.339.775-.049 1.074.097.1.21.185.322.267.085.06.125.126.103.243-.055.289-.098.58-.15.906-.066-.047-.114-.075-.157-.11a1.325 1.325 0 0 0-1.074-.301c-.4.06-.677.286-.846.682-.047.112-.11.217-.182.353-.042-.09-.064-.145-.094-.196-.093-.165-.248-.236-.414-.193a.399.399 0 0 0-.288.354.427.427 0 0 0 .247.435c.143.063.308.018.417-.128.163-.223.348-.423.456-.692.12-.3.361-.445.648-.509.454-.102.84.046 1.183.365.06.054.07.108.053.184-.053.232-.1.465-.157.696a.22.22 0 0 1-.074.114c-.09.067-.186.124-.288.19a.738.738 0 0 0-.598-.226c-.345.021-.578.257-.622.63-.04.364.064.681.27.96.115.152.229.306.407.374l-.004-.004c.022.034.039.082.067.099.18.094.142.23.078.384-.05.122-.082.25-.13.396-.329-.169-.648-.193-.942.07a.882.882 0 0 0-.301.659c.317.03.629-.007.945.02-.013.113-.076.109-.132.109l-.58.001h-.208c-.034.358.133.606.595.879-.046.144-.092.294-.14.442-.124.383-.251.768-.374 1.152a.464.464 0 0 1-.176.264c-.091.064-.167.152-.259.24-.042-.04-.084-.08-.123-.122-.38-.392-.94-.403-1.313-.024a1.08 1.08 0 0 0-.073 1.442c.32.385.66.75 1.008 1.11a.49.49 0 0 1 .144.482c-.053.289-.079.584-.117.888-.192.068-.372.161-.377.431-.004.192.065.286.338.458 0 .147.008.3-.003.454a.638.638 0 0 1-.07.214c-.152.333-.121.385.052.58.028.03.037.08.072.155-.21-.06-.302-.2-.338-.37-.038-.16-.035-.333-.05-.513h-.243c0 .118.006.228 0 .34-.018.316-.221.561-.5.61-.056.009-.117.028-.155-.067.029-.02.056-.043.088-.055.055-.02.115-.026.168-.05.22-.102.288-.292.194-.528-.145-.357-.401-.526-.693-.106-.283.407-.471.854-.503 1.369-.013.199.002.394.08.578.088.207.242.288.442.24.364-.086.83-.631.76-1.165l-.327.205c-.013-.196.26-.383.555-.39a.669.669 0 0 1 .49.166c.03.026.034.087.066.175l-.288-.162a.58.58 0 0 0 .024.367c.047.13.11.254.176.374.049.09.143.159.167.252.045.174.054.357.087.592-.186-.21-.389-.18-.584-.181h-.53v1.356h.39v-.519c.146.033.243.163.462.599l-.304.517c.133.002.25.036.338-.007.09-.042.149-.159.23-.257.03.048.063.087.084.137.039.088.091.148.191.137.095-.01.115.07.136.147.134.468.266.938.402 1.406.052.182.115.358.17.539.048.15.024.186-.112.209a2.534 2.534 0 0 0-.38.072c-.096.03-.16.004-.217-.078-.061-.09-.13-.174-.213-.28.243-.193.437-.419.447-.784-.057-.007-.105-.02-.152-.02-.246-.002-.492 0-.737-.003-.066-.001-.145.023-.192-.096.183-.045.36-.017.534-.022.173-.005.347 0 .517 0a.775.775 0 0 0-.378-.753c-.385-.221-.722-.113-1.024.223-.034-.04-.068-.072-.09-.11a20.067 20.067 0 0 1-1.156-2.312c-.348-.832-.673-1.675-.876-2.564-.057-.25-.087-.51-.14-.764-.157-.754-.183-1.52-.163-2.286.025-.872.125-1.734.315-2.585.193-.863.44-1.704.733-2.53.156-.438.327-.87.499-1.3a.92.92 0 0 1 .146-.247 1.26 1.26 0 0 0 .3-.736c.004-.056.004-.119.028-.164.027-.05.074-.104.122-.118.169-.05.589.068.675.304-.071.099-.116.002-.17-.031-.054-.031-.108-.064-.184-.107-.005.077-.016.123-.01.167.057.438.27.756.63.952.31.172.56.036.64-.34a1.83 1.83 0 0 0-.01-.733 2.647 2.647 0 0 0-.491-1.088.785.785 0 0 0-.14-.144.26.26 0 0 0-.37.021.811.811 0 0 0-.203.423c-.01.05.006.112.03.159.063.13.168.208.3.242.054.013.107.03.196.055-.057.048-.083.089-.11.089-.383 0-.683-.456-.509-.8.204-.407.373-.833.543-1.259.237-.591.473-1.183.689-1.787.163-.456.293-.928.44-1.392a.22.22 0 0 1 .048-.091c.062.338.15.669.055 1.015-.015.053.004.118.009.178.018.19.06.378.026.57l-.06-.227c-.015.09-.026.179.064.224.014.094.08.117.174.13.03-.053.059-.113.094-.169.076-.12.146-.25.235-.358.112-.136.217-.123.287.042.064.152.094.32.136.481.01.047.01.096.012.142.158.063.217.052.308-.067a.923.923 0 0 0 .183-.503c.008-.09.01-.184.002-.273a.467.467 0 0 1 .105-.348 1.17 1.17 0 0 0 .262-.688c.017-.417-.226-.618-.586-.476-.269.104-.38.077-.564-.143-.111-.135-.285-.151-.457-.04-.064.043-.122.1-.203.166.004-.065 0-.111.011-.153.125-.54.197-1.09.232-1.644a7.48 7.48 0 0 0-.128-1.886A7.492 7.492 0 0 0 3.894.27C3.876.228 3.87.181 3.85.104c.078.012.134.011.185.027.484.154.95.36 1.398.608.587.326 1.14.71 1.673 1.13.026.021.047.047.083.083l-.153.07a.79.79 0 0 0 .242.556c.17.17.357.321.54.477.101.086.206.163.346.274-.16.037-.279.013-.4.023-.019-.146-.12-.2-.235-.267-.185.153-.352.324-.444.566a.771.771 0 0 0 .078.741c.117.165.26.311.408.444.167.153.354.282.53.421a.713.713 0 0 1 .155.166c-.225.034-.442.028-.66.026l-.022-.054c.06-.041.118-.085.2-.145l-.247-.2c-.252.212-.463.435-.499.828l.255.015.087-.202h1.108l.083.186h.246a.589.589 0 0 0-.151-.472 6.158 6.158 0 0 0-.504-.49c-.143-.124-.3-.234-.463-.362.041-.022.058-.04.074-.04.115-.003.231 0 .352 0-.028.176.105.2.202.286.2-.166.376-.345.464-.602a.815.815 0 0 0-.062-.67 1.66 1.66 0 0 0-.457-.509c-.156-.126-.318-.242-.473-.367-.087-.07-.166-.15-.261-.236.13-.058.21-.004.281.068.352.348.712.69 1.054 1.052.29.309.558.642.833.965.045.05.077.11.125.179-.053.031-.096.057-.14.08-.607.313-.767 1.116-.313 1.66.313.374.652.722.98 1.081.145.159.293.316.44.473.018.019.04.03.072.054l.693-.736c.082.088.035.139-.01.19l-.483.547c-.255.289-.512.576-.769.863a.726.726 0 0 0-.192.593c.036.273.172.47.412.564.254.1.486.044.678-.165.255-.279.502-.565.753-.85.106-.12.21-.244.334-.39.066.131.121.224.166.322.479 1.07.875 2.176 1.14 3.331.205.881.319 1.778.35 2.687.008.204-.016.257-.222.272-.24.015-.47.085-.664.255-.312.276-.341.784-.042 1.074.161.159.35.286.534.415.345.243.303.184.248.581-.035.236-.08.472-.122.705-.004.02-.016.036-.036.08-.064-.058-.119-.112-.177-.161-.184-.155-.351-.34-.554-.455-.468-.266-.942-.252-1.39.082-.16.12-.24.305-.326.488-.045.097-.1.187-.158.294-.061-.104-.098-.185-.151-.252a.344.344 0 0 0-.534-.023.442.442 0 0 0-.026.571c.156.181.385.21.53.029.157-.198.34-.37.447-.623a1.048 1.048 0 0 1 1.427-.561c.338.152.585.43.842.694.03.031.041.106.032.152-.026.138-.069.269-.107.415-.278-.002-.554-.012-.76.241a.792.792 0 0 0-.578-.241c-.376.006-.633.262-.665.67-.029.357.082.666.287.936.093.121.18.261.33.315l.1.097c.07.06.14.122.21.178.063.048.129.09.217.15l-.23.483-.362-.271c.068-.19-.045-.259-.188-.323a.723.723 0 0 0-.114.559c.044.247.111.49.175.733.042.16.048.16-.078.322a6.24 6.24 0 0 1-.113-.066c.081-.139 0-.24-.036-.358-.045 0-.075-.001-.107.002-.72.055-1.025.514-.846 1.273.04.171.083.343.149.502.069.171.036.295-.101.419l-.328-.249c.105-.03.174-.048.263-.071l-.086-.28c-.317.013-.613.06-.846.366.075.06.14.114.208.17.056-.04.104-.074.173-.121l.503.39-.16.278c-.323.55-.656 1.094-.967 1.651-.178.316-.324.656-.476.988a.579.579 0 0 1-.197.248c-.109.076-.203.174-.313.273a4.18 4.18 0 0 1-.118-.119c-.374-.39-.94-.403-1.313-.028-.378.381-.424.995-.09 1.426.174.227.376.425.567.634.223.245.445.49.672.73.097.105.149.215.157.368.014.23.056.455.06.701-.062-.085-.12-.172-.187-.252a.436.436 0 0 0-.148-.129c-.092-.038-.179 0-.243.082-.066.081-.083.184-.027.274.12.191.248.377.38.557.022.031.097.039.135.023.073-.03.138-.087.222-.143-.01.183-.174.166-.248.285.184.209.273.511.537.658.054.03.085.116.12.182.233.445.462.892.698 1.337.036.07.088.132.129.191.1-.027.08-.102.092-.159.147-.698.294-1.397.445-2.094.034-.162.092-.32.136-.474l.087.04c.019.145.04.298.053.45.002.032-.032.066-.048.097l-.033-.193c-.015.003-.031.01-.044.012l.08.178z" mask="url(#d)"/>
        </g>
        <path fill="#93CD0E" d="M17.405 26.59c.061.067.115.144.184.198.182.135.375.252.55.394.194.154.335.348.302.64a.263.263 0 0 0 .12.248c.071.049.145.092.217.137.017.2-.044.317-.205.37-.128.041-.26.045-.373-.04-.141-.11-.273-.233-.41-.349-.184-.154-.351-.34-.554-.455-.47-.263-.945-.25-1.39.088-.152.117-.232.298-.314.473-.047.1-.101.192-.168.32-.088-.203-.17-.37-.368-.396-.203-.027-.326.096-.43.276a1.45 1.45 0 0 1-.627-.217c.315-.465.5-.95.27-1.548.073.022.118.025.151.049.247.172.518.28.795.378.094.033.175.11.258.164l.306-.154c-.035-.119.054-.196.135-.282.314-.333.624-.673.94-1.003.267-.28.42-.603.362-1.017-.01-.08.019-.135.073-.184.07-.06.142-.122.203-.194a.337.337 0 0 0 .082-.158c.006-.046-.02-.118-.055-.142-.03-.023-.095-.014-.136.005-.053.024-.095.072-.143.107l-.17.125c-.216-.266-.47-.44-.792-.438-.322.002-.582.158-.787.438-.065-.068-.114-.12-.167-.17a.89.89 0 0 0-1.24-.026c-.37.34-.458.921-.197 1.353.07.116.164.215.25.321.04.052.084.1.138.164-.156.096-.287.211-.436.262-.149.049-.315.032-.497.047.005-.097.016-.19.012-.284a1.215 1.215 0 0 0-.04-.245c-.004-.016-.051-.028-.079-.025-.01 0-.027.045-.024.067.01.081.027.16.052.281-.131-.106-.22-.2-.328-.263-.111-.063-.237-.046-.355.016.24.358.312.402.647.374.008.065.015.148-.07.118-.201-.073-.354.015-.502.136a.851.851 0 0 0-.305.544 1.507 1.507 0 0 0-.009.295.288.288 0 0 1-.079.225c-.963 1.047-1.612 2.306-2.082 3.684-.037.11-.084.217-.142.365-.018-.09-.034-.136-.034-.182.003-.47.005-.941.013-1.413a.754.754 0 0 1 .151-.444c.19-.26.225-.564.158-.88a.656.656 0 0 1 .017-.328c.188-.667.415-1.314.773-1.9a5.709 5.709 0 0 1 1.213-1.406c.643-.54 1.354-.95 2.097-1.298.675-.313 1.36-.607 2.027-.94.717-.357 1.406-.77 1.947-1.423.284-.343.5-.728.643-1.163l.078-.209c.198.284.297.572.392.845-.556.495-1.003 1.086-1.5 1.623-.106.113-.21.23-.31.348-.264.311-.267.727-.007 1.002.26.277.646.27.918-.03.357-.394.706-.8 1.06-1.2.044-.05.092-.095.14-.144.148.211.106 2.236-.031 2.705a.386.386 0 0 1-.322-.06c-.117-.081-.213-.041-.3.107.074.118.187.142.286.078.11-.07.205-.063.334-.014a9.727 9.727 0 0 1-.629 2.395h-.566c-.063-.389-.323-.609-.62-.798-.171-.108-.337-.225-.505-.338-.01-.024-.015-.055-.03-.073a.68.68 0 0 1-.163-.374c-.033-.337.095-.584.414-.727.223-.098.452-.198.703-.06.09.052.204.025.265-.095-.091-.134-.19-.181-.29-.108-.087.062-.177.065-.271.085a2.324 2.324 0 0 0-.465.139c-.245.107-.386.318-.422.607-.028.237.086.501.263.602"/>
        <path fill="#93CD0E" d="M18.61 28.727l-.28.441c-.218-.146-.315-.156-.414-.05-.1.105-.088.201.064.493-.04.049-.084.106-.134.16-.096.1-.193.2-.294.295-.18.171-.35.358-.546.503-.265.195-.551.36-.829.535-.05.031-.104.047-.171.076-.011-.054-.023-.091-.027-.131a2.583 2.583 0 0 0-.535-1.354.763.763 0 0 0-.123-.133c-.117-.096-.245-.096-.354.007a.79.79 0 0 0-.225.457c-.023.134.129.314.296.372.066.024.131.04.202.06-.013.109-.072.103-.13.098-.273-.027-.5-.292-.518-.615-.007-.11 0-.222 0-.352a29.118 29.118 0 0 1-.252-.013c-.004.106-.004.201-.009.296-.005.092.014.2-.116.245-.017-.053-.03-.097-.047-.137-.05-.114-.09-.237-.158-.336-.129-.193-.306-.206-.463-.039-.085.093-.155.205-.23.31-.039.055-.074.114-.106.165-.516-.043-1.187-.335-1.417-.623.218-.447.507-.846.819-1.246.05.033.09.063.135.087.087.046.172.095.263.127.152.055.31.09.46.146.308.117.62.196.946.189.097 0 .163.03.23.114.2.25.458.222.631-.053.03-.044.064-.086.095-.128.065-.086.131-.17.191-.258.027-.038.04-.087.061-.131.276-.587.887-.816 1.45-.556.292.136.51.374.743.596.082.08.166.156.253.227.153.127.332.14.517.11l.021.046"/>
        <path fill="#93CD0E" d="M15.026 30.943l-.334-.2c-.016.348.105.603.282.863-.144.047-.27.094-.398.13-.518.143-1.039.276-1.554.427-.256.074-.502.178-.754.268l-.168.064c-.064-.129-.04-.236.029-.339.053-.08.11-.156.16-.239.105-.175.153-.372.149-.58-.007-.346-.23-.521-.537-.43-.417.124-.451.113-.722-.272l.285-.58a3.645 3.645 0 0 0 1.551.467c-.03.2-.073.372-.08.545-.006.173.004.354.045.519.081.325.307.434.584.293.34-.173.567-.458.649-.865.014-.073.013-.15.019-.221-.162-.053-.217.19-.371.135.109-.29.537-.438.876-.296.115.05.211.15.313.23.006.004-.013.046-.024.081M13.836 17.236c-.282-.201-.578-.343-.805-.595a.69.69 0 0 1 .088-1.007c.202-.157.437-.195.675-.222.087-.009.133.039.145.128.003.028.005.056.003.084-.024.49-.047.98-.073 1.468-.003.039-.017.08-.033.144M6.536 6.339c.015.509.005.989-.08 1.466-.42-.08-.7-.592-.542-1.003.108-.277.334-.392.622-.463M12.6 21.008v-.538c-.182-.01-.345-.016-.522-.026v-.27l.512-.025v-.547h.269v.534c.107.018.187.03.267.045-.042.24-.042.24-.26.306 0 .103.003.214-.002.324-.01.204-.043.231-.264.197M4.867 29.979c-.168-.088-.915-.875-1.064-1.13.207-.051.4-.168.602-.015a.343.343 0 0 1 .108.14c.126.32.246.644.366.967.004.01-.007.026-.012.038M6.923 8.327c.15.12.204.265.188.419-.022.197.065.299.204.385.069.043.163.06.146.189-.016.117-.07.198-.169.232a.699.699 0 0 1-.263.043c-.173-.012-.22-.08-.203-.271.03-.32.063-.641.097-.997M2.803 17.158c.019.285.033.536.05.818.125-.176.09-.389.2-.58l.142.427.034.006.083-.354a.733.733 0 0 0 .048.001c.023.158.045.316.066.475l.026-.002.124-.967h.056c.022.138.042.277.064.424-.086.008-.116.05-.123.13-.02.203-.047.404-.075.605-.011.078-.03.155-.047.232l-.044-.003-.069-.502-.109.265-.18-.502c-.069.27-.124.495-.18.718-.017 0-.033-.002-.049-.003-.053-.296-.043-.602-.065-.936-.15.175-.163.397-.284.58 0-.19.196-.693.332-.832M8 29.129l.134.41c.01 0 .019 0 .028.003l.09-.404c.097.174.066.334.119.475.088-.297.076-.617.152-.962.08.108.078.197.083.282.006.075.037.155-.064.206-.032.015-.034.115-.041.177-.031.23-.057.46-.087.69-.004.031-.016.061-.065.097l-.071-.471-.027-.004-.065.163c-.024-.014-.047-.02-.052-.033-.046-.122-.086-.243-.167-.364l-.168.694c-.101-.182-.066-.338-.08-.482-.017-.153-.022-.306-.034-.497-.138.183-.158.401-.291.602.023-.22.203-.682.327-.854.067.275.015.545.105.8l.133-.528h.04M6.987 20.5c-.003.221-.059.307-.236.356a.402.402 0 0 1-.37-.054c-.11-.082-.214-.17-.353-.282.223-.11.408-.203.584-.291.129.094.247.18.375.27M5.09 11.326v-.263c.165-.01.328-.017.515-.026v-.548h.26c.028.327-.133.603-.191.881l-.583-.044M6.432 29.927a9.068 9.068 0 0 1-.43-1.097c.267.073.455.204.54.455.07.214.072.435-.11.642M14.539 25.112l-.248.607c-.02-.155.156-.635.299-.837.062.276.044.54.104.803.046-.174.091-.35.14-.532.097.123.146.274.152.494l-.12-.248c-.11.123-.023.368-.241.41-.083-.204-.017-.435-.086-.697M3.488 24.9c.039.145.089.284.113.426.02.121-.086.204-.186.314a41.857 41.857 0 0 1-.312-.396l.385-.343M12.197 21.14l-.101-.098c-.117-.148-.242-.29-.346-.448a.985.985 0 0 1-.162-.794c.035.16.05.329.107.478.06.151.152.29.246.422.098.137.215.258.336.402-.032.014-.056.027-.08.038M5.172 11.97l.004.005c-.205-.219-.419-.432-.533-.73-.087-.226-.1-.378-.034-.59.04.277.057.539.212.744.148.198.301.39.437.613-.029-.015-.057-.027-.086-.041M10.596 18.997c.133-.002.232-.108.232-.254 0-.139-.11-.255-.234-.255-.12 0-.239.131-.235.258.002.14.108.251.237.251m.296-.258c.002.192-.108.319-.285.325-.183.006-.311-.123-.315-.318-.003-.166.136-.328.289-.337.165-.008.306.143.31.33M11.486 23.616l-.125.153-.336-.256c-.097-.075-.064-.169-.04-.264.128.033.324.175.501.367M3.6 9.88c.132.004.238-.1.246-.242.007-.13-.101-.258-.225-.266-.12-.007-.24.112-.245.245-.004.141.095.257.225.262m.01-.586c.167.002.296.154.293.346-.004.195-.115.309-.298.309-.18-.002-.302-.14-.296-.337.002-.165.15-.32.301-.318M11.61 23.416c-.129-.104-.235-.188-.337-.274-.041-.033-.08-.072-.12-.11.148-.143.16-.146.286-.048.09.07.176.148.274.231l-.102.201M14.687 28.744c.208.156.337.167.427.058a.284.284 0 0 0 .007-.345c-.1-.123-.224-.109-.42.053.018-.134.108-.216.236-.219.145-.002.278.118.298.273.024.176-.05.321-.187.37-.154.05-.268 0-.36-.19M6.719 26.666c-.19-.1-.559-.505-.597-.65.117-.006.157.108.225.167.074.065.142.14.206.217.059.073.162.115.166.266M15.596 24.674c.083.237.15.438.222.638l-.093.016a17.166 17.166 0 0 0-.193-.195c-.059.115-.1.198-.155.299-.122-.159-.013-.574.219-.758M10.794 8.776c.027-.005.054-.017.062-.008.174.176.348.354.518.534.02.019.022.057.042.11-.132-.01-.178-.113-.245-.175a2.102 2.102 0 0 1-.209-.22c-.059-.072-.159-.115-.168-.241M6.117 27.528a.246.246 0 0 1-.252-.257.262.262 0 0 1 .267-.243.25.25 0 0 1 .233.243.24.24 0 0 1-.248.257M7.746 14.673c-.206-.116-.56-.508-.586-.638.142.04.551.471.586.638M5.724 26.632a.244.244 0 0 1 .258.223.246.246 0 0 1-.233.277.26.26 0 0 1-.265-.255.255.255 0 0 1 .24-.245M11.86 9.114a.255.255 0 0 1-.227.256.249.249 0 0 1-.272-.241.252.252 0 0 1 .223-.257c.14-.015.269.103.276.242"/>
        <path fill="#93CD0E" d="M6.11 26.717a.245.245 0 0 1-.255-.226.255.255 0 0 1 .24-.274.268.268 0 0 1 .259.227.257.257 0 0 1-.245.273M11.962 8.95a.25.25 0 0 1-.235-.248c.003-.138.131-.262.266-.25.128.008.234.123.234.25a.246.246 0 0 1-.265.248M7.386 14.468a.25.25 0 0 1-.255.258.254.254 0 0 1-.244-.239c-.01-.14.116-.263.256-.26a.251.251 0 0 1 .243.24M11.236 8.97a.252.252 0 0 1-.256-.229.248.248 0 0 1 .245-.27.243.243 0 0 1 .254.228.248.248 0 0 1-.243.272M7.145 15.535c-.135.007-.238-.09-.245-.23-.007-.142.113-.27.247-.27a.272.272 0 0 1 .252.238c.011.137-.104.254-.254.262M7.02 14.889a.256.256 0 0 1-.266.251.253.253 0 0 1-.235-.25.25.25 0 1 1 .5 0M11.593 8.058a.256.256 0 0 1 .257.229c.01.135-.111.269-.249.27a.253.253 0 0 1-.25-.266.242.242 0 0 1 .242-.233M7.765 14.863a.243.243 0 0 1-.22.26c-.14.013-.274-.1-.28-.237-.006-.134.123-.266.257-.262.13 0 .238.108.243.239M6.343 14.957c.112.008.396.278.543.523-.046-.007-.085.001-.112-.018-.12-.08-.393-.406-.431-.505M6.738 26.857a.254.254 0 0 1-.258.259.251.251 0 0 1-.242-.242.252.252 0 0 1 .257-.258c.129.002.24.114.243.241"/>
        <path fill="#93CD0E" d="M12.111 8.375c-.197-.123-.438-.364-.5-.5.152.004.44.293.5.5M7.574 19.614c-.061.199-.104.333-.157.5a42.927 42.927 0 0 0-.325-.038l-.018-.055.5-.407M2.644 21.092v-.49c.116 0 .233-.026.337.007.067.019.158.121.163.195.006.07-.069.2-.13.23-.104.048-.221.038-.37.058M15.995 25.66c.047.049.1.098.181.176.063-.127.11-.227.16-.326.024.004.048.007.072.014-.02.186-.094.367-.172.548-.025 0-.048.002-.072.003-.084-.131-.17-.262-.256-.393l.087-.022"/>
        <path fill="#93CD0E" d="M16.43 25.361l.066.253c.108-.152.243-.142.39-.083-.084.02-.185.018-.25.067-.066.054-.1.157-.163.263-.075-.176-.072-.334-.088-.49l.045-.01M11.14 7.06c-.06-.198-.123-.396-.197-.637.404.216.573.406.303.635l-.106.001M5.943 27.54c-.124-.013-.254-.115-.428-.322a.355.355 0 0 1-.072-.18c.192.147.369.301.5.501M3.34 16.466c-.494.269-.501.358-.054.581-.294-.007-.447-.106-.446-.287.003-.178.181-.283.5-.294M12.527 22.187c-.098.103-.17.18-.292.305-.086-.193-.145-.33-.208-.468l.065-.032.435.195M14.157 30.328c-.173.488-.305.598-.5.384l.5-.384M15.689 26.316l-.148-.39.402-.11-.113.492-.141.008M15.344 25.21l.071.386-.361.11c.05-.195.09-.348.132-.5.055 0 .106.003.158.005M11.528 24.044c-.1.103-.166.169-.283.283-.085-.187-.153-.329-.217-.465.024-.01.046-.023.07-.035.127.067.255.132.43.217"/>
        <path fill="#93CD0E" d="M3.325 16.598l-.06.5c-.38-.18-.376-.32.06-.5M15.305 28.693c-.145-.01-.286-.019-.495-.031.22-.27.36-.235.5-.104a2.007 2.007 0 0 0-.005.135M5.27 17.834c-.214.089-.361.153-.5.21.043-.318.087-.344.5-.21"/>
        <path fill="#93CD0E" d="M14.843 28.89c.188-.089.308-.14.5-.23-.123.333-.246.364-.5.23M16.238 25.189c.07-.22.106-.344.153-.5.177.295.177.295-.153.5M4.338 7.91c-.212-.098-.187-.296-.153-.492l.143.5.01-.007zM10.725 33.28c-.064-.14-.126-.28-.188-.422.03-.006.07-.02.105-.029.023.152.051.305.077.458-.004 0 .006-.007.006-.007M10.612 18.915c.089-.001.166-.086.164-.18a.166.166 0 0 0-.158-.16.163.163 0 0 0-.174.166c0 .095.076.174.168.174m0 .082a.255.255 0 0 1-.253-.25c-.004-.128.123-.259.25-.26.133 0 .25.117.25.256a.244.244 0 0 1-.247.254M3.622 9.458c-.098 0-.165.077-.16.178.005.09.072.16.157.16.09.005.172-.076.174-.169a.168.168 0 0 0-.171-.17m-.007.422a.25.25 0 0 1-.239-.262c.004-.133.133-.252.26-.245a.265.265 0 0 1 .24.266.25.25 0 0 1-.261.241M10.281 16.005c-.038.448-.05.488-.2.492-.245.01-.488.01-.733.001-.152-.005-.161-.035-.2-.493h1.133z"/>
        <path fill="#93CD0E" d="M10.286 16.03H9.168c.023-.398.044-.488.157-.492.261-.013.524-.006.788-.006.123.004.158.203.173.498M11.204 15.265c.022-.147.031-.295.073-.438.035-.126.152-.23.419-.29-.103.165-.221.302-.265.446-.043.137-.01.285-.08.432-.053-.052-.103-.105-.155-.157l.008.007zM11.94 11.151v-.49c.125 0 .237-.026.338.006.064.023.14.124.156.208.029.141-.052.229-.156.249-.1.019-.202.019-.338.027M10.691 19.075a.256.256 0 0 1-.252-.257c0-.143.116-.25.262-.243.13.006.23.107.238.235a.263.263 0 0 1-.248.265M3.698 9.458a.25.25 0 0 1 .259.25.262.262 0 0 1-.263.25.241.241 0 0 1-.237-.237c-.008-.15.093-.262.241-.263"/>
    </g>
</svg>
