<svg xmlns="http://www.w3.org/2000/svg" width="41" height="38" viewBox="0 0 41 38">
    <g fill="#4A4A4A" fill-rule="nonzero">
        <path d="M28.7 9.835c0-4.664 2.228-6.991 2.34-7.105a1.324 1.324 0 0 0-.007-1.89 1.384 1.384 0 0 0-1.933 0c-.128.125-3.133 3.142-3.133 8.995 0 2.772 1.216 4.832 2.505 7.012l.174.296c-1.303.69-4.395 2.08-8.146 2.08-3.75 0-6.844-1.39-8.146-2.08l.175-.296c1.288-2.18 2.504-4.24 2.504-7.012 0-5.853-3.005-8.87-3.133-8.995a1.384 1.384 0 0 0-1.933 0 1.323 1.323 0 0 0 0 1.896c.023.024 2.333 2.42 2.333 7.1 0 2.05-.99 3.726-2.136 5.666-1.561 2.642-3.33 5.637-3.33 10.427 0 5.617 2.76 11.1 2.877 11.33.24.47.722.741 1.223.741.205 0 .413-.046.61-.141a1.33 1.33 0 0 0 .612-1.799c-.026-.051-2.59-5.16-2.59-10.13 0-.434.021-.847.054-1.248 2.349.806 7.32 2.733 9.513 4.524v7.453c0 .74.612 1.341 1.367 1.341s1.367-.6 1.367-1.341v-7.453c2.19-1.788 7.164-3.717 9.514-4.524.032.4.052.814.052 1.247 0 4.972-2.563 10.08-2.589 10.13a1.33 1.33 0 0 0 .611 1.8c.197.095.405.141.61.141a1.37 1.37 0 0 0 1.224-.742c.117-.23 2.878-5.712 2.878-11.329 0-4.79-1.77-7.785-3.33-10.427-1.147-1.94-2.137-3.616-2.137-5.667zm-8.2 17.016c-3.277-2.425-9.522-4.55-10.404-4.844.256-.903.59-1.724.964-2.498 1.571.836 5.09 2.397 9.44 2.397s7.869-1.561 9.44-2.397c.374.773.708 1.594.964 2.498-.88.293-7.127 2.419-10.404 4.844z"/>
        <ellipse cx="20.5" cy="15.2" rx="1.367" ry="1.341"/>
        <path d="M9.337 9.091L6.604 5.068a1.383 1.383 0 0 0-1.895-.372 1.326 1.326 0 0 0-.38 1.86l1.318 1.938h-4.28C.612 8.494 0 9.094 0 9.835s.612 1.341 1.367 1.341h4.28L4.33 13.115a1.326 1.326 0 0 0 .379 1.86c.232.152.496.225.756.225.442 0 .875-.21 1.139-.597l2.733-4.024a1.32 1.32 0 0 0 0-1.488zM39.633 8.494h-4.28l1.317-1.938a1.326 1.326 0 0 0-.379-1.86 1.382 1.382 0 0 0-1.895.372L31.663 9.09a1.32 1.32 0 0 0 0 1.488l2.733 4.024c.264.387.697.597 1.139.597.26 0 .524-.073.756-.225.628-.411.798-1.244.38-1.86l-1.318-1.939h4.28c.755 0 1.367-.6 1.367-1.34 0-.741-.612-1.342-1.367-1.342z"/>
    </g>
</svg>
