<svg xmlns="http://www.w3.org/2000/svg" width="14" height="15" viewBox="0 0 14 15">
    <g fill="none" fill-rule="nonzero">
        <path fill="#78B437" d="M3.912 9.9h8.182a1.64 1.64 0 0 0 1.637-1.636V4.819a.366.366 0 0 0-.73 0v3.445a.907.907 0 0 1-.907.906H3.912a.907.907 0 0 1-.907-.906V1.53c0-.012 0-.024-.003-.04v-.008c0-.01-.003-.019-.003-.025a.056.056 0 0 0-.006-.02l-.003-.013a.148.148 0 0 0-.009-.021c0-.003-.003-.006-.003-.013a.148.148 0 0 1-.01-.02c-.002-.004-.002-.01-.005-.013-.003-.006-.006-.012-.01-.015-.002-.006-.005-.01-.008-.015-.004-.003-.007-.01-.01-.013l-.012-.018c-.003-.003-.006-.006-.006-.009l-.015-.018c-.003-.003-.006-.003-.006-.006l-.018-.019c-.003-.003-.006-.006-.01-.006l-.018-.015c-.006-.003-.012-.009-.021-.012-.003-.003-.006-.003-.01-.006a.332.332 0 0 1-.033-.018L.532.243a.364.364 0 1 0-.283.673l2.023.855v9.058c0 .858.66 1.56 1.5 1.63a1.622 1.622 0 0 0 1.348 2.513 1.622 1.622 0 0 0 1.354-2.506h3.873a1.622 1.622 0 0 0 1.354 2.507c.892 0 1.619-.728 1.619-1.619 0-.892-.727-1.619-1.619-1.619H3.912a.907.907 0 0 1-.907-.906V9.627c.259.173.572.274.907.274zm2.096 3.454a.89.89 0 0 1-1.776 0 .89.89 0 0 1 1.776 0zm6.579 0a.89.89 0 0 1-1.777 0 .89.89 0 0 1 1.777 0z"/>
        <path fill="#80C241" stroke="#78B437" stroke-width=".4" d="M9.583 3.418A1.418 1.418 0 0 0 8.573 3c-.38 0-.74.148-1.009.418L5.417 5.564a1.428 1.428 0 0 0 2.019 2.018l2.147-2.146a1.428 1.428 0 0 0 0-2.018zM7.228 7.375a1.127 1.127 0 0 1-.801.332 1.135 1.135 0 0 1-.802-1.936l.97-.97 1.603 1.604-.97.97zm2.147-2.146l-.97.97-1.603-1.604.97-.97c.214-.214.499-.332.801-.332a1.135 1.135 0 0 1 .802 1.936z"/>
    </g>
</svg>
