<?xml version="1.0" encoding="UTF-8"?>
<svg width="30px" height="30px" viewBox="0 0 30 30" version="1.1" xmlns="http://www.w3.org/2000/svg" xmlns:xlink="http://www.w3.org/1999/xlink">
    <!-- Generator: sketchtool 51 (57462) - http://www.bohemiancoding.com/sketch -->
    <title>D79F09FC-5A35-4F55-921C-A09839474E2B</title>
    <desc>Created with sketchtool.</desc>
    <defs></defs>
    <g id="Page-1" stroke="none" stroke-width="1" fill="none" fill-rule="evenodd">
        <g id="My-Cart_Add-adress" transform="translate(-61.000000, -1376.000000)">
            <rect fill="#FFFFFF" x="0" y="0" width="1024" height="1885"></rect>
            <g id="Group-6" transform="translate(62.000000, 1377.000000)">
                <circle id="Oval-3-Copy" stroke="#4A4A4A" fill="#4A4A4A" cx="14" cy="14" r="14"></circle>
                <g id="wallet" transform="translate(8.000000, 7.000000)" fill="#FFFFFF" fill-rule="nonzero">
                    <path d="M11.0933333,6.8536 C10.6222933,6.8536 10.24,7.23589333 10.24,7.70693333 C10.24,8.17797333 10.6222933,8.56026667 11.0933333,8.56026667 L13.6533333,8.56026667 L13.6533333,6.8536 L11.0933333,6.8536 Z" id="Shape"></path>
                    <path d="M11.0933333,6.00026667 L12.8,6.00026667 L12.8,3.86693333 C12.8,3.628 12.6122667,3.44026667 12.3733333,3.44026667 L11.52,3.44026667 L11.52,2.16026667 C11.52,1.92133333 11.3322667,1.7336 11.0933333,1.7336 L10.0778667,1.7336 L9.344,0.265866667 C9.23306667,0.0525333333 8.97706667,-0.0328 8.77226667,0.0696 L7.7824,0.564533333 L7.63733333,0.265866667 C7.5264,0.0525333333 7.2704,-0.0328 7.0656,0.0696 L3.7376,1.7336 L1.28,1.7336 C0.571733333,1.7336 0,2.30533333 0,3.0136 L0,10.6936 C0,11.4018667 0.571733333,11.9736 1.28,11.9736 L12.3733333,11.9736 C12.6122667,11.9736 12.8,11.7858667 12.8,11.5469333 L12.8,9.4136 L11.0933333,9.4136 C10.1546667,9.4136 9.38666667,8.6456 9.38666667,7.70693333 C9.38666667,6.76826667 10.1546667,6.00026667 11.0933333,6.00026667 Z M10.6666667,2.58693333 L10.6666667,2.9112 L10.5045333,2.58693333 L10.6666667,2.58693333 Z M0.878933333,3.15866667 C0.861866667,3.116 0.853333333,3.0648 0.853333333,3.0136 C0.853333333,2.77466667 1.04106667,2.58693333 1.28,2.58693333 L2.03093333,2.58693333 L0.878933333,3.15866667 Z M2.23573333,3.44026667 L7.0656,1.02533333 L8.2688,3.44026667 L2.23573333,3.44026667 Z M9.22453333,3.44026667 L8.1664,1.324 L8.77226667,1.02533333 L9.97546667,3.44026667 L9.22453333,3.44026667 Z" id="Shape"></path>
                </g>
            </g>
        </g>
    </g>
</svg>