<svg xmlns="http://www.w3.org/2000/svg" xmlns:xlink="http://www.w3.org/1999/xlink" width="12" height="16" viewBox="0 0 12 16">
    <defs>
        <path id="a" d="M25.714 20C22.555 20 20 22.572 20 25.752c0 3.427 3.608 8.152 5.094 9.952a.807.807 0 0 0 1.249 0c1.477-1.8 5.086-6.525 5.086-9.952 0-3.18-2.556-5.752-5.715-5.752zm0 7.807c-1.126 0-2.04-.92-2.04-2.055 0-1.134.914-2.054 2.04-2.054 1.127 0 2.041.92 2.041 2.054a2.048 2.048 0 0 1-2.04 2.055z"/>
    </defs>
    <use fill="#BBB" fill-rule="nonzero" transform="translate(-20 -20)" xlink:href="#a"/>
</svg>
