<svg xmlns="http://www.w3.org/2000/svg" width="37" height="37" viewBox="0 0 37 37">
    <g fill="none" fill-rule="evenodd" transform="translate(1 1)">
        <circle cx="17.5" cy="17.5" r="17.5" stroke="#80c241"/>
        <path fill="#80c241" fill-rule="nonzero" d="M24.807 21.94l-6.153-10.283A1.353 1.353 0 0 0 17.5 11c-.47 0-.912.252-1.154.657L10.193 21.94a1.37 1.37 0 0 0-.02 1.369c.24.426.69.69 1.174.69h12.306c.485 0 .935-.264 1.173-.69a1.37 1.37 0 0 0-.02-1.37zm-.831.886a.371.371 0 0 1-.323.19H11.347a.371.371 0 0 1-.323-.19.377.377 0 0 1 .006-.377l6.152-10.284a.372.372 0 0 1 .318-.18c.13 0 .25.069.318.18L23.97 22.45c.07.115.071.26.006.377z"/>
        <path fill="#80c241" fill-rule="nonzero" d="M17.503 15c-.282 0-.503.214-.503.593 0 1.158.097 2.821.097 3.979 0 .302.186.428.406.428.166 0 .4-.126.4-.428 0-1.158.097-2.821.097-3.979 0-.379-.228-.593-.497-.593zM17.503 21a.498.498 0 0 0-.503.5c0 .266.216.5.503.5a.51.51 0 0 0 .497-.5c0-.273-.229-.5-.497-.5z"/>
    </g>
</svg>
