<svg xmlns="http://www.w3.org/2000/svg" width="13" height="17" viewBox="0 0 13 17">
    <path fill="#000" fill-rule="nonzero" stroke="#000" stroke-width=".4" d="M12.247 4.8a.35.35 0 0 0-.102-.238l-3.46-3.46A.35.35 0 0 0 8.438 1H1.739A.74.74 0 0 0 1 1.74v13.52c0 .408.332.74.74.74h9.768a.74.74 0 0 0 .74-.74V4.81l-.001-.01zM8.789 2.2l2.26 2.259H8.937a.148.148 0 0 1-.148-.148V2.199zm2.756 13.06c0 .021-.016.038-.037.038H1.74a.037.037 0 0 1-.037-.037V1.739c0-.02.017-.037.037-.037h6.347v2.609c0 .469.382.85.85.85h2.61v10.1z" opacity=".48"/>
</svg>
