<svg xmlns="http://www.w3.org/2000/svg" width="52" height="52" viewBox="0 0 52 52">
    <g fill="none" fill-rule="evenodd" transform="translate(1 1)">
        <circle cx="25" cy="25" r="25" fill="#FFF" stroke="#979797"/>
        <path fill="#BBB" fill-rule="nonzero" d="M32.297 31.58a46.372 46.372 0 0 1-3.114-1.314c-.292-.132-.508-.427-.772-.63a.945.945 0 0 0-.397-.195c-.475-.076-.685-.246-.799-.718-.147-.619-.252-1.238-.124-1.882.056-.282.158-.461.43-.568.564-.221 1.118-.468 1.676-.705.416-.177.442-.325.292-.758-.479-1.369-.836-2.759-.953-4.22-.072-.924-.05-1.867-.272-2.774h-.035c-.017-.084-.029-.168-.05-.251-.404-1.599-2.111-2.468-3.543-2.56-.011 0-.022-.003-.034-.004-.11-.006-.215.01-.322.016-.605.084-1.099.468-1.67.637-.748.221-1.206.911-1.486 1.656-.395 1.057-.323 2.184-.41 3.279-.116 1.462-.471 2.852-.953 4.22-.15.434-.124.581.293.759.557.237 1.111.483 1.675.705.272.106.374.286.43.567.128.644.023 1.262-.123 1.883-.114.472-.324.642-.799.718a.936.936 0 0 0-.397.195c-.263.202-.48.497-.773.63a45.64 45.64 0 0 1-3.113 1.313c-1.62.603-2.69 1.65-2.954 3.421h21.25c-.263-1.771-1.334-2.818-2.953-3.42z"/>
    </g>
</svg>
