<svg xmlns="http://www.w3.org/2000/svg" xmlns:xlink="http://www.w3.org/1999/xlink" width="775" height="118" viewBox="0 0 775 118">
    <defs>
        <path id="a" d="M0 0h40v36H0z"/>
    </defs>
    <g fill="none" fill-rule="evenodd">
        <text fill="#000" font-family="Lato-Regular, Lato" font-size="22" transform="translate(-12 -3)">
            <tspan x="10.484" y="119">Place order</tspan>
        </text>
        <text fill="#000" font-family="Lato-Regular, Lato" font-size="22" transform="translate(-12 -3)">
            <tspan x="283.159" y="117">Medicines Delivered</tspan>
        </text>
        <text fill="#000" font-family="Lato-Regular, Lato" font-size="22" transform="translate(-12 -3)">
            <tspan x="643.219" y="117">Refill Regularly</tspan>
        </text>
        <path fill="#FFF" d="M340.214 61.618h46.171v-6.732h-46.171z"/>
        <path stroke="#000" stroke-width="2" d="M340.214 61.618h46.171v-6.732h-46.171z"/>
        <path fill="#78B437" d="M385.832 61.206V26.281h23.5l9.054 15.842a7.045 7.045 0 0 1 .925 3.496v12.475c0 1.719-1.367 3.112-3.054 3.112h-30.425z"/>
        <path stroke="#000" stroke-width="2" d="M385.832 61.206V26.281h23.5l9.054 15.842a7.045 7.045 0 0 1 .925 3.496v12.475c0 1.719-1.367 3.112-3.054 3.112h-30.425z"/>
        <path fill="#DADADA" d="M408 64.565c0 5.283-4.477 9.565-10 9.565s-10-4.282-10-9.565c0-5.283 4.477-9.565 10-9.565s10 4.282 10 9.565M363 66.5c0 5.247-4.701 9.5-10.5 9.5S342 71.747 342 66.5s4.701-9.5 10.5-9.5 10.5 4.253 10.5 9.5"/>
        <path stroke="#000" stroke-width="2" d="M408 65c0 5.524-4.477 10-10 10s-10-4.476-10-10 4.477-10 10-10 10 4.476 10 10zM362 66c0 5.524-4.477 10-10 10s-10-4.476-10-10 4.477-10 10-10 10 4.476 10 10z"/>
        <path fill="#FFF" d="M401.652 65.39c0 1.87-1.488 3.39-3.327 3.39-1.836 0-3.325-1.52-3.325-3.39 0-1.872 1.489-3.39 3.325-3.39 1.84 0 3.327 1.518 3.327 3.39M355.652 66.39c0 1.87-1.488 3.39-3.327 3.39-1.836 0-3.325-1.52-3.325-3.39 0-1.872 1.489-3.39 3.325-3.39 1.84 0 3.327 1.518 3.327 3.39"/>
        <path stroke="#000" stroke-linecap="round" stroke-linejoin="round" stroke-width="2" d="M401 65a3 3 0 1 1-6 0 3 3 0 0 1 6 0zM355 66a3 3 0 1 1-6 0 3 3 0 0 1 6 0z"/>
        <path fill="#FFF" d="M389.51 29.857h17.536l7.81 13.925H389.51z"/>
        <path stroke="#000" stroke-width="2" d="M389.51 29.857h17.536l7.81 13.925H389.51z"/>
        <path fill="#FFF" d="M338.044 51.266h43.893V14.171h-43.893z"/>
        <path fill="#78B437" stroke="#000" stroke-width="2" d="M366.729 30.241h-4.743V25.5h-4.742v4.741h-4.745v4.744h4.745v4.741h4.742v-4.741h4.743z"/>
        <path stroke="#000" stroke-linecap="round" stroke-linejoin="round" stroke-width="2" d="M338.044 51.266h43.893V14.171h-43.893z"/>
        <path stroke="#000" stroke-width="2" d="M401.094 31.049l-11.583 11.804M402.59 35.816l-8.4 8.559M312.311 34h26.59M321.669 41h16.961M316.99 48h21.364M328.178 56h12.825"/>
        <path fill="#000" fill-rule="nonzero" d="M282.26 36.622l12 6.75v-1.744l-12 6.75-.872.49.98 1.744.872-.49 12-6.75 1.55-.872-1.55-.872-12-6.75-.871-.49-.98 1.743.87.49zM88.5 43.5H294v-2H87.5v2h1zM628.26 35.372l12 6.75v-1.744l-12 6.75-.872.49.98 1.744.872-.49 12-6.75 1.55-.872-1.55-.872-12-6.75-.871-.49-.98 1.743.87.49zM447 42.25h193v-2H446v2h1z"/>
        <g>
            <g transform="matrix(-1 0 0 1 64 -3)">
                <mask id="b" fill="#fff">
                    <use xlink:href="#a"/>
                </mask>
                <g mask="url(#b)">
                    <path fill="#DADADA" d="M11.579 9.913v3.571c0 .718-.386 1.376-.999 1.697l-2.42 1.273c-1.223.643-1.995 1.956-1.995 3.392v24.218c0 1.047.807 1.896 1.803 1.896h19.85c.999 0 1.806-.849 1.806-1.896V19.846c0-1.436-.772-2.75-1.996-3.393l-2.42-1.273c-.611-.32-.998-.978-.998-1.696V9.913H11.58z"/>
                    <path fill="#FFF" d="M6.165 40.269h23.46V21.296H6.164z"/>
                    <path fill="#78B437" d="M23.308 28.887h-3.61V25.09h-3.607v3.796h-3.61v3.794h3.61v3.793h3.608v-3.793h3.61zM26.015 9.913H9.775c-.498 0-.903-.425-.903-.949V5.17c0-.524.405-.948.902-.948h16.241c.498 0 .902.424.902.948v3.795c0 .524-.404.949-.902.949"/>
                    <path fill="#000" d="M27.819 45.011H7.969c-.497 0-.902-.425-.902-.948v-2.847h21.655v2.847c0 .523-.404.948-.903.948zm-20.752-5.69h21.655V22.246H7.067v17.075zm1.497-22.019l2.421-1.273c.923-.485 1.497-1.46 1.497-2.544v-2.623h10.826v2.623c0 1.084.574 2.059 1.495 2.545l2.423 1.273c.92.485 1.496 1.46 1.496 2.544v.501H7.067v-.501c0-1.083.574-2.06 1.497-2.545zm1.21-12.131h2.708v1.896h1.803V5.171h2.707v1.896h1.805V5.171h2.707v1.896h1.804V5.171h2.707l.001 3.794H9.775V5.171zm18.26 10.434l-2.423-1.274a.944.944 0 0 1-.498-.846v-2.623h.902c.995 0 1.804-.85 1.804-1.897V5.171c0-1.047-.809-1.898-1.804-1.898H9.775c-.996 0-1.806.851-1.806 1.898v3.794c0 1.047.81 1.897 1.806 1.897h.902v2.623c0 .362-.19.686-.5.847l-2.42 1.273c-1.54.81-2.494 2.434-2.494 4.242v24.216c0 1.568 1.214 2.846 2.706 2.846h19.85c1.493 0 2.707-1.278 2.707-2.846V19.847c0-1.808-.956-3.432-2.493-4.242z"/>
                    <path fill="#000" d="M12.481 30.214h3.97V26.04h1.985v4.174h3.97v2.087h-3.97v4.173H16.45v-4.173h-3.97v-2.087zm2.063 4.093v4.065h5.8v-4.065h3.867v-6.1h-3.868v-4.065h-5.799v4.065h-3.867v6.1h3.867z"/>
                </g>
            </g>
            <g fill="#000" fill-rule="nonzero">
                <path d="M35.55 64.217c-2.63 0-4.77 2.195-4.77 4.892 0 2.697 2.14 4.891 4.77 4.891 2.63 0 4.77-2.194 4.77-4.891s-2.14-4.892-4.77-4.892zm0 7.052c-1.162 0-2.107-.97-2.107-2.16 0-1.192.945-2.16 2.107-2.16 1.162 0 2.107.968 2.107 2.16 0 1.19-.945 2.16-2.107 2.16zM59.93 64.217c-2.63 0-4.77 2.195-4.77 4.892 0 2.697 2.14 4.891 4.77 4.891 2.63 0 4.77-2.194 4.77-4.891s-2.14-4.892-4.77-4.892zm0 7.052c-1.162 0-2.107-.97-2.107-2.16 0-1.192.945-2.16 2.107-2.16 1.162 0 2.107.968 2.107 2.16 0 1.19-.945 2.16-2.107 2.16zM69.414 33.488a2.58 2.58 0 0 0-2.017-.969H26.863l-.819-4.019a2.63 2.63 0 0 0-1.513-1.883l-5.711-2.508a1.295 1.295 0 0 0-1.712.683 1.322 1.322 0 0 0 .675 1.732l5.712 2.507 6.297 30.912a2.62 2.62 0 0 0 2.549 2.1h31.175c.719 0 1.301-.589 1.301-1.316 0-.726-.582-1.316-1.3-1.316H32.34l-.766-3.76h32.182a2.62 2.62 0 0 0 2.549-2.1l3.64-17.87a2.644 2.644 0 0 0-.532-2.193zM63.757 53.02H31.04l-3.64-17.868h39.998l-3.64 17.868z"/>
            </g>
        </g>
        <g transform="translate(663 11)">
            <g fill-rule="nonzero">
                <path fill="#FFF" d="M71 55.227C71 57.863 68.802 60 66.09 60H21.91C19.197 60 17 57.863 17 55.227V18h54v37.227z"/>
                <g fill="#DADADA">
                    <path d="M68.52 6a2.438 2.438 0 0 1 2.45 2.428v9.71H17.091v-9.71A2.438 2.438 0 0 1 19.54 6h48.98zM56.276 40.717h7.347V48h-7.347zM56.276 26.15h7.347v7.283h-7.347zM40.357 40.717h7.347V48h-7.347zM40.357 26.15h7.347v7.283h-7.347zM24.439 40.717h7.347V48h-7.347zM24.439 26.15h7.347v7.283h-7.347z"/>
                </g>
                <path fill="#000" d="M25.565 0a3.585 3.585 0 0 0-3.587 3.574v1.192h-2.391A3.585 3.585 0 0 0 16 8.34v46.703C16 58.328 18.682 61 21.978 61h43.044C68.318 61 71 58.328 71 55.043V8.34c0-1.971-1.61-3.574-3.587-3.574h-2.391V3.574A3.58 3.58 0 0 0 61.435 0a3.585 3.585 0 0 0-3.587 3.574v1.192h-4.783V3.574A3.58 3.58 0 0 0 49.478 0a3.585 3.585 0 0 0-3.587 3.574v1.192H41.11V3.574A3.58 3.58 0 0 0 37.522 0a3.585 3.585 0 0 0-3.587 3.574v1.192h-4.783V3.574A3.58 3.58 0 0 0 25.565 0zM24.37 3.574a1.195 1.195 0 0 1 2.39 0v1.192h-2.39V3.574zm40.652 55.043H21.978a3.585 3.585 0 0 1-3.587-3.574v-.003c1 .75 2.243 1.194 3.587 1.194h16.74c.66 0 1.195-.533 1.195-1.191s-.535-1.191-1.196-1.191H21.978a3.585 3.585 0 0 1-3.587-3.575V19.062H68.61v31.215c0 1.971-1.61 3.575-3.587 3.575h-16.74c-.66 0-1.195.533-1.195 1.191s.535 1.191 1.196 1.191h16.739a5.961 5.961 0 0 0 3.587-1.194v.003c0 1.97-1.61 3.574-3.587 3.574zM60.239 3.574a1.195 1.195 0 0 1 2.391 0v1.192h-2.39V3.574zm-11.956 0a1.195 1.195 0 0 1 2.39 0v1.192h-2.39V3.574zm-11.957 0a1.195 1.195 0 0 1 2.391 0v1.192h-2.39V3.574zm1.196 8.34c.66 0 1.195-.533 1.195-1.191s-.535-1.192-1.195-1.192-1.196-.534-1.196-1.191V7.148h9.565V8.34c0 1.97 1.61 3.574 3.587 3.574.66 0 1.196-.533 1.196-1.191s-.536-1.192-1.196-1.192c-.659 0-1.195-.534-1.195-1.191V7.148h9.565V8.34c0 1.97 1.609 3.574 3.587 3.574.66 0 1.195-.533 1.195-1.191s-.535-1.192-1.195-1.192-1.196-.534-1.196-1.191V7.148h7.174c.66 0 1.196.535 1.196 1.192v8.34H18.39V8.34c0-.657.537-1.192 1.196-1.192h2.391V8.34c0 1.97 1.61 3.574 3.587 3.574.66 0 1.196-.533 1.196-1.191s-.535-1.192-1.196-1.192c-.66 0-1.195-.534-1.195-1.191V7.148h9.565V8.34c0 1.97 1.609 3.574 3.587 3.574z"/>
                <path fill="#000" d="M31.75 25h-7.5c-.69 0-1.25.56-1.25 1.25v7.5c0 .69.56 1.25 1.25 1.25h7.5c.69 0 1.25-.56 1.25-1.25v-7.5c0-.69-.56-1.25-1.25-1.25zm-1.25 7.5h-5v-5h5v5zM40.25 35h7.5c.69 0 1.25-.56 1.25-1.25v-7.5c0-.69-.56-1.25-1.25-1.25h-7.5c-.69 0-1.25.56-1.25 1.25v7.5c0 .69.56 1.25 1.25 1.25zm1.25-7.5h5v5h-5v-5zM56.25 35h7.5c.69 0 1.25-.56 1.25-1.25v-7.5c0-.69-.56-1.25-1.25-1.25h-7.5c-.69 0-1.25.56-1.25 1.25v7.5c0 .69.56 1.25 1.25 1.25zm1.25-7.5h5v5h-5v-5zM31.75 39h-7.5c-.69 0-1.25.56-1.25 1.25v7.5c0 .69.56 1.25 1.25 1.25h7.5c.69 0 1.25-.56 1.25-1.25v-7.5c0-.69-.56-1.25-1.25-1.25zm-1.25 7.5h-5v-5h5v5zM49 47.75v-7.5c0-.69-.56-1.25-1.25-1.25h-7.5c-.69 0-1.25.56-1.25 1.25v7.5c0 .69.56 1.25 1.25 1.25h7.5c.69 0 1.25-.56 1.25-1.25zm-2.5-1.25h-5v-5h5v5zM56.25 49h7.5c.69 0 1.25-.56 1.25-1.25v-7.5c0-.69-.56-1.25-1.25-1.25h-7.5c-.69 0-1.25.56-1.25 1.25v7.5c0 .69.56 1.25 1.25 1.25zm1.25-7.5h5v5h-5v-5z"/>
            </g>
            <path fill="#FFF" d="M20.421 30.913v3.571c0 .718.386 1.376.999 1.697l2.42 1.273c1.223.643 1.995 1.956 1.995 3.392v24.218c0 1.047-.807 1.896-1.803 1.896H4.182c-.999 0-1.806-.849-1.806-1.896V40.846c0-1.436.772-2.75 1.996-3.393l2.42-1.273c.611-.32.998-.978.998-1.696v-3.571H20.42z"/>
            <path fill="#FFF" d="M25.835 61.269H2.375V42.296h23.46z"/>
            <path fill="#78B437" d="M8.692 49.887h3.61V46.09h3.607v3.796h3.61v3.794h-3.61v3.793h-3.608v-3.793h-3.61zM5.985 30.913h16.24c.498 0 .903-.425.903-.949V26.17c0-.524-.405-.948-.902-.948H5.985c-.498 0-.902.424-.902.948v3.795c0 .524.404.949.902.949"/>
            <path fill="#000" d="M4.181 66.011h19.85c.497 0 .902-.425.902-.948v-2.847H3.278v2.847c0 .523.404.948.903.948zm20.752-5.69H3.278V43.246h21.655v17.075zm-1.497-22.019l-2.421-1.273c-.923-.485-1.497-1.46-1.497-2.544v-2.623H8.692v2.623c0 1.084-.574 2.059-1.495 2.545l-2.423 1.273c-.92.485-1.496 1.46-1.496 2.544v.501h21.655v-.501c0-1.083-.574-2.06-1.497-2.545zm-1.21-12.131h-2.708v1.896h-1.803v-1.896h-2.707v1.896h-1.805v-1.896h-2.707v1.896H8.692v-1.896H5.985l-.001 3.794h16.241v-3.794zM3.965 36.605l2.423-1.274a.944.944 0 0 0 .498-.846v-2.623h-.902c-.995 0-1.804-.85-1.804-1.897v-3.794c0-1.047.809-1.898 1.804-1.898h16.24c.996 0 1.806.851 1.806 1.898v3.794c0 1.047-.81 1.897-1.806 1.897h-.902v2.623c0 .362.19.686.5.847l2.42 1.273c1.54.81 2.494 2.434 2.494 4.242v24.216c0 1.568-1.214 2.846-2.706 2.846H4.18c-1.493 0-2.707-1.278-2.707-2.846V40.847c0-1.808.956-3.432 2.493-4.242z"/>
            <path fill="#000" d="M19.519 51.214h-3.97V47.04h-1.985v4.174h-3.97v2.087h3.97v4.173h1.985v-4.173h3.97v-2.087zm-2.063 4.093v4.065h-5.8v-4.065H7.79v-6.1h3.868v-4.065h5.799v4.065h3.867v6.1h-3.867z"/>
            <circle cx="66.5" cy="51.5" r="12.5" fill="#FFF" fill-rule="nonzero" stroke="#000" stroke-width="2"/>
            <rect width="2" height="12" x="65" y="42" fill="#000" fill-rule="nonzero" rx="1"/>
            <rect width="10" height="2" x="65" y="52" fill="#000" fill-rule="nonzero" rx="1"/>
        </g>
    </g>
</svg>
