<svg xmlns="http://www.w3.org/2000/svg" width="22" height="22" viewBox="0 0 22 22">
    <g fill="#000" fill-rule="nonzero" opacity=".295">
        <path d="M20.066 0H1.934A1.936 1.936 0 0 0 0 1.934v18.132C0 21.133.867 22 1.934 22h18.132A1.936 1.936 0 0 0 22 20.066V1.934A1.936 1.936 0 0 0 20.066 0zm.645 20.066c0 .356-.29.645-.645.645H1.934a.645.645 0 0 1-.645-.645V6.446h19.422v13.62zm0-14.91H1.289V1.934c0-.356.29-.645.645-.645h18.132c.356 0 .645.29.645.645v3.222z"/>
        <circle cx="3.223" cy="3.223" r="1"/>
        <circle cx="5.801" cy="3.223" r="1"/>
        <circle cx="8.379" cy="3.223" r="1"/>
        <path d="M9.668 7.734H3.223a.645.645 0 0 0-.645.645v5.242c0 .356.289.645.645.645h6.445a.645.645 0 0 0 .645-.645V8.38a.645.645 0 0 0-.645-.645zm-.645 5.243H3.867V9.023h5.156v3.954zM18.777 12.977h-6.53a.645.645 0 0 0 0 1.289h6.53a.645.645 0 0 0 0-1.29zM18.777 10.355h-6.53a.645.645 0 0 0 0 1.29h6.53a.645.645 0 0 0 0-1.29zM18.777 15.555H3.223a.645.645 0 0 0 0 1.289h15.554a.645.645 0 0 0 0-1.29zM18.777 18.133H3.223a.645.645 0 0 0 0 1.289h15.554a.645.645 0 0 0 0-1.29z"/>
    </g>
</svg>
