<svg xmlns="http://www.w3.org/2000/svg" width="14" height="15" viewBox="0 0 14 15">
    <g fill="#9B9B9B" fill-rule="nonzero">
        <path d="M10.628 4.985a.44.44 0 0 1-.312-.753l1.74-1.74-1.74-1.74a.441.441 0 0 1 .623-.623l2.052 2.052a.441.441 0 0 1 0 .623L10.94 4.856a.44.44 0 0 1-.311.129z"/>
        <path d="M.491 7.465a.44.44 0 0 1-.44-.44V4.367a2.318 2.318 0 0 1 2.315-2.316h10.313a.44.44 0 0 1 0 .881H2.366c-.79 0-1.434.644-1.434 1.435v2.656a.44.44 0 0 1-.441.44zM10.804 12.934H.468a.44.44 0 0 1 0-.882h10.336c.791 0 1.434-.643 1.434-1.434V7.909a.44.44 0 0 1 .882 0v2.709a2.318 2.318 0 0 1-2.316 2.316z"/>
        <path d="M2.52 14.986a.44.44 0 0 1-.312-.13L.156 12.805a.441.441 0 0 1 0-.624l2.052-2.051a.44.44 0 0 1 .623.623l-1.74 1.74 1.74 1.74a.441.441 0 0 1-.311.753z"/>
        <path stroke="#979797" stroke-width=".4" d="M8.583 5.418A1.418 1.418 0 0 0 7.573 5c-.38 0-.74.148-1.009.418L4.417 7.564a1.428 1.428 0 0 0 2.019 2.018l2.147-2.146a1.428 1.428 0 0 0 0-2.018zM6.228 9.375a1.127 1.127 0 0 1-.801.332 1.135 1.135 0 0 1-.802-1.936l.97-.97 1.603 1.604-.97.97zm2.147-2.146l-.97.97-1.603-1.604.97-.97c.214-.214.499-.332.801-.332a1.135 1.135 0 0 1 .802 1.936z"/>
    </g>
</svg>
