<svg xmlns="http://www.w3.org/2000/svg" width="30" height="30" viewBox="0 0 30 30">
    <g fill="none" fill-rule="evenodd" transform="translate(1 1)">
        <circle cx="14" cy="14" r="14" fill="#4A4A4A" stroke="#4A4A4A"/>
        <g fill="#FFF" fill-rule="nonzero">
            <path d="M18.853 13a.854.854 0 0 0 0 1.707h2.56V13h-2.56z"/>
            <path d="M19.093 11.974H20.8V9.84a.423.423 0 0 0-.427-.427h-.853v-1.28a.423.423 0 0 0-.427-.427h-1.015l-.734-1.468a.432.432 0 0 0-.572-.196l-.99.495-.145-.299a.432.432 0 0 0-.571-.196l-3.328 1.664H9.28c-.708 0-1.28.572-1.28 1.28v7.68c0 .708.572 1.28 1.28 1.28h11.093a.423.423 0 0 0 .427-.426v-2.134h-1.707a1.712 1.712 0 0 1-1.706-1.706c0-.94.768-1.707 1.706-1.707zm-.426-3.413v.324l-.162-.324h.162zm-9.788.571a.423.423 0 0 1 .401-.572h.75l-1.151.572zm1.357.282l4.83-2.415 1.203 2.415h-6.033zm6.989 0l-1.059-2.116.606-.3 1.203 2.416h-.75z"/>
        </g>
    </g>
</svg>
