<svg xmlns="http://www.w3.org/2000/svg" xmlns:xlink="http://www.w3.org/1999/xlink" width="17" height="18" viewBox="0 0 17 18">
    <defs>
        <path id="a" d="M.217.217H9V9H.217z"/>
        <path id="c" d="M0 .054h16.148v16.654H0z"/>
    </defs>
    <g fill="none" fill-rule="evenodd" opacity=".8">
        <g transform="translate(7.007 8.55)">
            <mask id="b" fill="#fff">
                <use xlink:href="#a"/>
            </mask>
            <path fill="#A5ADB7" d="M4.609 1.084a3.529 3.529 0 0 0-3.525 3.524 3.529 3.529 0 0 0 3.525 3.525 3.529 3.529 0 0 0 3.524-3.525A3.529 3.529 0 0 0 4.61 1.084m0 7.916A4.397 4.397 0 0 1 .217 4.608 4.397 4.397 0 0 1 4.609.217a4.396 4.396 0 0 1 4.39 4.391A4.396 4.396 0 0 1 4.61 9" mask="url(#b)"/>
        </g>
        <path fill="#A5ADB7" d="M3.182 4.5V2.475h1.013a1.013 1.013 0 0 1 0 2.025H3.182zM7.78 5.924a.338.338 0 0 0-.474.053L6.311 7.22 4.773 5.066a1.685 1.685 0 0 0 1.109-1.579A1.69 1.69 0 0 0 4.195 1.8h-1.35a.337.337 0 0 0-.338.337v4.726a.337.337 0 1 0 .675 0V5.175h.839l1.852 2.593-1.267 1.584a.338.338 0 0 0 .527.422l1.148-1.435 1.014 1.42a.337.337 0 0 0 .47.078.337.337 0 0 0 .08-.47L6.718 7.79 7.834 6.4a.339.339 0 0 0-.054-.475z"/>
        <g transform="translate(.257)">
            <mask id="d" fill="#fff">
                <use xlink:href="#c"/>
            </mask>
            <path fill="#9B9B9B" d="M11.292 1.72l3.198 3.216h-2.227a.974.974 0 0 1-.971-.976V1.72zM7.13 15.733H1.942a.974.974 0 0 1-.97-.977V2.007c0-.54.434-.977.97-.977h8.379v2.93c0 1.078.87 1.952 1.942 1.952h2.914v3.524a.487.487 0 1 0 .971 0V5.424a.488.488 0 0 0-.142-.345L11.15.197a.484.484 0 0 0-.344-.143H1.942A1.948 1.948 0 0 0 0 2.007v12.748c0 1.079.87 1.953 1.942 1.953h5.189a.487.487 0 0 0 .485-.488.487.487 0 0 0-.485-.488z" mask="url(#d)"/>
        </g>
        <path fill="#A5ADB7" d="M11.282 13.95c-.124 0-.225-.15-.225-.333v-2.484c0-.183.101-.333.225-.333s.225.15.225.333v2.484c0 .183-.101.333-.225.333"/>
        <path fill="#A5ADB7" d="M14.207 13.725c0 .124-.143.225-.318.225h-2.513c-.175 0-.319-.101-.319-.225s.144-.225.319-.225h2.513c.175 0 .318.101.318.225"/>
    </g>
</svg>
