<svg xmlns="http://www.w3.org/2000/svg" width="28" height="28" viewBox="0 0 28 28">
    <path fill="#4A4A4A" fill-rule="nonzero" d="M14 0C6.267 0 0 6.26 0 13.983 0 21.707 6.267 28 14 28s14-6.26 14-13.983C28 6.293 21.733 0 14 0zm0 26.644c-6.963 0-12.643-5.673-12.643-12.627C1.357 7.063 7.037 1.352 14 1.352c6.963 0 12.643 5.673 12.643 12.628 0 6.954-5.68 12.664-12.643 12.664zm6.522-12.336s0 .038-.038.038c-.037.037-.037.074-.074.108l-5.056 5.05a.606.606 0 0 1-.475.183c-.183 0-.33-.075-.475-.183a.683.683 0 0 1 0-.953l3.885-3.88H7.549a.654.654 0 0 1-.658-.657c0-.366.292-.658.659-.658h10.735l-3.844-3.84a.683.683 0 0 1 0-.952.685.685 0 0 1 .954 0l4.98 4.978c.038.038.075.075.075.109l.038.037c0 .037.037.037.037.075 0 .037 0 .037.037.074V14.244c-.003.03-.003.03-.04.064 0-.033 0 0 0 0z"/>
</svg>
