<?xml version="1.0" encoding="UTF-8"?>
<svg width="12px" height="12px" viewBox="0 0 12 12" version="1.1" xmlns="http://www.w3.org/2000/svg" xmlns:xlink="http://www.w3.org/1999/xlink">
    <!-- Generator: sketchtool 50.2 (55047) - http://www.bohemiancoding.com/sketch -->
    <title>386CD048-631D-43B8-85F7-AB96E1D998CB</title>
    <desc>Created with sketchtool.</desc>
    <defs></defs>
    <g id="Page-1" stroke="none" stroke-width="1" fill="none" fill-rule="evenodd">
        <g id="RPM_Patient_Treatments_2" transform="translate(-48.000000, -333.000000)" fill="#4A4A4A" fill-rule="nonzero">
            <path d="M57.7500263,341.250095 L56.9999938,341.250095 C56.1716119,341.250095 55.4999536,340.57843 55.4999536,339.750015 L55.4999536,339.268141 C55.831801,338.873719 56.069817,338.407179 56.2177609,337.9142 C56.2331192,337.831101 56.3131009,337.790047 56.3664468,337.732916 C56.6536043,337.445805 56.7100663,336.961285 56.4946796,336.616302 C56.4653481,336.563945 56.4125216,336.518537 56.4155141,336.453666 C56.4155141,336.013836 56.4177152,335.573314 56.4149453,335.13383 C56.4031731,334.60321 56.2515194,334.051247 55.8795081,333.658333 C55.5791687,333.340876 55.1667707,333.151851 54.7413146,333.070953 C54.2036763,332.968391 53.6412076,332.973584 53.1087135,333.10904 C52.6472483,333.225502 52.213705,333.495771 51.9456401,333.896401 C51.7082671,334.244698 51.6042711,334.667612 51.5867118,335.084416 C51.5801332,335.531913 51.5852031,335.980522 51.5838429,336.429107 C51.594057,336.518908 51.517884,336.579674 51.4834824,336.654018 C51.2806099,337.022051 51.3699154,337.523463 51.6959014,337.791135 C51.7786035,337.848216 51.7940855,337.952262 51.8240353,338.041965 C51.966192,338.485084 52.2019822,338.894889 52.5000711,339.251966 L52.5000711,339.750015 C52.5000711,340.57843 51.8284375,341.250095 51.0000804,341.250095 L50.2500232,341.250095 C50.2500232,341.250095 48.8906805,341.624979 48,343.500068 L48,344.250108 C48,344.664588 48.3354582,345 48.7500325,345 L59.2500912,345 C59.6645665,345 60,344.664588 60,344.250108 L60,343.500068 C59.1093689,341.625128 57.7500263,341.250095 57.7500263,341.250095 Z" id="Shape-Copy"></path>
        </g>
    </g>
</svg>