<svg xmlns="http://www.w3.org/2000/svg" width="14" height="13" viewBox="0 0 14 13">
    <path fill="#9B9B9B" fill-rule="nonzero" d="M11.893 10.777a30.142 30.142 0 0 1-2.024-.854c-.19-.086-.33-.278-.502-.41a.614.614 0 0 0-.258-.126c-.309-.05-.445-.16-.519-.467-.096-.402-.164-.805-.08-1.224.035-.182.102-.3.279-.368.366-.144.726-.305 1.089-.459.27-.115.287-.211.19-.493-.311-.89-.544-1.793-.62-2.743-.047-.6-.032-1.213-.176-1.803h-.023c-.011-.054-.019-.109-.033-.163C8.954.627 7.844.063 6.914.004 6.906.004 6.899 0 6.89 0c-.071-.004-.14.006-.209.01-.393.055-.714.304-1.086.414-.486.144-.783.593-.965 1.077-.257.687-.21 1.419-.267 2.13-.076.951-.306 1.855-.619 2.744-.098.282-.08.378.19.493.362.154.722.314 1.089.458.177.07.243.186.28.37.082.418.014.82-.08 1.223-.075.307-.211.417-.52.466a.609.609 0 0 0-.258.127c-.171.132-.312.324-.502.41-.667.305-1.338.599-2.024.853C.866 11.168.17 11.85 0 13H13.813c-.171-1.151-.868-1.832-1.92-2.223z"/>
</svg>
