<svg xmlns="http://www.w3.org/2000/svg" width="37" height="37" viewBox="0 0 37 37">
    <g fill="none" fill-rule="evenodd" transform="translate(1 1)">
        <circle cx="17.5" cy="17.5" r="17.5" stroke="#3A3A3A"/>
        <path fill="#3A3A3A" fill-rule="nonzero" d="M19.873 9.758a3.689 3.689 0 0 0-1.713-2.263A3.64 3.64 0 0 0 16.33 7a3.691 3.691 0 0 0-3.198 1.856l-2.319 4.057v.001l-.001.001-2.32 4.057c-1.014 1.775-.41 4.053 1.348 5.078a3.638 3.638 0 0 0 1.83.495 3.682 3.682 0 0 0 3.035-1.599l4.802-8.372c.49-.855.62-1.855.366-2.816zM14.079 20.56a2.95 2.95 0 0 1-2.409 1.245 2.91 2.91 0 0 1-1.464-.396c-1.407-.82-1.891-2.645-1.079-4.067l2.137-3.737.793.462 4.306 2.511-2.284 3.982zm4.794-8.357l-2.143 3.735-3.989-2.327 1.025-1.793a.372.372 0 0 0-.134-.506.364.364 0 0 0-.5.136l-1.026 1.793-.476-.277 2.137-3.738a2.957 2.957 0 0 1 2.562-1.486c.513 0 1.02.137 1.465.397a2.954 2.954 0 0 1 1.37 1.812c.204.77.1 1.57-.291 2.254zM26 20.84c0-.567-.516-1.015-1.535-1.334-.856-.268-1.985-.415-3.18-.415-1.193 0-2.322.147-3.179.415-1.017.318-1.533.766-1.534 1.332v3.413c0 .568.515 1.016 1.532 1.334.854.268 1.984.415 3.182.415 1.197 0 2.327-.147 3.181-.415C25.484 25.267 26 24.82 26 24.251v-3.41-.001zm-7.701-.596c.795-.248 1.856-.385 2.987-.385 1.13 0 2.191.137 2.987.385.845.265 1.025.549 1.026.595v.001c-.002.047-.182.33-1.026.595-.796.248-1.857.385-2.987.385-1.13 0-2.192-.137-2.987-.385-.848-.265-1.026-.55-1.026-.595 0-.046.178-.33 1.026-.596zm5.976 4.603c-.794.249-1.855.385-2.99.385-1.133 0-2.195-.136-2.988-.385-.842-.263-1.024-.54-1.024-.596v-2.43c.224.13.502.248.833.352.857.268 1.986.415 3.18.415 1.194 0 2.323-.147 3.18-.415.33-.104.608-.221.833-.352v.958c-.503.273-1.131.493-1.83.642-.191.04-.315.242-.278.45.032.184.18.31.344.31a.324.324 0 0 0 .067-.006 8.002 8.002 0 0 0 1.697-.552v.628c0 .055-.183.333-1.024.596z"/>
    </g>
</svg>
