<svg xmlns="http://www.w3.org/2000/svg" width="24" height="26" viewBox="0 0 24 26">
    <g fill="none" fill-rule="nonzero" opacity=".295">
        <g fill="#FFF">
            <path d="M5.053 8.518l6.031 3.6 3.034-5.415c1.192-2.128.477-4.878-1.582-6.107-2.06-1.23-4.717-.494-5.906 1.636l-3.027 5.42 1.45.866z"/>
            <path d="M11.084 12.119L5.053 8.517l-1.45-.865-3.026 5.42C-.612 15.203.1 17.952 2.16 19.18c1.944 1.161 4.422.569 5.693-1.294l3.231-5.767z"/>
            <ellipse cx="17" cy="18.172" rx="5.949" ry="1.758"/>
            <path d="M17 19.93c-3.286 0-5.95-.787-5.95-1.758v4.397c0 .972 2.664 1.76 5.95 1.76s5.95-.788 5.95-1.76v-4.397c0 .971-2.664 1.759-5.95 1.759z"/>
        </g>
        <path fill="#3A3A3A" d="M15.83 3.774c-.34-1.319-1.15-2.418-2.283-3.096A4.757 4.757 0 0 0 11.105 0C9.35 0 7.715.973 6.843 2.54L3.751 8.09l-.001.002-.001.001-3.093 5.552c-1.352 2.43-.547 5.546 1.797 6.949a4.756 4.756 0 0 0 2.44.678 4.874 4.874 0 0 0 4.047-2.189l6.403-11.457a5.202 5.202 0 0 0 .488-3.853zM8.106 18.556a3.904 3.904 0 0 1-3.211 1.704c-.685 0-1.36-.188-1.953-.542-1.876-1.124-2.522-3.62-1.438-5.565l2.849-5.115 1.058.633 5.74 3.436-3.045 5.45zM14.497 7.12l-2.856 5.111-5.32-3.183L7.69 6.593a.517.517 0 0 0-.18-.692.48.48 0 0 0-.667.185L5.475 8.541l-.635-.38 2.85-5.115a3.926 3.926 0 0 1 3.415-2.033c.685 0 1.36.187 1.953.542a4.032 4.032 0 0 1 1.828 2.48 4.163 4.163 0 0 1-.389 3.084zM24 18.938c0-.775-.689-1.388-2.047-1.824-1.141-.367-2.647-.569-4.239-.569s-3.097.202-4.239.569c-1.356.435-2.045 1.048-2.046 1.822v4.672c0 .775.687 1.39 2.043 1.825 1.14.366 2.646.567 4.242.567s3.103-.201 4.243-.567c1.355-.435 2.043-1.05 2.043-1.826v-4.665-.004zm-10.268-.814c1.06-.34 2.475-.528 3.982-.528 1.508 0 2.922.187 3.983.528 1.127.362 1.367.75 1.368.814v.001c-.002.064-.242.452-1.368.814-1.06.34-2.475.528-3.983.528-1.507 0-2.922-.188-3.982-.528-1.13-.363-1.368-.753-1.368-.815 0-.061.238-.451 1.368-.814zm7.968 6.299c-1.058.34-2.474.527-3.986.527s-2.927-.188-3.985-.527c-1.122-.36-1.365-.741-1.365-.816v-3.325c.3.178.67.34 1.111.48 1.142.367 2.647.57 4.24.57 1.591 0 3.097-.203 4.239-.57a5.389 5.389 0 0 0 1.11-.48v1.31c-.67.373-1.507.675-2.44.88-.253.055-.419.33-.37.615.044.25.24.425.459.425a.42.42 0 0 0 .09-.01c.832-.182 1.6-.439 2.262-.755v.86c0 .075-.243.456-1.365.816z"/>
    </g>
</svg>
