<svg xmlns="http://www.w3.org/2000/svg" width="47" height="36" viewBox="0 0 47 36">
    <g fill="none" fill-rule="nonzero">
        <path fill="#4A4A4A" d="M40.408 11.682h-21.27c-1.546 0-2.97.546-4.095 1.457C14.497 10.77 12.403 9 9.91 9c-2.908 0-5.273 2.406-5.273 5.364 0 1.256.427 2.41 1.14 3.326A6.722 6.722 0 0 0 2 23.752v8.225C2 34.195 3.774 36 5.955 36h37.09C45.225 36 47 34.195 47 31.977v-13.59c0-3.697-2.957-6.705-6.592-6.705zm-25.224 6.705a4.026 4.026 0 0 1 2.636-3.792v13.359h-2.636v-9.567zM9.91 11.682c1.454 0 2.637 1.203 2.637 2.682 0 1.48-1.183 2.682-2.637 2.682s-2.637-1.203-2.637-2.682c0-1.479 1.183-2.682 2.637-2.682zm-1.318 8.046h3.955v2.683H4.863c.544-1.561 2.01-2.683 3.729-2.683zm35.771 12.249c0 .74-.591 1.34-1.318 1.34H5.955a1.331 1.331 0 0 1-1.318-1.34v-6.884h7.91v4.202c0 .74.59 1.34 1.318 1.34h30.498v1.342zm0-4.023H20.457v-13.59h19.951c2.181 0 3.955 1.805 3.955 4.023v9.567z"/>
        <rect width="4" height="30" x="1" y="5" fill="#FFF" stroke="#4A4A4A" stroke-width="2" rx="2"/>
        <path fill="#4A4A4A" d="M23.667 5.333h-2.115l3.057-3.057A1.333 1.333 0 0 0 23.667 0h-5.334a1.333 1.333 0 0 0 0 2.667h2.115L17.39 5.724A1.333 1.333 0 0 0 18.333 8h5.334a1.333 1.333 0 0 0 0-2.667z"/>
    </g>
</svg>
