<svg xmlns="http://www.w3.org/2000/svg" width="23" height="23" viewBox="0 0 23 23">
    <g fill="none" fill-rule="evenodd">
        <rect width="23" height="23" fill="#389E48" rx="11.5"/>
        <path fill="#FFF" fill-rule="nonzero" d="M16.364 6.832c-.228-.508-.642-.812-1.09-.812H7.637c-.448 0-.812.304-1.015.812L5 12.5v4.477c0 .224.182.406.406.406h12.176a.407.407 0 0 0 .406-.406v-4.427l-1.624-5.72zm-8.973.27c.037-.084.132-.27.247-.27h7.635c.111 0 .24.114.33.289l1.53 5.393h-3.61a.407.407 0 0 0-.406.406v1.217H9.87V12.92a.407.407 0 0 0-.405-.406H5.84l1.55-5.412zm9.785 9.47H5.812v-3.246h3.247v1.217c0 .223.181.406.406.406h4.058a.407.407 0 0 0 .406-.406v-1.217h3.247v3.247z"/>
    </g>
</svg>
