<svg xmlns="http://www.w3.org/2000/svg" width="25" height="21" viewBox="0 0 25 21">
    <path fill="#FFF" fill-rule="evenodd" d="M7.863 20.69c9.435 0 14.594-7.96 14.594-14.862 0-.226-.003-.451-.015-.675A10.512 10.512 0 0 0 25 2.45c-.918.415-1.908.695-2.944.822A5.238 5.238 0 0 0 24.31.38c-.99.598-2.09 1.035-3.257 1.27A5.078 5.078 0 0 0 17.309 0c-2.832 0-5.127 2.34-5.127 5.221 0 .41.045.807.131 1.193C8.051 6.194 4.268 4.116 1.74.956a5.287 5.287 0 0 0-.695 2.624c0 1.812.905 3.41 2.284 4.348a5.022 5.022 0 0 1-2.324-.654l-.001.067c0 2.53 1.769 4.642 4.113 5.12a4.982 4.982 0 0 1-2.314.088c.654 2.078 2.548 3.588 4.79 3.63A10.17 10.17 0 0 1 0 18.342a14.317 14.317 0 0 0 7.863 2.348"/>
</svg>
