<svg xmlns="http://www.w3.org/2000/svg" width="24" height="25" viewBox="0 0 24 25">
    <g fill="#80c241" fill-rule="nonzero">
        <path d="M6.998 7.44c-1.158 0-2.1.973-2.1 2.167 0 1.195.942 2.167 2.1 2.167 1.158 0 2.1-.972 2.1-2.167 0-1.194-.942-2.166-2.1-2.166zm0 .851a1.3 1.3 0 0 1 1.24.933h-2.48a1.3 1.3 0 0 1 1.24-.933zm0 2.688c-.579 0-1.07-.44-1.24-.933h2.48c-.169.494-.66.933-1.24.933zM11.798 4.81c-1.323 0-2.4 1.11-2.4 2.476 0 1.365 1.077 2.476 2.4 2.476 1.324 0 2.4-1.11 2.4-2.476 0-1.365-1.076-2.476-2.4-2.476zm-.486 3.938c-.547-.199-1.033-.779-1.033-1.462 0-.683.486-1.263 1.033-1.462v2.924zm.912 0V5.824c.607.2 1.032.78 1.032 1.462 0 .683-.425 1.263-1.032 1.462zM6.675.012c-.993 0-1.8.833-1.8 1.857v1.887c0 1.024.807 1.857 1.8 1.857.992 0 1.8-.833 1.8-1.857V1.87c0-1.025-.808-1.858-1.8-1.858zm.943 3.744c0 .537-.423.973-.943.973s-.943-.436-.943-.973v-.472h1.886v.472zm0-1.356H5.732v-.53c0-.537.423-.973.943-.973s.943.436.943.972V2.4z"/>
        <path d="M19.877 12.55l.52.489 3.14-3.563c.482-.559.597-1.33.3-2.012-.297-.683-.932-1.106-1.657-1.106-.39 0-.777.145-1.09.386l-8.515 6.602H1.102c-.608 0-1.102.51-1.102 1.136 0 .627.494 1.137 1.102 1.137h.405a9.767 9.767 0 0 0 5.788 8.56H5.578v.725h10.5v-.725h-1.67a9.767 9.767 0 0 0 5.787-8.56h.406c.607 0 1.102-.51 1.102-1.137 0-.626-.495-1.136-1.102-1.136h-6.854l7.765-6.021c.192-.148.429-.236.668-.236.451 0 .83.25 1.016.675.184.425.116.884-.181 1.229l-3.138 3.558zM10.851 24.18c-4.65 0-8.455-3.82-8.64-8.56h17.28c-.184 4.74-3.989 8.56-8.64 8.56zm9.75-10.108c.22 0 .398.185.398.411a.405.405 0 0 1-.398.411h-19.5a.405.405 0 0 1-.398-.41c0-.227.179-.412.399-.412H20.6z"/>
    </g>
</svg>
