<svg xmlns="http://www.w3.org/2000/svg" width="37" height="37" viewBox="0 0 37 37">
    <g fill="none" fill-rule="evenodd" transform="translate(1 1)">
        <circle cx="17.5" cy="17.5" r="17.5" stroke="#80c241"/>
        <path fill="#80c241" fill-rule="nonzero" d="M13.832 12.01c-.965 0-1.75.785-1.75 1.75s.785 1.75 1.75 1.75 1.75-.785 1.75-1.75-.785-1.75-1.75-1.75zm0 .687c.483 0 .892.31 1.033.753H12.8c.14-.443.55-.753 1.033-.753zm0 2.17c-.483 0-.893-.354-1.033-.753h2.066c-.14.399-.55.753-1.033.753zM17.832 9.885c-1.103 0-2 .897-2 2s.897 2 2 2 2-.897 2-2-.897-2-2-2zm-.405 3.18c-.456-.16-.861-.628-.861-1.18 0-.552.405-1.02.86-1.18v2.36zm.76 0v-2.36c.506.16.86.628.86 1.18 0 .552-.354 1.02-.86 1.18zM13.562 6.01c-.827 0-1.5.673-1.5 1.5v1.524c0 .827.673 1.5 1.5 1.5.828 0 1.5-.673 1.5-1.5V7.51c0-.827-.673-1.5-1.5-1.5zm.786 3.024a.787.787 0 0 1-1.571 0v-.381h1.571v.38zm0-1.095h-1.571V7.51a.787.787 0 0 1 1.571 0v.429z"/>
        <path fill="#80c241" fill-rule="nonzero" d="M24.564 16.137l.434.394 2.617-2.877a1.496 1.496 0 0 0 .25-1.626 1.496 1.496 0 0 0-2.29-.58l-7.096 5.331H8.918a.919.919 0 0 0 0 1.836h.338c.116 3.086 2.078 5.742 4.823 6.914h-1.43v.586h8.75v-.586h-1.393c2.746-1.172 4.707-3.828 4.823-6.914h.339a.919.919 0 0 0 0-1.836h-5.712l6.471-4.863c.16-.12.357-.19.557-.19.375 0 .692.202.846.545a.903.903 0 0 1-.15.993l-2.616 2.873zm-7.521 9.392c-3.876 0-7.046-3.086-7.2-6.914h14.4c-.154 3.828-3.325 6.914-7.2 6.914zm8.125-8.164a.332.332 0 0 1 0 .664H8.918a.332.332 0 0 1 0-.664h16.25z"/>
    </g>
</svg>
