<svg xmlns="http://www.w3.org/2000/svg" xmlns:xlink="http://www.w3.org/1999/xlink" width="218" height="220" viewBox="0 0 218 220">
    <defs>
        <path id="a" d="M.081.436h165.837v172.868H.081z"/>
        <path id="b" d="M.151.115H10.82v15.423H.15z"/>
        <path id="d" d="M.31.115h10.668v15.423H.31z"/>
    </defs>
    <g fill="none" fill-rule="evenodd">
        <path fill="#EFEFEF" d="M208.84 109.872c0 51.48-41.732 93.214-93.212 93.214-51.48 0-93.212-41.734-93.212-93.214 0-51.479 41.732-93.212 93.212-93.212 51.48 0 93.212 41.733 93.212 93.212"/>
        <path stroke="#CCC" stroke-width="2" d="M36.28 127H.409M39.016 137H13.248"/>
        <path stroke="#C6C6C6" stroke-linecap="round" stroke-linejoin="round" stroke-width="2" d="M216.786 39.719l-5.63 6.384-5.63-6.384-5.63 6.384-5.632-6.384-5.63 6.384-5.63-6.384-5.632 6.384-5.63-6.384-5.632 6.384-5.63-6.384-5.63 6.384"/>
        <path stroke="#CCC" stroke-width="2" d="M116.205 5.47a3.862 3.862 0 1 1-7.725-.002 3.862 3.862 0 0 1 7.725.001z"/>
        <path stroke="#CCC" stroke-linecap="round" stroke-linejoin="round" stroke-width="2" d="M93.885 43.93l-4.965-4.965L93.885 34l4.966 4.966z"/>
        <g>
            <path fill="#DADADA" d="M47.932 200.42l12.127-8.296L183.177 195v6.396H154.03l8.233 17.925-2.756-1.982-18.016-11.617-38.182-1.752-16.791 15.351 8.72-13.563z"/>
            <path fill="#000" d="M96.877 197.878s-9.801 18.486-9.77 18.16c.032-.325 2.168 1.302 2.168 1.302l13.159-19.462h-5.557z"/>
            <g transform="translate(78.891 203.856)">
                <mask id="c" fill="#fff">
                    <use xlink:href="#b"/>
                </mask>
                <path fill="#000" d="M3.21 13.044L.424 5.96C-.446 3.744.845 1.272 3.167.713L5.185.226c2.322-.56 4.606 1.052 4.846 3.421l.768 7.57a3.928 3.928 0 0 1-3.172 4.25 3.944 3.944 0 0 1-4.417-2.423" mask="url(#c)"/>
            </g>
            <path fill="#000" d="M151.906 197.878s9.8 18.486 9.77 18.16c-.033-.325-2.168 1.302-2.168 1.302l-13.16-19.462h5.558z"/>
            <g transform="translate(158.762 203.856)">
                <mask id="e" fill="#fff">
                    <use xlink:href="#d"/>
                </mask>
                <path fill="#000" d="M7.919 13.044l2.786-7.084c.871-2.216-.42-4.688-2.742-5.247L5.945.226c-2.323-.56-4.607 1.052-4.847 3.421l-.768 7.57a3.93 3.93 0 0 0 3.172 4.25 3.943 3.943 0 0 0 4.417-2.423" mask="url(#e)"/>
            </g>
            <path fill="#000" d="M71.189 159.06l-22.26-3.452v1.726l22.26 7.296zM182.896 139.468c-2.467-.114-4.392-2.219-4.277-4.677l.144-3.087c.115-2.458 2.227-4.376 4.694-4.262 2.467.114 4.392 2.22 4.277 4.677l-.143 3.088c-.115 2.458-2.227 4.375-4.695 4.261"/>
            <path fill="#000" d="M177.551 155.913l5.828-3.703a7.256 7.256 0 0 0 2.438-9.691l-3.679-6.527h2.813l5.962 6.723a7.253 7.253 0 0 1-.984 10.551l-9.223 7.158-3.155-4.511z"/>
            <path fill="#FFF" d="M71.249 197.878l-4.558-82.7h116.486l-4.848 82.7z"/>
            <path stroke="#000" stroke-linecap="round" stroke-linejoin="round" stroke-width="3" d="M71.249 197.878l-4.558-82.7h116.486l-4.848 82.7z"/>
            <path fill="#BBB" d="M154.031 131.94h19.93l.186 1.156-20.116.155zM154.031 135.601h19.93l.186 1.156-20.116.154zM154.031 139.262h19.93l.186 1.155-20.116.154zM154.031 142.922h14.949l.14 1.156-15.089.154z"/>
            <path fill="#78B437" d="M66.69 115.177l1.038 10.12h114.256l1.193-10.12z"/>
            <path stroke="#000" stroke-linecap="round" stroke-linejoin="round" stroke-width="3" d="M66.69 115.177l1.038 10.12h114.256l1.193-10.12z"/>
            <path fill="#FFF" d="M163.022 120.185c0 1.216-.989 2.202-2.21 2.202-1.22 0-2.21-.986-2.21-2.202s.99-2.201 2.21-2.201c1.221 0 2.21.985 2.21 2.201M170.205 120.185c0 1.216-.99 2.202-2.21 2.202s-2.21-.986-2.21-2.202.99-2.201 2.21-2.201 2.21.985 2.21 2.201M177.388 120.185c0 1.216-.99 2.202-2.21 2.202s-2.21-.986-2.21-2.202.99-2.201 2.21-2.201 2.21.985 2.21 2.201"/>
            <path stroke="#000" stroke-linecap="round" stroke-linejoin="round" stroke-width="4" d="M93.484 142.875l17.043 13.222M110.527 142.875l-17.043 13.222M136.937 143.426l17.043 13.221M153.98 143.426l-17.043 13.221M108.643 177.517c9.278-9.244 24.32-9.244 33.6 0"/>
            <path fill="#FFF" d="M41.311 92.266l8.679 94.164 4.563-.103L43.75 92.093z"/>
            <path stroke="#000" stroke-linecap="round" stroke-linejoin="round" stroke-width="3" d="M41.311 92.266l8.679 94.164 4.563-.103L43.75 92.093z"/>
            <path fill="#000" d="M49.22 163.586c-2.467-.114-4.392-2.219-4.277-4.677l.143-3.087c.115-2.458 2.227-4.376 4.695-4.262 2.467.115 4.391 2.219 4.277 4.677l-.144 3.088c-.115 2.457-2.227 4.375-4.694 4.26"/>
            <path fill="#FFD255" d="M31.547 115.653L11.02 99.123l-2.783-26.15L24.828 52.52l26.247-2.772 20.528 16.53 2.784 26.15-16.592 20.451z"/>
            <path stroke="#000" stroke-linecap="round" stroke-linejoin="round" stroke-width="3" d="M31.547 115.653L11.02 99.123l-2.783-26.15L24.828 52.52l26.247-2.772 20.528 16.53 2.784 26.15-16.592 20.451z"/>
            <text fill="#000" font-family="Lato-Bold, Lato" font-size="25" font-weight="bold" letter-spacing=".02" transform="rotate(-30 117.453 45.577)">
                <tspan x="10.312" y="48.505">404</tspan>
            </text>
            <g>
                <path fill="#9B9B9B" d="M215.781 65.877l-96.528-2.72 1 46.833 19.144.605-1.334 12.378 17.595-10.52 1.874-1.284 53.795 1.702z"/>
                <path stroke="#000" stroke-linecap="round" stroke-linejoin="round" stroke-width="3" d="M215.781 65.877l-96.528-2.72 1 46.833 19.144.605-1.334 12.378 17.595-10.52 1.874-1.284 53.795 1.702z"/>
            </g>
            <g fill="#FFF" font-family="ArialNarrow-Bold, Arial Narrow" font-weight="bold">
                <text font-size="16" transform="rotate(2 -1904.75 3769.848)">
                    <tspan x="1" y="17">OOP</tspan> <tspan x="30.172" y="17" letter-spacing="-.155">S</tspan> <tspan x="38.767" y="17">.. </tspan>
                </text>
                <text font-size="10" letter-spacing="-.136" transform="rotate(2 -1890.526 3793.848)">
                    <tspan x="2" y="32">PAGE NOT FOUND</tspan>
                </text>
            </g>
            <g fill="#DADADA">
                <path d="M152.634 187.93v-21.735h22.24l-1.725 22.476zM75.945 136.556l-.492-8.265h17.682l-.804 8.759zM80.665 173.145h7.685v-6.027h-7.685zM90.67 173.145h7.685v-6.027h-7.684zM80.665 181.049h7.685v-6.027h-7.685zM90.67 181.049h7.685v-6.027h-7.684z"/>
            </g>
        </g>
    </g>
</svg>
