<svg xmlns="http://www.w3.org/2000/svg" width="82" height="24" viewBox="0 0 82 24">
    <defs>
        <linearGradient id="a" x1="91.476%" x2="-38.55%" y1="4.948%" y2="71.907%">
            <stop offset="0%" stop-color="#00A0FF"/>
            <stop offset="1%" stop-color="#00A1FF"/>
            <stop offset="26%" stop-color="#00BEFF"/>
            <stop offset="51%" stop-color="#00D2FF"/>
            <stop offset="76%" stop-color="#00DFFF"/>
            <stop offset="100%" stop-color="#00E3FF"/>
        </linearGradient>
        <linearGradient id="b" x1="107.685%" x2="-130.64%" y1="50%" y2="50%">
            <stop offset="0%" stop-color="#FFE000"/>
            <stop offset="41%" stop-color="#FFBD00"/>
            <stop offset="78%" stop-color="#FFA500"/>
            <stop offset="100%" stop-color="#FF9C00"/>
        </linearGradient>
        <linearGradient id="c" x1="86.219%" x2="-50.15%" y1="17.877%" y2="194.703%">
            <stop offset="0%" stop-color="#FF3A44"/>
            <stop offset="100%" stop-color="#C31162"/>
        </linearGradient>
        <linearGradient id="d" x1="-18.754%" x2="42.121%" y1="-54.052%" y2="24.917%">
            <stop offset="0%" stop-color="#32A071"/>
            <stop offset="7%" stop-color="#2DA771"/>
            <stop offset="48%" stop-color="#15CF74"/>
            <stop offset="80%" stop-color="#06E775"/>
            <stop offset="100%" stop-color="#00F076"/>
        </linearGradient>
    </defs>
    <g fill="none" fill-rule="nonzero">
        <rect width="82" height="24" fill="#000" rx="5"/>
        <path fill="#A6A6A6" d="M78.963.48c1.409 0 2.551 1.128 2.551 2.52v18c0 1.392-1.142 2.52-2.551 2.52H3.037C1.628 23.52.486 22.392.486 21V3C.486 1.608 1.628.48 3.037.48h75.926zm0-.48H3.037C1.36 0 0 1.343 0 3v18c0 1.657 1.36 3 3.037 3h75.926C80.64 24 82 22.657 82 21V3c0-1.657-1.36-3-3.037-3z"/>
        <path fill="#FFF" stroke="#FFF" stroke-width=".2" d="M28.998 6.153c.023.473-.156.935-.494 1.277-.378.38-.905.588-1.449.569a2.068 2.068 0 0 1-1.461-.58A1.943 1.943 0 0 1 25 5.999a1.943 1.943 0 0 1 .594-1.419A2.068 2.068 0 0 1 27.055 4c.279 0 .554.054.81.16.239.093.45.24.62.428l-.35.338a1.336 1.336 0 0 0-1.08-.453 1.552 1.552 0 0 0-1.101.447c-.29.288-.446.678-.434 1.08-.008.608.361 1.163.938 1.404a1.59 1.59 0 0 0 1.697-.3c.203-.212.32-.49.33-.779h-1.43v-.46h1.917c.017.095.026.191.026.288z"/>
        <path fill="#FFF" stroke="#FFF" stroke-width=".2" d="M31 4.493h-1.543V5.76h1.406v.48h-1.406v1.267H31V8h-2V4h2zM33.763 8h-.554V4.493H32V4h3v.493h-1.237zM36 8V4h.77v4zM38.784 8h-.56V4.493H37V4h3v.493h-1.216zM45.428 7.42a2.05 2.05 0 0 1-2.856 0A1.944 1.944 0 0 1 42 6.003a1.944 1.944 0 0 1 .572-1.418A2.03 2.03 0 0 1 44 4c.536 0 1.05.21 1.428.585.377.377.583.889.572 1.418a1.944 1.944 0 0 1-.572 1.417zm-2.486-.319a1.517 1.517 0 0 0 2.116 0c.291-.292.449-.69.435-1.098.007-.413-.16-.81-.46-1.099a1.517 1.517 0 0 0-2.117 0c-.282.297-.43.693-.41 1.099-.013.409.145.806.436 1.098z"/>
        <path fill="#FFF" stroke="#FFF" stroke-width=".2" d="M46 8V4h.61L48.5 7.113V4H49v4h-.518l-1.983-3.26V8z"/>
        <path fill="#FFF" d="M41.691 12.796c-1.435.007-2.593 1.129-2.589 2.507.005 1.379 1.17 2.494 2.606 2.492 1.435-.002 2.597-1.12 2.597-2.5a2.415 2.415 0 0 0-.755-1.782 2.621 2.621 0 0 0-1.859-.717zm0 4.017a1.59 1.59 0 0 1-1.535-.86 1.472 1.472 0 0 1 .269-1.687 1.625 1.625 0 0 1 1.732-.38 1.52 1.52 0 0 1 1.004 1.41c.02.39-.125.77-.402 1.056a1.534 1.534 0 0 1-1.068.46zm-5.699-4.017c-1.436.003-2.597 1.124-2.595 2.503.002 1.38 1.167 2.497 2.603 2.496 1.437-.001 2.6-1.12 2.6-2.5a2.415 2.415 0 0 0-.755-1.782 2.621 2.621 0 0 0-1.859-.717h.006zm0 4.017a1.59 1.59 0 0 1-1.539-.855 1.472 1.472 0 0 1 .264-1.69 1.625 1.625 0 0 1 1.733-.382 1.52 1.52 0 0 1 1.005 1.41c.02.39-.124.77-.401 1.056a1.534 1.534 0 0 1-1.068.46h.006zm-6.788-3.246v1.058h2.644a2.177 2.177 0 0 1-.612 1.335 2.765 2.765 0 0 1-2.038.776c-1.623 0-2.939-1.264-2.939-2.822 0-1.56 1.316-2.823 2.939-2.823a2.88 2.88 0 0 1 2.001.758l.778-.746a3.932 3.932 0 0 0-2.773-1.1c-1.482-.055-2.877.672-3.635 1.897a3.756 3.756 0 0 0 0 3.974c.758 1.225 2.153 1.953 3.635 1.897 1.06.046 2.089-.35 2.822-1.088a3.448 3.448 0 0 0 .955-2.481 3.32 3.32 0 0 0-.062-.665l-3.715.03zm27.736.823c-.327-.924-1.213-1.558-2.228-1.594a2.497 2.497 0 0 0-1.788.74 2.298 2.298 0 0 0-.66 1.76 2.396 2.396 0 0 0 .738 1.776 2.601 2.601 0 0 0 1.844.723 2.62 2.62 0 0 0 2.167-1.106l-.887-.588c-.27.432-.756.695-1.28.694a1.328 1.328 0 0 1-1.26-.759l3.483-1.382-.129-.264zm-3.55.835c-.026-.368.104-.73.36-1.004a1.45 1.45 0 0 1 .998-.454c.404-.026.785.182.968.529l-2.326.929zm-2.829 2.423h1.145v-7.351h-1.145v7.35zm-1.873-4.293h-.043a1.87 1.87 0 0 0-1.37-.588c-1.39.065-2.482 1.166-2.482 2.502 0 1.336 1.092 2.437 2.481 2.502a1.808 1.808 0 0 0 1.371-.588h.037v.359c0 .958-.532 1.47-1.39 1.47a1.437 1.437 0 0 1-1.31-.888l-.997.4c.384.898 1.297 1.482 2.308 1.476 1.34 0 2.448-.759 2.448-2.605v-4.452h-1.053v.412zm-1.31 3.458c-.818-.07-1.446-.728-1.446-1.518 0-.789.628-1.447 1.446-1.517.396.02.766.192 1.028.477.262.286.392.661.362 1.04.034.382-.096.76-.36 1.046a1.481 1.481 0 0 1-1.036.472h.006zm14.924-6.516H59.56v7.35h1.145V14.86h1.597a2.41 2.41 0 0 0 2.204-1.09 2.211 2.211 0 0 0 0-2.382 2.41 2.41 0 0 0-2.204-1.091zm0 3.528h-1.597V11.32h1.622c.725 0 1.313.565 1.313 1.262 0 .696-.588 1.261-1.313 1.261l-.025-.018zm7.058-1.058c-.851-.05-1.652.392-2.038 1.123l1.016.406a1.094 1.094 0 0 1 1.04-.541c.294-.033.59.049.82.227.23.178.376.437.405.72v.076a2.612 2.612 0 0 0-1.194-.282c-1.095 0-2.203.588-2.203 1.652.022.459.235.89.593 1.194.357.304.828.457 1.304.423.588.04 1.15-.23 1.47-.705h.036v.588h1.102v-2.829c0-1.288-1.016-2.035-2.32-2.035l-.03-.017zm-.14 4.028c-.374 0-.894-.182-.894-.623 0-.588.649-.782 1.224-.782.364-.009.723.076 1.04.247-.078.658-.65 1.16-1.34 1.176l-.03-.018zm6.507-3.852l-1.31 3.188h-.037l-1.359-3.188h-1.224l2.038 4.458-1.163 2.475h1.194L77 12.943h-1.273zm-10.29 4.705h1.144v-7.351h-1.144v7.35z"/>
        <path fill="url(#a)" d="M6.276 4.042a1.17 1.17 0 0 0-.273.838v13.24a1.17 1.17 0 0 0 .285.838l.044.042L14 11.59v-.174L6.32 4l-.044.042z"/>
        <path fill="url(#b)" d="M16.424 14L14 11.588v-.17L16.424 9l.053.03 2.902 1.629c.828.461.828 1.22 0 1.688l-2.89 1.624-.065.029z"/>
        <path fill="url(#c)" d="M15.994 14.63L13.466 12 6 19.748a.95.95 0 0 0 1.246.037L16 14.624"/>
        <path fill="url(#d)" d="M16 9.376L7.246 4.215A.95.95 0 0 0 6 4.252L13.472 12 16 9.376z"/>
        <path fill="#000" d="M15.928 14l-8.687 4.728a1.038 1.038 0 0 1-1.199 0l-.042.04.042.04c.355.256.844.256 1.199 0L16 14.052 15.928 14z" opacity=".2"/>
        <path fill="#000" d="M6.464 19.903c-.326-.252-.49-.575-.46-.903v.097c-.03.328.134.65.46.903l.07-.045-.07-.052zM19.333 12.924L16 14.936l.06.064 3.273-1.976c.378-.19.633-.58.667-1.024a1.314 1.314 0 0 1-.667.924z" opacity=".12"/>
        <path fill="#FFF" d="M7.528 4.299L19.39 11.19c.315.159.54.458.609.809a1.088 1.088 0 0 0-.609-.896L7.528 4.212C6.682 3.714 6 4.125 6 5.12v.093c0-.995.682-1.406 1.528-.914z" opacity=".25"/>
    </g>
</svg>
