<svg xmlns="http://www.w3.org/2000/svg" xmlns:xlink="http://www.w3.org/1999/xlink" width="200" height="200" viewBox="0 0 200 200">
    <defs>
        <path id="a" d="M86.579 18.365V.012H.1v18.353H86.58z"/>
        <path id="c" d="M.141 12.155h63.22V.205H.14z"/>
    </defs>
    <g fill="none" fill-rule="evenodd">
        <path fill="#EEE" d="M0 0h200v200H0z"/>
        <g opacity=".227">
            <g transform="translate(72.466 86.566)">
                <mask id="b" fill="#fff">
                    <use xlink:href="#a"/>
                </mask>
                <path fill="#000" d="M11.614 18.051v-3.288H3.976V.51H.1V18.05h11.514zm4.226-14.07c1.138 0 2.06-.895 2.06-2 0-1.103-.922-1.969-2.06-1.969-1.112 0-2.029.866-2.029 1.97s.917 2 2.03 2zm-1.706 14.07h3.44V5.348h-3.44v12.703zm11.08 0V8.268h2.656v-2.92h-2.657v-.525c0-1.236.65-1.843 1.628-1.843.457 0 .836.082 1.11.266l.705-2.474c-.624-.316-1.491-.525-2.495-.525-2.517 0-4.388 1.605-4.388 4.576v.525h-2.166v2.92h2.166v9.783h3.44zm13.492.314c3.956 0 6.26-2.13 7.53-4.31l-3.303-1.551c-.762 1.417-2.384 2.549-4.227 2.549-3.303 0-5.69-2.447-5.69-5.759 0-3.315 2.387-5.759 5.69-5.759 1.843 0 3.465 1.132 4.227 2.55l3.303-1.578C44.966 2.299 42.662.22 38.706.22c-5.447 0-9.643 3.656-9.643 9.074 0 5.39 4.196 9.07 9.643 9.07zm22.217-.314V5.348h-3.471V6.98c-1.054-1.315-2.49-1.945-4.034-1.945-3.335 0-5.799 2.522-5.799 6.651 0 4.263 2.52 6.679 5.799 6.679 1.597 0 3.005-.682 4.034-1.946v1.632h3.47zm-6.424-2.657c-1.973 0-3.331-1.5-3.331-3.708 0-2.18 1.358-3.68 3.331-3.68 1.14 0 2.387.63 2.953 1.472v4.47c-.566.842-1.812 1.446-2.953 1.446zm13.28 2.657V9.662c.565-.814 2.084-1.448 3.222-1.448.407 0 .702.027.95.082V5.035c-1.628 0-3.228.92-4.173 2.02V5.349h-3.443v12.703h3.443zm12.46.314c2.033 0 4.09-.603 5.392-1.759l-1.544-2.21c-.842.79-2.356 1.236-3.465 1.236-2.225 0-3.524-1.288-3.766-2.842h9.723v-.787c0-4.13-2.629-6.968-6.557-6.968-3.953 0-6.774 2.971-6.774 6.651 0 4.076 3.008 6.679 6.992 6.679zm3.034-7.888h-6.445c.133-1.261 1.056-2.71 3.194-2.71 2.278 0 3.145 1.5 3.25 2.71z" mask="url(#b)"/>
            </g>
            <g transform="translate(72.466 111.076)">
                <mask id="d" fill="#fff">
                    <use xlink:href="#c"/>
                </mask>
                <path fill="#000" d="M1.357 9.441v-3.67h2.705c1.947 0 3.059-1.274 3.059-2.784 0-1.505-1.097-2.783-3.059-2.783H.142v9.237h1.215zm2.562-4.695H1.357V1.23h2.562c1.153 0 1.943.719 1.943 1.757 0 1.04-.79 1.759-1.943 1.759zm10.65 4.695V4.719c0-1.455-.775-2.132-2.252-2.132-1.069 0-2.034.568-2.515 1.133V.204h-1.1v9.237h1.1V4.554c.406-.541 1.227-1.041 2.077-1.041.963 0 1.59.334 1.59 1.525v4.403h1.1zm8.41 0V2.753h-1.096v1.011A3.006 3.006 0 0 0 19.5 2.587c-1.843 0-3.146 1.372-3.146 3.516 0 2.173 1.303 3.504 3.146 3.504a3.02 3.02 0 0 0 2.384-1.162v.996h1.097zm-3.202-.763c-1.434 0-2.28-1.094-2.28-2.575s.846-2.59 2.28-2.59c.863 0 1.728.5 2.106 1.082v3.019c-.378.58-1.243 1.064-2.106 1.064zm6.496.763V4.704c.325-.538 1.246-1.064 1.93-1.064.163 0 .294.012.425.027V2.602c-.965 0-1.784.523-2.355 1.218V2.753h-1.097V9.44h1.097zm13.356 0V4.607c0-1.343-.684-2.02-1.972-2.02-1.024 0-1.974.636-2.37 1.248-.207-.695-.82-1.248-1.891-1.248-1.053 0-1.987.707-2.293 1.133v-.967h-1.1V9.44h1.1V4.554c.378-.541 1.14-1.041 1.859-1.041.937 0 1.302.54 1.302 1.387V9.44h1.094V4.539c.366-.541 1.143-1.026 1.875-1.026.921 0 1.302.54 1.302 1.387V9.44h1.094zm8.417 0V2.753h-1.1v1.011a3.006 3.006 0 0 0-2.384-1.177c-1.843 0-3.146 1.372-3.146 3.516 0 2.173 1.303 3.504 3.146 3.504.997 0 1.859-.482 2.384-1.162v.996h1.1zm-3.21-.763c-1.43 0-2.28-1.094-2.28-2.575s.85-2.59 2.28-2.59c.87 0 1.732.5 2.11 1.082v3.019c-.378.58-1.24 1.064-2.11 1.064zm8.518.929c1.287 0 2.05-.497 2.59-1.162l-.731-.639c-.47.594-1.069.872-1.797.872-1.496 0-2.446-1.106-2.446-2.59 0-1.481.95-2.575 2.446-2.575.728 0 1.328.251 1.797.86l.73-.624c-.54-.662-1.302-1.162-2.59-1.162-2.105 0-3.524 1.523-3.524 3.501 0 1.981 1.419 3.519 3.525 3.519zm6.776 2.548c1.74 0 3.23-.901 3.23-2.797V2.753h-1.093v4.79c-.412.526-1.23 1.011-2.077 1.011-.969 0-1.597-.36-1.597-1.535V2.753h-1.1v4.583c0 1.455.778 2.135 2.256 2.135 1.053 0 1.975-.53 2.518-1.11v.997c0 1.218-.806 1.94-2.137 1.94-.847 0-1.624-.281-2.15-.902l-.559.748c.716.68 1.538 1.011 2.71 1.011z" mask="url(#d)"/>
            </g>
        </g>
        <g fill="#000" opacity=".227">
            <path d="M53.89 122.207a.514.514 0 0 1-.518-.51c.018-.277.203-.493.511-.494a.49.49 0 0 1 .515.509.5.5 0 0 1-.508.495M53.881 123.517a.501.501 0 0 1-.504-.496c-.005-.276.25-.512.527-.503.27.009.5.248.493.514a.51.51 0 0 1-.516.485M53.053 91.382a.48.48 0 0 1-.476.497.487.487 0 0 1-.515-.483.508.508 0 0 1 .501-.505.502.502 0 0 1 .49.49M53.052 100.623a.475.475 0 0 1-.49.481.489.489 0 0 1-.5-.497.51.51 0 0 1 .494-.49.5.5 0 0 1 .496.506M48.58 101.104a.476.476 0 0 1-.498-.474.5.5 0 0 1 .49-.513.509.509 0 0 1 .501.505.488.488 0 0 1-.494.482M57.034 113.803c-.003.286-.217.488-.51.48a.49.49 0 0 1-.48-.495.515.515 0 0 1 .495-.49.494.494 0 0 1 .495.505M49.907 105.058a.482.482 0 0 1-.498-.497.5.5 0 0 1 .492-.488c.277 0 .503.228.5.505a.488.488 0 0 1-.494.48M53.88 105.058a.479.479 0 0 1-.485-.509.496.496 0 0 1 .5-.476c.27.007.489.226.49.492a.49.49 0 0 1-.504.493M53.89 95.834a.484.484 0 0 1-.497-.478.5.5 0 0 1 .493-.51c.274 0 .504.233.5.506a.489.489 0 0 1-.496.482M51.226 95.833a.487.487 0 0 1-.492-.484.504.504 0 0 1 .503-.503.5.5 0 0 1 .49.514.483.483 0 0 1-.501.473M45.919 90.563a.488.488 0 0 1-.496-.48.498.498 0 0 1 .497-.507.5.5 0 0 1 .495.507.488.488 0 0 1-.496.48M45.916 109.015a.488.488 0 0 1-.493-.484.5.5 0 0 1 .5-.504.5.5 0 0 1 .493.51.488.488 0 0 1-.5.478M57.878 110.33c-.285.002-.49-.19-.497-.47a.5.5 0 0 1 .484-.518.514.514 0 0 1 .505.503.488.488 0 0 1-.492.484M51.23 109.015a.488.488 0 0 1-.495-.503.496.496 0 1 1 .992.023.486.486 0 0 1-.496.48M52.557 110.33a.488.488 0 0 1-.496-.48.51.51 0 0 1 .5-.507.499.499 0 0 1 .49.511.475.475 0 0 1-.494.476M43.266 110.329a.491.491 0 0 1-.502-.474.515.515 0 0 1 .496-.512.494.494 0 0 1 .493.507c-.004.284-.2.477-.487.479M60.532 114.285a.487.487 0 0 1-.501-.497.502.502 0 0 1 .492-.49.499.499 0 0 1 .5.504.484.484 0 0 1-.491.483M53.048 119.058a.464.464 0 0 1-.47.496.488.488 0 0 1-.516-.478c0-.275.231-.51.5-.508.265.002.482.22.486.49M51.24 99.789a.49.49 0 0 1-.505-.495.497.497 0 0 1 .992.006.486.486 0 0 1-.487.489M49.906 99.788a.483.483 0 0 1-.496-.476.494.494 0 0 1 .49-.51.5.5 0 0 1 .5.481.49.49 0 0 1-.494.505M43.26 101.105a.487.487 0 0 1-.494-.482.507.507 0 0 1 .5-.506.502.502 0 0 1 .491.513.479.479 0 0 1-.497.475M40.614 99.789a.486.486 0 0 1-.502-.474.497.497 0 1 1 .992-.013.488.488 0 0 1-.49.487M55.223 118.24a.488.488 0 0 1-.504-.494.503.503 0 0 1 .489-.492.5.5 0 0 1 .503.499.484.484 0 0 1-.488.487M42.43 99.306a.483.483 0 0 1-.491.482.49.49 0 0 1-.5-.499.5.5 0 0 1 .494-.486c.278-.001.5.225.496.503M45.93 99.789a.488.488 0 0 1-.507-.493.5.5 0 0 1 .486-.495.5.5 0 0 1 .507.497.487.487 0 0 1-.486.49M55.216 99.789a.489.489 0 0 1-.497-.502.5.5 0 0 1 .495-.484c.276-.001.503.23.497.504a.487.487 0 0 1-.495.482M66.33 108.52a.48.48 0 0 1-.477.494.496.496 0 0 1-.513-.488.503.503 0 0 1 .506-.497.49.49 0 0 1 .484.492M57.877 109.015a.483.483 0 0 1-.499-.475.496.496 0 0 1 .489-.513.502.502 0 0 1 .502.502.49.49 0 0 1-.492.486M57.86 99.789a.484.484 0 0 1-.482-.492.496.496 0 0 1 .506-.496c.268.009.485.23.485.497a.49.49 0 0 1-.509.491M55.21 109.015a.488.488 0 0 1-.491-.487.5.5 0 0 1 .503-.5.5.5 0 0 1 .49.513.488.488 0 0 1-.503.474M49.892 109.014a.487.487 0 0 1-.483-.513.496.496 0 0 1 .99.022.49.49 0 0 1-.507.491M56.535 106.373a.485.485 0 0 1-.49-.484c-.001-.267.247-.512.507-.502a.5.5 0 0 1 .483.519c-.009.28-.213.47-.5.467M49.909 95.833a.484.484 0 0 1-.5-.496.5.5 0 0 1 .49-.49.501.501 0 0 1 .501.503.487.487 0 0 1-.491.483M57.038 95.336a.483.483 0 0 1-.476.498.488.488 0 0 1-.515-.483.505.505 0 0 1 .5-.505.5.5 0 0 1 .49.49M57.036 104.561a.478.478 0 0 1-.474.498.49.49 0 0 1-.516-.482.508.508 0 0 1 .5-.505c.268.003.486.22.49.49M51.225 105.06a.486.486 0 0 1-.49-.486.502.502 0 0 1 .502-.501.499.499 0 0 1 .49.513.483.483 0 0 1-.502.473M57.86 101.105a.48.48 0 0 1-.483-.49.5.5 0 0 1 .506-.497.508.508 0 0 1 .487.497.488.488 0 0 1-.51.49M45.926 97.15a.481.481 0 0 1-.503-.47.507.507 0 0 1 .489-.517c.27-.005.505.23.503.502a.482.482 0 0 1-.489.484M47.739 96.664c-.002.291-.209.489-.507.482a.484.484 0 0 1-.482-.49.518.518 0 0 1 .49-.495.5.5 0 0 1 .499.503M48.577 105.058a.47.47 0 0 1-.492-.476.494.494 0 0 1 .49-.51c.268 0 .504.24.5.508a.489.489 0 0 1-.498.478M47.738 104.573a.476.476 0 0 1-.507.485.49.49 0 0 1-.483-.493c.001-.265.248-.502.515-.493.267.01.478.232.475.501M41.94 105.06a.487.487 0 0 1-.502-.475.501.501 0 0 1 .492-.512.5.5 0 0 1 .5.502.484.484 0 0 1-.49.484M53.887 97.15a.479.479 0 0 1-.494-.478.5.5 0 0 1 .495-.508c.27-.001.503.238.497.508a.486.486 0 0 1-.498.478M57.034 96.656a.462.462 0 0 1-.474.49.487.487 0 0 1-.515-.48.52.52 0 0 1 .483-.504.499.499 0 0 1 .506.494M51.727 103.243a.488.488 0 0 1-.499.5.491.491 0 0 1-.494-.483.495.495 0 1 1 .992-.017M47.26 77.382a.491.491 0 0 1-.51-.489.495.495 0 1 1 .99-.004.48.48 0 0 1-.48.493M51.724 80.844a.484.484 0 0 1-.502.492.49.49 0 0 1-.488-.488.5.5 0 0 1 .484-.497.493.493 0 0 1 .506.493M51.232 118.24a.488.488 0 0 1-.498-.48.496.496 0 1 1 .992 0 .485.485 0 0 1-.494.48M56.54 115.599a.484.484 0 0 1-.495-.479c-.004-.265.24-.513.502-.507a.498.498 0 0 1 .488.513c-.006.281-.207.474-.495.473M47.738 115.114c0 .292-.204.489-.503.484a.484.484 0 0 1-.486-.488.52.52 0 0 1 .49-.498.5.5 0 0 1 .5.502M63.193 114.285a.483.483 0 0 1-.504-.47.501.501 0 0 1 .486-.517.503.503 0 0 1 .506.5.487.487 0 0 1-.488.487M47.738 113.787a.475.475 0 0 1-.495.497.491.491 0 0 1-.495-.48.515.515 0 0 1 .502-.506c.266.001.485.22.488.489M64.497 112.97a.49.49 0 0 1-.482-.496.499.499 0 0 1 .51-.492c.28.01.497.245.482.521a.49.49 0 0 1-.51.466M51.725 112.482a.487.487 0 0 1-.487.488.492.492 0 0 1-.503-.497.498.498 0 0 1 .49-.49.493.493 0 0 1 .5.5M51.225 110.667a.49.49 0 0 1 .5.498.487.487 0 0 1-.488.486.492.492 0 1 1-.012-.984M66.334 109.832a.48.48 0 0 1-.474.498.487.487 0 0 1-.518-.48.508.508 0 0 1 .5-.507.503.503 0 0 1 .492.489M57.875 91.879a.476.476 0 0 1-.496-.475.5.5 0 0 1 .49-.512.508.508 0 0 1 .5.505.489.489 0 0 1-.494.482M48.576 110.33a.477.477 0 0 1-.494-.478.5.5 0 0 1 .494-.509c.27 0 .503.237.497.51a.487.487 0 0 1-.497.477M57.034 90.069a.48.48 0 0 1-.476.493.495.495 0 0 1-.514-.487.502.502 0 0 1 .506-.498.49.49 0 0 1 .484.492M51.224 90.563a.488.488 0 0 1-.489-.488.496.496 0 1 1 .991.015.487.487 0 0 1-.502.473M51.23 114.285a.486.486 0 0 1-.495-.48.502.502 0 0 1 .497-.506c.276 0 .5.23.494.508a.485.485 0 0 1-.496.478M57.036 103.253c0 .272-.21.486-.483.491a.495.495 0 0 1-.507-.493.5.5 0 0 1 .487-.494.492.492 0 0 1 .503.496M55.19 103.743a.493.493 0 0 1-.471-.506.496.496 0 1 1 .99.052.493.493 0 0 1-.52.454M53.9 102.758a.502.502 0 0 1 .486.496.495.495 0 0 1-.51.49.486.486 0 0 1-.48-.515.492.492 0 0 1 .505-.47M57.87 114.284a.476.476 0 0 1-.49-.48.496.496 0 0 1 .494-.505.51.51 0 0 1 .496.51.49.49 0 0 1-.5.475M49.41 103.246c0-.266.217-.484.487-.488a.493.493 0 0 1 .012.986.488.488 0 0 1-.5-.498M47.742 103.241a.487.487 0 0 1-.496.503.493.493 0 1 1 .002-.987c.27 0 .488.215.494.484M44.097 103.25a.495.495 0 0 1 .992.003.492.492 0 0 1-.51.49.488.488 0 0 1-.482-.493M41.927 102.758a.494.494 0 1 1 .016.986.492.492 0 1 1-.016-.986M51.725 101.935a.497.497 0 0 1-.992-.002c0-.273.234-.498.51-.49a.485.485 0 0 1 .482.492M60.52 109.014a.49.49 0 0 1-.49-.488.496.496 0 1 1 .99.016.484.484 0 0 1-.5.472M57.038 100.61a.48.48 0 0 1-.478.495.488.488 0 0 1-.514-.485.509.509 0 0 1 .504-.503.502.502 0 0 1 .488.493M63.185 109.014a.485.485 0 0 1-.495-.479.494.494 0 0 1 .493-.507.5.5 0 0 1 .497.483.49.49 0 0 1-.495.503M51.239 115.6a.486.486 0 0 1-.505-.491.51.51 0 0 1 .49-.494.501.501 0 0 1 .502.501.479.479 0 0 1-.487.485M64.516 109.015a.488.488 0 0 1-.5-.498.5.5 0 0 1 .491-.49.498.498 0 0 1 .5.503.487.487 0 0 1-.491.485M57.036 116.44a.487.487 0 0 1-.49.484.496.496 0 0 1-.5-.5.5.5 0 0 1 .494-.486c.281-.001.5.22.496.502M47.742 100.626a.481.481 0 0 1-.494.479.486.486 0 0 1-.498-.5.507.507 0 0 1 .497-.488c.274 0 .5.232.495.509M44.586 110.33a.479.479 0 0 1-.488-.483.5.5 0 0 1 .498-.503c.271.003.501.243.492.513a.486.486 0 0 1-.502.473M57.034 117.755a.48.48 0 0 1-.487.485.493.493 0 0 1-.503-.497.503.503 0 0 1 .515-.489c.269.01.478.23.475.501M59.197 99.788a.485.485 0 0 1-.492-.481.498.498 0 0 1 .497-.505c.272 0 .5.235.494.51a.49.49 0 0 1-.499.476M57.864 118.24a.483.483 0 0 1-.486-.487c-.001-.28.227-.506.502-.5a.504.504 0 0 1 .49.493.491.491 0 0 1-.506.495M59.201 118.24a.486.486 0 0 1-.497-.478.498.498 0 0 1 .494-.509.5.5 0 0 1 .498.506.49.49 0 0 1-.495.482M67.156 109.014a.484.484 0 0 1-.481-.491c0-.28.23-.504.505-.495a.5.5 0 0 1 .485.496.49.49 0 0 1-.509.49M57.036 99.293a.483.483 0 0 1-.477.495.492.492 0 0 1-.514-.486.501.501 0 0 1 .504-.5c.27.004.484.22.487.49M44.596 109.014a.48.48 0 0 1-.496-.475.493.493 0 0 1 .487-.51.502.502 0 0 1 .503.479.493.493 0 0 1-.494.506M66.675 107.194a.488.488 0 0 1 .493-.482c.277 0 .503.229.497.505a.497.497 0 0 1-.497.481.488.488 0 0 1-.493-.504M53.054 107.204c0 .28-.223.5-.504.494a.493.493 0 1 1 .018-.986c.27.005.485.222.486.492M44.591 106.711a.493.493 0 1 1 0 .987.487.487 0 0 1-.494-.481.492.492 0 0 1 .494-.506M43.753 107.204a.485.485 0 0 1-.477.495.5.5 0 0 1-.512-.491.499.499 0 0 1 .508-.494.48.48 0 0 1 .481.49M66.33 105.89c-.002.293-.207.489-.506.482a.488.488 0 0 1-.483-.49.52.52 0 0 1 .492-.495.5.5 0 0 1 .497.503M63.177 106.376a.48.48 0 0 1-.488-.485.502.502 0 0 1 .502-.502.51.51 0 0 1 .49.494.488.488 0 0 1-.504.493M62.345 109.852a.467.467 0 0 1-.49.477.47.47 0 0 1-.49-.5.498.498 0 0 1 .491-.486c.273 0 .494.23.49.51M53.89 109.014a.484.484 0 0 1-.496-.478.494.494 0 0 1 .492-.508.5.5 0 0 1 .499.482.49.49 0 0 1-.495.504M44.098 112.47a.492.492 0 0 1 .491-.487.492.492 0 1 1 .005.986.486.486 0 0 1-.496-.5M47.739 112.467a.485.485 0 0 1-.493.503.496.496 0 0 1-.498-.48.5.5 0 0 1 .498-.506c.27.001.488.214.493.483M51.23 106.375a.486.486 0 0 1-.496-.478.51.51 0 0 1 .498-.508.5.5 0 0 1 .493.51.479.479 0 0 1-.495.476M49.41 112.47a.492.492 0 0 1 .49-.486.492.492 0 0 1 .007.985.486.486 0 0 1-.497-.5M53.877 110.33a.48.48 0 0 1-.484-.49.5.5 0 0 1 .506-.496.508.508 0 0 1 .486.496.488.488 0 0 1-.508.49M55.217 111.982c.276.001.502.233.495.508a.49.49 0 0 1-.498.48.49.49 0 0 1-.495-.483.499.499 0 0 1 .498-.505M59.696 112.47a.491.491 0 0 1-.5.5.488.488 0 0 1-.492-.485.496.496 0 0 1 .992-.015M61.021 112.485a.486.486 0 0 1-.49.485.493.493 0 1 1-.008-.987.493.493 0 0 1 .498.502M47.739 108.53a.48.48 0 0 1-.488.484.493.493 0 0 1-.503-.498.502.502 0 0 1 .495-.488c.276-.003.5.223.496.503M66.332 112.487a.485.485 0 0 1-.514.482.494.494 0 0 1-.476-.5.5.5 0 0 1 .495-.486c.279 0 .5.225.495.504M45.926 114.285a.485.485 0 0 1-.503-.494.501.501 0 0 1 .49-.492.502.502 0 0 1 .503.5.486.486 0 0 1-.49.486M59.196 109.014a.486.486 0 0 1-.491-.482.5.5 0 0 1 .498-.504c.275.003.5.235.493.51a.491.491 0 0 1-.5.476M45.926 105.058a.485.485 0 0 1-.503-.493c.001-.264.222-.487.489-.492a.5.5 0 0 1 .503.5.484.484 0 0 1-.489.485M48.57 114.285a.48.48 0 0 1-.488-.485.498.498 0 0 1 .5-.502c.274.005.5.242.49.515a.488.488 0 0 1-.503.472M49.894 114.285a.482.482 0 0 1-.486-.488c0-.277.23-.504.505-.498a.502.502 0 0 1 .488.494.487.487 0 0 1-.507.492M66.33 103.258a.483.483 0 0 1-.51.485.497.497 0 0 1-.48-.497.502.502 0 0 1 .494-.488c.278-.002.5.221.496.5M53.05 97.979a.483.483 0 0 1-.48.493.5.5 0 0 1-.51-.491.499.499 0 0 1 .509-.493.48.48 0 0 1 .48.49M47.739 97.984a.487.487 0 0 1-.509.487.496.496 0 0 1-.482-.495.498.498 0 0 1 .491-.488.483.483 0 0 1 .5.496M44.582 97.489a.498.498 0 0 1 .508.493.498.498 0 0 1-.487.49.487.487 0 0 1-.503-.47.482.482 0 0 1 .482-.513M44.59 97.15a.48.48 0 0 1-.493-.478.5.5 0 0 1 .495-.508c.272 0 .503.238.497.509a.486.486 0 0 1-.498.478M48.57 95.833a.48.48 0 0 1-.487-.485.497.497 0 0 1 .5-.501c.273.005.499.242.49.514a.489.489 0 0 1-.504.472M45.908 95.833a.486.486 0 0 1-.485-.49c0-.275.235-.504.508-.497a.503.503 0 0 1 .485.497c0 .28-.223.496-.508.49M43.757 95.338a.481.481 0 0 1-.477.496.49.49 0 0 1-.514-.485.507.507 0 0 1 .503-.503.501.501 0 0 1 .488.492M59.205 94.518a.493.493 0 1 1-.01-.986.493.493 0 1 1 .01.987M53.053 94.021a.488.488 0 0 1-.5.497.492.492 0 0 1-.49-.488.495.495 0 1 1 .99-.008M53.875 90.563a.484.484 0 0 1-.481-.493c0-.277.233-.503.506-.494a.5.5 0 0 1 .485.497.491.491 0 0 1-.51.49M43.275 90.562a.496.496 0 0 1-.512-.488.5.5 0 0 1 .485-.496.49.49 0 0 1 .504.492.48.48 0 0 1-.477.492M53.053 88.756a.488.488 0 0 1-.485.49.495.495 0 0 1-.506-.494c0-.274.235-.5.51-.492a.492.492 0 0 1 .481.496M53.893 87.924a.48.48 0 0 1-.5-.495.503.503 0 0 1 .49-.492.51.51 0 0 1 .501.504.484.484 0 0 1-.491.483M48.564 87.92a.463.463 0 0 1-.479-.486c.001-.278.228-.502.503-.498a.52.52 0 0 1 .487.5.488.488 0 0 1-.511.485M45.913 87.924a.484.484 0 0 1-.49-.484.505.505 0 0 1 .503-.502c.274.005.5.242.49.515a.485.485 0 0 1-.503.471M57.038 86.11a.482.482 0 0 1-.476.497.488.488 0 0 1-.516-.482.505.505 0 0 1 .501-.504.499.499 0 0 1 .49.49M49.91 86.607a.484.484 0 0 1-.501-.495.5.5 0 0 1 .489-.49.5.5 0 0 1 .502.5.488.488 0 0 1-.49.485M45.93 86.608a.486.486 0 0 1-.507-.491.5.5 0 0 1 .486-.496.502.502 0 0 1 .507.497.487.487 0 0 1-.486.49M49.896 82.652a.484.484 0 0 1-.488-.485.501.501 0 0 1 .503-.5.503.503 0 0 1 .49.515.487.487 0 0 1-.505.47M46.415 75.565a.496.496 0 0 1-.991.019.496.496 0 0 1 .991-.019M53.891 99.789a.485.485 0 0 1-.497-.477.497.497 0 0 1 .49-.51.502.502 0 0 1 .5.503.49.49 0 0 1-.493.484M57.034 97.984a.488.488 0 0 1-.485.49.506.506 0 0 1-.505-.499.499.499 0 0 1 .515-.487.483.483 0 0 1 .475.496M44.59 99.788a.48.48 0 0 1-.49-.482.493.493 0 0 1 .494-.503c.27.003.49.22.496.486a.492.492 0 0 1-.5.5M47.742 99.298c0 .273-.21.486-.484.49a.49.49 0 0 1-.508-.491.503.503 0 0 1 .51-.496.496.496 0 0 1 .482.497M47.74 91.38a.479.479 0 0 1-.473.498.489.489 0 0 1-.517-.48.51.51 0 0 1 .477-.506.5.5 0 0 1 .513.488M44.098 91.36a.5.5 0 0 1 .512-.468.507.507 0 0 1 .477.527.49.49 0 0 1-.537.459.48.48 0 0 1-.452-.519M51.235 101.104a.487.487 0 0 1-.501-.474.51.51 0 0 1 .494-.512.501.501 0 0 1 .498.505.48.48 0 0 1-.491.48M59.19 110.329a.483.483 0 0 1-.486-.488c0-.275.234-.505.506-.498a.507.507 0 0 1 .486.52.486.486 0 0 1-.507.466M48.567 90.563a.485.485 0 0 1-.486-.488c0-.278.228-.505.503-.499.276.006.498.24.489.515a.49.49 0 0 1-.506.472M63.175 110.33a.482.482 0 0 1-.487-.487c0-.275.233-.506.505-.5a.51.51 0 0 1 .489.495.487.487 0 0 1-.507.493M49.894 101.104a.48.48 0 0 1-.486-.487c0-.276.231-.504.505-.499.263.006.485.231.487.495a.486.486 0 0 1-.506.49M44.603 110.669c.277.005.498.24.486.514a.499.499 0 0 1-.51.469.486.486 0 0 1-.48-.515.486.486 0 0 1 .504-.468M45.908 111.65a.489.489 0 0 1-.485-.49.497.497 0 0 1 .992-.001c0 .28-.224.498-.507.492M47.74 111.155a.486.486 0 0 1-.5.496.494.494 0 0 1-.49-.487.498.498 0 0 1 .503-.497.488.488 0 0 1 .487.488M49.893 110.666a.5.5 0 0 1 .507.472.49.49 0 0 1-.486.513.487.487 0 0 1-.505-.47.495.495 0 0 1 .484-.515M57.381 88.76a.48.48 0 0 1 .474-.497.496.496 0 0 1 .515.485.502.502 0 0 1-.503.5.49.49 0 0 1-.486-.488M59.695 111.176a.491.491 0 0 1-.523.474.488.488 0 0 1-.468-.507.496.496 0 0 1 .991.033M51.242 110.33a.488.488 0 0 1-.508-.49.51.51 0 0 1 .486-.496.5.5 0 0 1 .506.497.48.48 0 0 1-.484.49M49.908 110.33a.482.482 0 0 1-.5-.473.501.501 0 0 1 .49-.513.507.507 0 0 1 .503.503.487.487 0 0 1-.493.483M49.911 91.877a.481.481 0 0 1-.502-.47.5.5 0 0 1 .487-.515.507.507 0 0 1 .505.5.486.486 0 0 1-.49.485M47.245 110.33a.487.487 0 0 1-.495-.48.509.509 0 0 1 .499-.507.5.5 0 0 1 .492.51.48.48 0 0 1-.496.477M55.21 91.878a.486.486 0 0 1-.491-.484.503.503 0 0 1 .502-.502.5.5 0 0 1 .49.491.485.485 0 0 1-.502.495M43.756 92.71a.483.483 0 0 1-.484.489.494.494 0 0 1-.507-.493.5.5 0 0 1 .488-.492.491.491 0 0 1 .503.495M44.59 92.215c.277-.001.504.228.499.503a.493.493 0 0 1-.497.481.485.485 0 0 1-.494-.479.49.49 0 0 1 .492-.505M48.085 92.711a.481.481 0 0 1 .499-.494c.27.004.488.221.49.487a.5.5 0 0 1-.506.496.485.485 0 0 1-.483-.489M49.871 93.194a.48.48 0 0 1-.461-.507.484.484 0 0 1 .503-.47c.277.006.501.24.487.512-.014.282-.234.476-.529.465M53.051 108.532a.48.48 0 0 1-.489.482.488.488 0 0 1-.5-.498.504.504 0 0 1 .494-.488c.275-.003.5.225.495.504M42.43 94.032a.49.49 0 0 1-.513.486.49.49 0 0 1-.478-.499.495.495 0 1 1 .992.012M44.1 94.026c0-.279.227-.5.504-.494a.5.5 0 0 1 .486.495c0 .264-.22.486-.487.491a.486.486 0 0 1-.504-.492M47.738 94.022a.484.484 0 0 1-.499.496.499.499 0 0 1-.49-.487.5.5 0 0 1 .481-.498.49.49 0 0 1 .508.49M49.41 94.014a.493.493 0 0 1 .494-.481c.276 0 .503.231.496.505a.494.494 0 0 1-.497.48.493.493 0 0 1-.494-.504M55.205 93.531a.497.497 0 0 1 .506.495c0 .27-.214.486-.485.492a.492.492 0 0 1-.507-.47.498.498 0 0 1 .486-.517M48.578 77.382a.48.48 0 0 1-.496-.477.498.498 0 0 1 .491-.51.506.506 0 0 1 .5.505.49.49 0 0 1-.495.482M49.91 78.697a.482.482 0 0 1-.502-.47.505.505 0 0 1 .49-.516.511.511 0 0 1 .503.503.485.485 0 0 1-.491.483M51.233 119.556a.488.488 0 0 1-.5-.476.51.51 0 0 1 .496-.51c.275 0 .501.23.497.506a.48.48 0 0 1-.493.48M47.739 82.17a.477.477 0 0 1-.512.481.489.489 0 0 1-.479-.496.513.513 0 0 1 .495-.489c.278.001.5.227.496.505M53.89 82.653a.482.482 0 0 1-.497-.476.502.502 0 0 1 .492-.512.51.51 0 0 1 .5.507.488.488 0 0 1-.495.48M61.021 116.425a.49.49 0 0 1-.476.5.495.495 0 0 1-.514-.486.497.497 0 0 1 .5-.5.49.49 0 0 1 .49.486M57.379 116.42a.489.489 0 0 1 .493-.482c.277 0 .503.23.497.505a.495.495 0 0 1-.497.48.488.488 0 0 1-.493-.503M48.081 116.424a.493.493 0 0 1 .49-.487.5.5 0 0 1 .502.502.495.495 0 0 1-.516.485.488.488 0 0 1-.476-.5M64.51 115.602a.485.485 0 0 1-.495-.48.507.507 0 0 1 .499-.507.504.504 0 0 1 .494.511.483.483 0 0 1-.498.476M63.19 115.6a.479.479 0 0 1-.5-.493.502.502 0 0 1 .488-.493.511.511 0 0 1 .503.504.486.486 0 0 1-.492.482M60.53 115.6a.486.486 0 0 1-.5-.474.512.512 0 0 1 .494-.511.5.5 0 0 1 .497.506.479.479 0 0 1-.491.48M59.2 115.598c-.281 0-.49-.2-.495-.474a.505.505 0 0 1 .494-.51.514.514 0 0 1 .497.509.482.482 0 0 1-.496.475M57.877 115.6a.475.475 0 0 1-.498-.493.5.5 0 0 1 .487-.492.51.51 0 0 1 .503.503.486.486 0 0 1-.492.483M49.91 115.602a.483.483 0 0 1-.502-.493.502.502 0 0 1 .488-.493.509.509 0 0 1 .505.501.485.485 0 0 1-.49.485M48.571 115.6a.473.473 0 0 1-.488-.48.498.498 0 0 1 .497-.505.508.508 0 0 1 .493.513.486.486 0 0 1-.502.473M50.4 84.802a.491.491 0 0 1-.487.49.49.49 0 0 1-.505-.494.495.495 0 0 1 .992.004M64.516 114.283a.486.486 0 0 1-.501-.471.502.502 0 0 1 .49-.513.5.5 0 0 1 .501.48.482.482 0 0 1-.49.504M59.201 114.283a.483.483 0 0 1-.496-.498.5.5 0 0 1 .494-.486.502.502 0 0 1 .497.507.485.485 0 0 1-.495.477M55.215 114.284a.488.488 0 0 1-.496-.478.502.502 0 0 1 .497-.507.5.5 0 0 1 .494.485c.005.284-.21.5-.495.5M40.6 101.104a.481.481 0 0 1-.488-.485.502.502 0 0 1 .503-.501c.262.004.486.23.49.493a.487.487 0 0 1-.505.493M55.212 86.608a.487.487 0 0 1-.493-.483.501.501 0 0 1 .5-.504.5.5 0 0 1 .492.512.486.486 0 0 1-.5.475M41.94 101.104a.487.487 0 0 1-.502-.495.506.506 0 0 1 .491-.491.5.5 0 0 1 .501.503.483.483 0 0 1-.49.483M51.724 87.432a.474.474 0 0 1-.479.489.489.489 0 0 1-.512-.484.52.52 0 0 1 .484-.501.506.506 0 0 1 .507.496M57.038 87.443a.48.48 0 0 1-.492.482.487.487 0 0 1-.5-.498.507.507 0 0 1 .494-.49.5.5 0 0 1 .498.506M57.038 112.488a.487.487 0 0 1-.493.482.492.492 0 0 1-.499-.503.5.5 0 0 1 .496-.484c.279 0 .5.226.496.505M44.099 88.75c0-.271.211-.484.484-.488a.498.498 0 0 1 .507.495.5.5 0 0 1-.49.49.488.488 0 0 1-.501-.496M47.74 88.746a.487.487 0 0 1-.496.5.495.495 0 0 1-.494-.484.5.5 0 0 1 .5-.502.49.49 0 0 1 .49.486M48.083 112.469a.493.493 0 0 1 .49-.486.494.494 0 0 1 .004.987c-.281 0-.499-.22-.494-.501M65.007 111.158c0 .28-.222.498-.505.493a.49.49 0 0 1-.487-.49.499.499 0 0 1 .506-.495c.27.007.485.224.486.492M59.204 97.15a.482.482 0 0 1-.5-.473.502.502 0 0 1 .491-.513.507.507 0 0 1 .502.504.485.485 0 0 1-.493.482M40.114 101.931c0-.271.21-.482.485-.488a.5.5 0 0 1 .506.495.494.494 0 0 1-.488.488.488.488 0 0 1-.503-.495M55.22 106.373a.485.485 0 0 1-.5-.472.516.516 0 0 1 .493-.514.506.506 0 0 1 .498.507.475.475 0 0 1-.491.479M52.565 106.376a.485.485 0 0 1-.503-.495.507.507 0 0 1 .491-.492.502.502 0 0 1 .5.503.478.478 0 0 1-.488.484M55.216 95.833a.486.486 0 0 1-.497-.478.501.501 0 0 1 .496-.508c.274 0 .503.233.497.507a.486.486 0 0 1-.496.48M49.912 106.375a.48.48 0 0 1-.504-.491.503.503 0 0 1 .487-.495.51.51 0 0 1 .505.5c0 .27-.213.482-.488.486M48.582 106.375a.474.474 0 0 1-.499-.47.5.5 0 0 1 .486-.516.51.51 0 0 1 .504.503.486.486 0 0 1-.491.483M57.875 97.15a.478.478 0 0 1-.497-.474.5.5 0 0 1 .49-.513.508.508 0 0 1 .501.506.487.487 0 0 1-.494.482M44.598 106.376a.48.48 0 0 1-.501-.472.502.502 0 0 1 .488-.515c.27-.003.506.23.504.503a.485.485 0 0 1-.491.484M43.755 105.9a.473.473 0 0 1-.494.475.487.487 0 0 1-.495-.5.511.511 0 0 1 .498-.487.5.5 0 0 1 .491.511M57.38 103.258a.491.491 0 0 1 .497-.5.5.5 0 0 1 .494.487.497.497 0 0 1-.503.498.483.483 0 0 1-.487-.485M41.932 106.376a.485.485 0 0 1-.494-.481.508.508 0 0 1 .5-.505c.275.003.5.236.493.512a.482.482 0 0 1-.5.474M64.508 105.06a.486.486 0 0 1-.493-.484.503.503 0 0 1 .5-.504.5.5 0 0 1 .492.512.485.485 0 0 1-.5.475M55.207 97.149a.484.484 0 0 1-.488-.486.51.51 0 0 1 .505-.5.503.503 0 0 1 .487.518.48.48 0 0 1-.504.468M53.05 96.685c-.011.278-.219.469-.504.463a.486.486 0 0 1-.485-.512.516.516 0 0 1 .51-.473c.276.01.489.242.478.522M44.6 105.059a.481.481 0 0 1-.502-.493.497.497 0 0 1 .485-.494.507.507 0 0 1 .506.5.488.488 0 0 1-.488.487M59.192 95.832a.484.484 0 0 1-.486-.508.5.5 0 0 1 .502-.477.502.502 0 0 1 .488.516.485.485 0 0 1-.504.469M51.237 97.15a.487.487 0 0 1-.503-.494.511.511 0 0 1 .49-.493.5.5 0 0 1 .502.503.48.48 0 0 1-.489.483M49.901 97.147a.476.476 0 0 1-.492-.478.505.505 0 0 1 .497-.507c.266 0 .501.244.495.512a.484.484 0 0 1-.5.473M48.564 97.15a.475.475 0 0 1-.482-.489.5.5 0 0 1 .504-.497.508.508 0 0 1 .487.497.487.487 0 0 1-.509.488M55.214 105.06a.486.486 0 0 1-.495-.48.502.502 0 0 1 .498-.507c.274 0 .502.235.495.509a.485.485 0 0 1-.498.477M43.754 96.67c-.004.29-.215.486-.512.477a.486.486 0 0 1-.478-.496.515.515 0 0 1 .497-.489.498.498 0 0 1 .493.508M41.936 97.15a.485.485 0 0 1-.498-.477.507.507 0 0 1 .496-.51c.274 0 .502.233.497.508a.483.483 0 0 1-.495.48M44.592 95.833a.481.481 0 0 1-.494-.501.496.496 0 0 1 .493-.485c.274 0 .505.237.498.508a.488.488 0 0 1-.497.478M50.4 101.93a.492.492 0 0 1-.482.495.49.49 0 0 1-.51-.488.495.495 0 0 1 .504-.496.499.499 0 0 1 .489.49M43.753 101.943a.484.484 0 0 1-.488.484.503.503 0 0 1-.501-.502.496.496 0 0 1 .496-.482.479.479 0 0 1 .493.5M55.712 101.925a.487.487 0 0 1-.476.5.49.49 0 0 1-.517-.482.498.498 0 0 1 .498-.504.5.5 0 0 1 .495.486M46.415 103.245a.49.49 0 0 1-.478.499.492.492 0 0 1-.514-.486.497.497 0 0 1 .992-.013M48.081 97.97a.492.492 0 0 1 .494-.484c.277-.001.504.23.498.504a.495.495 0 0 1-.497.482.49.49 0 0 1-.495-.503M57.38 94.019a.49.49 0 0 1 .489-.486.5.5 0 0 1 .501.5.498.498 0 0 1-.516.485.483.483 0 0 1-.473-.5M47.74 101.929a.481.481 0 0 1-.476.494.495.495 0 0 1-.516-.484.5.5 0 0 1 .482-.496.485.485 0 0 1 .51.486M53.048 104.56a.47.47 0 0 1-.49.498.466.466 0 0 1-.487-.48.495.495 0 0 1 .49-.506c.265.001.483.22.487.488M41.912 102.423a.486.486 0 0 1-.474-.501.496.496 0 1 1 .992.024.487.487 0 0 1-.518.477M53.892 119.891a.492.492 0 1 1-.008.986.494.494 0 0 1 .008-.986M47.739 79.528c0 .28-.22.496-.503.492a.5.5 0 0 1-.488-.491.499.499 0 0 1 .487-.492.484.484 0 0 1 .504.491M53.394 101.94a.49.49 0 0 1 .499-.5.5.5 0 0 1 .492.488.492.492 0 0 1-.502.497.485.485 0 0 1-.49-.485M52.552 99.789a.489.489 0 0 1-.49-.487.502.502 0 0 1 .504-.5.498.498 0 0 1 .488.514.484.484 0 0 1-.502.473M45.9 101.104a.483.483 0 0 1-.477-.496.504.504 0 0 1 .515-.49c.267.013.482.24.478.504a.487.487 0 0 1-.515.482M48.083 83.47a.49.49 0 0 1 .493-.481c.276 0 .504.23.497.503a.495.495 0 0 1-.497.482.486.486 0 0 1-.493-.503M62.347 116.437a.487.487 0 0 1-.486.487.488.488 0 0 1-.497-.498.487.487 0 0 1 .486-.488.487.487 0 0 1 .497.5M57.877 101.442c.268.002.49.221.493.486a.5.5 0 0 1-.504.499.487.487 0 0 1-.486-.51.485.485 0 0 1 .497-.475M66.334 101.934a.486.486 0 0 1-.507.49.49.49 0 0 1-.485-.492.495.495 0 1 1 .992.002M51.726 116.422a.488.488 0 0 1-.497.5.488.488 0 0 1-.494-.481.496.496 0 0 1 .991-.019M44.097 101.928a.494.494 0 0 1 .489-.489.5.5 0 0 1 .502.5.49.49 0 0 1-.514.486.484.484 0 0 1-.477-.497M47.742 86.127a.483.483 0 0 1-.493.48.488.488 0 0 1-.499-.5.504.504 0 0 1 .496-.486c.276-.001.5.227.496.506M48.082 103.259a.493.493 0 0 1 .498-.502.5.5 0 0 1 .492.487.494.494 0 0 1-.5.5.486.486 0 0 1-.49-.485M55.22 115.597c-.292.002-.506-.208-.5-.492a.518.518 0 0 1 .49-.493.515.515 0 0 1 .5.484c.006.289-.2.5-.49.501M53.892 115.6a.477.477 0 0 1-.498-.471.502.502 0 0 1 .489-.514.51.51 0 0 1 .501.504.483.483 0 0 1-.492.482M47.738 84.802a.484.484 0 0 1-.481.49.5.5 0 0 1-.509-.493.5.5 0 0 1 .488-.491.49.49 0 0 1 .502.494M43.757 97.988a.487.487 0 0 1-.491.484.494.494 0 0 1-.5-.5.5.5 0 0 1 .494-.486.492.492 0 0 1 .497.502M53.049 84.8a.482.482 0 0 1-.479.492.491.491 0 0 1-.505-.493.49.49 0 0 1 .483-.492c.284-.005.5.208.501.493M55.71 84.796a.492.492 0 0 1-.48.496.493.493 0 1 1-.03-.986.495.495 0 0 1 .51.49M49.907 107.698a.493.493 0 0 1-.006-.985.497.497 0 0 1 .499.501.49.49 0 0 1-.493.484M47.74 107.219a.487.487 0 0 1-.495.479.496.496 0 0 1-.495-.505.5.5 0 0 1 .498-.481c.28.001.499.227.492.507M45.423 107.196a.497.497 0 0 1 .992.02.491.491 0 0 1-.517.481.49.49 0 0 1-.475-.501M55.22 101.103a.485.485 0 0 1-.5-.473.506.506 0 0 1 .491-.512.5.5 0 0 1 .5.503.482.482 0 0 1-.491.482M45.918 110.33a.484.484 0 0 1-.495-.479.505.505 0 0 1 .497-.508c.264.001.49.223.495.488a.484.484 0 0 1-.497.499M41.933 107.698a.49.49 0 0 1-.495-.482.498.498 0 0 1 .993-.02.49.49 0 0 1-.498.502M57.036 92.697a.484.484 0 0 1-.493.502.494.494 0 0 1-.497-.48.5.5 0 0 1 .497-.505.49.49 0 0 1 .493.483M57.882 92.215a.497.497 0 0 1 .487.49.495.495 0 0 1-.507.494.485.485 0 0 1-.483-.512c.01-.27.23-.477.503-.472M53.393 107.207c-.001-.278.227-.502.504-.496a.5.5 0 0 1 .488.493.491.491 0 0 1-.484.493.487.487 0 0 1-.508-.49M47.74 105.893a.478.478 0 0 1-.51.482.485.485 0 0 1-.48-.495.508.508 0 0 1 .493-.49.499.499 0 0 1 .498.503M55.211 107.697a.49.49 0 0 1-.492-.484.498.498 0 1 1 .992.008.49.49 0 0 1-.5.476M48.082 111.168a.493.493 0 0 1 .496-.503.5.5 0 0 1 .495.485.49.49 0 0 1-.5.5.484.484 0 0 1-.491-.482M43.753 99.288a.478.478 0 0 1-.47.5.493.493 0 0 1-.52-.48.51.51 0 0 1 .5-.505.49.49 0 0 1 .49.485M45.927 111.984a.5.5 0 0 1 .488.513.494.494 0 0 1-.504.472.493.493 0 0 1-.487-.488.498.498 0 0 1 .503-.497M43.753 108.536a.478.478 0 0 1-.492.478.495.495 0 0 1-.498-.502.516.516 0 0 1 .5-.484c.274 0 .494.228.49.508M55.216 89.246a.491.491 0 0 1-.497-.503.496.496 0 0 1 .992.022.49.49 0 0 1-.495.48M66.33 111.176a.484.484 0 0 1-.496.475.497.497 0 0 1-.493-.508.498.498 0 0 1 .503-.475.482.482 0 0 1 .486.508M63.19 110.667c.277.003.5.236.49.51a.495.495 0 0 1-.503.475.487.487 0 0 1-.487-.488.49.49 0 0 1 .5-.497M59.197 97.488a.492.492 0 0 1 .004.985.492.492 0 1 1-.004-.985M61.02 111.164a.49.49 0 0 1-.508.489.501.501 0 0 1-.483-.497.5.5 0 0 1 .49-.487.486.486 0 0 1 .501.495M62.347 107.217a.486.486 0 0 1-.491.482.488.488 0 0 1-.492-.505.487.487 0 0 1 .492-.482c.28 0 .496.223.49.505M55.214 111.651a.49.49 0 0 1-.495-.503.497.497 0 0 1 .992.025.49.49 0 0 1-.497.478M53.051 120.383a.485.485 0 0 1-.478.494.497.497 0 0 1-.512-.489.498.498 0 0 1 .506-.495.486.486 0 0 1 .484.49M59.696 116.421a.49.49 0 0 1-.474.502.49.49 0 0 1-.518-.481.495.495 0 0 1 .992-.02M55.218 119.554a.485.485 0 0 1-.499-.474.507.507 0 0 1 .493-.511c.264-.001.492.22.499.483a.483.483 0 0 1-.493.502M55.711 116.442a.492.492 0 0 1-.518.481.49.49 0 0 1-.474-.502.496.496 0 0 1 .992.021M49.915 116.923a.494.494 0 0 1-.023-.985.498.498 0 0 1 .508.494.49.49 0 0 1-.485.491M48.577 109.015a.483.483 0 0 1-.496-.48.498.498 0 0 1 .493-.508c.273 0 .503.233.499.507a.489.489 0 0 1-.496.48M59.696 107.198a.493.493 0 0 1-.499.5.492.492 0 1 1 .005-.984c.268 0 .49.218.494.484M64.505 107.698a.492.492 0 0 1-.49-.487.499.499 0 0 1 .502-.499c.27.004.487.22.49.488a.49.49 0 0 1-.502.498M51.726 97.976a.488.488 0 0 1-.502.495.492.492 0 1 1 .014-.984c.271.004.486.22.488.489M43.757 103.247a.487.487 0 0 1-.5.497.49.49 0 0 1-.49-.488.497.497 0 0 1 .502-.499c.271.005.486.22.488.49M49.89 88.262a.498.498 0 0 1 .51.491.495.495 0 0 1-.484.493.493.493 0 0 1-.026-.984M57.867 110.665a.501.501 0 0 1 .502.478.49.49 0 0 1-.492.507.484.484 0 0 1-.499-.474.494.494 0 0 1 .489-.511M57.038 111.16c0 .274-.21.486-.484.49a.491.491 0 0 1-.508-.492.495.495 0 1 1 .992.002M53.054 111.15a.485.485 0 0 1-.497.5.49.49 0 0 1-.495-.482.495.495 0 1 1 .991-.018M48.58 99.788a.479.479 0 0 1-.494-.476.493.493 0 0 1 .487-.51.511.511 0 0 1 .5.505.49.49 0 0 1-.494.481M55.209 97.486a.497.497 0 0 1 .502.499.488.488 0 0 1-.49.486.49.49 0 0 1-.502-.474.498.498 0 0 1 .49-.511M41.104 97.982a.49.49 0 0 1-.487.49.49.49 0 0 1-.504-.494c0-.268.216-.486.485-.492a.497.497 0 0 1 .506.496M51.726 107.194a.488.488 0 0 1-.494.503.492.492 0 0 1-.498-.48.496.496 0 1 1 .992-.024M45.91 93.198a.487.487 0 0 1-.487-.489.5.5 0 0 1 .506-.496.5.5 0 0 1 .487.516.488.488 0 0 1-.507.469M53.89 83.971a.481.481 0 0 1-.497-.5.493.493 0 0 1 .493-.483.501.501 0 0 1 .5.503.488.488 0 0 1-.497.48M53.053 112.483a.487.487 0 0 1-.51.487.485.485 0 0 1-.476-.498.494.494 0 0 1 .987.011M45.907 102.421c-.292-.013-.497-.23-.483-.51a.497.497 0 0 1 .99.047.483.483 0 0 1-.507.463M62.347 112.478a.484.484 0 0 1-.48.491.485.485 0 0 1-.503-.492c0-.273.211-.489.48-.494a.487.487 0 0 1 .503.495M62.35 108.526c0 .273-.21.484-.485.489a.484.484 0 0 1-.503-.494.498.498 0 0 1 .485-.494.499.499 0 0 1 .503.499M61.85 115.598a.462.462 0 0 1-.484-.48.498.498 0 0 1 .495-.504c.272.003.49.236.483.515-.007.282-.206.471-.494.469M53.049 101.931a.491.491 0 0 1-.981.003.481.481 0 0 1 .5-.49c.275.004.48.212.48.487M51.725 92.703a.476.476 0 0 1-.477.49c-.288.003-.511-.205-.514-.48a.495.495 0 0 1 .504-.495.484.484 0 0 1 .487.485M52.55 86.608a.48.48 0 0 1-.484-.49.5.5 0 0 1 .504-.498.5.5 0 0 1 .483.518.482.482 0 0 1-.504.47M45.923 106.372a.476.476 0 0 1-.5-.47.516.516 0 0 1 .492-.515.516.516 0 0 1 .5.507.476.476 0 0 1-.492.478M62.347 105.882a.473.473 0 0 1-.476.493.476.476 0 0 1-.508-.484.5.5 0 0 1 .5-.502.498.498 0 0 1 .484.493M61.861 114.285a.482.482 0 0 1-.5-.474.502.502 0 0 1 .49-.513.502.502 0 0 1 .499.503.481.481 0 0 1-.489.484M55.213 93.196a.484.484 0 0 1-.494-.502.5.5 0 0 1 .499-.48.499.499 0 0 1 .493.507.483.483 0 0 1-.498.475M51.228 83.97a.483.483 0 0 1-.493-.48.496.496 0 1 1 .992-.017.482.482 0 0 1-.499.497M52.067 103.254c0-.273.208-.49.479-.496a.491.491 0 0 1 .506.491.485.485 0 0 1-.502.494.483.483 0 0 1-.483-.49M53.05 121.709a.484.484 0 0 1-.507.486.484.484 0 0 1-.475-.497.487.487 0 0 1 .485-.489c.28-.002.5.22.498.5M53.051 80.846a.481.481 0 0 1-.48.49.482.482 0 0 1-.504-.49c0-.27.213-.488.481-.496a.495.495 0 0 1 .503.496M62.348 111.17a.485.485 0 0 1-.491.481.488.488 0 0 1-.494-.501.49.49 0 0 1 .491-.484.49.49 0 0 1 .494.503M53.893 93.19c-.286.003-.49-.189-.497-.466a.483.483 0 0 1 .486-.506.497.497 0 0 1 .504.495.482.482 0 0 1-.493.477"/>
        </g>
    </g>
</svg>
