<svg xmlns="http://www.w3.org/2000/svg" width="18" height="32" viewBox="0 0 18 32">
    <g fill="#78B437" fill-rule="evenodd">
        <path d="M15.622 19.663c.054.027.085.037.109.057.2.177.35.358.382.459-.017.002-.035.01-.042.004-.142-.143-.285-.288-.423-.432-.013-.011-.013-.039-.026-.088M17.488 19.26c-.134-.058-.443-.382-.487-.512.03.008.055.006.071.019.162.131.377.386.416.494M17.248 19.788c.003.071-.054.137-.122.14-.062.003-.115-.048-.125-.116-.007-.077.043-.143.112-.148.068-.008.131.05.135.124"/>
        <path d="M17.115 19.663c.066-.005.133.064.133.136-.002.07-.054.128-.118.131a.125.125 0 0 1-.129-.117c-.007-.075.046-.144.114-.15"/>
        <path d="M17.245 19.8c-.002.072-.05.127-.114.13-.07.004-.13-.058-.13-.133.003-.071.068-.14.132-.134.062.006.112.068.112.138M17.245 18.883c-.004.076-.064.135-.132.128-.06-.008-.112-.07-.112-.136.001-.073.066-.133.134-.126a.128.128 0 0 1 .11.134M9.803 28.907c.047.04.094.083.162.138.044-.08.074-.136.11-.189.077-.111.147-.229.234-.326.079-.087.153-.071.225.024.096.128.096.211-.017.298-.55.432-.842 1.027-1.01 1.704-.038.157-.059.317-.093.47-.028.13-.015.246.074.348.022.026.03.063.058.126-.243-.01-.468-.075-.687.052a55.276 55.276 0 0 1-1.543-2.586c.04-.059.074-.114.11-.173.075-.123.072-.213-.006-.302-.058-.067-.19-.111-.291-.026-.013.012-.03.018-.062.032-.07-.12-.147-.235-.208-.36-.26-.524-.513-1.048-.77-1.573a2.45 2.45 0 0 1-.036-.085.366.366 0 0 1 .008-.375.625.625 0 0 0-.338-.879c-.197-.077-.282-.205-.338-.391-.085-.3-.123-.217.1-.46.4-.437.804-.865 1.201-1.305a.615.615 0 0 0-.189-.976c-.227-.105-.474-.053-.67.156-.263.276-.525.556-.784.84-.04.043-.068.102-.123.14-.13-.31-.204-.61-.264-.931.055-.026.104-.06.16-.077a6.102 6.102 0 0 0 1.81-.864c.747-.518 1.387-1.15 1.816-1.984.122-.233.213-.483.31-.73.024-.057.018-.124.024-.187a.428.428 0 0 1-.042-.022c-.039.04-.083.077-.113.121-.25.392-.553.729-.895 1.03-.34.307-.712.563-1.101.792a6.37 6.37 0 0 1-1.386.63 3.5 3.5 0 0 1-.819.143c-.023-.1-.053-.185-.068-.274-.125-.759-.227-1.52-.244-2.29-.003-.035-.003-.073-.003-.112.003-.176.003-.174.177-.21a4.584 4.584 0 0 0 1.033-.287c.117-.046.213-.053.3.063.042.055.108.093.166.136a.547.547 0 0 0 .459.097c.161-.036.274-.127.298-.302.012-.087.057-.126.125-.162a.484.484 0 0 0 .16-.112c.036-.05.065-.128.057-.184-.04-.224.066-.38.212-.5.16-.135.345-.24.515-.367.093-.067.187-.133.268-.215a.646.646 0 0 0-.107-1.016 1.182 1.182 0 0 0-.523-.168c-.082-.012-.159-.019-.233-.071-.098-.07-.177-.033-.275.089.056.107.156.128.243.09.3-.13.555-.013.803.14a.502.502 0 0 1 .224.344.558.558 0 0 1-.098.475c-.16.207-.377.324-.615.458l.549-.738c.049-.063.096-.128.057-.22-.063-.048-.108 0-.155.037-.244.187-.476.396-.738.552-.306.187-.64.327-.96.485-.081.04-.156.03-.232-.029-.202-.148-.415-.271-.61-.424-.192-.152-.26-.365-.205-.612a.538.538 0 0 1 .202-.319c.194-.154.423-.194.657-.209.043-.004.088.03.128.05.11.046.187.023.274-.084-.083-.112-.172-.152-.266-.087-.08.056-.165.059-.25.073-.209.03-.413.079-.58.22a.64.64 0 0 0-.04.96c.154.142.337.252.509.376.057.04.113.083.174.13-.268.188-1.129.375-1.647.356-.005-.038-.015-.079-.01-.12.031-.295.059-.592.101-.884a.524.524 0 0 1 .12-.239c.097-.118.214-.215.314-.33.31-.354.346-.745.121-1.159l-.04-.087c.061-.02.112-.045.168-.055.114-.024.236-.039.35-.071.187-.055.37-.114.574-.12a.557.557 0 0 0 .304-.132c.255-.202.498-.421.744-.637.062-.054.126-.111.185-.174.05-.053.083-.114 0-.178.185-.2.362-.392.538-.585a.601.601 0 0 0 .153-.58c-.108-.444-.62-.61-.95-.308-.113.103-.213.219-.315.33l-1.046 1.122c-.22.238-.244.282-.287.625l-.367.02c.046-.166.078-.304.12-.438.233-.76.466-1.521.702-2.282.011-.04.039-.08.043-.12.036-.363.257-.596.495-.83a.934.934 0 0 0 .283-.7.713.713 0 0 0-.155-.464c-.079-.095-.121-.186-.075-.316.028-.08.026-.169.039-.27.072.016.125.03.182.04.275.047.451-.062.521-.338a.186.186 0 0 1 .098-.12c.064-.036.134-.069.177-.122.04-.046.074-.125.063-.182-.044-.221.06-.378.204-.5.166-.14.356-.249.532-.377.098-.07.193-.146.28-.229.245-.227.24-.724-.059-.95a1.155 1.155 0 0 0-.582-.214c-.09-.012-.17-.02-.251-.075-.096-.065-.181-.025-.262.095.1.108.172.136.274.071.077-.05.147-.047.224-.036.166.022.33.052.476.144.376.233.419.7.079.992-.132.111-.285.198-.428.3-.108.077-.217.154-.319.24-.125.105-.18.214-.259.464h-.576a.975.975 0 0 0-.22-.447.225.225 0 0 1-.04-.135c.015-.504-.038-1.005-.1-1.5-.002-.018.01-.034.018-.07.04.016.074.028.108.046.079.047.16.04.238-.004.066-.038.068-.105.002-.144-.08-.047-.163-.059-.253 0-.108.071-.134.053-.157-.08a10.036 10.036 0 0 0-.077-.44c-.012-.052-.008-.13-.11-.137-.007.044-.017.091-.017.134.002.164.006.324.013.484.004.082-.028.118-.102.149-.122.046-.25.095-.35.176a.637.637 0 0 0-.044.947c.09.09.194.163.298.234.079.054.115.111.096.215-.052.253-.092.51-.14.797-.06-.04-.105-.065-.145-.093a1.258 1.258 0 0 0-.993-.268c-.366.053-.623.251-.778.6-.045.1-.104.191-.17.31-.039-.078-.058-.125-.088-.17-.085-.146-.23-.209-.382-.17a.351.351 0 0 0-.264.312.37.37 0 0 0 .228.382c.131.056.282.018.384-.112.151-.197.321-.373.421-.61.11-.264.334-.392.6-.449.417-.09.774.043 1.09.32.056.05.066.098.05.163-.05.207-.094.412-.145.615a.19.19 0 0 1-.068.099c-.085.059-.172.11-.266.168a.71.71 0 0 0-.553-.2c-.319.02-.533.227-.574.555-.036.32.06.6.25.846.105.136.212.27.375.33l-.004-.003c.021.03.036.073.064.087.166.083.13.203.07.339-.045.107-.074.221-.119.349-.304-.148-.6-.17-.872.06a.76.76 0 0 0-.276.583c.293.026.58-.008.872.016-.013.1-.07.095-.122.095-.178.002-.357.002-.535.002h-.192c-.032.317.122.534.549.775-.043.126-.085.26-.128.39-.117.339-.234.675-.346 1.014a.414.414 0 0 1-.164.233c-.083.057-.153.134-.238.211-.038-.036-.079-.07-.113-.107-.35-.345-.867-.355-1.214-.02a.919.919 0 0 0-.066 1.27c.294.338.61.66.93.977.127.128.167.248.133.424-.048.256-.072.515-.108.783-.179.061-.344.142-.349.38-.002.17.06.251.313.403 0 .13.008.266-.002.4-.007.065-.036.128-.064.19-.142.293-.113.34.047.512.025.024.036.069.066.136a.406.406 0 0 1-.313-.327c-.034-.14-.032-.294-.045-.452h-.225c0 .103.007.2 0 .3a.555.555 0 0 1-.461.535c-.051.009-.109.027-.143-.056.026-.019.051-.04.081-.049.051-.018.106-.024.155-.045.202-.089.266-.257.179-.464-.132-.317-.37-.465-.64-.093-.261.357-.434.752-.466 1.204-.01.175.005.347.075.51.083.182.225.253.41.213.334-.075.765-.556.702-1.029l-.302.183c-.013-.175.238-.337.512-.345a.644.644 0 0 1 .45.146c.029.024.033.077.063.154l-.266-.142a.496.496 0 0 0 .021.323c.045.115.102.225.164.33.044.077.132.14.153.223.042.153.05.313.08.522-.17-.187-.359-.16-.54-.16h-.488v1.192h.361v-.454c.134.026.223.142.425.527-.085.134-.172.28-.278.455.12.002.23.032.31-.006.083-.037.138-.14.213-.225.027.04.06.075.078.117.034.081.083.132.177.124.087-.01.106.06.123.128.126.414.247.827.372 1.24.05.16.106.314.158.474.044.132.02.164-.105.184a2.5 2.5 0 0 0-.348.061c-.09.029-.15.006-.202-.067-.058-.079-.121-.152-.196-.245.223-.17.402-.371.41-.692-.05-.006-.095-.018-.14-.018-.225-.002-.453 0-.678-.002-.062-.002-.134.02-.179-.085.17-.039.332-.012.494-.019.159-.004.32 0 .478 0 .038-.247-.106-.527-.349-.663-.355-.195-.667-.1-.946.195-.032-.035-.064-.061-.083-.098-.4-.653-.757-1.332-1.07-2.036-.32-.733-.62-1.475-.807-2.258-.053-.221-.08-.45-.13-.673-.144-.664-.17-1.34-.148-2.015a11.45 11.45 0 0 1 .289-2.278c.178-.759.408-1.501.678-2.227.144-.388.302-.767.46-1.148a.854.854 0 0 1 .133-.218c.162-.182.264-.397.279-.647.004-.048.004-.105.027-.146.024-.042.066-.089.11-.101.158-.045.545.059.626.266-.068.087-.109.002-.158-.027-.05-.026-.102-.057-.172-.095-.004.069-.013.11-.006.148.05.385.249.667.578.84.29.15.519.03.593-.3a1.57 1.57 0 0 0-.008-.646 2.301 2.301 0 0 0-.455-.959.686.686 0 0 0-.13-.128.248.248 0 0 0-.34.018.703.703 0 0 0-.19.376.228.228 0 0 0 .028.138.395.395 0 0 0 .279.213c.049.012.1.026.18.048-.05.043-.076.08-.101.08-.353 0-.63-.402-.47-.706.189-.358.344-.733.501-1.108.22-.521.436-1.043.636-1.576.151-.4.272-.816.406-1.226a.206.206 0 0 1 .045-.08c.057.298.138.59.05.894-.012.047.005.105.01.156.016.169.055.335.025.505l-.058-.2c-.012.077-.023.158.06.196.013.083.074.102.162.116.025-.049.053-.102.085-.15.07-.108.136-.22.219-.317.102-.12.2-.107.263.039.06.134.087.282.126.424.01.04.008.083.01.123.147.057.202.045.287-.058a.786.786 0 0 0 .168-.443c.007-.079.009-.162.002-.241a.397.397 0 0 1 .096-.306c.142-.175.232-.374.242-.607.017-.367-.208-.543-.542-.42-.246.092-.348.07-.519-.125-.104-.118-.263-.134-.423-.035-.06.037-.112.087-.187.146.005-.057 0-.097.011-.134.115-.477.18-.961.213-1.45a6.322 6.322 0 0 0-.117-1.662A6.343 6.343 0 0 0 3.595.144C3.58.108 3.574.067 3.555 0c.07.008.123.008.17.022.446.136.876.317 1.29.536.542.288 1.053.625 1.546.996.023.018.042.04.076.073-.055.024-.095.04-.142.063a.689.689 0 0 0 .223.489c.16.148.332.282.5.42.093.075.191.144.319.241-.147.032-.258.012-.368.02-.02-.13-.113-.176-.217-.235-.172.134-.325.286-.412.499a.654.654 0 0 0 .074.653c.106.144.24.274.376.392.156.134.326.247.49.37a.61.61 0 0 1 .144.147c-.21.028-.41.022-.61.022a.483.483 0 0 1-.022-.048c.056-.037.109-.073.185-.128l-.23-.177c-.23.187-.424.384-.458.73l.236.015c.027-.063.053-.118.078-.179h1.025c.023.053.049.106.074.165h.228a.495.495 0 0 0-.138-.416 5.395 5.395 0 0 0-.466-.432c-.132-.11-.276-.207-.427-.319.038-.02.053-.034.068-.034.108-.004.215-.002.325-.002-.028.156.096.176.187.253.183-.146.347-.304.43-.531a.692.692 0 0 0-.06-.593 1.518 1.518 0 0 0-.42-.446c-.145-.111-.294-.213-.439-.324-.078-.061-.153-.132-.24-.207.121-.051.193-.004.26.06.325.307.658.607.973.928.268.271.515.564.77.85.04.044.07.095.114.156-.048.028-.087.05-.13.07a.928.928 0 0 0-.286 1.463c.287.329.601.637.903.954l.406.416c.017.016.039.028.066.046.215-.217.428-.43.64-.647.077.077.032.122-.008.166l-.447.483c-.234.254-.472.507-.71.761a.63.63 0 0 0-.178.521c.036.242.161.414.382.497.234.09.449.039.625-.144.236-.247.464-.499.695-.748.1-.106.196-.217.309-.345.063.116.112.199.153.284.442.941.808 1.917 1.054 2.935.187.775.294 1.566.323 2.368.007.18-.014.225-.206.239a1.011 1.011 0 0 0-.612.225c-.29.244-.315.69-.038.945.148.14.323.254.493.368.317.213.278.16.227.51-.032.208-.074.415-.112.622-.002.018-.015.032-.032.07-.06-.05-.11-.099-.164-.141-.17-.136-.325-.3-.512-.402-.432-.235-.87-.221-1.284.073-.147.103-.221.268-.3.43-.043.085-.094.164-.147.26-.057-.094-.09-.165-.138-.223a.33.33 0 0 0-.495-.02.377.377 0 0 0-.024.502c.145.16.355.185.49.027.146-.175.314-.327.414-.55.23-.515.806-.714 1.316-.493.312.134.542.377.778.61.028.027.038.094.03.134-.024.122-.064.236-.098.366-.257-.002-.513-.01-.702.213a.752.752 0 0 0-.533-.213c-.349.006-.585.23-.615.59-.027.314.075.586.264.826.087.105.166.229.306.275.03.03.062.057.094.088.061.052.127.107.19.156.06.042.12.079.203.132-.072.142-.136.276-.213.424l-.336-.238c.064-.166-.04-.227-.172-.284a.616.616 0 0 0-.106.493c.04.217.104.432.161.645.04.14.045.14-.07.284l-.106-.058c.077-.122.002-.211-.032-.315-.042 0-.07-.002-.1 0-.665.05-.946.455-.78 1.124.036.15.076.3.136.442.064.15.034.26-.094.367l-.301-.217a3.43 3.43 0 0 1 .242-.063l-.079-.245c-.293.008-.565.05-.78.32.068.053.128.102.191.15.051-.036.096-.064.16-.107.149.108.3.223.465.345l-.148.243c-.298.485-.606.966-.893 1.455-.164.28-.3.578-.44.872a.532.532 0 0 1-.181.22c-.102.064-.19.151-.29.239a4.962 4.962 0 0 1-.11-.104.854.854 0 0 0-1.212-.026.928.928 0 0 0-.082 1.257c.161.2.346.374.525.558.204.215.408.432.618.643a.46.46 0 0 1 .145.325c.015.203.053.4.055.619-.057-.075-.11-.155-.172-.223a.395.395 0 0 0-.136-.114c-.085-.035-.166.002-.225.073-.06.07-.075.16-.024.24.11.17.228.332.35.49.02.029.09.035.126.02.066-.026.126-.075.204-.125-.01.16-.161.148-.23.25.17.184.254.452.496.58.051.026.079.103.113.162.215.391.425.785.642 1.178.034.061.083.114.121.169.091-.025.072-.092.085-.142.136-.613.27-1.232.41-1.844.032-.144.085-.282.124-.418l.083.034c.017.128.036.264.049.398.002.028-.03.057-.045.085a5.715 5.715 0 0 1-.03-.17c-.013.002-.03.008-.042.01l.074.158zm.538-15.644l-.004-.006c.004.196.066.391.004.588a.485.485 0 0 0-.004.27c.034.136.034.282.049.46-.04-.079-.066-.123-.103-.194.037.22.073.265.243.302.03-.049.055-.104.09-.152.074-.112.146-.228.233-.327.079-.09.16-.081.221.022.051.081.085.177.11.27.028.108.039.217.056.325.157.038.204.028.287-.08.1-.133.17-.294.157-.462a.924.924 0 0 1 .209-.682c.119-.152.15-.348.131-.545-.02-.264-.197-.396-.446-.343-.023.004-.047.006-.068.016-.228.126-.408.071-.563-.134a.242.242 0 0 0-.156-.079c-.197-.024-.435.146-.463.35-.02.131.01.267.017.4zM8.287 17.93c-.14-.023-.189.156-.327.133 0-.026-.007-.05 0-.06.202-.323.857-.35 1.08-.043.015.02.002.06.002.112l-.306-.177c-.009.055-.017.083-.015.112.015.196.079.375.19.533.118.166.271.296.458.371.224.088.409.006.487-.225a1.14 1.14 0 0 0 .062-.326c.017-.52-.175-.966-.472-1.368-.26-.35-.485-.215-.62.081a.032.032 0 0 1-.007.019c-.124.25.025.387.172.468.05.029.115.029.17.049.028.012.053.039.115.085-.087.012-.13.029-.172.023-.26-.029-.46-.262-.472-.542-.005-.104-.007-.205-.011-.32-.09.005-.155.007-.236.014 0 .127.006.23 0 .336-.02.274-.247.503-.504.51-.032 0-.066-.025-.1-.04 0-.015 0-.027.002-.046.047-.01.094-.026.143-.036a.4.4 0 0 0 .283-.21.257.257 0 0 0 .031-.153.662.662 0 0 0-.19-.368c-.107-.101-.226-.105-.343-.014a.79.79 0 0 0-.102.102 2.268 2.268 0 0 0-.47.97c-.055.255-.072.515.021.768.083.211.236.294.44.24.385-.098.715-.57.691-.998zm1.057-3.36c.1-.107.206-.199.289-.308.234-.304.234-.635-.009-.933-.11-.136-.248-.25-.382-.361-.143-.12-.3-.224-.449-.337-.06-.047-.112-.1-.17-.152l.015-.029h.719a9.708 9.708 0 0 0-.222.221c.073.053.139.102.2.149.315-.215.474-.481.438-.725H9.56c-.024.12-.105.142-.21.138-.252-.008-.503-.008-.751 0-.109.004-.187-.014-.21-.13H8.14c.019.084.019.157.048.211.064.118.13.242.224.331.155.152.333.28.506.414.076.063.157.122.236.182l-.013.03h-.325c-.04-.113-.04-.113-.209-.212-.036.026-.074.05-.108.085-.062.059-.121.12-.175.185-.244.31-.246.663.005.965.108.13.238.242.37.35.163.133.338.25.506.383.027.02.05.056.095.11-.234-.007-.436.007-.635-.009l-.015-.045c.05-.038.1-.08.168-.135-.085-.063-.151-.11-.221-.163-.23.195-.43.39-.453.726h.238c.028-.054.055-.11.087-.17.276 0 .55.004.825 0 .13-.004.24.004.253.187.091-.006.168-.01.253-.017-.004-.046-.004-.073-.01-.095-.043-.235-.184-.402-.352-.542-.187-.156-.384-.296-.576-.444-.034-.026-.061-.06-.11-.11h.406l-.02.102.205.148zm-8.09 1.684c-.136.012-.246 0-.338.036-.27.11-.44.32-.474.625-.05.432.107.775.44 1.033a.52.52 0 0 0 .332.113c.109-.002.217 0 .323.004a.54.54 0 0 0 .474-.209c.209-.277.33-.586.302-.947a.721.721 0 0 0-.378-.592.71.71 0 0 0-.57-.063c.006-.091.013-.164.013-.235 0-.067 0-.138-.017-.203-.015-.057-.053-.102-.117-.045.01.087.023.175.034.262-.19-.18-.37-.31-.63-.179.33.341.33.341.61.32l-.003.08zm8.092-6.402c-.264-.057-.425-.006-.602.182a.777.777 0 0 0-.214.48c-.03.433.136.774.476 1.015.085.06.2.077.304.092.104.018.212.008.319.008.161.004.316-.025.425-.152.244-.29.393-.625.353-1.02A.736.736 0 0 0 9.56 9.8c-.03.004-.064.006-.109.01.007-.09.015-.162.013-.237a.895.895 0 0 0-.017-.201c-.01-.055-.049-.087-.108-.035.01.088.023.179.04.295-.349-.297-.415-.317-.619-.21.077.088.153.185.24.268.1.1.232.05.36.047-.007.045-.01.073-.015.116zM2.354 11.51c-.077.34-.224.627-.42.887-.044.056-.09.115-.129.176-.15.248-.13.57.047.801a.654.654 0 0 0 .744.207.673.673 0 0 0 .432-.64.738.738 0 0 0-.164-.461c-.204-.276-.385-.566-.466-.911-.004-.014-.021-.028-.044-.059zm5.727 9.516l-.038.006c-.036.106-.066.21-.104.31-.096.248-.25.453-.4.662a.705.705 0 0 0 .066.927.634.634 0 0 0 .878.024.693.693 0 0 0 .11-.92c-.214-.311-.431-.62-.512-1.009zm.278-13.92c-.02.065-.04.11-.053.158-.063.22-.161.424-.293.61-.064.088-.132.175-.194.269a.71.71 0 0 0 .088.896c.24.236.612.252.867.037a.694.694 0 0 0 .153-.885c-.04-.07-.09-.134-.134-.198a2.394 2.394 0 0 1-.393-.786c-.006-.028-.02-.054-.04-.1zm2.303 1.84c-.038.225-.032 1.069.006 1.197h.355V9.67c.134.061.285.276.41.55l-.282.452c.127 0 .234.029.31-.01.087-.042.15-.144.224-.231.05.083.097.16.144.233h.366l-.283-.454c.085-.136.166-.268.264-.42h-.347l-.16.221c-.084-.132-.155-.25-.231-.371.055-.04.102-.07.142-.106.105-.095.124-.22.092-.357-.026-.117-.098-.203-.217-.217-.266-.034-.532-.014-.793-.014zM5.46 2.176l.25-.401c-.23-.075-.389-.018-.49.215l-.237-.381c.058-.04.105-.067.143-.104.102-.097.127-.22.096-.357-.032-.124-.109-.215-.236-.219-.26-.01-.52-.002-.776-.002-.034.233-.028 1.057.008 1.183h.34c0-.09-.002-.165.002-.238.005-.075-.023-.158.026-.229.115.059.266.27.393.544-.085.138-.176.282-.27.43.243.083.406.014.502-.25.053.086.08.146.121.197.028.033.07.07.109.075.091.01.182.002.31.002-.11-.172-.198-.314-.291-.464zm.231 1.417c-.008-.447-.382-.798-.782-.757-.385.038-.71.412-.65.757H5.69zm5.003 8.029h1.435c.032-.38-.298-.737-.685-.755-.4-.018-.757.337-.75.755zM4.24 3.718a.736.736 0 0 0 .793.745c.368-.029.687-.398.645-.745H4.24zm6.442 8.031c.051.487.391.79.814.747a.724.724 0 0 0 .632-.747h-1.446zM7.811 9.516c-.13-.176-.253-.359-.391-.527-.07-.092-.185-.092-.274-.029-.085.063-.126.183-.064.28.121.187.255.367.38.542.17-.035.26-.134.349-.266zm-.952.937c.025-.022.05-.04.068-.065.106-.148.219-.292.318-.446.077-.116.052-.235-.046-.308-.096-.073-.215-.057-.3.05-.083.106-.16.215-.238.325-.147.205-.136.262.083.393.036.02.074.035.115.051zm-.517 8.75a25.277 25.277 0 0 0-.404-.544c-.053-.071-.134-.077-.213-.049-.134.049-.187.199-.106.333.077.124.168.241.255.36.138.19.187.192.36.02.031-.033.061-.07.108-.12zm-.938.928c.126-.176.26-.348.377-.533.068-.103.03-.225-.066-.29-.092-.065-.202-.059-.274.032-.134.173-.258.351-.383.524.085.146.187.229.346.267zM7.532 9.875c.052.071.098.134.143.199.07.093.134.19.206.278.094.111.198.124.3.044.1-.079.117-.188.04-.308-.05-.083-.11-.16-.168-.24a8.276 8.276 0 0 1-.18-.243c-.124.096-.224.177-.34.27zm-1.475 9.676c.1.14.202.28.302.422.023.03.045.061.07.085.087.084.187.09.274.017.096-.077.122-.185.051-.292-.083-.134-.18-.26-.272-.388-.03-.042-.068-.081-.091-.105-.117.09-.22.172-.334.261zm-1.07.404c-.12.174-.244.339-.352.513-.062.1-.032.203.055.278.087.073.196.077.27-.016.134-.162.253-.337.376-.505-.119-.091-.22-.173-.348-.27zm1.478-9.68c-.119.17-.246.338-.357.517-.062.097-.025.209.062.28.087.067.183.073.257-.012.142-.16.266-.337.383-.518-.12-.093-.224-.172-.345-.267z"/>
        <path d="M15.307 23.49c.054.058.101.124.164.172.158.118.329.218.483.342.173.134.296.301.266.553a.234.234 0 0 0 .108.218c.06.042.125.08.19.118.015.174-.04.276-.182.322-.112.036-.228.04-.327-.034-.126-.096-.242-.204-.363-.304-.163-.134-.309-.296-.488-.394-.414-.23-.832-.218-1.224.074-.136.102-.207.26-.278.412-.04.086-.089.166-.148.278-.077-.176-.15-.32-.325-.344-.178-.024-.288.084-.377.24a1.291 1.291 0 0 1-.554-.19c.276-.404.44-.823.237-1.343.065.02.106.022.134.042.217.15.457.244.7.328.082.03.155.096.228.144l.27-.134c-.033-.104.049-.17.12-.244.276-.292.55-.586.828-.874.235-.242.37-.522.318-.882a.17.17 0 0 1 .065-.16c.061-.052.124-.106.179-.168a.308.308 0 0 0 .073-.135c.004-.042-.018-.104-.049-.126-.028-.02-.083-.01-.12.006-.046.022-.085.062-.125.094a5.182 5.182 0 0 0-.15.107c-.191-.231-.415-.381-.7-.381-.283.002-.512.14-.693.381a5.638 5.638 0 0 0-.148-.15.792.792 0 0 0-1.092-.02.943.943 0 0 0-.175 1.176c.063.098.146.184.222.276.034.046.073.088.121.142-.138.084-.253.184-.385.23-.13.042-.276.026-.439.04.004-.084.014-.166.012-.246a1.05 1.05 0 0 0-.034-.212c-.004-.016-.047-.026-.071-.024-.008 0-.024.04-.022.058.01.07.026.14.046.244-.115-.09-.193-.174-.288-.228-.1-.054-.21-.038-.315.014.211.312.276.35.573.326.006.056.012.13-.063.102-.177-.062-.31.014-.443.118a.732.732 0 0 0-.268.474c-.012.084-.014.17-.008.256a.238.238 0 0 1-.07.193c-.85.91-1.422 2.002-1.836 3.201-.032.094-.073.188-.126.316-.014-.078-.028-.118-.028-.158.002-.41.004-.818.01-1.227a.654.654 0 0 1 .134-.386c.167-.224.2-.49.138-.762a.569.569 0 0 1 .016-.286c.167-.58.366-1.141.682-1.65a4.917 4.917 0 0 1 1.07-1.223c.566-.468 1.192-.825 1.847-1.125.597-.272 1.2-.528 1.789-.816.63-.312 1.238-.668 1.715-1.236.251-.3.442-.633.568-1.01.018-.051.037-.097.067-.181.175.246.264.496.347.732-.491.431-.885.945-1.323 1.41-.094.1-.185.199-.272.303-.234.27-.236.632-.006.87.227.24.568.232.808-.026.314-.342.623-.694.935-1.042.039-.044.081-.084.124-.126.13.184.091 1.941-.028 2.35a.357.357 0 0 1-.285-.05c-.103-.073-.186-.039-.263.091.065.102.164.122.251.068.098-.062.18-.056.295-.014a8.292 8.292 0 0 1-.555 2.08h-.499c-.055-.338-.284-.528-.546-.694-.15-.092-.298-.192-.444-.292-.01-.02-.015-.046-.029-.062a.582.582 0 0 1-.142-.326c-.03-.294.083-.508.365-.632.195-.084.398-.172.62-.05.079.042.18.02.233-.084-.081-.116-.166-.158-.256-.094-.077.054-.156.056-.24.074-.137.03-.277.062-.41.12-.214.092-.338.276-.37.528-.025.206.074.434.23.522"/>
        <path d="M17 25.534l-.244.343c-.191-.114-.276-.122-.363-.04-.087.083-.076.158.057.384-.037.036-.075.082-.12.122a4.93 4.93 0 0 1-.256.23c-.159.132-.306.277-.478.389-.234.154-.484.28-.728.416-.043.023-.091.036-.15.059-.01-.041-.02-.072-.024-.102-.038-.4-.208-.744-.468-1.05a.697.697 0 0 0-.107-.103c-.103-.075-.216-.075-.31.005a.584.584 0 0 0-.199.354c-.018.105.113.244.26.289.06.018.116.03.176.046-.01.086-.062.08-.113.077a.512.512 0 0 1-.454-.478c-.006-.086 0-.17 0-.273a4.862 4.862 0 0 1-.22-.01c-.004.083-.004.156-.008.231-.004.071.012.155-.103.19-.014-.042-.024-.076-.04-.106-.044-.09-.079-.186-.14-.263-.112-.148-.266-.158-.405-.028-.075.073-.137.159-.202.24a2.527 2.527 0 0 0-.092.128c-.453-.034-1.04-.261-1.242-.484.19-.346.444-.655.717-.966.044.027.08.05.119.068.077.036.151.073.23.098.135.045.272.07.406.114.268.09.542.152.827.147a.24.24 0 0 1 .202.087c.175.195.401.172.553-.04.026-.035.056-.067.082-.1.059-.067.115-.131.168-.199.024-.032.034-.068.054-.103.24-.454.777-.632 1.27-.43.256.105.448.289.651.462.071.06.146.12.222.176.136.099.291.108.454.084l.019.036M12.387 27.188l-.237-.15c-.012.26.075.452.201.647-.103.037-.193.07-.283.099-.369.105-.74.205-1.106.319-.182.055-.358.133-.536.2l-.121.048a.246.246 0 0 1 .02-.253c.039-.06.08-.118.114-.18a.825.825 0 0 0 .106-.435c-.005-.258-.163-.391-.381-.322-.297.093-.322.084-.515-.204l.203-.435c.354.214.721.32 1.105.35-.023.15-.053.28-.058.41-.005.129.004.264.032.388.057.243.22.326.416.219a.88.88 0 0 0 .462-.647c.01-.055.01-.112.013-.166-.115-.04-.152.143-.264.1.079-.215.382-.326.625-.22.08.036.149.112.222.172.004.003-.01.033-.018.06M12.731 15.09c-.226-.15-.461-.258-.643-.446a.501.501 0 0 1 .07-.759c.162-.117.35-.147.538-.166.072-.007.109.03.116.095a.25.25 0 0 1 .004.065l-.059 1.104c-.002.03-.013.059-.026.107M5.586 5.03c.01.477.003.925-.063 1.372-.336-.073-.559-.552-.434-.938.087-.26.267-.367.497-.434M11.445 18.279v-.52c-.146-.008-.276-.015-.418-.026v-.261l.41-.024v-.529h.214v.515c.086.018.15.031.213.047-.033.23-.033.23-.208.294 0 .098.002.207 0 .314-.01.199-.035.223-.211.19M3.606 26.522c-.134-.065-.732-.656-.85-.847.164-.038.319-.124.48-.01a.285.285 0 0 1 .087.103c.101.242.197.485.292.725.004.009-.005.02-.009.03M6.053 6.86c.12.085.163.19.15.301-.018.143.052.216.162.277.055.032.13.043.118.136-.013.085-.055.145-.134.168a.61.61 0 0 1-.212.031c-.138-.01-.174-.058-.161-.195.023-.231.05-.462.077-.719M2.087 14.806c.013.281.026.529.038.806.093-.173.067-.382.15-.57l.107.422c.009 0 .016.003.024.005l.062-.35a.195.195 0 0 0 .037.002l.05.468.019-.002.093-.954h.041c.018.134.033.273.049.418-.064.009-.087.05-.092.13-.015.197-.036.397-.057.594-.008.078-.022.155-.034.23-.01-.002-.023-.002-.033-.002-.017-.153-.031-.305-.054-.496l-.08.262c-.05-.178-.085-.316-.136-.496-.051.266-.093.487-.134.71-.014 0-.024-.003-.037-.003-.04-.293-.032-.595-.05-.927-.11.175-.122.395-.212.573-.002-.187.147-.682.249-.82M7.348 25.144l.102.387c.007 0 .014.003.02.005.022-.116.04-.227.068-.383.073.165.049.313.09.45.066-.283.056-.585.115-.91.059.102.057.185.062.266.004.07.026.146-.05.196-.022.013-.024.109-.03.165-.024.22-.043.436-.065.654a.135.135 0 0 1-.049.091l-.053-.444c-.007-.002-.014-.002-.021-.005a9.152 9.152 0 0 0-.049.155c-.019-.015-.034-.02-.038-.033-.035-.113-.066-.228-.126-.344l-.127.658c-.076-.172-.048-.32-.06-.457-.013-.144-.016-.29-.025-.47-.105.173-.121.38-.22.57.017-.21.153-.645.246-.808.05.261.012.514.078.756.035-.166.068-.331.1-.5h.032M5.819 18.05c-.002.177-.046.245-.188.283a.324.324 0 0 1-.296-.042c-.088-.066-.17-.135-.28-.225.178-.088.325-.16.464-.232l.3.216M5.054 9.354v-.21c.133-.008.263-.013.412-.019v-.437h.206c.024.26-.105.48-.153.7l-.465-.034M5.396 26.48a7.063 7.063 0 0 1-.342-.872c.212.06.362.162.43.364.057.166.06.344-.088.508M13.064 21.677c-.074.177-.13.32-.197.483-.018-.125.123-.507.237-.668.05.221.037.43.083.639l.112-.421c.077.095.116.217.121.39-.04-.081-.066-.138-.094-.196-.088.098-.02.292-.194.327-.067-.163-.013-.347-.068-.554M2.998 21.492c.024.114.055.225.071.339.01.095-.055.159-.117.246a20.062 20.062 0 0 1-.195-.314l.24-.27M10.155 19.206c-.028-.036-.055-.066-.08-.102-.095-.148-.194-.297-.277-.457a1.237 1.237 0 0 1-.128-.813c.025.163.038.337.084.49.048.153.122.295.197.432.077.139.17.264.268.41-.025.014-.046.028-.064.04M4.618 10.016l.001.005c-.161-.221-.332-.437-.422-.737a1.005 1.005 0 0 1-.03-.596c.033.28.046.544.171.751.118.2.241.393.348.621-.024-.016-.044-.03-.068-.044M9.21 15.811c.002.152-.087.253-.228.256-.147.006-.248-.097-.252-.25-.002-.134.109-.262.232-.27.132-.005.244.114.248.264m-.235.203c.106 0 .183-.086.183-.201 0-.11-.086-.201-.185-.201-.098 0-.191.102-.19.205.004.11.087.197.192.197M10.07 20.868c-.035.04-.064.077-.1.121l-.267-.203c-.08-.058-.053-.133-.033-.208.1.025.259.139.4.29M2.998 7.774c.132.002.235.122.233.274-.003.156-.092.247-.237.247-.145-.002-.242-.112-.237-.267.002-.134.12-.254.24-.254m-.008.466c.104.004.19-.08.196-.192.006-.102-.08-.205-.18-.21-.095-.008-.193.088-.196.194-.002.111.077.203.18.208M10.013 20.038c-.103-.078-.188-.14-.268-.204-.035-.026-.065-.057-.096-.085.118-.106.127-.11.226-.036.074.055.142.111.219.174-.026.049-.046.09-.081.151"/>
        <path d="M12.865 25.053c.166.123.269.132.342.046a.227.227 0 0 0 .004-.274c-.08-.099-.178-.086-.335.042.015-.106.087-.17.188-.174.116 0 .222.093.239.218.02.139-.039.256-.15.292-.122.04-.214 0-.288-.15M6.45 23.38c-.153-.08-.447-.402-.477-.516.094-.005.125.086.178.132.061.051.114.112.166.174.048.056.13.091.132.21M13.875 21.492c.028.189.05.348.075.505a.261.261 0 0 1-.033.015 6.625 6.625 0 0 0-.064-.156 4.716 4.716 0 0 1-.053.238c-.039-.126-.002-.456.075-.602M9.649 7.783c.022-.004.042-.013.05-.008.14.141.277.282.413.425.015.014.017.046.035.088-.107-.01-.143-.09-.197-.14a1.515 1.515 0 0 1-.167-.175c-.048-.057-.127-.09-.134-.19M5.18 24.046c-.072 0-.128-.06-.126-.137.004-.072.066-.134.133-.13.062.003.112.062.114.13.003.078-.05.137-.122.137M6.442 12.396c-.164-.092-.447-.402-.469-.507.114.031.441.375.469.507"/>
        <path d="M5.172 23.779c.066-.004.121.045.127.117.007.075-.044.142-.114.146-.068.004-.13-.06-.13-.135a.13.13 0 0 1 .117-.128M9.894 7.903a.13.13 0 0 1-.112.135c-.072.007-.131-.051-.133-.128-.003-.068.048-.13.109-.135.068-.01.132.053.136.128M5.18 23.127c-.065.004-.118-.047-.125-.117-.006-.075.047-.144.117-.146.06-.002.122.057.129.12.005.072-.05.142-.121.143M11.143 7.125c-.064-.004-.116-.062-.116-.132.002-.073.065-.139.13-.133.063.005.117.065.117.133 0 .077-.06.135-.13.132M6.214 12.93c.004.077-.055.14-.123.137-.062-.003-.116-.06-.117-.128-.006-.073.055-.137.123-.135a.125.125 0 0 1 .117.126M9.774 7.123a.128.128 0 0 1-.125-.121c-.005-.075.05-.14.12-.143.066-.002.12.05.123.121.006.077-.046.14-.118.143"/>
        <path d="M6.093 13.067c-.066.004-.116-.045-.12-.12-.003-.075.056-.143.12-.143.06.002.12.06.125.124a.13.13 0 0 1-.125.14"/>
        <path d="M6.218 12.936c0 .075-.061.139-.13.133-.063-.003-.115-.062-.115-.133 0-.071.05-.126.112-.132.072-.005.133.055.133.132M9.767 6.86c.062 0 .12.054.123.12.005.07-.053.139-.12.14-.068.003-.123-.063-.12-.14 0-.066.052-.12.117-.12M7.135 12.932c.004.071-.042.13-.107.137-.07.007-.134-.053-.136-.126-.003-.07.06-.141.125-.14.063.003.116.06.118.129"/>
        <path d="M5.973 12.804c.09.005.316.221.434.415-.037-.005-.068.002-.09-.015a1.568 1.568 0 0 1-.344-.4M6.214 23.907c.002.076-.057.14-.125.137-.064-.002-.114-.059-.116-.126-.002-.079.055-.141.123-.14.063.002.116.061.118.129M10.015 7.258c-.145-.097-.32-.29-.366-.399.11.004.322.234.366.399M6.295 16.92l-.101.321c-.066-.007-.136-.016-.21-.023-.003-.013-.005-.024-.01-.035l.32-.264M1.838 21.692v-.195c.057 0 .114-.011.163.001.034.008.078.05.081.079.004.027-.033.079-.064.091-.05.02-.107.017-.18.024M13.823 22.981l.08.14c.03-.102.052-.178.072-.257.011.002.023.004.035.01-.009.147-.042.292-.079.434l-.03.004c-.04-.104-.078-.21-.117-.313.011-.005.026-.01.039-.018M14.738 22.864c.017.06.031.12.052.198.086-.118.193-.11.308-.064-.066.014-.145.012-.196.053-.054.04-.08.122-.129.204-.06-.137-.057-.261-.07-.382a.246.246 0 0 0 .035-.009M9.715 6.45c-.02-.156-.04-.315-.066-.505.138.17.193.322.103.504h-.037M5.43 24.177c-.095-.009-.192-.091-.322-.256a.302.302 0 0 1-.054-.142c.145.118.276.24.375.398M2.97 17.834c-.211.212-.215.283-.024.46-.125-.005-.19-.083-.19-.228 0-.14.078-.225.214-.232M11.233 19.798c-.04.072-.07.127-.12.214-.034-.135-.06-.232-.086-.327a.148.148 0 0 0 .026-.022c.055.04.11.082.18.135M12.345 26.522c-.138.163-.242.2-.399.128.144-.045.261-.084.4-.128"/>
        <path d="M13.834 23.226a43.778 43.778 0 0 1-.05-.283l.136-.079c-.014.134-.025.245-.038.355a.431.431 0 0 1-.048.007M13.884 21.496l.023.23c-.033.019-.062.035-.123.066.019-.115.032-.208.046-.3l.054.004M9.833 20.698l-.103.16c-.031-.107-.057-.185-.081-.262a.13.13 0 0 0 .026-.018c.046.036.093.073.158.12M2.87 17.834c-.007.1-.012.172-.02.254-.128-.091-.127-.163.02-.254M13.057 24.772l-.192-.011c.085-.09.14-.079.192-.033v.044M4.404 15.573l-.269.071c.024-.108.048-.115.269-.071"/>
        <path d="M12.865 24.77c.072-.031.118-.046.192-.077-.048.112-.094.12-.192.077M14.703 21.671a4.14 4.14 0 0 0 .052-.179c.06.106.06.106-.052.18M4.194 6.122c-.071-.037-.062-.108-.051-.177.015.058.033.12.05.179l.001-.002zM8.794 28.96l-.064-.142.037-.01c.007.05.016.103.026.154l.001-.002M8.921 15.952c-.103 0-.187-.088-.19-.198-.003-.102.093-.206.188-.206.1 0 .188.093.188.203 0 .115-.08.2-.186.2m0-.063c.068-.002.125-.07.123-.145a.13.13 0 0 0-.12-.126c-.07-.004-.128.055-.128.132-.002.075.055.139.125.139M2.937 8.177c-.103-.004-.184-.097-.18-.209.004-.106.101-.201.197-.194.097.006.185.108.178.212a.19.19 0 0 1-.195.19m.006-.334c-.074 0-.124.06-.12.143.002.07.053.126.118.126.068.003.128-.06.13-.134.002-.075-.057-.137-.128-.135M8.717 13.718c-.031.158-.04.172-.16.174-.195.004-.39.004-.584 0-.123-.002-.13-.013-.162-.174h.906"/>
        <path d="M8.704 13.89h-.893c.018-.136.037-.167.127-.169.208-.005.419-.001.628-.001.1 0 .127.07.138.17M9.653 13.382c.009-.115.013-.232.03-.348.014-.1.06-.183.166-.23-.04.132-.088.24-.104.355-.017.11-.006.227-.033.342-.02-.04-.04-.083-.063-.123l.004.004zM11.027 8.888v-.195c.061 0 .116-.011.166.002.031.009.07.049.077.084.015.056-.026.091-.077.098-.048.01-.1.01-.166.011M8.855 15.818c-.07 0-.127-.064-.125-.139 0-.076.057-.135.129-.131a.13.13 0 0 1 .12.126c.001.075-.056.143-.124.144M2.877 7.774c.071-.002.13.06.128.135-.002.073-.062.137-.13.134-.065 0-.114-.055-.118-.127-.004-.082.046-.142.12-.142"/>
    </g>
</svg>
