<svg xmlns="http://www.w3.org/2000/svg" width="35" height="30" viewBox="0 0 35 30">
    <g fill="#D0021B" fill-rule="nonzero" opacity=".516">
        <path d="M34.303 25.208L20.05 1.568a3.139 3.139 0 0 0-2.674-1.51 3.139 3.139 0 0 0-2.673 1.51L.448 25.208a3.127 3.127 0 0 0-.045 3.147 3.127 3.127 0 0 0 2.718 1.587H31.63a3.127 3.127 0 0 0 2.718-1.587 3.126 3.126 0 0 0-.045-3.147zm-1.925 2.034a.86.86 0 0 1-.748.437H3.12a.86.86 0 0 1-.736-1.303L16.64 2.736a.864.864 0 0 1 .736-.415c.299 0 .58.159.736.415l14.254 23.64a.86.86 0 0 1 .012.866z"/>
        <path d="M17.386 9.367c-.86 0-1.532.462-1.532 1.28 0 2.498.294 6.088.294 8.586 0 .65.566.923 1.238.923.504 0 1.218-.273 1.218-.923 0-2.498.293-6.088.293-8.586 0-.818-.692-1.28-1.511-1.28zM17.407 21.604c-.923 0-1.616.735-1.616 1.617 0 .86.693 1.616 1.616 1.616.86 0 1.595-.756 1.595-1.616 0-.882-.734-1.617-1.595-1.617z"/>
    </g>
</svg>
