<svg xmlns="http://www.w3.org/2000/svg" width="23" height="20" viewBox="0 0 23 20">
    <g fill="#3A3A3A" fill-rule="nonzero" opacity=".3">
        <path d="M22.704 16.832L13.269 1.01A2.073 2.073 0 0 0 11.5 0c-.72 0-1.398.387-1.77 1.01L.296 16.833a2.113 2.113 0 0 0-.03 2.106A2.066 2.066 0 0 0 2.067 20h18.868c.744 0 1.434-.407 1.8-1.062a2.113 2.113 0 0 0-.03-2.106zm-1.274 1.361c-.101.18-.291.293-.496.293H2.066a.569.569 0 0 1-.496-.293.582.582 0 0 1 .009-.58l9.434-15.82a.57.57 0 0 1 .487-.279.57.57 0 0 1 .487.278l9.434 15.822c.106.177.11.4.009.58z"/>
        <path d="M11.505 6.154c-.433 0-.772.33-.772.913 0 1.78.148 4.34.148 6.12 0 .465.286.66.624.66a.625.625 0 0 0 .614-.66c0-1.78.148-4.34.148-6.12 0-.584-.35-.913-.762-.913zM11.505 15.385c-.44 0-.772.35-.772.769 0 .41.331.77.772.77.41 0 .762-.36.762-.77 0-.42-.351-.77-.762-.77z"/>
    </g>
</svg>
