<svg xmlns="http://www.w3.org/2000/svg" width="39" height="39" viewBox="0 0 39 39">
    <g fill="none" fill-rule="evenodd" transform="translate(1 1)">
        <circle cx="18.5" cy="18.5" r="18.5" fill="#FFF" stroke="#979797"/>
        <path fill="#BBB" fill-rule="nonzero" d="M24.637 23.264a37.097 37.097 0 0 1-2.49-1.051c-.234-.106-.407-.342-.618-.504a.756.756 0 0 0-.318-.156c-.38-.06-.548-.197-.639-.574-.118-.496-.202-.99-.1-1.506.045-.225.127-.37.345-.454.451-.177.894-.375 1.34-.565.333-.142.354-.26.234-.606-.383-1.095-.669-2.207-.762-3.377-.058-.738-.04-1.493-.218-2.218h-.027c-.014-.067-.024-.135-.041-.201-.323-1.28-1.689-1.974-2.834-2.048-.01 0-.018-.002-.028-.003-.088-.005-.171.008-.257.013-.484.067-.879.374-1.336.51-.598.176-.965.728-1.189 1.324-.316.846-.258 1.747-.328 2.623-.093 1.17-.377 2.282-.762 3.376-.12.348-.1.465.234.607.446.19.889.387 1.34.564.218.085.3.23.344.454.102.515.018 1.01-.098 1.506-.092.378-.26.514-.64.575a.749.749 0 0 0-.317.156c-.21.162-.384.398-.618.504-.82.375-1.647.737-2.491 1.05-1.297.482-2.152 1.32-2.363 2.737h17c-.21-1.417-1.067-2.255-2.363-2.736z"/>
    </g>
</svg>
