<svg xmlns="http://www.w3.org/2000/svg" width="37" height="37" viewBox="0 0 37 37">
    <g fill="#4A4A4A" fill-rule="nonzero">
        <path stroke="#4A4A4A" stroke-width=".5" d="M30.531 1H6.47A5.475 5.475 0 0 0 1 6.469V30.53A5.475 5.475 0 0 0 6.469 36H30.53A5.475 5.475 0 0 0 36 30.531V6.47A5.475 5.475 0 0 0 30.531 1zm3.282 29.531a3.281 3.281 0 0 1-3.282 3.282H19.594V27.25h-2.188v6.563H6.47a3.281 3.281 0 0 1-3.282-3.282V6.47A3.281 3.281 0 0 1 6.47 3.187H30.53a3.281 3.281 0 0 1 3.282 3.282V30.53z"/>
        <path d="M18.5 7.563h.131l.024-2.188H18.5c-.735 0-1.468.052-2.195.157l.316 2.165c.622-.09 1.25-.135 1.879-.135zM14.672 8.148l-.668-2.078c-.754.24-1.486.546-2.188.91l1.009 1.942c.593-.31 1.21-.568 1.847-.774z"/>
        <path d="M20.998 5.58l-.36 2.157a11.679 11.679 0 0 1 6.398 3.282l-2.65 5.293h-3.843l3.242-4.861-1.82-1.214-4.05 6.075h-5.302L9.97 11.015c.364-.37.755-.714 1.169-1.028l-1.329-1.74a11.158 11.158 0 0 0-2.028 1.94l-.406.547 3.887 7.766h14.476l3.889-7.783-.418-.547a13.49 13.49 0 0 0-8.21-4.59z"/>
    </g>
</svg>
